<svg id="Layer_2" data-name="Layer 2" xmlns="http://www.w3.org/2000/svg" viewBox="0 0 1020.46 597.09"><defs><style>.cls-1,.cls-11{fill:#1f91ff;}.cls-2,.cls-9{fill:#fff984;}.cls-10,.cls-3{fill:#ff6e7d;}.cls-4{fill:#fcf289;}.cls-5{font-size:12px;}.cls-12,.cls-16,.cls-5,.cls-6,.cls-8{font-family:Arial;}.cls-6{font-size:11.17px;}.cls-15,.cls-7{fill:none;}.cls-10,.cls-11,.cls-15,.cls-7,.cls-9{stroke:#000;}.cls-10,.cls-11,.cls-13,.cls-14,.cls-15,.cls-7,.cls-9{stroke-miterlimit:10;}.cls-8{font-size:12.47px;}.cls-12{font-size:12.59px;}.cls-13{fill:#e6e7e8;}.cls-13,.cls-14{stroke:#231f20;stroke-linecap:round;}.cls-15{stroke-width:2px;}.cls-16{font-size:14px;}.cls-17{font-style:italic;}</style></defs><title>egu_ec00600</title><rect class="cls-1" x="370.73" y="232.4" width="17.7" height="16.45"/><rect class="cls-2" x="335.45" y="232.4" width="17.7" height="16.45"/><rect class="cls-3" x="353.15" y="232.4" width="17.7" height="16.45"/><rect class="cls-1" x="310.1" y="288.1" width="17.7" height="16.45"/><rect class="cls-2" x="274.82" y="288.1" width="17.7" height="16.45"/><rect class="cls-3" x="292.52" y="288.1" width="17.7" height="16.45"/><rect class="cls-1" x="427.23" y="288.1" width="17.7" height="16.45"/><rect class="cls-2" x="391.95" y="288.1" width="17.7" height="16.45"/><rect class="cls-3" x="409.65" y="288.1" width="17.7" height="16.45"/><rect class="cls-1" x="504.72" y="313.52" width="19.5" height="16.45"/><rect class="cls-2" x="465.84" y="313.52" width="19.5" height="16.45"/><rect class="cls-3" x="485.35" y="313.52" width="19.5" height="16.45"/><rect class="cls-1" x="282.46" y="178.91" width="17.21" height="16.45"/><rect class="cls-2" x="248.15" y="178.91" width="17.21" height="16.45"/><rect class="cls-3" x="265.37" y="178.91" width="17.21" height="16.45"/><rect class="cls-1" x="226.52" y="324.12" width="17.38" height="16.45"/><rect class="cls-2" x="191.88" y="324.12" width="17.38" height="16.45"/><rect class="cls-3" x="209.26" y="324.12" width="17.38" height="16.45"/><rect class="cls-1" x="371.36" y="333.83" width="17.07" height="16.45"/><rect class="cls-2" x="337.33" y="333.83" width="17.07" height="16.45"/><rect class="cls-3" x="354.4" y="333.83" width="17.07" height="16.45"/><rect class="cls-1" x="368.97" y="395.92" width="17.58" height="16.45"/><rect class="cls-2" x="333.92" y="395.92" width="17.58" height="16.45"/><rect class="cls-3" x="351.51" y="395.92" width="17.58" height="16.45"/><rect class="cls-1" x="503.46" y="384.79" width="17.58" height="16.45"/><rect class="cls-2" x="468.41" y="384.79" width="17.58" height="16.45"/><rect class="cls-3" x="485.99" y="384.79" width="17.58" height="16.45"/><rect class="cls-1" x="592.55" y="509.77" width="17.37" height="16.45"/><rect class="cls-2" x="557.94" y="509.77" width="17.37" height="16.45"/><rect class="cls-3" x="575.3" y="509.77" width="17.37" height="16.45"/><rect class="cls-1" x="658.97" y="354.93" width="17.18" height="16.45"/><rect class="cls-2" x="624.72" y="354.93" width="17.18" height="16.45"/><rect class="cls-3" x="641.9" y="354.93" width="17.18" height="16.45"/><rect class="cls-1" x="595.94" y="215.02" width="17.01" height="16.45"/><rect class="cls-2" x="562.03" y="215.02" width="17.01" height="16.45"/><rect class="cls-3" x="579.04" y="215.02" width="17.01" height="16.45"/><rect class="cls-1" x="574.02" y="135.45" width="17.01" height="16.45"/><rect class="cls-2" x="540.12" y="135.45" width="17.01" height="16.45"/><rect class="cls-3" x="557.12" y="135.45" width="17.01" height="16.45"/><rect class="cls-3" x="171.23" y="178.86" width="17.16" height="16.45"/><rect class="cls-3" x="137.03" y="178.86" width="17.16" height="16.45"/><rect class="cls-3" x="154.19" y="178.86" width="17.16" height="16.45"/><rect class="cls-3" x="464.36" y="135.32" width="17.16" height="16.45"/><rect class="cls-3" x="430.16" y="135.32" width="17.16" height="16.45"/><rect class="cls-3" x="447.31" y="135.32" width="17.16" height="16.45"/><rect class="cls-3" x="658.99" y="374.95" width="17.16" height="16.45"/><rect class="cls-3" x="624.79" y="374.95" width="17.16" height="16.45"/><rect class="cls-3" x="641.95" y="374.95" width="17.16" height="16.45"/><rect class="cls-2" x="370.69" y="356.01" width="17.16" height="16.45"/><rect class="cls-2" x="336.49" y="356.01" width="17.16" height="16.45"/><rect class="cls-2" x="353.65" y="356.01" width="17.16" height="16.45"/><rect class="cls-3" x="110.45" y="315.02" width="25.5" height="16.45"/><rect class="cls-4" x="84.96" y="315.02" width="17.04" height="16.45"/><rect class="cls-2" x="84.96" y="315.02" width="25.5" height="16.45"/><rect class="cls-3" x="494.78" y="83.97" width="25.5" height="16.45"/><rect class="cls-4" x="469.29" y="83.97" width="17.04" height="16.45"/><rect class="cls-2" x="469.29" y="83.97" width="25.5" height="16.45"/><rect class="cls-3" x="361.42" y="96.5" width="25.5" height="16.45"/><rect class="cls-4" x="335.92" y="96.5" width="17.04" height="16.45"/><rect class="cls-2" x="335.92" y="96.5" width="25.5" height="16.45"/><rect class="cls-1" x="362.76" y="196.47" width="25.58" height="16.45"/><rect class="cls-4" x="337.17" y="196.47" width="17.09" height="16.45"/><rect class="cls-3" x="337.17" y="196.47" width="25.58" height="16.45"/><rect class="cls-1" x="361.42" y="312.92" width="25.58" height="16.45"/><rect class="cls-4" x="335.83" y="312.92" width="17.09" height="16.45"/><rect class="cls-3" x="335.83" y="312.92" width="25.58" height="16.45"/><rect class="cls-1" x="772.07" y="310.93" width="25.58" height="16.45"/><rect class="cls-4" x="746.48" y="310.93" width="17.09" height="16.45"/><rect class="cls-3" x="746.48" y="310.93" width="25.58" height="16.45"/><rect class="cls-1" x="538.06" y="236.06" width="25.58" height="16.45"/><rect class="cls-4" x="512.48" y="236.06" width="17.09" height="16.45"/><rect class="cls-3" x="512.48" y="236.06" width="25.58" height="16.45"/><g id="Head"><text x="-333.65" y="-170.23"/></g><text class="cls-5" transform="translate(19.2 267.18)">L-Serine</text><text class="cls-5" transform="translate(3.89 342.05)">Palmitoyl-Co<tspan x="68.02" y="0">A</tspan></text><text class="cls-5" transform="translate(191.73 92.88)">Dihydrosphingosine-1<tspan x="116.07" y="0">P</tspan></text><text class="cls-5" transform="translate(387.43 75.8)">Phospho-<tspan x="0" y="14.4">ethanolamine</tspan></text><text class="cls-5" transform="translate(573.71 108.73)">Sphingosine-1<tspan x="76.72" y="0">P</tspan></text><text class="cls-5" transform="translate(571.7 195.41)">Sphingosine</text><text class="cls-5" transform="translate(429.37 250.26)">Phyto-<tspan x="0" y="14.4">ceramide</tspan></text><text class="cls-5" transform="translate(714.69 108.81)">Psychosine</text><text class="cls-5" transform="translate(715.36 226.8)">Ceramide<tspan x="0" y="14.4">phospho-</tspan><tspan x="0" y="28.8">ethanolamine</tspan></text><text class="cls-5" transform="translate(715.36 268.48)">Ceramide<tspan x="0" y="14.4">ciliatine</tspan></text><text class="cls-5" transform="translate(124.62 296.33)">3-Dehydro-<tspan x="0" y="14.4">sphinganine</tspan></text><text class="cls-5" transform="translate(347.32 190.41)">LAC1</text><text class="cls-6" transform="translate(194.2 282.12) scale(1.03 1)">Dihydro-<tspan x="0" y="13.4">sphingosine</tspan><tspan x="0" y="26.8">(Sphinganine)</tspan></text><text class="cls-5" transform="translate(171.88 399.57)">Lactosylceramide</text><text class="cls-5" transform="translate(385.68 473.58)">GM4</text><text class="cls-5" transform="translate(567.77 448.04)">Galactosyl-<tspan x="0" y="14.4">ceramide</tspan></text><text class="cls-5" transform="translate(718.58 399.6)">Ceramide-<tspan x="56.02" y="0">P</tspan></text><text class="cls-5" transform="translate(715.94 470.07)">Sulfatide</text><text class="cls-5" transform="translate(507.43 593.19)">Digalactosylceramide</text><text class="cls-5" transform="translate(681.5 593.19)">Digalactosylceramide sulfate</text><text class="cls-5" transform="translate(715.94 339.73)">Sphingomyelin</text><text class="cls-5" transform="translate(797.83 343)">Sphingosyl-<tspan x="0" y="14.4">phosphocholine</tspan></text><text class="cls-5" transform="translate(406.62 415.71)">Glucosyl-<tspan x="0" y="14.4">ceramide</tspan></text><text class="cls-5" transform="translate(448.12 290.55)">Ceramide<tspan x="0" y="14.4">(N-Acylsphingosine)</tspan></text><text class="cls-5" transform="translate(424.74 338.73)">Dehydro-<tspan x="0" y="14.4">ceramide</tspan></text><text class="cls-5" transform="translate(284.77 268.48)">Phyto-<tspan x="0" y="14.4">sphingosine</tspan></text><g id="Rec"><rect class="cls-7" x="915" y="87.57" width="83.65" height="20.31"/><text class="cls-8" transform="translate(939.15 101.82) scale(1.05 1)">KEGG</text></g><g id="Rec-2" data-name="Rec"><rect class="cls-7" x="915" y="120.34" width="83.65" height="20.31"/><text class="cls-8" transform="translate(944.63 134.58) scale(1.05 1)">RN<tspan x="18.01" y="0">A</tspan></text></g><g id="Rec-3" data-name="Rec"><rect class="cls-7" x="915" y="154.7" width="83.65" height="20.31"/><text class="cls-8" transform="translate(932.94 168.95) scale(1.05 1)">Genome</text></g><rect class="cls-9" x="877.89" y="85.6" width="23.27" height="24.25"/><rect class="cls-10" x="877.89" y="118.37" width="23.27" height="24.25"/><rect class="cls-11" x="877.89" y="152.73" width="23.27" height="24.25"/><rect class="cls-7" x="862.53" y="71.43" width="157.42" height="120.63"/><g id="Round"><rect class="cls-7" x="42.7" y="454.73" width="189.24" height="37.71" rx="12" ry="12"/><text class="cls-12" transform="translate(50.93 472.53) scale(0.94 1)">Glycosphingolipid biosynthesis<tspan x="0" y="15.11">- lacto and neolacto series</tspan></text></g><g id="Round-2" data-name="Round"><rect class="cls-7" x="7.58" y="121.19" width="129.74" height="37.71" rx="12" ry="12"/><text class="cls-12" transform="translate(15.81 138.99) scale(0.94 1)">Glycine, serine and<tspan x="0" y="15.11">threonine metabolism</tspan></text></g><g id="Round-3" data-name="Round"><rect class="cls-7" x="40.71" y="500.04" width="189.24" height="37.71" rx="12" ry="12"/><text class="cls-12" transform="translate(48.93 517.84) scale(0.94 1)">Glycosphingolipid biosynthesis<tspan x="0" y="15.11">- globo series</tspan></text></g><g id="Round-4" data-name="Round"><rect class="cls-7" x="42.7" y="545.36" width="189.24" height="37.71" rx="12" ry="12"/><text class="cls-12" transform="translate(50.93 563.16) scale(0.94 1)">Glycosphingolipid biosynthesis<tspan x="0" y="15.11">- ganglio series</tspan></text></g><g id="Rec-4" data-name="Rec"><rect class="cls-7" x="84.44" y="314.99" width="52.02" height="16.49"/><text class="cls-5" transform="translate(89 326.56)">2.3.1.50</text></g><g id="Rec-5" data-name="Rec"><rect class="cls-7" x="136.75" y="178.84" width="52.02" height="16.49"/><text class="cls-5" transform="translate(144.65 190.41)">3.1.3.4</text></g><g id="Rec-6" data-name="Rec"><rect class="cls-7" x="194.2" y="178.92" width="52.02" height="16.49"/><text class="cls-5" transform="translate(203.44 190.49)">3.1.3.-</text></g><g id="Rec-7" data-name="Rec"><rect class="cls-7" x="429.49" y="135.28" width="52.02" height="16.49"/><text class="cls-5" transform="translate(437.39 146.84)">3.1.3.4</text></g><g id="Rec-8" data-name="Rec"><rect class="cls-7" x="192.33" y="323.24" width="52.02" height="16.49"/><text class="cls-5" transform="translate(193.55 334.81)">1.1.1.102</text></g><g id="Rec-9" data-name="Rec"><rect class="cls-7" x="247.09" y="178.92" width="52.02" height="16.49"/><text class="cls-5" transform="translate(251.65 190.49)">2.7.1.91</text></g><g id="Rec-10" data-name="Rec"><rect class="cls-7" x="485.54" y="135.28" width="52.02" height="16.49"/><text class="cls-5" transform="translate(494.78 146.84)">3.1.3.-</text></g><g id="Rec-11" data-name="Rec"><rect class="cls-7" x="539" y="135.28" width="52.02" height="16.49"/><text class="cls-5" transform="translate(543.56 146.84)">2.7.1.91</text></g><g id="Rec-12" data-name="Rec"><rect class="cls-7" x="681.5" y="131.74" width="52.02" height="16.49"/><text class="cls-5" transform="translate(686.07 143.31)">2.4.1.23</text></g><g id="Rec-13" data-name="Rec"><rect class="cls-7" x="512.24" y="236.78" width="52.02" height="16.49"/><text class="cls-5" transform="translate(516.8 248.35)">2.3.1.24</text></g><g id="Rec-14" data-name="Rec"><rect class="cls-7" x="560.93" y="215.23" width="52.02" height="16.49"/><text class="cls-5" transform="translate(565.49 226.8)">3.5.1.23</text></g><g id="Rec-15" data-name="Rec"><rect class="cls-7" x="623.21" y="231.72" width="52.02" height="16.49"/><text class="cls-5" transform="translate(632.45 243.29)">2.7.8.-</text></g><g id="Rec-16" data-name="Rec"><rect class="cls-7" x="623.21" y="257.47" width="52.02" height="16.49"/><text class="cls-5" transform="translate(632.45 269.04)">2.7.8.-</text></g><g id="Rec-17" data-name="Rec"><rect class="cls-7" x="623.21" y="283.23" width="52.02" height="16.49"/><text class="cls-5" transform="translate(627.77 294.8)">2.7.8.27</text></g><g id="Rec-18" data-name="Rec"><rect class="cls-7" x="623.46" y="303.66" width="52.02" height="16.49"/><text class="cls-5" transform="translate(631.36 315.23)">2.7.8.3</text></g><g id="Rec-19" data-name="Rec"><rect class="cls-7" x="623.21" y="324.1" width="52.02" height="16.49"/><text class="cls-5" transform="translate(627.77 335.66)">3.1.4.12</text></g><g id="Rec-20" data-name="Rec"><rect class="cls-7" x="745.81" y="311.91" width="52.02" height="16.49"/><text class="cls-5" transform="translate(750.37 323.48)">2.3.1.24</text></g><g id="Rec-21" data-name="Rec"><rect class="cls-7" x="688.68" y="345.38" width="52.02" height="16.49"/><text class="cls-5" transform="translate(693.24 356.95)">3.1.4.41</text></g><g id="Rec-22" data-name="Rec"><rect class="cls-7" x="623.71" y="354.99" width="52.02" height="16.49"/><text class="cls-5" transform="translate(624.93 366.56)">2.7.1.138</text></g><g id="Rec-23" data-name="Rec"><rect class="cls-7" x="623.96" y="375.61" width="52.02" height="16.49"/><text class="cls-5" transform="translate(631.86 387.18)">3.1.3.4</text></g><g id="Rec-24" data-name="Rec"><rect class="cls-7" x="624.21" y="397.51" width="52.02" height="16.49"/><text class="cls-5" transform="translate(633.45 409.08)">3.1.3.-</text></g><g id="Rec-25" data-name="Rec"><rect class="cls-7" x="565.26" y="404.14" width="52.02" height="16.49"/><text class="cls-5" transform="translate(569.82 415.71)">3.2.1.46</text></g><g id="Rec-26" data-name="Rec"><rect class="cls-7" x="511.8" y="424.94" width="52.02" height="16.49"/><text class="cls-5" transform="translate(516.36 436.51)">2.4.1.47</text></g><g id="Rec-27" data-name="Rec"><rect class="cls-7" x="507.43" y="530.9" width="52.02" height="16.49"/><text class="cls-5" transform="translate(516.68 542.47)">2.4.1.-</text></g><g id="Rec-28" data-name="Rec"><rect class="cls-7" x="558.75" y="509.6" width="52.02" height="16.49"/><text class="cls-5" transform="translate(563.31 521.17)">3.2.1.22</text></g><g id="Rec-29" data-name="Rec"><rect class="cls-7" x="623.46" y="458.04" width="52.02" height="16.49"/><text class="cls-5" transform="translate(628.47 469.61)">2.8.2.<tspan x="30.02" y="0">1</tspan><tspan x="35.81" y="0">1</tspan></text></g><g id="Rec-30" data-name="Rec"><rect class="cls-7" x="623.46" y="481.85" width="52.02" height="16.49"/><text class="cls-5" transform="translate(631.36 493.42)">3.1.6.1</text></g><g id="Rec-31" data-name="Rec"><rect class="cls-7" x="624.21" y="505.66" width="52.02" height="16.49"/><text class="cls-5" transform="translate(632.11 517.23)">3.1.6.8</text></g><g id="Rec-32" data-name="Rec"><rect class="cls-7" x="623.46" y="566.08" width="52.02" height="16.49"/><text class="cls-5" transform="translate(628.47 577.65)">2.8.2.<tspan x="30.02" y="0">1</tspan><tspan x="35.81" y="0">1</tspan></text></g><g id="Rec-33" data-name="Rec"><rect class="cls-7" x="468.56" y="458.04" width="52.02" height="16.49"/><text class="cls-5" transform="translate(473.12 469.61)">3.2.1.18</text></g><g id="Rec-34" data-name="Rec"><rect class="cls-7" x="806.8" y="215.23" width="52.02" height="16.49"/><text class="cls-5" transform="translate(811.36 226.8)">2.7.8.10</text></g><g id="Rec-35" data-name="Rec"><rect class="cls-7" x="335.91" y="195.41" width="52.02" height="16.49"/><text class="cls-5" transform="translate(346.82 206.98)">LAG1</text></g><g id="Rec-36" data-name="Rec"><rect class="cls-7" x="335.41" y="232.38" width="52.02" height="16.49"/><text class="cls-5" transform="translate(339.97 243.95)">3.5.1.23</text></g><g id="Rec-37" data-name="Rec"><rect class="cls-7" x="274.47" y="288.08" width="52.02" height="16.49"/><text class="cls-5" transform="translate(275.69 299.65)">1.14.18.5</text></g><g id="Rec-38" data-name="Rec"><rect class="cls-7" x="335.41" y="312.89" width="52.02" height="16.49"/><text class="cls-5" transform="translate(339.97 324.46)">2.3.1.24</text></g><g id="Rec-39" data-name="Rec"><rect class="cls-7" x="336.16" y="376.94" width="52.02" height="16.49"/><text class="cls-5" transform="translate(337.38 388.5)">2.4.1.274</text></g><g id="Rec-40" data-name="Rec"><rect class="cls-7" x="469.02" y="355.99" width="52.02" height="16.49"/><text class="cls-5" transform="translate(473.58 367.56)">2.4.1.80</text></g><g id="Rec-41" data-name="Rec"><rect class="cls-7" x="465.84" y="312.89" width="58.38" height="16.49"/><text class="cls-5" transform="translate(466.19 324.46)">1.14.19.17</text></g><g id="Rec-42" data-name="Rec"><rect class="cls-7" x="469.27" y="385.18" width="52.02" height="16.49"/><text class="cls-5" transform="translate(473.83 396.75)">3.2.1.45</text></g><g id="Rec-43" data-name="Rec"><rect class="cls-7" x="333.66" y="396.51" width="52.02" height="16.49"/><text class="cls-5" transform="translate(338.22 408.08)">3.2.1.23</text></g><g id="Rec-44" data-name="Rec"><rect class="cls-7" x="336.41" y="333.81" width="52.02" height="16.49"/><text class="cls-5" transform="translate(340.97 345.38)">3.5.1.23</text></g><g id="Rec-45" data-name="Rec"><rect class="cls-7" x="392.54" y="288.08" width="52.02" height="16.49"/><text class="cls-5" transform="translate(393.77 299.65)">1.14.18.5</text></g><g id="Rec-46" data-name="Rec"><rect class="cls-7" x="336.16" y="254.15" width="52.02" height="16.49"/><text class="cls-5" transform="translate(346.74 265.72)">YPC1</text></g><g id="Rec-47" data-name="Rec"><rect class="cls-7" x="335.41" y="355.99" width="52.02" height="16.49"/><text class="cls-5" transform="translate(345.65 367.56)">YDC1</text></g><g id="Rec-48" data-name="Rec"><rect class="cls-7" x="335.66" y="96.48" width="52.02" height="16.49"/><text class="cls-5" transform="translate(340.22 108.05)">4.1.2.27</text></g><g id="Rec-49" data-name="Rec"><rect class="cls-7" x="468.77" y="84.64" width="52.02" height="16.49"/><text class="cls-5" transform="translate(473.33 96.21)">4.1.2.27</text></g><text x="-333.65" y="-170.23"/><circle class="cls-7" cx="75.54" cy="262.92" r="4.09"/><circle class="cls-7" cx="166.79" cy="323.24" r="4.09"/><circle class="cls-7" cx="274.47" cy="102.75" r="4.09"/><circle class="cls-7" cx="564.01" cy="102.75" r="4.09"/><circle class="cls-7" cx="564.01" cy="178.02" r="4.09"/><circle class="cls-7" cx="707.52" cy="265" r="4.09"/><circle class="cls-7" cx="707.52" cy="238.78" r="4.09"/><circle class="cls-7" cx="57.01" cy="322.24" r="4.09"/><circle class="cls-7" cx="274.47" cy="322.24" r="4.09"/><circle class="cls-7" cx="418.57" cy="100.73" r="4.09"/><circle class="cls-7" cx="707.52" cy="104.73" r="4.09"/><circle class="cls-7" cx="420.66" cy="250.06" r="4.09"/><circle class="cls-7" cx="418.57" cy="393.43" r="4.09"/><circle class="cls-7" cx="707.52" cy="322.24" r="4.09"/><circle class="cls-7" cx="707.52" cy="395.51" r="4.09"/><circle class="cls-7" cx="830.11" cy="322.24" r="4.09"/><circle class="cls-7" cx="274.47" cy="393.43" r="4.09"/><circle class="cls-7" cx="313.32" cy="251.06" r="4.09"/><circle class="cls-7" cx="418.55" cy="323.24" r="4.09"/><circle class="cls-7" cx="565.01" cy="320.15" r="4.09"/><circle class="cls-7" cx="419.57" cy="466.29" r="4.09"/><circle class="cls-7" cx="565.01" cy="465.29" r="4.09"/><circle class="cls-7" cx="707.6" cy="466.29" r="4.09"/><circle class="cls-7" cx="706.52" cy="574.33" r="4.09"/><circle class="cls-7" cx="562.93" cy="573.33" r="4.09"/><line class="cls-13" x1="830.37" y1="213.94" x2="830.37" y2="180.76"/><line class="cls-13" x1="830.11" y1="309.65" x2="830.11" y2="232.82"/><polygon class="cls-14" points="830.35 316.18 834.14 307.64 826.59 307.64 830.35 316.18"/><line class="cls-13" x1="268.61" y1="103.78" x2="191.81" y2="103.73"/><line class="cls-13" x1="193.49" y1="318.34" x2="191.81" y2="103.73"/><polygon class="cls-14" points="267.28 318.2 258.74 314.4 258.73 321.96 267.28 318.2"/><line class="cls-13" x1="259.26" y1="318.34" x2="193.49" y2="318.34"/><line class="cls-13" x1="274.48" y1="560.07" x2="275.72" y2="401.29"/><polygon class="cls-14" points="231.28 560.09 239.82 556.29 239.82 563.85 231.28 560.09"/><line class="cls-13" x1="239.29" y1="560.22" x2="274.47" y2="560.22"/><polygon class="cls-14" points="231.28 517.86 239.82 514.06 239.82 521.62 231.28 517.86"/><line class="cls-13" x1="239.29" y1="518" x2="274.47" y2="518"/><polygon class="cls-14" points="231.28 474.07 239.82 470.27 239.82 477.83 231.28 474.07"/><line class="cls-13" x1="239.29" y1="474.05" x2="274.47" y2="474.05"/><line class="cls-13" x1="335.67" y1="102.5" x2="280.33" y2="102.64"/><line class="cls-13" x1="411.06" y1="102.51" x2="387.68" y2="102.73"/><polygon class="cls-14" points="410.89 102.77 402.36 98.97 402.35 106.53 410.89 102.77"/><line class="cls-13" x1="484.18" y1="106.88" x2="484.18" y2="178.48"/><line class="cls-13" x1="556.73" y1="177.78" x2="484.18" y2="178.48"/><line class="cls-13" x1="556.73" y1="106.18" x2="484.18" y2="106.88"/><polygon class="cls-14" points="556.56 178.04 548.02 174.24 548.01 181.8 556.56 178.04"/><line class="cls-13" x1="571.96" y1="173.94" x2="707.96" y2="173.94"/><line class="cls-13" x1="707.87" y1="113.01" x2="708.05" y2="131.74"/><line class="cls-13" x1="707.76" y1="148.23" x2="707.96" y2="173.94"/><polygon class="cls-14" points="708.13 113.17 704.33 121.72 711.89 121.72 708.13 113.17"/><line class="cls-13" x1="520.8" y1="98.86" x2="559.94" y2="98.77"/><line class="cls-13" x1="429.2" y1="98.9" x2="468.77" y2="98.52"/><polygon class="cls-14" points="429.37 98.64 437.91 102.44 437.91 94.88 429.37 98.64"/><line class="cls-13" x1="623.22" y1="238.54" x2="569.1" y2="238.68"/><line class="cls-13" x1="623.23" y1="264.93" x2="571.6" y2="264.69"/><line class="cls-13" x1="571.6" y1="264.69" x2="571.81" y2="311.14"/><line class="cls-13" x1="568.84" y1="238.61" x2="568.47" y2="311.26"/><line class="cls-13" x1="701.45" y1="238.54" x2="675.23" y2="238.79"/><line class="cls-13" x1="701.7" y1="264.44" x2="675.48" y2="264.7"/><polygon class="cls-14" points="701.28 238.8 692.74 235 692.74 242.56 701.28 238.8"/><polygon class="cls-14" points="702.44 264.72 693.9 260.92 693.89 268.48 702.44 264.72"/><line class="cls-13" x1="563.47" y1="152.94" x2="563.52" y2="172.51"/><line class="cls-13" x1="562.9" y1="108.57" x2="563.16" y2="135.28"/><polygon class="cls-14" points="563.15 108.73 559.36 117.27 566.92 117.28 563.15 108.73"/><line class="cls-13" x1="558.24" y1="236.58" x2="558.24" y2="184.5"/><line class="cls-13" x1="558.51" y1="308.97" x2="557.97" y2="253.27"/><polygon class="cls-14" points="558.22 308.8 562.02 300.26 554.46 300.25 558.22 308.8"/><line class="cls-13" x1="313.32" y1="245.98" x2="313.32" y2="202.5"/><line class="cls-13" x1="418.78" y1="202.51" x2="388.18" y2="202.51"/><line class="cls-13" x1="419.17" y1="242.99" x2="418.78" y2="202.51"/><polygon class="cls-14" points="418.88 242.83 422.68 234.29 415.12 234.28 418.88 242.83"/><line class="cls-13" x1="335.41" y1="202.5" x2="313.32" y2="202.5"/><line class="cls-13" x1="562.2" y1="424.94" x2="562.21" y2="334.82"/><line class="cls-13" x1="562.29" y1="458.98" x2="562.12" y2="441.43"/><polygon class="cls-14" points="562 458.82 565.8 450.28 558.24 450.27 562 458.82"/><line class="cls-13" x1="555.24" y1="530.9" x2="555.7" y2="474.53"/><line class="cls-13" x1="555.33" y1="567.74" x2="555.13" y2="547.39"/><polygon class="cls-14" points="555.04 567.57 558.84 559.03 551.28 559.03 555.04 567.57"/><line class="cls-13" x1="565.95" y1="232.43" x2="565.94" y2="310.48"/><line class="cls-13" x1="565.32" y1="194.16" x2="565.52" y2="215.23"/><polygon class="cls-14" points="565.61 186.13 561.81 194.67 569.37 194.68 565.61 186.13"/><line class="cls-13" x1="576.43" y1="395.02" x2="702.03" y2="395.03"/><line class="cls-13" x1="576.15" y1="342.48" x2="576.43" y2="395.02"/><polygon class="cls-14" points="576.45 334.46 572.65 343 580.21 343 576.45 334.46"/><line class="cls-13" x1="521.04" y1="395.03" x2="556.88" y2="395.03"/><line class="cls-13" x1="425.99" y1="394.56" x2="469.02" y2="394.57"/><line class="cls-13" x1="556.56" y1="342.53" x2="556.88" y2="395.03"/><polygon class="cls-14" points="556.85 334.5 553.05 343.04 560.61 343.05 556.85 334.5"/><line class="cls-13" x1="419.15" y1="318.1" x2="419.15" y2="305.05"/><line class="cls-13" x1="418.59" y1="266.66" x2="418.71" y2="286.9"/><polygon class="cls-14" points="418.88 258.64 415.08 267.18 422.64 267.18 418.88 258.64"/><line class="cls-13" x1="467.99" y1="366.56" x2="418.86" y2="365.94"/><line class="cls-13" x1="550.06" y1="366.56" x2="522.23" y2="366.56"/><line class="cls-13" x1="550.06" y1="366.25" x2="522.23" y2="366.25"/><line class="cls-13" x1="549.66" y1="333.5" x2="550.06" y2="366.25"/><line class="cls-13" x1="418.94" y1="379.42" x2="418.86" y2="365.94"/><polygon class="cls-14" points="418.66 387.45 422.45 378.91 414.9 378.9 418.66 387.45"/><line class="cls-13" x1="562.93" y1="526.1" x2="562.93" y2="566.72"/><line class="cls-13" x1="562.94" y1="481.85" x2="562.93" y2="509.13"/><polygon class="cls-14" points="562.94 474.53 559.15 483.07 566.71 483.08 562.94 474.53"/><line class="cls-13" x1="75.18" y1="257.52" x2="74.7" y2="158.89"/><polygon class="cls-14" points="74.92 257.36 78.72 248.82 71.16 248.81 74.92 257.36"/><line class="cls-13" x1="830.67" y1="180.51" x2="569.75" y2="181.01"/><g id="Head-2" data-name="Head"><rect class="cls-15" x="1" y="12.6" width="375.54" height="31.5"/><text class="cls-16" transform="translate(2.3 35.1) scale(1.15 1)">Sphingolipid Metabolism - 00600 - <tspan class="cls-17" x="215.56" y="0">Elaeis guineensis</tspan></text></g><line class="cls-13" x1="464.76" y1="321.42" x2="426.36" y2="321.24"/><line class="cls-13" x1="556.46" y1="320.99" x2="524.22" y2="321.31"/><polygon class="cls-14" points="557.2 321.26 548.66 317.47 548.65 325.03 557.2 321.26"/><line class="cls-13" x1="623.21" y1="317.3" x2="574.87" y2="317.07"/><line class="cls-13" x1="700.94" y1="317.17" x2="675.23" y2="317.17"/><polygon class="cls-14" points="701.68 317.28 693.14 313.49 693.14 321.05 701.68 317.28"/><line class="cls-13" x1="707.52" y1="308.94" x2="707.52" y2="292.39"/><polygon class="cls-14" points="707.19 314.78 710.99 306.24 703.43 306.23 707.19 314.78"/><line class="cls-13" x1="577.8" y1="304" x2="577.8" y2="292.39"/><line class="cls-13" x1="623.21" y1="293.03" x2="578.28" y2="292.39"/><line class="cls-13" x1="707.77" y1="292.61" x2="675.48" y2="292.16"/><polygon class="cls-14" points="577.47 309.84 581.27 301.31 573.71 301.3 577.47 309.84"/><line class="cls-13" x1="335.41" y1="322.13" x2="281.09" y2="321.87"/><line class="cls-13" x1="411.19" y1="321.63" x2="387.43" y2="321.86"/><polygon class="cls-14" points="411.93 321.9 403.39 318.11 403.38 325.66 411.93 321.9"/><line class="cls-13" x1="332.73" y1="397.75" x2="281.1" y2="397.5"/><line class="cls-13" x1="411.2" y1="397.26" x2="385.68" y2="397.51"/><polygon class="cls-14" points="411.94 397.53 403.4 393.73 403.39 401.29 411.94 397.53"/><line class="cls-13" x1="192.33" y1="327.58" x2="173.43" y2="327.49"/><line class="cls-13" x1="266.56" y1="327.07" x2="244.35" y2="327.29"/><polygon class="cls-14" points="267.3 327.34 258.76 323.55 258.75 331.11 267.3 327.34"/><line class="cls-13" x1="82.96" y1="322.5" x2="63.64" y2="322.41"/><line class="cls-13" x1="158.89" y1="321.99" x2="136.17" y2="322.2"/><polygon class="cls-14" points="159.64 322.26 150.91 318.46 150.9 326.02 159.64 322.26"/><line class="cls-13" x1="279.79" y1="304.57" x2="279.75" y2="313.9"/><line class="cls-13" x1="279.82" y1="250.25" x2="279.73" y2="288.08"/><line class="cls-13" x1="305.34" y1="250" x2="279.82" y2="250.25"/><polygon class="cls-14" points="306.08 250.28 297.54 246.48 297.54 254.04 306.08 250.28"/><line class="cls-13" x1="420.51" y1="352.33" x2="420.53" y2="329.15"/><line class="cls-13" x1="274.13" y1="352.2" x2="420.51" y2="352.33"/><line class="cls-13" x1="273.9" y1="329.62" x2="274.12" y2="352.2"/><polygon class="cls-14" points="274.18 328.88 270.38 337.42 277.94 337.42 274.18 328.88"/><line class="cls-13" x1="319.89" y1="250.32" x2="413.03" y2="250.19"/><polygon class="cls-14" points="319.15 250.05 327.69 253.84 327.7 246.29 319.15 250.05"/><line class="cls-13" x1="270.56" y1="195.41" x2="271.83" y2="314.4"/><line class="cls-13" x1="270.13" y1="113.8" x2="270.76" y2="178.92"/><polygon class="cls-14" points="270.4 113.06 266.6 121.6 274.16 121.61 270.4 113.06"/><line class="cls-13" x1="624.02" y1="466.52" x2="572.39" y2="466.28"/><line class="cls-13" x1="702.49" y1="466.03" x2="675.98" y2="466.29"/><polygon class="cls-14" points="703.23 466.31 694.69 462.51 694.68 470.07 703.23 466.31"/><line class="cls-13" x1="623.46" y1="574.57" x2="569.3" y2="574.31"/><line class="cls-13" x1="699.4" y1="574.07" x2="675.48" y2="574.3"/><polygon class="cls-14" points="700.14 574.34 691.6 570.55 691.59 578.11 700.14 574.34"/><line class="cls-13" x1="468.56" y1="466.59" x2="425.99" y2="466.39"/><line class="cls-13" x1="556.09" y1="466.15" x2="521.29" y2="466.48"/><polygon class="cls-14" points="556.83 466.42 548.29 462.62 548.28 470.18 556.83 466.42"/><line class="cls-13" x1="675.23" y1="325.18" x2="700.92" y2="325.31"/><line class="cls-13" x1="576.72" y1="325.58" x2="623.21" y2="326.33"/><polygon class="cls-14" points="575.98 325.31 584.52 329.11 584.52 321.55 575.98 325.31"/><line class="cls-13" x1="711.6" y1="345.38" x2="711.69" y2="327.68"/><line class="cls-13" x1="711.84" y1="387.06" x2="711.67" y2="362.1"/><polygon class="cls-14" points="711.57 387.8 715.36 379.26 707.8 379.25 711.57 387.8"/><line class="cls-13" x1="582.73" y1="366.56" x2="582.89" y2="334.81"/><line class="cls-13" x1="623.21" y1="366.75" x2="582.81" y2="366.56"/><line class="cls-13" x1="703.55" y1="366.56" x2="676.48" y2="366.93"/><line class="cls-13" x1="703.68" y1="387.06" x2="703.55" y2="366.56"/><polygon class="cls-14" points="703.41 387.8 707.21 379.26 699.65 379.25 703.41 387.8"/><line class="cls-13" x1="388.26" y1="389.93" x2="413.95" y2="390.05"/><line class="cls-13" x1="284.79" y1="389.59" x2="335.41" y2="390.41"/><polygon class="cls-14" points="284.05 389.32 292.58 393.12 292.59 385.56 284.05 389.32"/><line class="cls-13" x1="797.83" y1="322.67" x2="823.52" y2="322.79"/><line class="cls-13" x1="716.68" y1="322.49" x2="745.81" y2="322.96"/><polygon class="cls-14" points="715.94 322.22 724.48 326.02 724.49 318.46 715.94 322.22"/><path class="cls-7" d="M408.15,437.24c0.92,16.61-6.56,49.23,7.36,55.21-0.66,0-1.3.18-2,.23a7.07,7.07,0,0,0,2-.23" transform="translate(-333.65 -170.23)"/></svg>