<svg id="Layer_2" data-name="Layer 2" xmlns="http://www.w3.org/2000/svg" viewBox="0 0 1115.9 949.37"><defs><style>.cls-1,.cls-15{fill:#1f91ff;}.cls-13,.cls-2{fill:#fff984;}.cls-14,.cls-3{fill:#ff6e7d;}.cls-11,.cls-4{fill:none;}.cls-11,.cls-13,.cls-14,.cls-15,.cls-4{stroke:#000;}.cls-11,.cls-13,.cls-14,.cls-15,.cls-17,.cls-18,.cls-4{stroke-miterlimit:10;}.cls-4{stroke-width:2px;}.cls-5{font-size:14px;}.cls-12,.cls-16,.cls-5,.cls-6,.cls-7,.cls-9{font-family:Arial;}.cls-6{font-size:12px;}.cls-7{font-size:9.92px;}.cls-8{letter-spacing:-0.83px;}.cls-9{font-size:9.29px;}.cls-10{letter-spacing:-0.87px;}.cls-12{font-size:12.47px;}.cls-16{font-size:12.59px;}.cls-17{fill:#e6e7e8;}.cls-17,.cls-18{stroke:#231f20;stroke-linecap:round;}.cls-19{fill:#4c87c7;}.cls-20{fill:#fcf289;}.cls-21{fill:#f26d7d;}</style></defs><title>egu_ec00071</title><rect class="cls-1" x="654.56" y="878.36" width="19.4" height="16.45"/><rect class="cls-2" x="615.88" y="878.36" width="19.4" height="16.45"/><rect class="cls-3" x="635.29" y="878.36" width="19.4" height="16.45"/><g id="Head"><rect class="cls-4" x="1" y="1" width="323.49" height="31.5"/><text class="cls-5" transform="translate(52.79 23.5) scale(1.15 1)">Fatty<tspan x="31.12" y="0"> </tspan><tspan x="34.23" y="0">Acid Degradatoin - 00071</tspan></text></g><text class="cls-6" transform="translate(1004.33 288.77)">Glutarate</text><text class="cls-6" transform="translate(1004.33 353)">Glutaryl-<tspan x="0" y="14.4">Co</tspan><tspan x="15.34" y="14.4">A</tspan></text><text class="cls-6" transform="translate(55.1 259.44)">L-Palmitoyl-<tspan x="0" y="14.4">carnitine</tspan></text><text class="cls-7" transform="translate(136.1 312.47) scale(1.2 1)">Hexa-<tspan x="0" y="11.9">decanoyl-</tspan><tspan x="0" y="23.81">Co</tspan><tspan x="12.68" y="23.81">A</tspan></text><text class="cls-7" transform="translate(264.37 311.02) scale(1.2 1)"><tspan class="cls-8">T</tspan><tspan x="4.96" y="0">etra-</tspan><tspan x="0" y="11.9">decanoyl-</tspan><tspan x="0" y="23.81">Co</tspan><tspan x="12.68" y="23.81">A</tspan></text><text class="cls-7" transform="translate(392.51 320.15) scale(1.09 1)">Dodecanoyl-<tspan x="0" y="11.9">Co</tspan><tspan x="12.68" y="11.9">A</tspan></text><text class="cls-7" transform="translate(522.07 319.51) scale(1.09 1)">Decanoyl-<tspan x="0" y="11.9">Co</tspan><tspan x="12.68" y="11.9">A</tspan></text><text class="cls-7" transform="translate(651.56 319.51) scale(1.09 1)">Octanoyl-<tspan x="0" y="11.9">Co</tspan><tspan x="12.68" y="11.9">A</tspan></text><text class="cls-7" transform="translate(778.47 319.51) scale(1.09 1)">Hexanoyl-<tspan x="0" y="11.9">Co</tspan><tspan x="12.68" y="11.9">A</tspan></text><text class="cls-7" transform="translate(908.34 319.51) scale(1.09 1)">Butanoyl-<tspan x="0" y="11.9">Co</tspan><tspan x="12.68" y="11.9">A</tspan></text><text class="cls-9" transform="translate(139.3 408.29) scale(1.15 1)">trans-<tspan x="0" y="11.15">Hexadec-</tspan><tspan x="0" y="22.3">2-enoyl</tspan><tspan x="0" y="33.46">-Co</tspan><tspan x="14.97" y="33.46">A</tspan></text><text class="cls-9" transform="translate(264.37 408.29) scale(1.15 1)">trans-<tspan class="cls-10" x="0" y="11.15">T</tspan><tspan x="4.65" y="11.15">etradec-</tspan><tspan x="0" y="22.3">2-enoyl</tspan><tspan x="0" y="33.46">-Co</tspan><tspan x="14.97" y="33.46">A</tspan></text><text class="cls-9" transform="translate(394.54 406.49) scale(1.15 1)">trans-<tspan x="0" y="11.15">Dodec-</tspan><tspan x="0" y="22.3">2-enoyl</tspan><tspan x="0" y="33.46">-Co</tspan><tspan x="14.97" y="33.46">A</tspan></text><text class="cls-9" transform="translate(523.54 406.48) scale(1.15 1)">trans-Dec-<tspan x="0" y="11.15">2-enoyl</tspan><tspan x="0" y="22.3">-Co</tspan><tspan x="14.97" y="22.3">A</tspan></text><text class="cls-9" transform="translate(651.56 408.29) scale(1.15 1)">trans-Oct-<tspan x="0" y="11.15">2-enoyl</tspan><tspan x="0" y="22.3">-Co</tspan><tspan x="14.97" y="22.3">A</tspan></text><text class="cls-9" transform="translate(782.17 408.29) scale(1.15 1)">trans-Hex-<tspan x="0" y="11.15">2-enoyl</tspan><tspan x="0" y="22.3">-Co</tspan><tspan x="14.97" y="22.3">A</tspan></text><text class="cls-9" transform="translate(908.34 427.51) scale(1.15 1)">trans-But-<tspan x="0" y="11.15">2-enoyl-Co</tspan><tspan x="45.46" y="11.15">A</tspan></text><text class="cls-9" transform="translate(139.3 484.02) scale(1.15 1)">(S)-3-<tspan x="0" y="11.15">Hydroxy-</tspan><tspan x="0" y="22.3">hexa-</tspan><tspan x="0" y="33.46">decanoyl-</tspan><tspan x="0" y="44.61">Co</tspan><tspan x="11.88" y="44.61">A</tspan></text><text class="cls-9" transform="translate(266.42 484.02) scale(1.15 1)">(S)-3-<tspan x="0" y="11.15">Hydroxy-</tspan><tspan x="0" y="22.3">tetra-</tspan><tspan x="0" y="33.46">decanoyl-</tspan><tspan x="0" y="44.61">Co</tspan><tspan x="11.88" y="44.61">A</tspan></text><text class="cls-9" transform="translate(394.54 488.04) scale(1.15 1)">(S)-3-<tspan x="0" y="11.15">Hydroxy-</tspan><tspan x="0" y="22.3">dodecanoyl-</tspan><tspan x="0" y="33.46">Co</tspan><tspan x="11.88" y="33.46">A</tspan></text><text class="cls-9" transform="translate(523.54 488.04) scale(1.15 1)">(S)-3-<tspan x="0" y="11.15">Hydroxy-</tspan><tspan x="0" y="22.3">decanoyl-</tspan><tspan x="0" y="33.46">Co</tspan><tspan x="11.88" y="33.46">A</tspan></text><text class="cls-9" transform="translate(780.24 488.04) scale(1.15 1)">(S)-3-<tspan x="0" y="11.15">Hydroxy-</tspan><tspan x="0" y="22.3">hexanoyl-</tspan><tspan x="0" y="33.46">Co</tspan><tspan x="11.88" y="33.46">A</tspan></text><text class="cls-9" transform="translate(908.34 499.63) scale(1.15 1)">(S)-3-Hydroxy-<tspan x="0" y="11.15">butanoyl-Co</tspan><tspan x="50.11" y="11.15">A</tspan></text><text class="cls-9" transform="translate(651.73 488.04) scale(1.15 1)">(S)-3-<tspan x="0" y="11.15">Hydroxy-</tspan><tspan x="0" y="22.3">octanoyl-</tspan><tspan x="0" y="33.46">Co</tspan><tspan x="11.88" y="33.46">A</tspan></text><text class="cls-9" transform="translate(139.3 570.19) scale(1.15 1)">3-Oxo-<tspan x="0" y="11.15">hexa-</tspan><tspan x="0" y="22.3">decanoyl-</tspan><tspan x="0" y="33.46">Co</tspan><tspan x="11.88" y="33.46">A</tspan></text><text class="cls-9" transform="translate(523.54 571.83) scale(1.15 1)">3-Oxo-<tspan x="0" y="11.15">decanoyl-</tspan><tspan x="0" y="22.3">Co</tspan><tspan x="11.88" y="22.3">A</tspan></text><text class="cls-9" transform="translate(782.17 574.2) scale(1.15 1)">3-Oxo-<tspan x="0" y="11.15">hexanoyl-</tspan><tspan x="0" y="22.3">Co</tspan><tspan x="11.88" y="22.3">A</tspan></text><text class="cls-9" transform="translate(908.34 574.33) scale(1.15 1)">Acetoacetyl-Co<tspan x="63.02" y="0">A</tspan></text><text class="cls-9" transform="translate(394.54 574.21) scale(1.15 1)">3-Oxo-<tspan x="0" y="11.15">dodecanoyl-</tspan><tspan x="0" y="22.3">Co</tspan><tspan x="11.88" y="22.3">A</tspan></text><text class="cls-9" transform="translate(264.37 570.19) scale(1.15 1)">3-Oxo-<tspan x="0" y="11.15">tetra-</tspan><tspan x="0" y="22.3">decanoyl-</tspan><tspan x="0" y="33.46">Co</tspan><tspan x="11.88" y="33.46">A</tspan></text><text class="cls-6" transform="translate(136.1 206.03)">Hexadecanoyl-Co<tspan x="95.38" y="0">A</tspan></text><text class="cls-6" transform="translate(37.66 140.52)">Hexadecanoate<tspan x="0" y="14.4">(Fatty acid)</tspan></text><text class="cls-6" transform="translate(211.12 162.49)">16-Hexadecanal</text><text class="cls-6" transform="translate(357.2 143.74)">16-Hexadecanol</text><g id="Rec"><rect class="cls-11" x="1008.82" y="56.87" width="83.65" height="20.31"/><text class="cls-12" transform="translate(1032.97 71.11) scale(1.05 1)">KEGG</text></g><g id="Rec-2" data-name="Rec"><rect class="cls-11" x="1008.82" y="89.64" width="83.65" height="20.31"/><text class="cls-12" transform="translate(1038.45 103.88) scale(1.05 1)">RN<tspan x="18.01" y="0">A</tspan></text></g><g id="Rec-3" data-name="Rec"><rect class="cls-11" x="1008.82" y="124" width="83.65" height="20.31"/><text class="cls-12" transform="translate(1026.76 138.24) scale(1.05 1)">Genome</text></g><rect class="cls-13" x="971.72" y="54.9" width="23.27" height="24.25"/><rect class="cls-14" x="971.72" y="87.66" width="23.27" height="24.25"/><rect class="cls-15" x="971.72" y="122.03" width="23.27" height="24.25"/><rect class="cls-11" x="956.35" y="40.72" width="157.42" height="120.63"/><g id="Round"><rect class="cls-11" x="973.89" y="770.94" width="141.5" height="26.5" rx="12" ry="12"/><text class="cls-16" transform="translate(982.12 788.74) scale(0.94 1)">Butonoate metabolism</text></g><g id="Round-2" data-name="Round"><rect class="cls-11" x="980.27" y="728.25" width="128.75" height="37.06" rx="12" ry="12"/><text class="cls-16" transform="translate(988.49 746.05) scale(0.94 1)">Alanine and aspartate<tspan x="0" y="15.11">metabolism</tspan></text></g><g id="Round-3" data-name="Round"><rect class="cls-11" x="959.03" y="606.41" width="152.08" height="39.74" rx="12" ry="12"/><text class="cls-16" transform="translate(967.25 624.21) scale(0.94 1)">Synthesis and degradation<tspan x="0" y="15.11">of ketone bodies</tspan></text></g><g id="Round-4" data-name="Round"><rect class="cls-11" x="227.77" y="63.69" width="124.31" height="24.81" rx="12" ry="12"/><text class="cls-16" transform="translate(235.99 81.49) scale(0.94 1)">Fatty acid elongation</text></g><g id="Round-5" data-name="Round"><rect class="cls-11" x="224.56" y="91.23" width="140.83" height="24.81" rx="12" ry="12"/><text class="cls-16" transform="translate(232.78 109.03) scale(0.94 1)">Glycerolipid metabolism</text></g><g id="Round-6" data-name="Round"><rect class="cls-11" x="89.17" y="56.51" width="83.16" height="39.17" rx="12" ry="12"/><text class="cls-16" transform="translate(97.39 74.31) scale(0.94 1)">Fatty acid<tspan x="0" y="15.11">biosynthesis</tspan></text></g><g id="Round-7" data-name="Round"><rect class="cls-11" x="860.51" y="810.17" width="83.46" height="26.5" rx="12" ry="12"/><text class="cls-16" transform="translate(868.74 827.97) scale(0.94 1)">Citrate cycle</text></g><text class="cls-6" transform="translate(832.18 744.91) scale(0.97 1)">Acetyl-Co<tspan x="52.01" y="0">A</tspan></text><text class="cls-6" transform="translate(269.79 740.5) scale(0.97 1)">Long-chain-fatty acid</text><text class="cls-6" transform="translate(530.97 740.5) scale(0.97 1)">Long-chain acyl -[acyl-carrier protein]</text><text class="cls-6" transform="translate(426.34 766.34) scale(0.97 1)">[acyl-carrier protein]</text><text class="cls-6" transform="translate(216.68 789.2) scale(0.97 1)">cis,cis-3,6-Docecadienoyl-Co<tspan x="155.39" y="0">A</tspan></text><text class="cls-6" transform="translate(232.78 814.92) scale(0.97 1)">(R)-3-Hydroxybutanoyl-Co<tspan x="140.04" y="0">A</tspan></text><text class="cls-6" transform="translate(357.2 863.83) scale(0.97 1)">1-Alcohol</text><text class="cls-6" transform="translate(568.8 853.83) scale(0.97 1)">Fatty acid</text><text class="cls-6" transform="translate(703.58 880.36) scale(0.97 1)">ω-Hydroxy fatty acid</text><text class="cls-6" transform="translate(703.58 912.93) scale(0.97 1)">ά-Hydroxy fatty acid</text><text class="cls-6" transform="translate(214.12 879.36) scale(0.97 1)">Alkane</text><text class="cls-6" transform="translate(186.32 912.04) scale(0.97 1)">Rubredoxin (red)</text><text class="cls-6" transform="translate(369.78 912.93) scale(0.97 1)">Rubredoxin (ox)</text><text class="cls-6" transform="translate(530.97 816.68) scale(0.97 1)">(S)-3-Hydroxybutanoyl-Co<tspan x="139.38" y="0">A</tspan></text><text class="cls-6" transform="translate(530.97 790.39) scale(0.97 1)">trans,cis-Lauro-2,6dienoyl-Co<tspan x="157.41" y="0">A</tspan></text><line class="cls-17" x1="1036.92" y1="583.27" x2="910.98" y2="582.94"/><polygon class="cls-18" points="904.84 583.18 911.84 579 911.83 587.38 904.84 583.18"/><line class="cls-17" x1="904.84" y1="740.88" x2="973.7" y2="741.07"/><polygon class="cls-18" points="979.55 740.84 972.85 745.01 972.86 736.64 979.55 740.84"/><line class="cls-17" x1="901.69" y1="784.25" x2="967.28" y2="784.44"/><polygon class="cls-18" points="972.85 784.2 966.47 788.38 966.48 780 972.85 784.2"/><rect class="cls-1" x="222.64" y="749.94" width="17.16" height="16.45"/><rect class="cls-2" x="188.44" y="749.94" width="17.16" height="16.45"/><rect class="cls-3" x="205.6" y="749.94" width="17.16" height="16.45"/><rect class="cls-1" x="463.64" y="777.04" width="17.16" height="16.45"/><rect class="cls-2" x="429.44" y="777.04" width="17.16" height="16.45"/><rect class="cls-3" x="446.59" y="777.04" width="17.16" height="16.45"/><rect class="cls-1" x="553.75" y="858.8" width="17.16" height="16.45"/><rect class="cls-2" x="519.55" y="858.8" width="17.16" height="16.45"/><rect class="cls-3" x="536.71" y="858.8" width="17.16" height="16.45"/><rect class="cls-1" x="450.7" y="858.8" width="17.16" height="16.45"/><rect class="cls-2" x="416.51" y="858.8" width="17.16" height="16.45"/><rect class="cls-3" x="433.66" y="858.8" width="17.16" height="16.45"/><rect class="cls-1" x="172.09" y="614.65" width="17.16" height="16.45"/><rect class="cls-2" x="137.89" y="614.65" width="17.16" height="16.45"/><rect class="cls-3" x="155.05" y="614.65" width="17.16" height="16.45"/><rect class="cls-1" x="300.71" y="614.36" width="17.16" height="16.45"/><rect class="cls-2" x="266.51" y="614.36" width="17.16" height="16.45"/><rect class="cls-3" x="283.66" y="614.36" width="17.16" height="16.45"/><rect class="cls-1" x="431.03" y="615.98" width="17.16" height="16.45"/><rect class="cls-2" x="396.84" y="615.98" width="17.16" height="16.45"/><rect class="cls-3" x="413.99" y="615.98" width="17.16" height="16.45"/><rect class="cls-1" x="685.81" y="613.36" width="17.16" height="16.45"/><rect class="cls-2" x="651.61" y="613.36" width="17.16" height="16.45"/><rect class="cls-3" x="668.76" y="613.36" width="17.16" height="16.45"/><rect class="cls-1" x="556.59" y="614.36" width="17.16" height="16.45"/><rect class="cls-2" x="522.39" y="614.36" width="17.16" height="16.45"/><rect class="cls-3" x="539.55" y="614.36" width="17.16" height="16.45"/><rect class="cls-1" x="815.02" y="615.98" width="17.16" height="16.45"/><rect class="cls-2" x="780.83" y="615.98" width="17.16" height="16.45"/><rect class="cls-3" x="797.98" y="615.98" width="17.16" height="16.45"/><rect class="cls-1" x="911.02" y="614.65" width="17.16" height="16.45"/><rect class="cls-2" x="876.82" y="614.65" width="17.16" height="16.45"/><rect class="cls-3" x="893.98" y="614.65" width="17.16" height="16.45"/><rect class="cls-1" x="909.59" y="448.64" width="17.16" height="16.45"/><rect class="cls-2" x="875.39" y="448.64" width="17.16" height="16.45"/><rect class="cls-3" x="892.54" y="448.64" width="17.16" height="16.45"/><rect class="cls-1" x="939.14" y="354.86" width="17.16" height="16.45"/><rect class="cls-2" x="904.94" y="354.86" width="17.16" height="16.45"/><rect class="cls-3" x="922.1" y="354.86" width="17.16" height="16.45"/><rect class="cls-1" x="879.55" y="337.36" width="17.16" height="16.45"/><rect class="cls-2" x="845.35" y="337.36" width="17.16" height="16.45"/><rect class="cls-3" x="862.5" y="337.36" width="17.16" height="16.45"/><rect class="cls-1" x="751.91" y="358.52" width="17.16" height="16.45"/><rect class="cls-2" x="717.72" y="358.52" width="17.16" height="16.45"/><rect class="cls-3" x="734.87" y="358.52" width="17.16" height="16.45"/><rect class="cls-1" x="811.2" y="340.69" width="17.16" height="16.45"/><rect class="cls-2" x="777" y="340.69" width="17.16" height="16.45"/><rect class="cls-3" x="794.16" y="340.69" width="17.16" height="16.45"/><rect class="cls-1" x="622.78" y="356.31" width="17.16" height="16.45"/><rect class="cls-2" x="588.58" y="356.31" width="17.16" height="16.45"/><rect class="cls-3" x="605.74" y="356.31" width="17.16" height="16.45"/><rect class="cls-1" x="622.89" y="338.86" width="17.16" height="16.45"/><rect class="cls-2" x="588.7" y="338.86" width="17.16" height="16.45"/><rect class="cls-3" x="605.85" y="338.86" width="17.16" height="16.45"/><rect class="cls-1" x="494.14" y="356.7" width="17.16" height="16.45"/><rect class="cls-2" x="459.94" y="356.7" width="17.16" height="16.45"/><rect class="cls-3" x="477.1" y="356.7" width="17.16" height="16.45"/><rect class="cls-1" x="494.34" y="338.86" width="17.16" height="16.45"/><rect class="cls-2" x="460.14" y="338.86" width="17.16" height="16.45"/><rect class="cls-3" x="477.3" y="338.86" width="17.16" height="16.45"/><rect class="cls-1" x="365.66" y="356.7" width="17.16" height="16.45"/><rect class="cls-2" x="331.46" y="356.7" width="17.16" height="16.45"/><rect class="cls-3" x="348.62" y="356.7" width="17.16" height="16.45"/><rect class="cls-1" x="366.77" y="339.54" width="17.16" height="16.45"/><rect class="cls-2" x="332.57" y="339.54" width="17.16" height="16.45"/><rect class="cls-3" x="349.73" y="339.54" width="17.16" height="16.45"/><rect class="cls-1" x="237.18" y="355.3" width="17.16" height="16.45"/><rect class="cls-2" x="202.98" y="355.3" width="17.16" height="16.45"/><rect class="cls-3" x="220.14" y="355.3" width="17.16" height="16.45"/><rect class="cls-1" x="237.6" y="339.54" width="17.16" height="16.45"/><rect class="cls-2" x="203.4" y="339.54" width="17.16" height="16.45"/><rect class="cls-3" x="220.55" y="339.54" width="17.16" height="16.45"/><rect class="cls-1" x="108.98" y="357.49" width="17.16" height="16.45"/><rect class="cls-2" x="74.78" y="357.49" width="17.16" height="16.45"/><rect class="cls-3" x="91.94" y="357.49" width="17.16" height="16.45"/><rect class="cls-1" x="108.42" y="338.86" width="17.16" height="16.45"/><rect class="cls-2" x="74.22" y="338.86" width="17.16" height="16.45"/><rect class="cls-3" x="91.38" y="338.86" width="17.16" height="16.45"/><rect class="cls-1" x="138.52" y="164.37" width="17.16" height="16.45"/><rect class="cls-2" x="104.32" y="164.37" width="17.16" height="16.45"/><rect class="cls-3" x="121.48" y="164.37" width="17.16" height="16.45"/><rect class="cls-2" x="909.25" y="532" width="17.16" height="16.45"/><rect class="cls-2" x="875.05" y="532" width="17.16" height="16.45"/><rect class="cls-2" x="892.21" y="532" width="17.16" height="16.45"/><rect class="cls-2" x="810.45" y="537.86" width="17.16" height="16.45"/><rect class="cls-2" x="776.25" y="537.86" width="17.16" height="16.45"/><rect class="cls-2" x="793.41" y="537.86" width="17.16" height="16.45"/><rect class="cls-2" x="749.92" y="537.19" width="17.16" height="16.45"/><rect class="cls-2" x="715.73" y="537.19" width="17.16" height="16.45"/><rect class="cls-2" x="732.88" y="537.19" width="17.16" height="16.45"/><rect class="cls-2" x="681.99" y="537.86" width="17.16" height="16.45"/><rect class="cls-2" x="647.79" y="537.86" width="17.16" height="16.45"/><rect class="cls-2" x="664.95" y="537.86" width="17.16" height="16.45"/><rect class="cls-2" x="622.95" y="537.19" width="17.16" height="16.45"/><rect class="cls-2" x="588.75" y="537.19" width="17.16" height="16.45"/><rect class="cls-2" x="605.91" y="537.19" width="17.16" height="16.45"/><rect class="cls-2" x="553.75" y="537.19" width="17.16" height="16.45"/><rect class="cls-2" x="519.55" y="537.19" width="17.16" height="16.45"/><rect class="cls-2" x="536.71" y="537.19" width="17.16" height="16.45"/><rect class="cls-2" x="494.96" y="537.19" width="17.16" height="16.45"/><rect class="cls-2" x="460.77" y="537.19" width="17.16" height="16.45"/><rect class="cls-2" x="477.92" y="537.19" width="17.16" height="16.45"/><rect class="cls-2" x="424.75" y="537.19" width="17.16" height="16.45"/><rect class="cls-2" x="390.55" y="537.19" width="17.16" height="16.45"/><rect class="cls-2" x="407.71" y="537.19" width="17.16" height="16.45"/><rect class="cls-2" x="365.71" y="537.19" width="17.16" height="16.45"/><rect class="cls-2" x="331.52" y="537.19" width="17.16" height="16.45"/><rect class="cls-2" x="348.67" y="537.19" width="17.16" height="16.45"/><rect class="cls-2" x="296.47" y="537.21" width="17.16" height="16.45"/><rect class="cls-2" x="262.27" y="537.21" width="17.16" height="16.45"/><rect class="cls-2" x="279.42" y="537.21" width="17.16" height="16.45"/><rect class="cls-2" x="237.28" y="537.19" width="17.16" height="16.45"/><rect class="cls-2" x="203.08" y="537.19" width="17.16" height="16.45"/><rect class="cls-2" x="220.24" y="537.19" width="17.16" height="16.45"/><rect class="cls-2" x="167.46" y="537.19" width="17.16" height="16.45"/><rect class="cls-2" x="133.26" y="537.19" width="17.16" height="16.45"/><rect class="cls-2" x="150.41" y="537.19" width="17.16" height="16.45"/><rect class="cls-2" x="108.48" y="535.59" width="17.16" height="16.45"/><rect class="cls-2" x="74.28" y="535.59" width="17.16" height="16.45"/><rect class="cls-2" x="91.44" y="535.59" width="17.16" height="16.45"/><rect class="cls-19" x="138.52" y="164.37" width="17.16" height="16.45"/><rect class="cls-20" x="104.32" y="164.37" width="17.16" height="16.45"/><rect class="cls-21" x="121.48" y="164.37" width="17.16" height="16.45"/><g id="Rec-4" data-name="Rec"><rect class="cls-11" x="263.91" y="132.17" width="52.02" height="16.49"/><text class="cls-6" transform="translate(265.13 143.74)">1.1.1.192</text></g><g id="Rec-5" data-name="Rec"><rect class="cls-11" x="162.74" y="132.17" width="52.02" height="16.49"/><text class="cls-6" transform="translate(167.31 143.74)">1.2.1.48</text></g><g id="Rec-6" data-name="Rec"><rect class="cls-11" x="104.74" y="224.21" width="52.02" height="16.49"/><text class="cls-6" transform="translate(115.65 235.78)">CPT1</text></g><g id="Rec-7" data-name="Rec"><rect class="cls-11" x="104.49" y="164.44" width="52.02" height="16.49"/><text class="cls-6" transform="translate(112.39 176.01)">6.2.1.3</text></g><text x="-80.91" y="-10.4"/><text x="-80.91" y="-10.4"/><circle class="cls-11" cx="129.75" cy="324.23" r="4.09"/><circle class="cls-11" cx="129.75" cy="415.06" r="4.09"/><circle class="cls-11" cx="129.75" cy="500.95" r="4.09"/><circle class="cls-11" cx="129.75" cy="585.68" r="4.09"/><circle class="cls-11" cx="129.75" cy="654.38" r="4.09"/><g id="Rec-8" data-name="Rec"><rect class="cls-11" x="132.98" y="338.84" width="52.02" height="16.49"/><text class="cls-6" transform="translate(138.88 350.41)">1.3.99.-</text></g><g id="Rec-9" data-name="Rec"><rect class="cls-11" x="137.31" y="614.42" width="52.02" height="16.49"/><text class="cls-6" transform="translate(141.87 625.99)">2.3.1.16</text></g><g id="Rec-10" data-name="Rec"><rect class="cls-11" x="132.98" y="537.16" width="52.02" height="16.49"/><text class="cls-6" transform="translate(134.65 548.73)">1.1.1.2<tspan x="36.7" y="0">1</tspan><tspan x="42.48" y="0">1</tspan></text></g><g id="Rec-11" data-name="Rec"><rect class="cls-11" x="73.95" y="537.16" width="52.02" height="16.49"/><text class="cls-6" transform="translate(78.51 548.73)">1.1.1.35</text></g><g id="Rec-12" data-name="Rec"><rect class="cls-11" x="133.48" y="452.47" width="52.02" height="16.49"/><text class="cls-6" transform="translate(138.04 464.04)">4.2.1.74</text></g><g id="Rec-13" data-name="Rec"><rect class="cls-11" x="74.2" y="453.47" width="52.02" height="16.49"/><text class="cls-6" transform="translate(78.76 465.04)">4.2.1.17</text></g><g id="Rec-14" data-name="Rec"><rect class="cls-11" x="103.74" y="378.21" width="52.02" height="16.49"/><text class="cls-6" transform="translate(111.64 389.78)">1.3.8.9</text></g><g id="Rec-15" data-name="Rec"><rect class="cls-11" x="133.23" y="356.68" width="52.02" height="16.49"/><text class="cls-6" transform="translate(141.13 368.25)">1.3.8.8</text></g><g id="Rec-16" data-name="Rec"><rect class="cls-11" x="73.95" y="356.68" width="52.02" height="16.49"/><text class="cls-6" transform="translate(81.85 368.25)">1.3.8.7</text></g><g id="Rec-17" data-name="Rec"><rect class="cls-11" x="73.95" y="338.84" width="52.02" height="16.49"/><text class="cls-6" transform="translate(81.85 350.41)">1.3.3.6</text></g><g id="Rec-18" data-name="Rec"><rect class="cls-11" x="104.99" y="283.99" width="52.02" height="16.49"/><text class="cls-6" transform="translate(115.9 295.56)">CPT2</text></g><polygon class="cls-18" points="129.64 418.98 133.81 428.61 125.44 428.6 129.64 418.98"/><line class="cls-17" x1="129.63" y1="423.79" x2="129.63" y2="484.02"/><polygon class="cls-18" points="129.86 492.07 125.68 484.02 134.06 484.04 129.86 492.07"/><polygon class="cls-18" points="129.64 505.15 133.81 514.78 125.44 514.76 129.64 505.15"/><line class="cls-17" x1="129.63" y1="509.96" x2="129.63" y2="570.19"/><polygon class="cls-18" points="129.86 578.24 125.68 570.19 134.06 570.21 129.86 578.24"/><line class="cls-17" x1="129.78" y1="395.7" x2="129.78" y2="404.2"/><line class="cls-17" x1="129.43" y1="331.21" x2="129.43" y2="378.21"/><polygon class="cls-18" points="129.62 408.29 125.85 400.38 133.4 400.4 129.62 408.29"/><path class="cls-11" d="M210.88,651.22c0.89-5.57-6.68-16.48,7.29-18.56-0.66,0-1.31-.05-2-0.07,0.68,0,1.3,0,2,.07" transform="translate(-80.91 -10.4)"/><path class="cls-11" d="M209.44,609.26c0.67,7.11-4.43,21.1,5.19,23.61-0.46,0-.9.08-1.35,0.11a7.74,7.74,0,0,0,1.35-.11" transform="translate(-80.91 -10.4)"/><path class="cls-11" d="M279.48,684c-0.94-15.74,7-46.67-7.66-52.35,0.69,0,1.37-.17,2.06-0.22a8.2,8.2,0,0,0-2.06.22" transform="translate(-80.91 -10.4)"/><path class="cls-11" d="M281,609.26c-1.15,6.8,8.16,20.19-9.19,22.62,0.82,0,1.63.08,2.45,0.1-0.85,0-1.61,0-2.45-.1" transform="translate(-80.91 -10.4)"/><polygon class="cls-18" points="128.7 590.84 132.9 598.87 124.52 598.88 128.7 590.84"/><polygon class="cls-18" points="129.99 645.99 125.81 637.94 134.19 637.96 129.99 645.99"/><text class="cls-6" transform="translate(95.94 661.39) scale(0.97 1)">Co<tspan x="15.34" y="0">A</tspan></text><line class="cls-17" x1="200.03" y1="306.14" x2="200.15" y2="600.94"/><path class="cls-11" d="M307.84,309.35c8.41,1.19,24.93-8.56,28,9.56,0-.86.09-1.7,0.12-2.55a23.13,23.13,0,0,1-.12,2.55" transform="translate(-80.91 -10.4)"/><path class="cls-11" d="M309.49,309.33c-8.53,1.19-25.3-8.55-28.37,9.57,0-.86-0.09-1.7-0.12-2.55a22.8,22.8,0,0,0,.12,2.55" transform="translate(-80.91 -10.4)"/><polygon class="cls-18" points="255.01 316.42 251.23 308.51 258.79 308.53 255.01 316.42"/><path class="cls-11" d="M297.59,691.18c-5.55-1-16.63,6.31-18.39-7.7,0,0.66-.08,1.31-0.11,2,0-.68.05-1.3,0.11-2" transform="translate(-80.91 -10.4)"/><circle class="cls-11" cx="258.37" cy="324.23" r="4.09"/><circle class="cls-11" cx="258.37" cy="415.06" r="4.09"/><circle class="cls-11" cx="258.37" cy="500.95" r="4.09"/><circle class="cls-11" cx="258.37" cy="585.68" r="4.09"/><circle class="cls-11" cx="258.37" cy="654.38" r="4.09"/><g id="Rec-19" data-name="Rec"><rect class="cls-11" x="261.6" y="338.84" width="52.02" height="16.49"/><text class="cls-6" transform="translate(267.5 350.41)">1.3.99.-</text></g><g id="Rec-20" data-name="Rec"><rect class="cls-11" x="265.92" y="614.42" width="52.02" height="16.49"/><text class="cls-6" transform="translate(270.49 625.99)">2.3.1.16</text></g><g id="Rec-21" data-name="Rec"><rect class="cls-11" x="261.6" y="537.16" width="52.02" height="16.49"/><text class="cls-6" transform="translate(263.27 548.73)">1.1.1.2<tspan x="36.7" y="0">1</tspan><tspan x="42.48" y="0">1</tspan></text></g><g id="Rec-22" data-name="Rec"><rect class="cls-11" x="202.56" y="537.16" width="52.02" height="16.49"/><text class="cls-6" transform="translate(207.13 548.73)">1.1.1.35</text></g><g id="Rec-23" data-name="Rec"><rect class="cls-11" x="262.1" y="452.47" width="52.02" height="16.49"/><text class="cls-6" transform="translate(266.66 464.04)">4.2.1.74</text></g><g id="Rec-24" data-name="Rec"><rect class="cls-11" x="202.81" y="453.47" width="52.02" height="16.49"/><text class="cls-6" transform="translate(207.38 465.04)">4.2.1.17</text></g><g id="Rec-25" data-name="Rec"><rect class="cls-11" x="232.36" y="378.21" width="52.02" height="16.49"/><text class="cls-6" transform="translate(240.26 389.78)">1.3.8.9</text></g><g id="Rec-26" data-name="Rec"><rect class="cls-11" x="261.85" y="356.68" width="52.02" height="16.49"/><text class="cls-6" transform="translate(269.75 368.25)">1.3.8.8</text></g><g id="Rec-27" data-name="Rec"><rect class="cls-11" x="202.56" y="356.68" width="52.02" height="16.49"/><text class="cls-6" transform="translate(210.47 368.25)">1.3.8.7</text></g><g id="Rec-28" data-name="Rec"><rect class="cls-11" x="202.56" y="338.84" width="52.02" height="16.49"/><text class="cls-6" transform="translate(210.47 350.41)">1.3.3.6</text></g><polygon class="cls-18" points="258.25 418.98 262.43 428.61 254.06 428.6 258.25 418.98"/><line class="cls-17" x1="258.24" y1="423.79" x2="258.24" y2="484.02"/><polygon class="cls-18" points="258.48 492.07 254.3 484.02 262.68 484.04 258.48 492.07"/><polygon class="cls-18" points="258.25 505.15 262.43 514.78 254.06 514.76 258.25 505.15"/><line class="cls-17" x1="258.24" y1="509.96" x2="258.24" y2="570.19"/><polygon class="cls-18" points="258.48 578.24 254.3 570.19 262.68 570.21 258.48 578.24"/><line class="cls-17" x1="258.4" y1="395.7" x2="258.4" y2="404.2"/><line class="cls-17" x1="258.04" y1="331.21" x2="258.04" y2="378.21"/><polygon class="cls-18" points="258.24 408.29 254.46 400.38 262.02 400.4 258.24 408.29"/><path class="cls-11" d="M339.5,651.22c0.89-5.57-6.68-16.48,7.29-18.56-0.66,0-1.31-.05-2-0.07,0.68,0,1.3,0,2,.07" transform="translate(-80.91 -10.4)"/><path class="cls-11" d="M338.06,609.26c0.67,7.11-4.43,21.1,5.19,23.61-0.46,0-.9.08-1.35,0.11a7.74,7.74,0,0,0,1.35-.11" transform="translate(-80.91 -10.4)"/><path class="cls-11" d="M408.1,684c-0.94-15.74,7-46.67-7.66-52.35,0.69,0,1.37-.17,2.06-0.22a8.2,8.2,0,0,0-2.06.22" transform="translate(-80.91 -10.4)"/><path class="cls-11" d="M409.61,609.26c-1.15,6.8,8.16,20.19-9.19,22.62,0.82,0,1.63.08,2.45,0.1-0.85,0-1.61,0-2.45-.1" transform="translate(-80.91 -10.4)"/><polygon class="cls-18" points="257.32 590.84 261.51 598.87 253.14 598.88 257.32 590.84"/><polygon class="cls-18" points="258.6 645.99 254.43 637.94 262.8 637.96 258.6 645.99"/><text class="cls-6" transform="translate(224.56 661.39) scale(0.97 1)">Co<tspan x="15.34" y="0">A</tspan></text><line class="cls-17" x1="328.65" y1="306.14" x2="328.77" y2="600.94"/><path class="cls-11" d="M436.46,309.35c8.41,1.19,24.93-8.56,28,9.56,0-.86.09-1.7,0.12-2.55a23.13,23.13,0,0,1-.12,2.55" transform="translate(-80.91 -10.4)"/><path class="cls-11" d="M438.11,309.33c-8.53,1.19-25.3-8.55-28.37,9.57,0-.86-0.09-1.7-0.12-2.55a22.8,22.8,0,0,0,.12,2.55" transform="translate(-80.91 -10.4)"/><polygon class="cls-18" points="383.62 316.42 379.85 308.51 387.41 308.53 383.62 316.42"/><path class="cls-11" d="M426.2,691.18c-5.55-1-16.63,6.31-18.39-7.7,0,0.66-.08,1.31-0.11,2,0-.68.05-1.3,0.11-2" transform="translate(-80.91 -10.4)"/><circle class="cls-11" cx="386.98" cy="324.23" r="4.09"/><circle class="cls-11" cx="386.98" cy="415.06" r="4.09"/><circle class="cls-11" cx="386.98" cy="500.95" r="4.09"/><circle class="cls-11" cx="386.98" cy="585.68" r="4.09"/><circle class="cls-11" cx="386.98" cy="654.38" r="4.09"/><g id="Rec-29" data-name="Rec"><rect class="cls-11" x="390.22" y="338.84" width="52.02" height="16.49"/><text class="cls-6" transform="translate(396.12 350.41)">1.3.99.-</text></g><g id="Rec-30" data-name="Rec"><rect class="cls-11" x="394.54" y="614.42" width="52.02" height="16.49"/><text class="cls-6" transform="translate(399.1 625.99)">2.3.1.16</text></g><g id="Rec-31" data-name="Rec"><rect class="cls-11" x="390.22" y="537.16" width="52.02" height="16.49"/><text class="cls-6" transform="translate(391.89 548.73)">1.1.1.2<tspan x="36.7" y="0">1</tspan><tspan x="42.48" y="0">1</tspan></text></g><g id="Rec-32" data-name="Rec"><rect class="cls-11" x="331.18" y="537.16" width="52.02" height="16.49"/><text class="cls-6" transform="translate(335.75 548.73)">1.1.1.35</text></g><g id="Rec-33" data-name="Rec"><rect class="cls-11" x="390.72" y="452.47" width="52.02" height="16.49"/><text class="cls-6" transform="translate(395.28 464.04)">4.2.1.74</text></g><g id="Rec-34" data-name="Rec"><rect class="cls-11" x="331.43" y="453.47" width="52.02" height="16.49"/><text class="cls-6" transform="translate(335.99 465.04)">4.2.1.17</text></g><g id="Rec-35" data-name="Rec"><rect class="cls-11" x="390.47" y="356.68" width="52.02" height="16.49"/><text class="cls-6" transform="translate(398.37 368.25)">1.3.8.8</text></g><g id="Rec-36" data-name="Rec"><rect class="cls-11" x="331.18" y="356.68" width="52.02" height="16.49"/><text class="cls-6" transform="translate(339.08 368.25)">1.3.8.7</text></g><g id="Rec-37" data-name="Rec"><rect class="cls-11" x="331.18" y="338.84" width="52.02" height="16.49"/><text class="cls-6" transform="translate(339.08 350.41)">1.3.3.6</text></g><polygon class="cls-18" points="386.87 418.98 391.05 428.61 382.67 428.6 386.87 418.98"/><line class="cls-17" x1="386.86" y1="423.79" x2="386.86" y2="484.02"/><polygon class="cls-18" points="387.1 492.07 382.92 484.02 391.3 484.04 387.1 492.07"/><polygon class="cls-18" points="386.87 505.15 391.05 514.78 382.67 514.76 386.87 505.15"/><line class="cls-17" x1="386.86" y1="509.96" x2="386.86" y2="570.19"/><polygon class="cls-18" points="387.1 578.24 382.92 570.19 391.3 570.21 387.1 578.24"/><line class="cls-17" x1="387.01" y1="395.7" x2="387.01" y2="404.2"/><line class="cls-17" x1="386.66" y1="331.21" x2="387.01" y2="395.7"/><polygon class="cls-18" points="386.85 408.29 383.08 400.38 390.64 400.4 386.85 408.29"/><path class="cls-11" d="M468.11,651.22c0.89-5.57-6.68-16.48,7.29-18.56-0.66,0-1.31-.05-2-0.07,0.68,0,1.3,0,2,.07" transform="translate(-80.91 -10.4)"/><path class="cls-11" d="M466.68,609.26c0.67,7.11-4.43,21.1,5.19,23.61-0.46,0-.9.08-1.35,0.11a7.74,7.74,0,0,0,1.35-.11" transform="translate(-80.91 -10.4)"/><path class="cls-11" d="M536.72,684c-0.94-15.74,7-46.67-7.66-52.35,0.69,0,1.37-.17,2.06-0.22a8.2,8.2,0,0,0-2.06.22" transform="translate(-80.91 -10.4)"/><path class="cls-11" d="M538.23,609.26c-1.15,6.8,8.16,20.19-9.19,22.62,0.82,0,1.63.08,2.45,0.1-0.85,0-1.61,0-2.45-.1" transform="translate(-80.91 -10.4)"/><polygon class="cls-18" points="385.94 590.84 390.13 598.87 381.76 598.88 385.94 590.84"/><polygon class="cls-18" points="387.22 645.99 383.05 637.94 391.42 637.96 387.22 645.99"/><text class="cls-6" transform="translate(353.18 661.39) scale(0.97 1)">Co<tspan x="15.34" y="0">A</tspan></text><line class="cls-17" x1="457.26" y1="306.14" x2="457.39" y2="600.94"/><path class="cls-11" d="M565.07,309.35c8.41,1.19,24.93-8.56,28,9.56,0-.86.09-1.7,0.12-2.55a23.13,23.13,0,0,1-.12,2.55" transform="translate(-80.91 -10.4)"/><path class="cls-11" d="M566.73,309.33c-8.53,1.19-25.3-8.55-28.37,9.57,0-.86-0.09-1.7-0.12-2.55a22.8,22.8,0,0,0,.12,2.55" transform="translate(-80.91 -10.4)"/><polygon class="cls-18" points="512.24 316.42 508.47 308.51 516.03 308.53 512.24 316.42"/><path class="cls-11" d="M554.82,691.18c-5.55-1-16.63,6.31-18.39-7.7,0,0.66-.08,1.31-0.11,2,0-.68.05-1.3,0.11-2" transform="translate(-80.91 -10.4)"/><circle class="cls-11" cx="515.98" cy="324.23" r="4.09"/><circle class="cls-11" cx="515.98" cy="415.06" r="4.09"/><circle class="cls-11" cx="515.98" cy="500.95" r="4.09"/><circle class="cls-11" cx="515.98" cy="585.68" r="4.09"/><circle class="cls-11" cx="515.98" cy="654.38" r="4.09"/><g id="Rec-38" data-name="Rec"><rect class="cls-11" x="519.22" y="338.84" width="52.02" height="16.49"/><text class="cls-6" transform="translate(525.12 350.41)">1.3.99.-</text></g><g id="Rec-39" data-name="Rec"><rect class="cls-11" x="523.54" y="614.42" width="52.02" height="16.49"/><text class="cls-6" transform="translate(528.11 625.99)">2.3.1.16</text></g><g id="Rec-40" data-name="Rec"><rect class="cls-11" x="519.22" y="537.16" width="52.02" height="16.49"/><text class="cls-6" transform="translate(520.89 548.73)">1.1.1.2<tspan x="36.7" y="0">1</tspan><tspan x="42.48" y="0">1</tspan></text></g><g id="Rec-41" data-name="Rec"><rect class="cls-11" x="460.18" y="537.16" width="52.02" height="16.49"/><text class="cls-6" transform="translate(464.75 548.73)">1.1.1.35</text></g><g id="Rec-42" data-name="Rec"><rect class="cls-11" x="519.72" y="452.47" width="52.02" height="16.49"/><text class="cls-6" transform="translate(524.28 464.04)">4.2.1.74</text></g><g id="Rec-43" data-name="Rec"><rect class="cls-11" x="460.43" y="453.47" width="52.02" height="16.49"/><text class="cls-6" transform="translate(464.99 465.04)">4.2.1.17</text></g><g id="Rec-44" data-name="Rec"><rect class="cls-11" x="519.47" y="356.68" width="52.02" height="16.49"/><text class="cls-6" transform="translate(527.37 368.25)">1.3.8.8</text></g><g id="Rec-45" data-name="Rec"><rect class="cls-11" x="460.18" y="356.68" width="52.02" height="16.49"/><text class="cls-6" transform="translate(468.08 368.25)">1.3.8.7</text></g><g id="Rec-46" data-name="Rec"><rect class="cls-11" x="460.18" y="338.84" width="52.02" height="16.49"/><text class="cls-6" transform="translate(468.08 350.41)">1.3.3.6</text></g><polygon class="cls-18" points="515.87 418.98 520.05 428.61 511.67 428.6 515.87 418.98"/><line class="cls-17" x1="515.86" y1="423.79" x2="515.86" y2="484.02"/><polygon class="cls-18" points="516.1 492.07 511.92 484.02 520.3 484.04 516.1 492.07"/><polygon class="cls-18" points="515.87 505.15 520.05 514.78 511.67 514.76 515.87 505.15"/><line class="cls-17" x1="515.86" y1="509.96" x2="515.86" y2="570.19"/><polygon class="cls-18" points="516.1 578.24 511.92 570.19 520.3 570.21 516.1 578.24"/><line class="cls-17" x1="516.02" y1="395.7" x2="516.02" y2="404.2"/><line class="cls-17" x1="515.66" y1="331.21" x2="516.02" y2="395.7"/><polygon class="cls-18" points="515.86 408.29 512.08 400.38 519.64 400.4 515.86 408.29"/><path class="cls-11" d="M597.11,651.22c0.89-5.57-6.68-16.48,7.29-18.56-0.66,0-1.31-.05-2-0.07,0.68,0,1.3,0,2,.07" transform="translate(-80.91 -10.4)"/><path class="cls-11" d="M595.68,609.26c0.67,7.11-4.43,21.1,5.19,23.61-0.46,0-.9.08-1.35,0.11a7.74,7.74,0,0,0,1.35-.11" transform="translate(-80.91 -10.4)"/><path class="cls-11" d="M665.72,684c-0.94-15.74,7-46.67-7.66-52.35,0.69,0,1.37-.17,2.06-0.22a8.2,8.2,0,0,0-2.06.22" transform="translate(-80.91 -10.4)"/><path class="cls-11" d="M667.23,609.26c-1.15,6.8,8.16,20.19-9.19,22.62,0.82,0,1.63.08,2.45,0.1-0.85,0-1.61,0-2.45-.1" transform="translate(-80.91 -10.4)"/><polygon class="cls-18" points="514.94 590.84 519.13 598.87 510.76 598.88 514.94 590.84"/><polygon class="cls-18" points="516.22 645.99 512.04 637.94 520.42 637.96 516.22 645.99"/><text class="cls-6" transform="translate(482.18 661.39) scale(0.97 1)">Co<tspan x="15.34" y="0">A</tspan></text><line class="cls-17" x1="586.27" y1="306.14" x2="586.39" y2="600.94"/><path class="cls-11" d="M694.07,309.35c8.41,1.19,24.93-8.56,28,9.56,0-.86.09-1.7,0.12-2.55a23.13,23.13,0,0,1-.12,2.55" transform="translate(-80.91 -10.4)"/><path class="cls-11" d="M695.73,309.33c-8.53,1.19-25.3-8.55-28.37,9.57,0-.86-0.09-1.7-0.12-2.55a22.8,22.8,0,0,0,.12,2.55" transform="translate(-80.91 -10.4)"/><polygon class="cls-18" points="641.24 316.42 637.47 308.51 645.03 308.53 641.24 316.42"/><path class="cls-11" d="M683.82,691.18c-5.55-1-16.63,6.31-18.39-7.7,0,0.66-.08,1.31-0.11,2,0-.68.05-1.3,0.11-2" transform="translate(-80.91 -10.4)"/><circle class="cls-11" cx="644.22" cy="324.23" r="4.09"/><circle class="cls-11" cx="644.22" cy="415.06" r="4.09"/><circle class="cls-11" cx="644.22" cy="500.95" r="4.09"/><circle class="cls-11" cx="644.22" cy="585.68" r="4.09"/><circle class="cls-11" cx="644.22" cy="654.38" r="4.09"/><g id="Rec-47" data-name="Rec"><rect class="cls-11" x="647.46" y="338.84" width="52.02" height="16.49"/><text class="cls-6" transform="translate(653.36 350.41)">1.3.99.-</text></g><g id="Rec-48" data-name="Rec"><rect class="cls-11" x="651.78" y="614.42" width="52.02" height="16.49"/><text class="cls-6" transform="translate(656.34 625.99)">2.3.1.16</text></g><g id="Rec-49" data-name="Rec"><rect class="cls-11" x="647.46" y="537.16" width="52.02" height="16.49"/><text class="cls-6" transform="translate(649.12 548.73)">1.1.1.2<tspan x="36.7" y="0">1</tspan><tspan x="42.48" y="0">1</tspan></text></g><g id="Rec-50" data-name="Rec"><rect class="cls-11" x="588.42" y="537.16" width="52.02" height="16.49"/><text class="cls-6" transform="translate(592.98 548.73)">1.1.1.35</text></g><g id="Rec-51" data-name="Rec"><rect class="cls-11" x="647.95" y="452.47" width="52.02" height="16.49"/><text class="cls-6" transform="translate(652.52 464.04)">4.2.1.74</text></g><g id="Rec-52" data-name="Rec"><rect class="cls-11" x="588.67" y="453.47" width="52.02" height="16.49"/><text class="cls-6" transform="translate(593.23 465.04)">4.2.1.17</text></g><g id="Rec-53" data-name="Rec"><rect class="cls-11" x="647.7" y="356.68" width="52.02" height="16.49"/><text class="cls-6" transform="translate(655.61 368.25)">1.3.8.8</text></g><g id="Rec-54" data-name="Rec"><rect class="cls-11" x="588.42" y="356.68" width="52.02" height="16.49"/><text class="cls-6" transform="translate(596.32 368.25)">1.3.8.7</text></g><g id="Rec-55" data-name="Rec"><rect class="cls-11" x="588.42" y="338.84" width="52.02" height="16.49"/><text class="cls-6" transform="translate(596.32 350.41)">1.3.3.6</text></g><polygon class="cls-18" points="644.11 418.98 648.29 428.61 639.91 428.6 644.11 418.98"/><line class="cls-17" x1="644.1" y1="423.79" x2="644.1" y2="484.02"/><polygon class="cls-18" points="644.33 492.07 640.15 484.02 648.53 484.04 644.33 492.07"/><polygon class="cls-18" points="644.11 505.15 648.29 514.78 639.91 514.76 644.11 505.15"/><line class="cls-17" x1="644.1" y1="509.96" x2="644.1" y2="570.19"/><polygon class="cls-18" points="644.33 578.24 640.15 570.19 648.53 570.21 644.33 578.24"/><line class="cls-17" x1="644.25" y1="395.7" x2="644.25" y2="404.2"/><line class="cls-17" x1="643.9" y1="331.21" x2="644.25" y2="395.7"/><polygon class="cls-18" points="644.09 408.29 640.32 400.38 647.88 400.4 644.09 408.29"/><path class="cls-11" d="M725.35,651.22c0.89-5.57-6.68-16.48,7.29-18.56-0.66,0-1.31-.05-2-0.07,0.68,0,1.3,0,2,.07" transform="translate(-80.91 -10.4)"/><path class="cls-11" d="M723.91,609.26c0.67,7.11-4.43,21.1,5.19,23.61-0.46,0-.9.08-1.35,0.11a7.74,7.74,0,0,0,1.35-.11" transform="translate(-80.91 -10.4)"/><path class="cls-11" d="M794,684c-0.94-15.74,7-46.67-7.66-52.35,0.69,0,1.37-.17,2.06-0.22a8.2,8.2,0,0,0-2.06.22" transform="translate(-80.91 -10.4)"/><path class="cls-11" d="M795.46,609.26c-1.15,6.8,8.16,20.19-9.19,22.62,0.82,0,1.63.08,2.45,0.1-0.85,0-1.61,0-2.45-.1" transform="translate(-80.91 -10.4)"/><polygon class="cls-18" points="643.18 590.84 647.37 598.87 638.99 598.88 643.18 590.84"/><polygon class="cls-18" points="644.46 645.99 640.28 637.94 648.66 637.96 644.46 645.99"/><text class="cls-6" transform="translate(610.41 661.39) scale(0.97 1)">Co<tspan x="15.34" y="0">A</tspan></text><line class="cls-17" x1="714.5" y1="306.14" x2="714.62" y2="600.94"/><path class="cls-11" d="M822.31,309.35c8.41,1.19,24.93-8.56,28,9.56,0-.86.09-1.7,0.12-2.55a23.13,23.13,0,0,1-.12,2.55" transform="translate(-80.91 -10.4)"/><path class="cls-11" d="M824,309.33c-8.53,1.19-25.3-8.55-28.37,9.57,0-.86-0.09-1.7-0.12-2.55a22.8,22.8,0,0,0,.12,2.55" transform="translate(-80.91 -10.4)"/><polygon class="cls-18" points="769.48 316.42 765.71 308.51 773.27 308.53 769.48 316.42"/><path class="cls-11" d="M812.06,691.18c-5.55-1-16.63,6.31-18.39-7.7,0,0.66-.08,1.31-0.11,2,0-.68.05-1.3,0.11-2" transform="translate(-80.91 -10.4)"/><circle class="cls-11" cx="772.69" cy="324.91" r="4.09"/><circle class="cls-11" cx="772.69" cy="415.73" r="4.09"/><circle class="cls-11" cx="772.69" cy="501.62" r="4.09"/><circle class="cls-11" cx="772.69" cy="586.35" r="4.09"/><circle class="cls-11" cx="772.69" cy="655.06" r="4.09"/><g id="Rec-56" data-name="Rec"><rect class="cls-11" x="775.92" y="339.52" width="52.02" height="16.49"/><text class="cls-6" transform="translate(783.82 351.09)">1.3.3.6</text></g><g id="Rec-57" data-name="Rec"><rect class="cls-11" x="780.24" y="615.09" width="52.02" height="16.49"/><text class="cls-6" transform="translate(784.81 626.66)">2.3.1.16</text></g><g id="Rec-58" data-name="Rec"><rect class="cls-11" x="775.92" y="537.84" width="52.02" height="16.49"/><text class="cls-6" transform="translate(777.59 549.41)">1.1.1.2<tspan x="36.7" y="0">1</tspan><tspan x="42.48" y="0">1</tspan></text></g><g id="Rec-59" data-name="Rec"><rect class="cls-11" x="716.88" y="537.84" width="52.02" height="16.49"/><text class="cls-6" transform="translate(721.45 549.41)">1.1.1.35</text></g><g id="Rec-60" data-name="Rec"><rect class="cls-11" x="776.42" y="453.15" width="52.02" height="16.49"/><text class="cls-6" transform="translate(780.98 464.72)">4.2.1.74</text></g><g id="Rec-61" data-name="Rec"><rect class="cls-11" x="717.13" y="454.15" width="52.02" height="16.49"/><text class="cls-6" transform="translate(721.7 465.72)">4.2.1.17</text></g><g id="Rec-62" data-name="Rec"><rect class="cls-11" x="746.67" y="378.88" width="52.02" height="16.49"/><text class="cls-6" transform="translate(752.58 390.45)">1.3.99.-</text></g><g id="Rec-63" data-name="Rec"><rect class="cls-11" x="776.17" y="357.35" width="52.02" height="16.49"/><text class="cls-6" transform="translate(784.07 368.92)">1.3.8.8</text></g><g id="Rec-64" data-name="Rec"><rect class="cls-11" x="716.88" y="357.35" width="52.02" height="16.49"/><text class="cls-6" transform="translate(724.78 368.92)">1.3.8.7</text></g><g id="Rec-65" data-name="Rec"><rect class="cls-11" x="716.88" y="339.52" width="52.02" height="16.49"/><text class="cls-6" transform="translate(724.78 351.09)">1.3.8.1</text></g><polygon class="cls-18" points="772.57 419.65 776.75 429.29 768.37 429.27 772.57 419.65"/><line class="cls-17" x1="772.56" y1="424.47" x2="772.56" y2="484.7"/><polygon class="cls-18" points="772.8 492.74 768.62 484.7 777 484.71 772.8 492.74"/><polygon class="cls-18" points="772.57 505.82 776.75 515.45 768.37 515.44 772.57 505.82"/><line class="cls-17" x1="772.56" y1="510.64" x2="772.56" y2="570.86"/><polygon class="cls-18" points="772.8 578.91 768.62 570.86 777 570.88 772.8 578.91"/><line class="cls-17" x1="772.72" y1="396.37" x2="772.72" y2="404.87"/><line class="cls-17" x1="772.36" y1="331.88" x2="772.36" y2="378.88"/><polygon class="cls-18" points="772.55 408.96 768.78 401.05 776.34 401.07 772.55 408.96"/><path class="cls-11" d="M853.82,651.9c0.89-5.57-6.68-16.48,7.29-18.56-0.66,0-1.31-.05-2-0.07,0.68,0,1.3,0,2,.07" transform="translate(-80.91 -10.4)"/><path class="cls-11" d="M852.38,609.94C853,617,848,631,857.57,633.55c-0.46,0-.9.08-1.35,0.11a7.74,7.74,0,0,0,1.35-.11" transform="translate(-80.91 -10.4)"/><path class="cls-11" d="M922.42,684.66c-0.94-15.74,7-46.67-7.66-52.35,0.69,0,1.37-.17,2.06-0.22a8.2,8.2,0,0,0-2.06.22" transform="translate(-80.91 -10.4)"/><path class="cls-11" d="M923.93,609.93c-1.15,6.8,8.16,20.19-9.19,22.62,0.82,0,1.63.08,2.45,0.1-0.85,0-1.61,0-2.45-.1" transform="translate(-80.91 -10.4)"/><polygon class="cls-18" points="771.64 591.51 775.84 599.55 767.46 599.55 771.64 591.51"/><polygon class="cls-18" points="772.92 646.66 768.75 638.62 777.12 638.63 772.92 646.66"/><text class="cls-6" transform="translate(738.88 662.06) scale(0.97 1)">Co<tspan x="15.34" y="0">A</tspan></text><line class="cls-17" x1="842.97" y1="306.81" x2="843.09" y2="601.61"/><path class="cls-11" d="M950.78,310c9.41,1.19,27.9-8.56,31.29,9.56,0-.86.1-1.7,0.13-2.55a20.69,20.69,0,0,1-.13,2.55" transform="translate(-80.91 -10.4)"/><path class="cls-11" d="M952.43,310c-8.53,1.19-25.3-8.55-28.37,9.57,0-.86-0.09-1.7-0.12-2.55a22.8,22.8,0,0,0,.12,2.55" transform="translate(-80.91 -10.4)"/><polygon class="cls-18" points="900.98 318.67 897.21 310.76 904.76 310.78 900.98 318.67"/><path class="cls-11" d="M940.52,691.85c-5.55-1-16.63,6.31-18.39-7.7,0,0.66-.08,1.31-0.11,2,0-.68.05-1.3,0.11-2" transform="translate(-80.91 -10.4)"/><g id="Rec-66" data-name="Rec"><rect class="cls-11" x="904.11" y="337.34" width="52.02" height="16.49"/><text class="cls-6" transform="translate(912.01 348.91)">1.3.3.6</text></g><g id="Rec-67" data-name="Rec"><rect class="cls-11" x="904.36" y="355.18" width="52.02" height="16.49"/><text class="cls-6" transform="translate(912.26 366.75)">1.3.8.8</text></g><g id="Rec-68" data-name="Rec"><rect class="cls-11" x="845.07" y="355.18" width="52.02" height="16.49"/><text class="cls-6" transform="translate(852.97 366.75)">1.3.8.7</text></g><g id="Rec-69" data-name="Rec"><rect class="cls-11" x="845.07" y="337.34" width="52.02" height="16.49"/><text class="cls-6" transform="translate(852.97 348.91)">1.3.8.1</text></g><line class="cls-17" x1="900.9" y1="394.2" x2="900.9" y2="402.7"/><line class="cls-17" x1="900.55" y1="329.71" x2="900.9" y2="394.2"/><polygon class="cls-18" points="900.74 406.79 896.97 398.88 904.53 398.9 900.74 406.79"/><g id="Rec-70" data-name="Rec"><rect class="cls-11" x="970.96" y="373.96" width="52.02" height="16.49"/><text class="cls-6" transform="translate(978.86 385.53)">1.3.8.6</text></g><g id="Rec-71" data-name="Rec"><rect class="cls-11" x="875.11" y="448.62" width="52.02" height="16.49"/><text class="cls-6" transform="translate(879.67 460.19)">4.2.1.17</text></g><g id="Rec-72" data-name="Rec"><rect class="cls-11" x="875.43" y="532.24" width="52.02" height="16.49"/><text class="cls-6" transform="translate(879.99 543.81)">1.1.1.35</text></g><g id="Rec-73" data-name="Rec"><rect class="cls-11" x="876.24" y="613.95" width="52.02" height="16.49"/><text class="cls-6" transform="translate(884.14 625.52)">2.3.1.9</text></g><g id="Rec-74" data-name="Rec"><rect class="cls-11" x="429.4" y="728.17" width="52.02" height="16.49"/><text class="cls-6" transform="translate(433.96 739.74)">6.2.1.20</text></g><g id="Rec-75" data-name="Rec"><rect class="cls-11" x="429.31" y="777.06" width="52.02" height="16.49"/><text class="cls-6" transform="translate(437.22 788.62)">5.3.3.8</text></g><g id="Rec-76" data-name="Rec"><rect class="cls-11" x="429.1" y="803.35" width="52.02" height="16.49"/><text class="cls-6" transform="translate(437 814.92)">5.1.2.3</text></g><g id="Rec-77" data-name="Rec"><rect class="cls-11" x="416.23" y="858.78" width="52.02" height="16.49"/><text class="cls-6" transform="translate(424.13 870.35)">1.1.1.1</text></g><g id="Rec-78" data-name="Rec"><rect class="cls-11" x="416.48" y="877.53" width="52.02" height="16.49"/><text class="cls-6" transform="translate(417.7 889.1)">1.1.99.20</text></g><g id="Rec-79" data-name="Rec"><rect class="cls-11" x="517.97" y="876.27" width="52.02" height="16.49"/><text class="cls-6" transform="translate(525.87 887.84)">1.2.5.2</text></g><g id="Rec-80" data-name="Rec"><rect class="cls-11" x="615.23" y="879.23" width="58.98" height="16.49"/><text class="cls-6" transform="translate(617.22 890.8)">1.14.14.80</text></g><g id="Rec-81" data-name="Rec"><rect class="cls-11" x="619.09" y="855.58" width="52.02" height="16.49"/><text class="cls-6" transform="translate(620.31 867.15)">1.14.15.3</text></g><g id="Rec-82" data-name="Rec"><rect class="cls-11" x="615.23" y="902.69" width="52.02" height="16.49"/><text class="cls-6" transform="translate(616.46 914.25)">1.14.14.1</text></g><g id="Rec-83" data-name="Rec"><rect class="cls-11" x="517.97" y="858.78" width="52.02" height="16.49"/><text class="cls-6" transform="translate(525.87 870.35)">1.2.1.3</text></g><g id="Rec-84" data-name="Rec"><rect class="cls-11" x="296" y="868.03" width="52.02" height="16.49"/><text class="cls-6" transform="translate(297.23 879.6)">1.14.15.3</text></g><g id="Rec-85" data-name="Rec"><rect class="cls-11" x="296" y="910.93" width="52.02" height="16.49"/><text class="cls-6" transform="translate(300.57 922.5)">1.18.1.4</text></g><g id="Rec-86" data-name="Rec"><rect class="cls-11" x="295.52" y="932.38" width="52.02" height="16.49"/><text class="cls-6" transform="translate(300.08 943.95)">1.18.1.1</text></g><g id="Rec-87" data-name="Rec"><rect class="cls-11" x="295.52" y="889.48" width="52.02" height="16.49"/><text class="cls-6" transform="translate(300.08 901.05)">1.18.1.3</text></g><g id="Rec-88" data-name="Rec"><rect class="cls-11" x="970.96" y="304.22" width="52.02" height="16.49"/><text class="cls-6" transform="translate(978.86 315.79)">6.2.1.6</text></g><line class="cls-17" x1="997.12" y1="321.1" x2="997.12" y2="339.02"/><line class="cls-17" x1="996.9" y1="289.74" x2="996.98" y2="304.56"/><polygon class="cls-18" points="996.96 343.1 993.19 335.19 1000.75 335.21 996.96 343.1"/><line class="cls-17" x1="900.9" y1="466.04" x2="900.9" y2="490.64"/><line class="cls-17" x1="900.51" y1="420.97" x2="900.66" y2="448.44"/><polygon class="cls-18" points="900.74 494.72 896.97 486.82 904.53 486.83 900.74 494.72"/><polygon class="cls-18" points="900.77 421.14 896.97 429.68 904.53 429.69 900.77 421.14"/><line class="cls-17" x1="900.9" y1="549.6" x2="900.9" y2="574.2"/><line class="cls-17" x1="900.51" y1="504.53" x2="900.66" y2="532"/><polygon class="cls-18" points="900.74 578.28 896.97 570.38 904.53 570.39 900.74 578.28"/><polygon class="cls-18" points="900.77 504.7 896.97 513.24 904.53 513.25 900.77 504.7"/><line class="cls-17" x1="482.18" y1="736.26" x2="511.91" y2="736.26"/><line class="cls-17" x1="395.64" y1="735.84" x2="429.1" y2="735.66"/><polygon class="cls-18" points="515.99 736.43 508.08 740.2 508.1 732.64 515.99 736.43"/><polygon class="cls-18" points="392.03 736.25 400.57 740.04 400.58 732.49 392.03 736.25"/><line class="cls-17" x1="482.18" y1="785.27" x2="511.91" y2="785.27"/><line class="cls-17" x1="395.64" y1="784.84" x2="429.1" y2="784.66"/><polygon class="cls-18" points="515.99 785.43 508.08 789.2 508.1 781.64 515.99 785.43"/><polygon class="cls-18" points="392.03 785.25 400.57 789.05 400.58 781.49 392.03 785.25"/><line class="cls-17" x1="482.18" y1="810.09" x2="511.91" y2="810.09"/><line class="cls-17" x1="395.64" y1="809.67" x2="429.1" y2="809.49"/><polygon class="cls-18" points="515.99 810.25 508.08 814.02 508.1 806.47 515.99 810.25"/><polygon class="cls-18" points="392.03 810.07 400.57 813.87 400.58 806.31 392.03 810.07"/><line class="cls-17" x1="468.25" y1="871.26" x2="480.65" y2="871.11"/><line class="cls-17" x1="398.11" y1="870.84" x2="416.14" y2="870.66"/><polygon class="cls-18" points="484.73 871.27 476.82 875.04 476.84 867.48 484.73 871.27"/><polygon class="cls-18" points="396.12 871.24 404.02 875.05 404.01 867.49 396.12 871.24"/><line class="cls-17" x1="900.9" y1="630.45" x2="900.58" y2="728.25"/><line class="cls-17" x1="900.51" y1="589.4" x2="900.64" y2="613.95"/><polygon class="cls-18" points="900.58 736.16 896.8 728.25 904.36 728.27 900.58 736.16"/><polygon class="cls-18" points="900.77 589.57 896.97 598.11 904.53 598.12 900.77 589.57"/><line class="cls-17" x1="898.33" y1="806.31" x2="899.19" y2="745.01"/><polygon class="cls-18" points="898.02 809.55 901.82 801.01 894.26 801 898.02 809.55"/><circle class="cls-11" cx="900.73" cy="324.23" r="4.09"/><circle class="cls-11" cx="997.22" cy="284.69" r="4.09"/><circle class="cls-11" cx="996.97" cy="348.91" r="4.09"/><circle class="cls-11" cx="900.75" cy="415.06" r="4.09"/><circle class="cls-11" cx="900.75" cy="499.63" r="4.09"/><circle class="cls-11" cx="900.75" cy="583.19" r="4.09"/><circle class="cls-11" cx="900.75" cy="740.82" r="4.09"/><circle class="cls-11" cx="278.93" cy="907.93" r="4.09"/><circle class="cls-11" cx="364.86" cy="908.85" r="4.09"/><circle class="cls-11" cx="257.33" cy="875.27" r="4.09"/><circle class="cls-11" cx="387.98" cy="875.27" r="4.09"/><circle class="cls-11" cx="493.11" cy="875.27" r="4.09"/><circle class="cls-11" cx="693.31" cy="908.93" r="4.09"/><circle class="cls-11" cx="596.83" cy="876.27" r="4.09"/><circle class="cls-11" cx="694.39" cy="876.27" r="4.09"/><circle class="cls-11" cx="385.01" cy="810.17" r="4.09"/><circle class="cls-11" cx="523.54" cy="812.6" r="4.09"/><circle class="cls-11" cx="385.01" cy="785.3" r="4.09"/><circle class="cls-11" cx="523.54" cy="785.3" r="4.09"/><circle class="cls-11" cx="385.94" cy="736.42" r="4.09"/><circle class="cls-11" cx="416.73" cy="762.25" r="4.09"/><circle class="cls-11" cx="522.07" cy="736.42" r="4.09"/><line class="cls-17" x1="996.97" y1="353" x2="996.98" y2="373.17"/><path class="cls-11" d="M1078.09,400.17c-1.19,7.74,8.56,22.93-9.56,25.72,0.86,0,1.7.08,2.55,0.11a25.13,25.13,0,0,1-2.55-.11" transform="translate(-80.91 -10.4)"/><line class="cls-17" x1="987.64" y1="415.37" x2="908.91" y2="415.65"/><polygon class="cls-18" points="906.81 415.5 914.71 411.71 914.71 419.27 906.81 415.5"/><line class="cls-17" x1="199.88" y1="681.67" x2="900.93" y2="681.88"/><line class="cls-17" x1="1036.69" y1="606.33" x2="1036.92" y2="583.27"/><line class="cls-17" x1="901.69" y1="784.25" x2="901.55" y2="744.91"/><line class="cls-17" x1="316.15" y1="140.27" x2="337.14" y2="140.34"/><line class="cls-17" x1="244.31" y1="140.57" x2="263.91" y2="140.47"/><polygon class="cls-18" points="341.21 140.09 333.07 143.86 333.09 136.31 341.21 140.09"/><polygon class="cls-18" points="244.48 140.32 253.02 144.11 253.03 136.56 244.48 140.32"/><line class="cls-17" x1="214.77" y1="140.29" x2="228.76" y2="140.34"/><line class="cls-17" x1="135.93" y1="140.57" x2="162.74" y2="140.43"/><polygon class="cls-18" points="232.83 140.09 224.69 143.86 224.71 136.31 232.83 140.09"/><polygon class="cls-18" points="136.1 140.32 144.64 144.11 144.65 136.56 136.1 140.32"/><circle class="cls-11" cx="347.04" cy="140.42" r="4.09"/><circle class="cls-11" cx="239.34" cy="140.42" r="4.09"/><circle class="cls-11" cx="129.43" cy="140.42" r="4.09"/><circle class="cls-11" cx="129.43" cy="201.94" r="4.09"/><circle class="cls-11" cx="129.43" cy="263.7" r="4.09"/><line class="cls-17" x1="129.51" y1="164.1" x2="129.56" y2="150.1"/><line class="cls-17" x1="129.79" y1="196.93" x2="129.71" y2="181.69"/><polygon class="cls-18" points="129.31 146.03 133.08 154.17 125.52 154.15 129.31 146.03"/><polygon class="cls-18" points="129.53 196.76 133.33 188.22 125.77 188.22 129.53 196.76"/><line class="cls-17" x1="129.4" y1="224.21" x2="129.46" y2="207.91"/><line class="cls-17" x1="129.92" y1="258.27" x2="129.82" y2="240.7"/><polygon class="cls-18" points="129.66 258.11 133.46 249.57 125.9 249.56 129.66 258.11"/><line class="cls-17" x1="128.91" y1="284.3" x2="128.96" y2="267.99"/><line class="cls-17" x1="129.42" y1="318.36" x2="129.32" y2="300.79"/><polygon class="cls-18" points="129.16 318.19 132.96 309.65 125.4 309.64 129.16 318.19"/><line class="cls-17" x1="129.37" y1="125.92" x2="129.21" y2="95.68"/><polygon class="cls-18" points="129.28 135.15 133.08 126.61 125.52 126.6 129.28 135.15"/><line class="cls-17" x1="185.89" y1="102.4" x2="185.74" y2="76.09"/><line class="cls-17" x1="227.77" y1="76.01" x2="185.74" y2="76.09"/><line class="cls-17" x1="224.56" y1="102.62" x2="185.79" y2="102.69"/><path class="cls-11" d="M266.72,113.08c-16.93,1.16-50.19-8.29-56.27,9.3,0-.83-0.18-1.65-0.24-2.48a11,11,0,0,0,.24,2.48" transform="translate(-80.91 -10.4)"/><text x="-80.91" y="-10.4"/><line class="cls-17" x1="469.07" y1="881.69" x2="481.47" y2="881.54"/><line class="cls-17" x1="396.12" y1="881.3" x2="416.23" y2="881.1"/><polygon class="cls-18" points="485.55 881.7 477.65 885.47 477.66 877.91 485.55 881.7"/><line class="cls-17" x1="291.81" y1="908.93" x2="352.03" y2="908.85"/><line class="cls-17" x1="261.7" y1="876.31" x2="295.52" y2="876.27"/><line class="cls-17" x1="348.03" y1="876.4" x2="373.84" y2="876.14"/><polygon class="cls-18" points="377.79 876.28 369.88 880.05 369.9 872.49 377.79 876.28"/><line class="cls-17" x1="569.99" y1="871.28" x2="583.79" y2="871.11"/><line class="cls-17" x1="501.25" y1="870.84" x2="517.97" y2="870.67"/><polygon class="cls-18" points="587.87 871.27 579.97 875.04 579.98 867.48 587.87 871.27"/><polygon class="cls-18" points="499.26 871.24 503.96 875.04 503.96 867.48 499.26 871.24"/><line class="cls-17" x1="666.45" y1="876.34" x2="684.02" y2="876.12"/><line class="cls-17" x1="601.48" y1="875.85" x2="684.15" y2="876.27"/><polygon class="cls-18" points="688.1 876.28 680.2 880.05 680.21 872.49 688.1 876.28"/><line class="cls-17" x1="668.26" y1="908.67" x2="684.02" y2="908.47"/><line class="cls-17" x1="596.83" y1="908.65" x2="613.55" y2="908.49"/><polygon class="cls-18" points="688.1 908.63 680.2 912.4 680.21 904.85 688.1 908.63"/><line class="cls-17" x1="569.99" y1="881.3" x2="584.61" y2="881.11"/><polygon class="cls-18" points="588.69 880.7 580.79 884.47 580.8 876.91 588.69 880.7"/><line class="cls-17" x1="498.42" y1="881.33" x2="517.81" y2="881.09"/><line class="cls-17" x1="596.83" y1="908.65" x2="596.83" y2="880.36"/><polygon class="cls-18" points="283.91 908.82 291.81 912.62 291.81 905.07 283.91 908.82"/><polygon class="cls-18" points="358.35 908.87 350.45 905.07 350.45 912.62 358.35 908.87"/><polygon class="cls-18" points="278.96 915.23 275.15 923.12 282.71 923.12 278.96 915.23"/><path class="cls-11" d="M444.65,923.32c-2.13,9,13.72,26.93-16.38,29.66,1.42,0,2.82.15,4.23,0.2-1.46,0-2.79-.1-4.23-0.2" transform="translate(-80.91 -10.4)"/><path class="cls-11" d="M376,949.82c-4.89-2.05-14.12,15.62-16.43-16.92,0,1.54,0,3.06,0,4.59,0-1.59,0-3,0-4.59" transform="translate(-80.91 -10.4)"/><path class="cls-11" d="M509.37,749.54c-3.56,2.48-10.57-15.83-11.85,19,0-1.65,0-3.26-.05-4.9,0,1.69,0,3.23.05,4.9" transform="translate(-80.91 -10.4)"/><path class="cls-11" d="M376.43,891.49c-4.92,2.78-14.09-20.84-16.6,22.76,0-2.07,0-4.09,0-6.15-0.05,2.13,0,4,0,6.15" transform="translate(-80.91 -10.4)"/></svg>