<svg id="Layer_2" data-name="Layer 2" xmlns="http://www.w3.org/2000/svg" viewBox="0 0 1154.3 572.5"><defs><style>.cls-1,.cls-9{fill:#1f91ff;}.cls-2,.cls-7{fill:#fff984;}.cls-3,.cls-8{fill:#ff6e7d;}.cls-4{fill:#fcf289;}.cls-14,.cls-5{fill:none;}.cls-14,.cls-5,.cls-7,.cls-8,.cls-9{stroke:#000;}.cls-12,.cls-13,.cls-14,.cls-5,.cls-7,.cls-8,.cls-9{stroke-miterlimit:10;}.cls-6{font-size:12.47px;}.cls-10,.cls-11,.cls-15,.cls-6{font-family:Arial;}.cls-10{font-size:12px;}.cls-11{font-size:12.59px;}.cls-12{fill:#e6e7e8;}.cls-12,.cls-13{stroke:#231f20;stroke-linecap:round;}.cls-14{stroke-width:2px;}.cls-15{font-size:14px;}.cls-16{font-style:italic;}</style></defs><title>egu_ec00591</title><rect class="cls-1" x="289.53" y="308.19" width="17.26" height="16.45"/><rect class="cls-2" x="255.12" y="308.19" width="17.26" height="16.45"/><rect class="cls-3" x="272.38" y="308.19" width="17.26" height="16.45"/><rect class="cls-1" x="315.22" y="326.56" width="17.07" height="16.45"/><rect class="cls-2" x="281.19" y="326.56" width="17.07" height="16.45"/><rect class="cls-3" x="298.26" y="326.56" width="17.07" height="16.45"/><rect class="cls-1" x="424.94" y="326.56" width="17.14" height="16.45"/><rect class="cls-2" x="390.78" y="326.56" width="17.14" height="16.45"/><rect class="cls-3" x="407.92" y="326.56" width="17.14" height="16.45"/><rect class="cls-1" x="398.32" y="308.06" width="17.8" height="16.45"/><rect class="cls-2" x="362.84" y="308.06" width="17.8" height="16.45"/><rect class="cls-3" x="380.64" y="308.06" width="17.8" height="16.45"/><rect class="cls-1" x="397.72" y="155.17" width="17.09" height="16.45"/><rect class="cls-2" x="363.67" y="155.17" width="17.09" height="16.45"/><rect class="cls-3" x="380.75" y="155.17" width="17.09" height="16.45"/><rect class="cls-1" x="694.14" y="261.76" width="19.54" height="16.45"/><rect class="cls-2" x="655.19" y="261.76" width="19.54" height="16.45"/><rect class="cls-3" x="674.73" y="261.76" width="19.54" height="16.45"/><rect class="cls-3" x="716.19" y="209.65" width="28.74" height="16.45"/><rect class="cls-4" x="687.45" y="209.65" width="19.2" height="16.45"/><rect class="cls-2" x="687.45" y="209.65" width="28.74" height="16.45"/><rect class="cls-1" x="250.12" y="325.77" width="25.58" height="16.45"/><rect class="cls-4" x="224.53" y="325.77" width="17.09" height="16.45"/><rect class="cls-3" x="224.53" y="325.77" width="25.58" height="16.45"/><rect class="cls-1" x="360.54" y="326.53" width="25.58" height="16.45"/><rect class="cls-4" x="334.95" y="326.53" width="17.09" height="16.45"/><rect class="cls-3" x="334.95" y="326.53" width="25.58" height="16.45"/><g id="Rec"><rect class="cls-5" x="1048.85" y="63.68" width="83.65" height="20.31"/><text class="cls-6" transform="translate(1073 77.93) scale(1.05 1)">KEGG</text></g><g id="Rec-2" data-name="Rec"><rect class="cls-5" x="1048.85" y="96.45" width="83.65" height="20.31"/><text class="cls-6" transform="translate(1078.47 110.69) scale(1.05 1)">RN<tspan x="18.01" y="0">A</tspan></text></g><g id="Rec-3" data-name="Rec"><rect class="cls-5" x="1048.85" y="130.81" width="83.65" height="20.31"/><text class="cls-6" transform="translate(1066.79 145.06) scale(1.05 1)">Genome</text></g><rect class="cls-7" x="1011.74" y="61.71" width="23.27" height="24.25"/><rect class="cls-8" x="1011.74" y="94.48" width="23.27" height="24.25"/><rect class="cls-9" x="1011.74" y="128.84" width="23.27" height="24.25"/><rect class="cls-5" x="996.38" y="47.54" width="157.42" height="120.63"/><g id="Head"><text x="-345.72" y="-211.09"/></g><text class="cls-10" transform="translate(151.03 163.39)">Dihomo-<tspan x="0" y="14.4">y-linolenate</tspan></text><text class="cls-10" transform="translate(205.43 205.07)">y-Linolenate</text><text class="cls-10" transform="translate(162.56 244.37)">Crepenynate</text><text class="cls-10" transform="translate(369.56 121.28)">Lecithin</text><text class="cls-10" transform="translate(444.53 108.82)">(5S,8R)-<tspan x="0" y="14.4">DiHODE</tspan></text><text class="cls-10" transform="translate(507.37 108.82)">(7S,8S)-<tspan x="0" y="14.4">DiHODE</tspan></text><text class="cls-10" transform="translate(771.6 93.28)">12,13-Epoxy-<tspan x="0" y="14.4">9-hydroxy-</tspan><tspan x="0" y="28.8">10-octadecenoate</tspan></text><text class="cls-10" transform="translate(876.56 149.57)">9,12,13-<tspan x="44.03" y="0">T</tspan><tspan x="50.92" y="0">riHOME</tspan></text><text class="cls-10" transform="translate(882.44 316.29)">9,12,13-<tspan x="44.03" y="0">T</tspan><tspan x="50.92" y="0">riHOME</tspan></text><text class="cls-10" transform="translate(670.04 179.96)">9(S)-<tspan x="0" y="14.4">HPODE</tspan></text><text class="cls-10" transform="translate(665.64 300.13)">13(S)-<tspan x="0" y="14.4">HPODE</tspan></text><text class="cls-10" transform="translate(642.03 394.65)">13(S)-HODE</text><text class="cls-10" transform="translate(473.63 276.42)">9-cis,<tspan x="28.67" y="0">1</tspan><tspan x="34.45" y="0">1-trans-</tspan><tspan x="0" y="14.4">Octadecadienoate</tspan></text><text class="cls-10" transform="translate(510.64 390.4)">9,10-<tspan x="0" y="14.4">DHOME</tspan></text><text class="cls-10" transform="translate(390.05 406.13)">9(10)-<tspan x="0" y="14.4">EpOME</tspan></text><text class="cls-10" transform="translate(93.34 394.65)">12,13-DHOME</text><text class="cls-10" transform="translate(232.75 414.38)">12(13)-<tspan x="0" y="14.4">EpOME</tspan></text><text class="cls-10" transform="translate(221.07 462.42)">9,10-12,13-Diepoxy-<tspan x="0" y="14.4">octadecanoate</tspan></text><text class="cls-10" transform="translate(210.67 503.68)">9,10-Dihydroxy-12,13-<tspan x="0" y="14.4">epoxyoctadecanoate</tspan></text><text class="cls-10" transform="translate(312.36 568.6)">THF-diols</text><text class="cls-10" transform="translate(684.44 466.54)">13-OxoODE</text><text class="cls-10" transform="translate(876.56 205.07)">9,10,13-<tspan x="44.03" y="0">T</tspan><tspan x="50.92" y="0">riHOME</tspan></text><text class="cls-10" transform="translate(771.6 149.57)">9,10-Epoxy-<tspan x="0" y="14.4">13-hydroxy-</tspan><tspan x="0" y="28.8">1</tspan><tspan x="5.78" y="28.8">1-octadecenoate</tspan></text><text class="cls-10" transform="translate(775.99 319.61)">12,13-Epoxy-<tspan x="0" y="14.4">9-hydroxy-</tspan><tspan x="0" y="28.8">10-octadecenoate</tspan></text><text class="cls-10" transform="translate(686.97 63.72)">9-OxoODE</text><text class="cls-10" transform="translate(420.03 182.83)">8(R)-<tspan x="0" y="14.4">HPODE</tspan></text><text class="cls-10" transform="translate(557.36 163.39)">10(R)-<tspan x="0" y="14.4">HPODE</tspan></text><text class="cls-10" transform="translate(622.06 166.71)">1<tspan x="5.78" y="0">1(S)-</tspan><tspan x="0" y="14.4">HPODE</tspan></text><text class="cls-10" transform="translate(646.03 135.16)">9(S)-HODE</text><text class="cls-10" transform="translate(47.32 191.01)">Arachidonate</text><g id="Round"><rect class="cls-5" x="47.32" y="81.11" width="165.05" height="26.74" rx="12" ry="12"/><text class="cls-11" transform="translate(55.55 98.91) scale(0.94 1)">Arachidonic acid metabolism</text></g><g id="Rec-4" data-name="Rec"><rect class="cls-5" x="420.03" y="291.55" width="52.02" height="16.49"/><text class="cls-10" transform="translate(427.93 303.12)">5.2.1.5</text></g><g id="Rec-5" data-name="Rec"><rect class="cls-5" x="362.79" y="308.04" width="52.02" height="16.49"/><text class="cls-10" transform="translate(366.02 319.61)">CYP1A2</text></g><g id="Rec-6" data-name="Rec"><rect class="cls-5" x="334.53" y="326.53" width="52.02" height="16.49"/><text class="cls-10" transform="translate(340.77 338.1)">CYP2C</text></g><g id="Rec-7" data-name="Rec"><rect class="cls-5" x="389.8" y="326.53" width="52.02" height="16.49"/><text class="cls-10" transform="translate(397.37 338.1)">CYP2J</text></g><g id="Rec-8" data-name="Rec"><rect class="cls-5" x="390.05" y="345.03" width="52.02" height="16.49"/><text class="cls-10" transform="translate(393.28 356.59)">CYP3A4</text></g><g id="Rec-9" data-name="Rec"><rect class="cls-5" x="334.78" y="345" width="52.02" height="16.49"/><text class="cls-10" transform="translate(338.01 356.57)">CYP2E1</text></g><g id="Rec-10" data-name="Rec"><rect class="cls-5" x="255.18" y="308.04" width="52.02" height="16.49"/><text class="cls-10" transform="translate(258.42 319.61)">CYP1A2</text></g><g id="Rec-11" data-name="Rec"><rect class="cls-5" x="224.92" y="326.53" width="52.02" height="16.49"/><text class="cls-10" transform="translate(231.17 338.1)">CYP2C</text></g><g id="Rec-12" data-name="Rec"><rect class="cls-5" x="281.19" y="326.53" width="52.02" height="16.49"/><text class="cls-10" transform="translate(288.77 338.1)">CYP2J</text></g><g id="Rec-13" data-name="Rec"><rect class="cls-5" x="281.44" y="345.03" width="52.02" height="16.49"/><text class="cls-10" transform="translate(284.68 356.59)">CYP3A4</text></g><g id="Rec-14" data-name="Rec"><rect class="cls-5" x="225.17" y="345" width="52.02" height="16.49"/><text class="cls-10" transform="translate(228.41 356.57)">CYP2E1</text></g><g id="Rec-15" data-name="Rec"><rect class="cls-5" x="273.14" y="177.67" width="52.02" height="16.49"/><text class="cls-10" transform="translate(274.36 189.24)">1.14.19.3</text></g><g id="Rec-16" data-name="Rec"><rect class="cls-5" x="444.53" y="155.15" width="52.02" height="16.49"/><text class="cls-10" transform="translate(452.43 166.71)">5.4.4.5</text></g><g id="Rec-17" data-name="Rec"><rect class="cls-5" x="689.85" y="406.13" width="52.02" height="16.49"/><text class="cls-10" transform="translate(699.09 417.7)">1.1.1.-</text></g><g id="Rec-18" data-name="Rec"><rect class="cls-5" x="420.03" y="380.76" width="52.02" height="16.49"/><text class="cls-10" transform="translate(429.27 392.33)">3.3.2.-</text></g><g id="Rec-19" data-name="Rec"><rect class="cls-5" x="206.49" y="383.08" width="52.02" height="16.49"/><text class="cls-10" transform="translate(215.73 394.65)">3.3.2.-</text></g><g id="Rec-20" data-name="Rec"><rect class="cls-5" x="441.56" y="209.63" width="57.96" height="16.49"/><text class="cls-10" transform="translate(443.08 221.2)">1.13.<tspan x="26.69" y="0">1</tspan><tspan x="32.47" y="0">1.60</tspan></text></g><g id="Rec-21" data-name="Rec"><rect class="cls-5" x="548.91" y="209.63" width="57.96" height="16.49"/><text class="cls-10" transform="translate(550.43 221.2)">1.13.<tspan x="26.69" y="0">1</tspan><tspan x="32.47" y="0">1.62</tspan></text></g><g id="Rec-22" data-name="Rec"><rect class="cls-5" x="617.05" y="209.63" width="57.96" height="16.49"/><text class="cls-10" transform="translate(618.57 221.2)">1.13.<tspan x="26.69" y="0">1</tspan><tspan x="32.47" y="0">1.45</tspan></text></g><g id="Rec-23" data-name="Rec"><rect class="cls-5" x="654.99" y="261.79" width="57.96" height="16.49"/><text class="cls-10" transform="translate(656.51 273.36)">1.13.<tspan x="26.69" y="0">1</tspan><tspan x="32.47" y="0">1.12</tspan></text></g><g id="Rec-24" data-name="Rec"><rect class="cls-5" x="718.03" y="261.79" width="57.96" height="16.49"/><text class="cls-10" transform="translate(719.55 273.36)">1.13.<tspan x="26.69" y="0">1</tspan><tspan x="32.47" y="0">1.33</tspan></text></g><g id="Rec-25" data-name="Rec"><rect class="cls-5" x="686.97" y="209.63" width="57.96" height="16.49"/><text class="cls-10" transform="translate(688.49 221.2)">1.13.<tspan x="26.69" y="0">1</tspan><tspan x="32.47" y="0">1.58</tspan></text></g><g id="Rec-26" data-name="Rec"><rect class="cls-5" x="267.92" y="226.12" width="62.46" height="16.49"/><text class="cls-10" transform="translate(271.07 237.69)">1.14.19.39</text></g><g id="Rec-27" data-name="Rec"><rect class="cls-5" x="499.41" y="155.15" width="52.02" height="16.49"/><text class="cls-10" transform="translate(507.31 166.71)">5.4.4.6</text></g><g id="Rec-28" data-name="Rec"><rect class="cls-5" x="362.79" y="155.15" width="52.02" height="16.49"/><text class="cls-10" transform="translate(370.69 166.71)">3.1.1.4</text></g><circle class="cls-5" cx="125.76" cy="185.92" r="4.09"/><circle class="cls-5" cx="239.59" cy="185.92" r="4.09"/><circle class="cls-5" cx="470.54" cy="129.86" r="4.09"/><circle class="cls-5" cx="389.8" cy="242.54" r="4.09"/><circle class="cls-5" cx="388.8" cy="390.04" r="4.09"/><circle class="cls-5" cx="336.61" cy="503.68" r="4.09"/><circle class="cls-5" cx="177.94" cy="390.04" r="4.09"/><circle class="cls-5" cx="503.28" cy="390.04" r="4.09"/><circle class="cls-5" cx="279.28" cy="390.04" r="4.09"/><circle class="cls-5" cx="336.61" cy="446.37" r="4.09"/><circle class="cls-5" cx="503.28" cy="299.79" r="4.09"/><circle class="cls-5" cx="525.42" cy="129.86" r="4.09"/><circle class="cls-5" cx="715.95" cy="186.68" r="4.09"/><circle class="cls-5" cx="715.95" cy="129.86" r="4.09"/><circle class="cls-5" cx="715.95" cy="73.04" r="4.09"/><circle class="cls-5" cx="469.54" cy="186.92" r="4.09"/><circle class="cls-5" cx="576.89" cy="183.83" r="4.09"/><circle class="cls-5" cx="802.97" cy="186.92" r="4.09"/><circle class="cls-5" cx="714.86" cy="300.13" r="4.09"/><circle class="cls-5" cx="916.28" cy="299.13" r="4.09"/><circle class="cls-5" cx="715.95" cy="389" r="4.09"/><circle class="cls-5" cx="715.95" cy="446.37" r="4.09"/><circle class="cls-5" cx="801.91" cy="299.13" r="4.09"/><circle class="cls-5" cx="802.97" cy="129.86" r="4.09"/><circle class="cls-5" cx="917.28" cy="186.92" r="4.09"/><circle class="cls-5" cx="917.28" cy="129.86" r="4.09"/><circle class="cls-5" cx="643.95" cy="186.92" r="4.09"/><circle class="cls-5" cx="181.94" cy="185.92" r="4.09"/><circle class="cls-5" cx="389.8" cy="129.86" r="4.09"/><circle class="cls-5" cx="239.59" cy="238.45" r="4.09"/><line class="cls-12" x1="497.58" y1="389.8" x2="472.05" y2="389.93"/><line class="cls-12" x1="420.03" y1="389.66" x2="392.88" y2="389.71"/><polygon class="cls-13" points="497.41 390.06 488.87 386.26 488.86 393.82 497.41 390.06"/><line class="cls-12" x1="182.03" y1="390.28" x2="206.02" y2="390.16"/><line class="cls-12" x1="259.58" y1="390.42" x2="275.2" y2="390.39"/><polygon class="cls-13" points="182.2 390.02 190.74 393.82 190.75 386.26 182.2 390.02"/><line class="cls-12" x1="497.79" y1="299.25" x2="472.04" y2="299.37"/><line class="cls-12" x1="419.58" y1="299.11" x2="392.2" y2="299.16"/><polygon class="cls-13" points="497.62 299.5 489 295.71 489 303.26 497.62 299.5"/><line class="cls-12" x1="248.67" y1="238.66" x2="265.54" y2="238.58"/><line class="cls-12" x1="330.38" y1="237.74" x2="380.38" y2="237.5"/><polygon class="cls-13" points="245.84 238.43 254.38 242.23 254.39 234.67 245.84 238.43"/><line class="cls-12" x1="340.7" y1="446.61" x2="389.26" y2="446.37"/><line class="cls-12" x1="389.26" y1="446.37" x2="389.01" y2="394.44"/><polygon class="cls-13" points="340.87 446.36 349.41 450.15 349.41 442.59 340.87 446.36"/><line class="cls-12" x1="330.75" y1="446.82" x2="279.2" y2="446.58"/><line class="cls-12" x1="279.2" y1="446.58" x2="279.45" y2="394.65"/><polygon class="cls-13" points="330.59 446.56 322.05 450.36 322.04 442.8 330.59 446.56"/><line class="cls-12" x1="909.41" y1="298.97" x2="807" y2="299.45"/><polygon class="cls-13" points="909.24 299.23 900.37 295.43 900.36 302.99 909.24 299.23"/><line class="cls-12" x1="909.41" y1="186.68" x2="807" y2="187.16"/><polygon class="cls-13" points="909.24 186.94 900.37 183.14 900.36 190.7 909.24 186.94"/><line class="cls-12" x1="909.41" y1="129.62" x2="807" y2="130.1"/><polygon class="cls-13" points="909.24 129.88 900.37 126.08 900.36 133.64 909.24 129.88"/><line class="cls-12" x1="795.04" y1="129.62" x2="722.7" y2="129.96"/><polygon class="cls-13" points="794.87 129.88 786 126.08 785.99 133.64 794.87 129.88"/><line class="cls-12" x1="796.14" y1="299.41" x2="723.8" y2="299.75"/><polygon class="cls-13" points="795.97 299.67 787.1 295.88 787.1 303.43 795.97 299.67"/><line class="cls-12" x1="796.14" y1="187.14" x2="723.8" y2="187.48"/><polygon class="cls-13" points="795.97 187.4 787.1 183.6 787.1 191.16 795.97 187.4"/><line class="cls-12" x1="715.62" y1="383.2" x2="715.96" y2="310.86"/><polygon class="cls-13" points="715.88 383.02 712.08 374.15 719.64 374.15 715.88 383.02"/><line class="cls-12" x1="388.9" y1="231.85" x2="389.18" y2="171.64"/><line class="cls-12" x1="389.26" y1="155.15" x2="389.35" y2="134.76"/><polygon class="cls-13" points="389.15 231.68 385.35 222.81 392.91 222.8 389.15 231.68"/><line class="cls-12" x1="130.31" y1="185.68" x2="176.13" y2="185.9"/><polygon class="cls-13" points="130.49 185.94 139.35 182.14 139.36 189.7 130.49 185.94"/><line class="cls-12" x1="126" y1="110.13" x2="125.67" y2="179.44"/><polygon class="cls-13" points="125.74 110.3 129.54 119.17 121.98 119.17 125.74 110.3"/><line class="cls-12" x1="469.77" y1="134.98" x2="469.68" y2="154.21"/><line class="cls-12" x1="469.74" y1="171.64" x2="469.68" y2="182.62"/><polygon class="cls-13" points="469.52 135.16 473.32 144.02 465.76 144.03 469.52 135.16"/><line class="cls-12" x1="576.44" y1="189.24" x2="576.35" y2="207.04"/><line class="cls-12" x1="576.4" y1="225.9" x2="576.4" y2="238.83"/><polygon class="cls-13" points="576.18 189.42 579.98 198.28 572.42 198.29 576.18 189.42"/><line class="cls-12" x1="469.76" y1="191.48" x2="469.68" y2="207.45"/><line class="cls-12" x1="469.72" y1="227.24" x2="469.72" y2="235.96"/><polygon class="cls-13" points="469.51 191.63 473.31 199.59 465.75 199.59 469.51 191.63"/><line class="cls-12" x1="644.49" y1="192.1" x2="644.41" y2="209.91"/><line class="cls-12" x1="644.45" y1="226.12" x2="644.45" y2="241.69"/><polygon class="cls-13" points="644.24 192.28 648.03 201.15 640.48 201.15 644.24 192.28"/><line class="cls-12" x1="715.95" y1="192.74" x2="715.87" y2="209.63"/><line class="cls-12" x1="715.91" y1="226.76" x2="715.74" y2="244.35"/><polygon class="cls-13" points="716.09 192.24 719.89 201.11 712.33 201.12 716.09 192.24"/><line class="cls-12" x1="524.63" y1="134.98" x2="524.54" y2="154.21"/><line class="cls-12" x1="524.59" y1="171.64" x2="524.52" y2="186.92"/><line class="cls-12" x1="473.63" y1="186.92" x2="524.52" y2="186.92"/><polygon class="cls-13" points="524.37 135.16 528.17 144.02 520.61 144.03 524.37 135.16"/><line class="cls-12" x1="187.76" y1="185.68" x2="233.58" y2="185.9"/><polygon class="cls-13" points="187.94 185.94 196.81 182.14 196.81 189.7 187.94 185.94"/><line class="cls-12" x1="243.68" y1="185.68" x2="273.14" y2="185.82"/><line class="cls-12" x1="325.16" y1="185.81" x2="383.91" y2="186.09"/><line class="cls-12" x1="383.91" y1="186.09" x2="383.91" y2="233.51"/><polygon class="cls-13" points="243.85 185.94 252.72 182.14 252.72 189.7 243.85 185.94"/><line class="cls-12" x1="715.62" y1="293.54" x2="715.86" y2="247.88"/><polygon class="cls-13" points="715.88 293.36 712.08 284.5 719.64 284.49 715.88 293.36"/><line class="cls-12" x1="716.1" y1="134.47" x2="715.89" y2="180.4"/><polygon class="cls-13" points="715.84 134.64 719.64 143.51 712.08 143.51 715.84 134.64"/><line class="cls-12" x1="715.88" y1="77.13" x2="715.67" y2="123.06"/><polygon class="cls-13" points="715.62 77.3 719.42 86.17 711.86 86.17 715.62 77.3"/><line class="cls-12" x1="335.37" y1="553.91" x2="335.58" y2="509.19"/><polygon class="cls-13" points="335.63 553.73 331.83 544.86 339.39 544.86 335.63 553.73"/><line class="cls-12" x1="335.24" y1="498.17" x2="335.45" y2="453.45"/><polygon class="cls-13" points="335.5 497.99 331.7 489.12 339.26 489.12 335.5 497.99"/><line class="cls-12" x1="388.09" y1="384.92" x2="388.37" y2="324.53"/><polygon class="cls-13" points="388.35 384.74 384.55 375.88 392.11 375.87 388.35 384.74"/><line class="cls-12" x1="715.53" y1="440.18" x2="715.62" y2="422.62"/><line class="cls-12" x1="715.91" y1="407.19" x2="715.97" y2="393.85"/><polygon class="cls-13" points="715.79 440 711.99 431.14 719.55 431.13 715.79 440"/><line class="cls-12" x1="278.96" y1="384.41" x2="279.24" y2="324.03"/><polygon class="cls-13" points="279.21 384.23 275.42 375.37 282.97 375.36 279.21 384.23"/><g id="Head-2" data-name="Head"><rect class="cls-14" x="1" y="1" width="382.91" height="31.5"/><text class="cls-15" transform="translate(4.65 23.5) scale(1.15 1)">Linoleic<tspan x="47.48" y="0"> </tspan><tspan x="50.59" y="0">Acid Metabolism - 00591 - </tspan><tspan class="cls-16" x="217.11" y="0">Elaeis guineensis</tspan></text></g><text x="-345.72" y="-211.09"/><text x="-345.72" y="-211.09"/><text x="-345.72" y="-211.09"/><line class="cls-12" x1="282.83" y1="246.04" x2="376.51" y2="246.38"/><line class="cls-12" x1="283.13" y1="306.81" x2="282.83" y2="246.04"/><line class="cls-12" x1="387.95" y1="307.3" x2="387.67" y2="251.37"/><line class="cls-12" x1="392.2" y1="299.13" x2="391.98" y2="252.12"/><line class="cls-12" x1="399.58" y1="238.6" x2="576.4" y2="238.82"/><line class="cls-12" x1="400.46" y1="235.44" x2="469.72" y2="235.96"/><line class="cls-12" x1="399.58" y1="241.53" x2="644.45" y2="241.69"/><line class="cls-12" x1="399.58" y1="244.39" x2="715.74" y2="244.35"/><line class="cls-12" x1="399.58" y1="247.93" x2="715.18" y2="247.83"/></svg>