<svg id="Layer_2" data-name="Layer 2" xmlns="http://www.w3.org/2000/svg" viewBox="0 0 915.91 863.73"><defs><style>.cls-1,.cls-18{fill:#1f91ff;}.cls-2{fill:#fbf28a;}.cls-3{fill:#f16d7d;}.cls-4{fill:#fbf288;}.cls-16,.cls-5{fill:#fff984;}.cls-17,.cls-6{fill:#ff6e7d;}.cls-7{fill:#fcf289;}.cls-14,.cls-8{fill:none;}.cls-14,.cls-16,.cls-17,.cls-18,.cls-8{stroke:#000;}.cls-14,.cls-16,.cls-17,.cls-18,.cls-20,.cls-21,.cls-8{stroke-miterlimit:10;}.cls-8{stroke-width:2px;}.cls-9{font-size:14px;}.cls-11,.cls-13,.cls-15,.cls-19,.cls-9{font-family:Arial;}.cls-10{font-style:italic;}.cls-11{font-size:12px;}.cls-12{white-space:pre;}.cls-13{font-size:10.17px;}.cls-15{font-size:12.47px;}.cls-19{font-size:12.59px;}.cls-20{fill:#e6e7e8;}.cls-20,.cls-21{stroke:#231f20;stroke-linecap:round;}</style></defs><title>jcu_ec00565</title><rect class="cls-1" x="628.16" y="338.54" width="25.58" height="16.45"/><rect class="cls-2" x="602.58" y="338.54" width="17.09" height="16.45"/><rect class="cls-3" x="602.58" y="338.54" width="25.58" height="16.45"/><rect class="cls-4" x="565.75" y="530.13" width="17.16" height="16.45"/><rect class="cls-4" x="531.55" y="530.13" width="17.16" height="16.45"/><rect class="cls-4" x="548.71" y="530.13" width="17.16" height="16.45"/><rect class="cls-1" x="666.64" y="629.63" width="17.38" height="16.45"/><rect class="cls-5" x="632" y="629.63" width="17.38" height="16.45"/><rect class="cls-6" x="649.38" y="629.63" width="17.38" height="16.45"/><rect class="cls-1" x="565.29" y="608.14" width="17.77" height="16.45"/><rect class="cls-5" x="529.88" y="608.14" width="17.77" height="16.45"/><rect class="cls-6" x="547.65" y="608.14" width="17.77" height="16.45"/><rect class="cls-5" x="247.56" y="531.28" width="17.16" height="16.45"/><rect class="cls-5" x="213.37" y="531.28" width="17.16" height="16.45"/><rect class="cls-5" x="230.52" y="531.28" width="17.16" height="16.45"/><rect class="cls-5" x="294.25" y="509.26" width="17.16" height="16.45"/><rect class="cls-5" x="260.06" y="509.26" width="17.16" height="16.45"/><rect class="cls-5" x="277.21" y="509.26" width="17.16" height="16.45"/><rect class="cls-5" x="229.53" y="492.47" width="17.16" height="16.45"/><rect class="cls-5" x="195.34" y="492.47" width="17.16" height="16.45"/><rect class="cls-5" x="212.49" y="492.47" width="17.16" height="16.45"/><rect class="cls-6" x="628.31" y="405.87" width="25.5" height="16.45"/><rect class="cls-7" x="602.81" y="405.87" width="17.04" height="16.45"/><rect class="cls-5" x="602.81" y="405.87" width="25.5" height="16.45"/><rect class="cls-6" x="609.5" y="608.14" width="25.5" height="16.45"/><rect class="cls-7" x="584" y="608.14" width="17.04" height="16.45"/><rect class="cls-5" x="584" y="608.14" width="25.5" height="16.45"/><g id="Head"><rect class="cls-8" x="1" y="1" width="367.72" height="31.5"/><text class="cls-9" transform="translate(8.97 23.5) scale(1.15 1)">Ether Lipid Metabolism - 00565 - <tspan class="cls-10" x="206.21" y="0">Jatropha curcas</tspan></text></g><text class="cls-11" transform="translate(420.33 95.53)">1-Acyl-glycerone<tspan x="0" y="14.4">3-phosphate</tspan></text><text class="cls-11" transform="translate(420.33 165.99)">1-Alkyl-glycerone<tspan x="0" y="14.4">3-phosphate</tspan></text><text class="cls-11" transform="translate(420.33 221.3)">1-Alkyl-sn-<tspan x="0" y="14.4">glycero-3-phosphate</tspan></text><text class="cls-11" transform="translate(236.05 170.07)">1-Alkyl-sn-glycerol</text><text class="cls-11" transform="translate(64.99 305.62)">2-Acetyl-1-alkyl-<tspan x="0" y="14.4">sn-glycero-3-phosphate</tspan></text><text class="cls-11" transform="translate(638.88 300.17)">2-Acetyl-1-alkyl-sn-<tspan x="0" y="14.4">glycero-3-phosphate</tspan><tspan class="cls-12"><tspan x="0" y="28.8"> (Plasmanic acid)</tspan></tspan></text><text class="cls-11" transform="translate(638.88 366.04)">2-Acyl-1-alkyl-<tspan x="0" y="14.4">sn-glycerol</tspan></text><text class="cls-11" transform="translate(819.89 449.98)">Galactosyl-2-acyl-<tspan x="0" y="14.4">1-alkyl-snglycerol</tspan></text><text class="cls-11" transform="translate(819.89 530.83)">Seminolipid</text><text class="cls-11" transform="translate(638.88 434.65) scale(1.02 1)">2-Acyl-1-alkyl-sn-glycero-<tspan x="0" y="14.4">3-phosphoethanolamine</tspan><tspan x="0" y="28.8">(Plasmanylethanolamine)</tspan></text><text class="cls-13" transform="translate(632 496.68) scale(1.23 1)">2-Acyl-1-(1alkenyl)-sn-glycero-<tspan x="0" y="12.2">3-phosphoethanolamine</tspan><tspan x="0" y="24.41">(Plasmenylethanolamine)</tspan></text><text class="cls-11" transform="translate(203.31 376.16)">2-Acetyl-1-alkyl-<tspan x="0" y="14.4">sn-glycerol</tspan></text><text class="cls-11" transform="translate(41.91 450.02)">2-Acetyl-1-alkyl-sn-glycero-<tspan x="0" y="14.4">3-phosphocholine (</tspan><tspan x="102.07" y="14.4">P</tspan><tspan x="109.18" y="14.4">AF)</tspan></text><text class="cls-11" transform="translate(45.07 523.86)">1-Alkyl-sn-glycero-3-<tspan x="0" y="14.4">phosphocholine (lyso </tspan><tspan x="116.07" y="14.4">P</tspan><tspan x="123.19" y="14.4">AF)</tspan></text><text class="cls-11" transform="translate(268.98 547.75)">2-Acyl-1-alkyl-<tspan x="0" y="14.4">sn-glycero-</tspan><tspan x="0" y="28.8">3-phosphocholine</tspan><tspan x="0" y="43.2">(Plasmanylcholine)</tspan></text><text class="cls-11" transform="translate(451.76 419.8)">sn-Glycero-<tspan x="0" y="14.4">3-Phospho-</tspan><tspan x="0" y="28.8">ethanolamine</tspan></text><text class="cls-11" transform="translate(370.29 467.72)">1-(1-Alkenyl)-sn-<tspan x="0" y="14.4">glycero-3-phospho-</tspan><tspan x="0" y="28.8">ethanolamine</tspan><tspan x="0" y="43.2">(</tspan><tspan x="4" y="43.2">L</tspan><tspan x="10.22" y="43.2">ysoplasmalogen)</tspan></text><text class="cls-11" transform="translate(400.06 584.91)">1-(1-Alkenyl)-<tspan x="0" y="14.4">sn-glycerol-</tspan><tspan x="0" y="28.8">3-phosphate</tspan></text><text class="cls-11" transform="translate(640.55 706.65)">2-Acyl-1-(1-alkenyl)-<tspan x="0" y="14.4">sn-glycerol</tspan></text><text class="cls-11" transform="translate(423.37 663.94)">2-Acyl-1-(1-alkenyl)-<tspan x="0" y="14.4">sn-glycero-3-phosphate</tspan><tspan x="0" y="28.8">(Plasmenic acid)</tspan></text><text class="cls-11" transform="translate(377.34 778.97)">1-(1-Alkenyl)-sn-glycero-<tspan x="0" y="14.4">3-phosphocholine</tspan></text><text class="cls-11" transform="translate(408.77 845.43)">sn-Glycero-<tspan x="0" y="14.4">3-phosphocholine</tspan></text><text class="cls-11" transform="translate(618.88 800.36)">2-Acyl-1-(1-alkeny)-<tspan x="0" y="14.4">sn-glycero-</tspan><tspan x="0" y="28.8">3-phosphocholine</tspan><tspan x="0" y="43.2">(Plasmenylcholine)</tspan></text><text class="cls-11" transform="translate(355.07 547.75)">1-(1-Alkenyl)-<tspan x="0" y="14.4">sn-glycerol</tspan></text><text class="cls-11" transform="translate(42.91 405.31)">2-Acetyl-3-acyl-<tspan x="0" y="14.4">1-alkyl-sn-glycerol</tspan></text><g id="Rec"><rect class="cls-14" x="717.6" y="77.66" width="83.65" height="20.31"/><text class="cls-15" transform="translate(741.75 91.9) scale(1.05 1)">KEGG</text></g><g id="Rec-2" data-name="Rec"><rect class="cls-14" x="717.6" y="110.43" width="83.65" height="20.31"/><text class="cls-15" transform="translate(747.23 124.67) scale(1.05 1)">RN<tspan x="18.01" y="0">A</tspan></text></g><g id="Rec-3" data-name="Rec"><rect class="cls-14" x="717.6" y="144.79" width="83.65" height="20.31"/><text class="cls-15" transform="translate(735.54 159.03) scale(1.05 1)">Genome</text></g><rect class="cls-16" x="680.49" y="75.69" width="23.27" height="24.25"/><rect class="cls-17" x="680.49" y="108.45" width="23.27" height="24.25"/><rect class="cls-18" x="680.49" y="142.82" width="23.27" height="24.25"/><rect class="cls-14" x="665.13" y="61.51" width="157.42" height="120.63"/><g id="Round"><rect class="cls-14" x="145.43" y="83.94" width="189.24" height="24.81" rx="12" ry="12"/><text class="cls-19" transform="translate(153.66 101.74) scale(0.94 1)">Glycerophospholipid metabolism</text></g><g id="Rec-4" data-name="Rec"><rect class="cls-14" x="385.2" y="121.83" width="52.02" height="16.49"/><text class="cls-11" transform="translate(389.77 133.4)">2.5.1.26</text></g><g id="Rec-5" data-name="Rec"><rect class="cls-14" x="313.74" y="189.92" width="52.02" height="16.49"/><text class="cls-11" transform="translate(318.31 201.49)">2.7.1.93</text></g><g id="Rec-6" data-name="Rec"><rect class="cls-14" x="384.12" y="190.92" width="52.02" height="16.49"/><text class="cls-11" transform="translate(385.34 202.49)">1.1.1.101</text></g><g id="Rec-7" data-name="Rec"><rect class="cls-14" x="168.74" y="336.97" width="52.02" height="16.49"/><text class="cls-11" transform="translate(173.3 348.54)">3.1.3.59</text></g><g id="Rec-8" data-name="Rec"><rect class="cls-14" x="168.74" y="405.31" width="52.02" height="16.49"/><text class="cls-11" transform="translate(176.64 416.87)">2.7.8.2</text></g><g id="Rec-9" data-name="Rec"><rect class="cls-14" x="303.05" y="405.31" width="52.02" height="16.49"/><text class="cls-11" transform="translate(310.95 416.87)">2.7.8.2</text></g><g id="Rec-10" data-name="Rec"><rect class="cls-14" x="194.75" y="492.45" width="52.02" height="16.49"/><text class="cls-11" transform="translate(202.22 504.02)">LPC<tspan x="23.34" y="0">A</tspan><tspan x="30.46" y="0">T</tspan></text></g><g id="Rec-11" data-name="Rec"><rect class="cls-14" x="411.22" y="518.93" width="52.02" height="16.49"/><text class="cls-11" transform="translate(417.79 530.49)">ENPP6</text></g><g id="Rec-12" data-name="Rec"><rect class="cls-14" x="213.09" y="531.26" width="52.02" height="16.49"/><text class="cls-11" transform="translate(217.11 542.83)">LPC<tspan x="23.34" y="0">A</tspan><tspan x="30.46" y="0">T2</tspan></text></g><g id="Rec-13" data-name="Rec"><rect class="cls-14" x="531.22" y="508.68" width="52.02" height="16.49"/><text class="cls-11" transform="translate(535.23 520.25)">LPC<tspan x="23.34" y="0">A</tspan><tspan x="30.46" y="0">T4</tspan></text></g><g id="Rec-14" data-name="Rec"><rect class="cls-14" x="475.71" y="475.96" width="52.02" height="16.49"/><text class="cls-11" transform="translate(483.61 487.53)">3.3.2.2</text></g><g id="Rec-15" data-name="Rec"><rect class="cls-14" x="259.72" y="508.68" width="52.02" height="16.49"/><text class="cls-11" transform="translate(267.62 520.25)">3.1.1.4</text></g><g id="Rec-16" data-name="Rec"><rect class="cls-14" x="457.3" y="547.75" width="52.02" height="16.49"/><text class="cls-11" transform="translate(461.86 559.32)">3.1.4.39</text></g><g id="Rec-17" data-name="Rec"><rect class="cls-14" x="531.46" y="529.64" width="52.02" height="16.49"/><text class="cls-11" transform="translate(539.37 541.21)">3.1.1.4</text></g><g id="Rec-18" data-name="Rec"><rect class="cls-14" x="602.3" y="266.15" width="52.02" height="16.49"/><text class="cls-11" transform="translate(611.54 277.72)">2.3.1.-</text></g><g id="Rec-19" data-name="Rec"><rect class="cls-14" x="602.3" y="337.97" width="52.02" height="16.49"/><text class="cls-11" transform="translate(610.2 349.54)">3.1.3.4</text></g><g id="Rec-20" data-name="Rec"><rect class="cls-14" x="598.61" y="467.72" width="59.4" height="16.49"/><text class="cls-11" transform="translate(599.79 479.29)">1.14.99.19</text></g><g id="Rec-21" data-name="Rec"><rect class="cls-14" x="602.3" y="405.31" width="52.02" height="16.49"/><text class="cls-11" transform="translate(610.2 416.87)">2.7.8.1</text></g><g id="Rec-22" data-name="Rec"><rect class="cls-14" x="782.63" y="405.31" width="52.02" height="16.49"/><text class="cls-11" transform="translate(787.19 416.87)">2.4.1.47</text></g><g id="Rec-23" data-name="Rec"><rect class="cls-14" x="783.13" y="467.72" width="52.02" height="16.49"/><text class="cls-11" transform="translate(788.14 479.29)">2.8.2.<tspan x="30.02" y="0">1</tspan><tspan x="35.81" y="0">1</tspan></text></g><g id="Rec-24" data-name="Rec"><rect class="cls-14" x="738.32" y="629.61" width="52.02" height="16.49"/><text class="cls-11" transform="translate(748.9 641.18)">2.6.-.-</text></g><g id="Rec-25" data-name="Rec"><rect class="cls-14" x="457.55" y="616.37" width="52.02" height="16.49"/><text class="cls-11" transform="translate(466.79 627.94)">2.3.1.-</text></g><g id="Rec-26" data-name="Rec"><rect class="cls-14" x="529.88" y="680.61" width="52.02" height="16.49"/><text class="cls-11" transform="translate(539.12 692.18)">3.1.3.-</text></g><g id="Rec-27" data-name="Rec"><rect class="cls-14" x="529.88" y="608.12" width="52.02" height="16.49"/><text class="cls-11" transform="translate(537.78 619.69)">3.1.4.4</text></g><g id="Rec-28" data-name="Rec"><rect class="cls-14" x="583.49" y="608.12" width="52.02" height="16.49"/><text class="cls-11" transform="translate(591.39 619.69)">2.7.8.1</text></g><g id="Rec-29" data-name="Rec"><rect class="cls-14" x="632" y="629.61" width="52.02" height="16.49"/><text class="cls-11" transform="translate(639.9 641.18)">3.1.4.3</text></g><g id="Rec-30" data-name="Rec"><rect class="cls-14" x="600.21" y="732.61" width="52.02" height="16.49"/><text class="cls-11" transform="translate(604.78 744.18)">2.7.8.22</text></g><g id="Rec-31" data-name="Rec"><rect class="cls-14" x="545.04" y="770.35" width="52.02" height="16.49"/><text class="cls-11" transform="translate(549.6 781.92)">2.3.1.25</text></g><g id="Rec-32" data-name="Rec"><rect class="cls-14" x="493.63" y="806.28" width="52.02" height="16.49"/><text class="cls-11" transform="translate(501.53 817.84)">3.3.2.2</text></g><g id="Rec-33" data-name="Rec"><rect class="cls-14" x="145.43" y="472.64" width="52.02" height="16.49"/><text class="cls-11" transform="translate(150 484.21)">3.1.1.47</text></g><g id="Rec-34" data-name="Rec"><rect class="cls-14" x="119.42" y="374.8" width="52.02" height="16.49"/><text class="cls-11" transform="translate(120.65 386.37)">2.3.1.125</text></g><g id="Rec-35" data-name="Rec"><rect class="cls-14" x="168.99" y="266.15" width="52.02" height="16.49"/><text class="cls-11" transform="translate(170.21 277.72)">2.3.1.105</text></g><text x="-374.69" y="-67.28"/><circle class="cls-14" cx="194.75" cy="527.17" r="4.09"/><circle class="cls-14" cx="194.75" cy="455.06" r="4.09"/><circle class="cls-14" cx="483.31" cy="598.28" r="4.09"/><circle class="cls-14" cx="87.45" cy="380.96" r="4.09"/><circle class="cls-14" cx="386.4" cy="527.17" r="4.09"/><circle class="cls-14" cx="194.75" cy="380.96" r="4.09"/><circle class="cls-14" cx="483.31" cy="456.06" r="4.09"/><circle class="cls-14" cx="626.22" cy="455.06" r="4.09"/><circle class="cls-14" cx="627.22" cy="526.09" r="4.09"/><circle class="cls-14" cx="808.64" cy="455.06" r="4.09"/><circle class="cls-14" cx="809.39" cy="523.09" r="4.09"/><circle class="cls-14" cx="552.89" cy="650.19" r="4.09"/><circle class="cls-14" cx="517.64" cy="854.85" r="4.09"/><circle class="cls-14" cx="627.22" cy="779.92" r="4.09"/><circle class="cls-14" cx="517.64" cy="778.6" r="4.09"/><circle class="cls-14" cx="626.22" cy="706.65" r="4.09"/><circle class="cls-14" cx="626.22" cy="383.04" r="4.09"/><circle class="cls-14" cx="327.06" cy="527.17" r="4.09"/><circle class="cls-14" cx="194.75" cy="311.48" r="4.09"/><circle class="cls-14" cx="483.31" cy="527.17" r="4.09"/><circle class="cls-14" cx="627.31" cy="310.48" r="4.09"/><circle class="cls-14" cx="409.13" cy="237.54" r="4.09"/><circle class="cls-14" cx="339.76" cy="165.99" r="4.09"/><circle class="cls-14" cx="410.13" cy="166.85" r="4.09"/><circle class="cls-14" cx="409.13" cy="96.35" r="4.09"/><line class="cls-20" x1="410.11" y1="121.38" x2="409.74" y2="100.39"/><line class="cls-20" x1="410.37" y1="159.88" x2="410.26" y2="139.17"/><polygon class="cls-21" points="410.11 159.71 413.91 151.17 406.35 151.17 410.11 159.71"/><line class="cls-20" x1="409.71" y1="190.92" x2="409.66" y2="172.39"/><line class="cls-20" x1="409.37" y1="232.23" x2="409.13" y2="207.41"/><polygon class="cls-21" points="409.11 232.06 412.91 223.53 405.35 223.52 409.11 232.06"/><line class="cls-20" x1="627.01" y1="265.16" x2="626.94" y2="238.52"/><line class="cls-20" x1="626.57" y1="304.62" x2="626.57" y2="282.64"/><polygon class="cls-21" points="626.42 304.45 630.21 295.91 622.65 295.9 626.42 304.45"/><line class="cls-20" x1="627.01" y1="337.97" x2="626.96" y2="317.06"/><line class="cls-20" x1="626.57" y1="376.16" x2="626.57" y2="354.18"/><polygon class="cls-21" points="626.42 377.68 630.21 369.14 622.65 369.13 626.42 377.68"/><line class="cls-20" x1="627.13" y1="404.33" x2="627.09" y2="388.41"/><line class="cls-20" x1="626.7" y1="447.5" x2="626.7" y2="421.8"/><polygon class="cls-21" points="626.55 449.02 630.35 440.48 622.79 440.48 626.55 449.02"/><line class="cls-20" x1="626.35" y1="538.35" x2="626.35" y2="608.38"/><line class="cls-20" x1="642.44" y1="538.35" x2="642.88" y2="629.11"/><polygon class="cls-21" points="626.5 536.84 622.7 545.38 630.26 545.38 626.5 536.84"/><line class="cls-20" x1="626.61" y1="694.38" x2="626.61" y2="624.35"/><polygon class="cls-21" points="626.46 695.9 630.26 687.36 622.7 687.36 626.46 695.9"/><line class="cls-20" x1="642.79" y1="694.38" x2="642.79" y2="647.4"/><polygon class="cls-21" points="642.64 695.9 646.44 687.36 638.88 687.36 642.64 695.9"/><line class="cls-20" x1="808.91" y1="404.73" x2="808.85" y2="381.59"/><line class="cls-20" x1="808.77" y1="445.66" x2="808.77" y2="421.8"/><polygon class="cls-21" points="808.63 447.18 812.42 438.64 804.86 438.63 808.63 447.18"/><line class="cls-20" x1="808.59" y1="467.3" x2="808.57" y2="459.81"/><line class="cls-20" x1="808.47" y1="517.48" x2="808.47" y2="484.21"/><polygon class="cls-21" points="808.32 519 812.12 510.46 804.56 510.45 808.32 519"/><line class="cls-20" x1="626.71" y1="467.18" x2="626.69" y2="459.69"/><line class="cls-20" x1="626.36" y1="512.28" x2="626.36" y2="484.21"/><polygon class="cls-21" points="626.21 513.8 630 505.26 622.45 505.25 626.21 513.8"/><line class="cls-20" x1="482.58" y1="492.44" x2="482.66" y2="521.86"/><line class="cls-20" x1="482.62" y1="463.21" x2="482.62" y2="474.83"/><polygon class="cls-21" points="482.77 461.69 478.97 470.23 486.53 470.23 482.77 461.69"/><line class="cls-20" x1="463.24" y1="527.3" x2="479.23" y2="527.26"/><line class="cls-20" x1="393.03" y1="527.3" x2="411.47" y2="527.3"/><polygon class="cls-21" points="391.51 527.15 400.05 530.95 400.06 523.39 391.51 527.15"/><line class="cls-20" x1="583.49" y1="531.02" x2="616.6" y2="530.94"/><line class="cls-20" x1="491.5" y1="530.96" x2="531.22" y2="530.96"/><polygon class="cls-21" points="489.98 530.81 498.52 534.61 498.52 527.05 489.98 530.81"/><line class="cls-20" x1="764.58" y1="778.59" x2="764.48" y2="646.1"/><line class="cls-20" x1="764.61" y1="629.61" x2="764.53" y2="525.17"/><line class="cls-20" x1="764.49" y1="525.12" x2="632" y2="525.22"/><line class="cls-20" x1="633.52" y1="778.59" x2="764.58" y2="778.59"/><polygon class="cls-21" points="632 778.44 640.54 782.24 640.54 774.68 632 778.44"/><line class="cls-20" x1="530.56" y1="521.78" x2="487.88" y2="521.89"/><line class="cls-20" x1="612.97" y1="521.87" x2="583.49" y2="521.85"/><polygon class="cls-21" points="614.49 522.02 605.95 518.22 605.94 525.78 614.49 522.02"/><line class="cls-20" x1="545.04" y1="778.54" x2="521.73" y2="778.6"/><line class="cls-20" x1="618.77" y1="778.47" x2="597.06" y2="778.45"/><polygon class="cls-21" points="620.28 778.62 611.74 774.82 611.74 782.38 620.28 778.62"/><line class="cls-20" x1="483.21" y1="547.75" x2="483.31" y2="531.26"/><line class="cls-20" x1="482.88" y1="589.78" x2="482.88" y2="564.24"/><polygon class="cls-21" points="482.73 591.29 486.53 582.75 478.97 582.75 482.73 591.29"/><line class="cls-20" x1="517.9" y1="804.4" x2="517.64" y2="782.69"/><line class="cls-20" x1="517.57" y1="846.43" x2="517.57" y2="823.91"/><polygon class="cls-21" points="517.42 847.95 521.22 839.41 513.66 839.4 517.42 847.95"/><line class="cls-20" x1="626.79" y1="732.1" x2="626.92" y2="710.84"/><line class="cls-20" x1="626.49" y1="769.36" x2="626.49" y2="749.1"/><polygon class="cls-21" points="626.34 773.87 630.13 765.33 622.58 765.33 626.34 773.87"/><line class="cls-20" x1="482.7" y1="616.37" x2="482.78" y2="602.36"/><line class="cls-20" x1="482.88" y1="649.92" x2="482.88" y2="632.57"/><polygon class="cls-21" points="547.2 649.9 538.66 646.1 538.66 653.66 547.2 649.9"/><line class="cls-20" x1="539.19" y1="650.19" x2="483.31" y2="649.88"/><line class="cls-20" x1="552.95" y1="679.82" x2="553.09" y2="655.59"/><line class="cls-20" x1="553.02" y1="704.85" x2="553.02" y2="697.22"/><polygon class="cls-21" points="620.22 704.72 611.68 700.92 611.68 708.48 620.22 704.72"/><line class="cls-20" x1="612.21" y1="705" x2="553.02" y2="704.85"/><line class="cls-20" x1="339.71" y1="188.83" x2="339.82" y2="171.17"/><line class="cls-20" x1="337.93" y1="235.19" x2="337.93" y2="207.41"/><polygon class="cls-21" points="402.25 235.17 393.71 231.38 393.7 238.94 402.25 235.17"/><line class="cls-20" x1="394.23" y1="235.46" x2="338.36" y2="235.16"/><line class="cls-20" x1="554.83" y1="608.38" x2="554.95" y2="588.78"/><line class="cls-20" x1="553.02" y1="641.27" x2="553.02" y2="624.61"/><polygon class="cls-21" points="552.87 642.78 556.67 634.25 549.11 634.24 552.87 642.78"/><line class="cls-20" x1="195.41" y1="266.15" x2="195.35" y2="242.76"/><line class="cls-20" x1="195.49" y1="304.31" x2="195.29" y2="283.36"/><polygon class="cls-21" points="195.23 304.15 199.03 295.61 191.47 295.6 195.23 304.15"/><line class="cls-20" x1="194.91" y1="336.58" x2="194.85" y2="313.19"/><line class="cls-20" x1="194.99" y1="374.75" x2="194.79" y2="353.8"/><polygon class="cls-21" points="194.73 374.58 198.53 366.04 190.97 366.04 194.73 374.58"/><line class="cls-20" x1="194.55" y1="405.31" x2="194.5" y2="385.1"/><line class="cls-20" x1="194.64" y1="446.65" x2="194.4" y2="421.83"/><polygon class="cls-21" points="194.38 446.49 198.18 437.94 190.62 437.94 194.38 446.49"/><line class="cls-20" x1="190.81" y1="472.05" x2="190.77" y2="458.35"/><line class="cls-20" x1="190.91" y1="519.91" x2="190.62" y2="490.36"/><polygon class="cls-21" points="190.65 519.74 194.45 511.2 186.89 511.19 190.65 519.74"/><line class="cls-20" x1="328.25" y1="403.78" x2="328.2" y2="382.29"/><line class="cls-20" x1="328.71" y1="519.91" x2="327.76" y2="421.8"/><polygon class="cls-21" points="328.45 519.74 332.25 511.2 324.69 511.19 328.45 519.74"/><line class="cls-20" x1="200.63" y1="509.55" x2="200.66" y2="521.9"/><line class="cls-20" x1="200.52" y1="460.34" x2="200.83" y2="491.59"/><polygon class="cls-21" points="200.78 460.51 196.99 469.05 204.54 469.05 200.78 460.51"/><line class="cls-20" x1="171.69" y1="381.41" x2="190.11" y2="381.36"/><line class="cls-20" x1="93.62" y1="381.5" x2="118.44" y2="381.26"/><polygon class="cls-21" points="93.78 381.24 102.32 385.04 102.33 377.48 93.78 381.24"/><line class="cls-20" x1="311.77" y1="523.09" x2="320.98" y2="523.09"/><line class="cls-20" x1="203.14" y1="523.33" x2="259.34" y2="522.78"/><polygon class="cls-21" points="203.31 523.07 211.85 526.87 211.86 519.31 203.31 523.07"/><line class="cls-20" x1="212.42" y1="532.43" x2="201.99" y2="532.43"/><line class="cls-20" x1="319.82" y1="532.18" x2="265.05" y2="532.71"/><polygon class="cls-21" points="319.66 532.44 311.12 528.65 311.11 536.21 319.66 532.44"/><line class="cls-20" x1="402.77" y1="95.61" x2="334.67" y2="95.94"/><polygon class="cls-21" points="402.61 95.87 394.07 92.07 394.06 99.63 402.61 95.87"/><line class="cls-20" x1="620.31" y1="589.06" x2="555.55" y2="588.7"/><line class="cls-20" x1="620.33" y1="536.84" x2="620.05" y2="588.38"/><line class="cls-20" x1="622.14" y1="383.04" x2="328.2" y2="382.29"/><line class="cls-20" x1="400.07" y1="243.38" x2="195.36" y2="242.76"/><line class="cls-20" x1="626.94" y1="238.52" x2="415.97" y2="238.93"/><line class="cls-20" x1="808.85" y1="381.59" x2="632.84" y2="382.87"/><text x="-374.69" y="-67.28"/></svg>