<svg id="Layer_2" data-name="Layer 2" xmlns="http://www.w3.org/2000/svg" viewBox="0 0 1076.36 932.46"><defs><style>.cls-1{fill:#f16d7d;}.cls-2{fill:#fbf28a;}.cls-3{fill:#fbf288;}.cls-4{fill:#4c86c5;}.cls-13,.cls-5{fill:#1f91ff;}.cls-6{fill:#fcf289;}.cls-12,.cls-7{fill:#ff6e7d;}.cls-11,.cls-8{fill:#fff984;}.cls-19,.cls-9{fill:none;}.cls-11,.cls-12,.cls-13,.cls-19,.cls-9{stroke:#000;}.cls-11,.cls-12,.cls-13,.cls-15,.cls-16,.cls-19,.cls-9{stroke-miterlimit:10;}.cls-10{font-size:12.47px;}.cls-10,.cls-14,.cls-17,.cls-20{font-family:Arial;}.cls-14{font-size:12px;}.cls-15{fill:#e6e7e8;}.cls-15,.cls-16{stroke:#231f20;stroke-linecap:round;}.cls-17{font-size:12.59px;}.cls-18{letter-spacing:-1.06px;}.cls-19{stroke-width:2px;}.cls-20{font-size:14px;}.cls-21{font-style:italic;}</style></defs><title>jcu_ec00100</title><rect class="cls-1" x="483.53" y="381.01" width="25.5" height="16.45"/><rect class="cls-2" x="458.03" y="381.01" width="17.04" height="16.45"/><rect class="cls-3" x="458.03" y="381.01" width="25.5" height="16.45"/><rect class="cls-1" x="348.26" y="679.9" width="28.68" height="16.45"/><rect class="cls-2" x="319.58" y="679.9" width="19.16" height="16.45"/><rect class="cls-3" x="319.58" y="679.9" width="28.68" height="16.45"/><rect class="cls-4" x="357.34" y="629.62" width="17.36" height="16.45"/><rect class="cls-3" x="322.73" y="629.62" width="17.36" height="16.45"/><rect class="cls-1" x="340.09" y="629.62" width="17.36" height="16.45"/><rect class="cls-4" x="787.92" y="579.5" width="17.36" height="16.45"/><rect class="cls-3" x="753.31" y="579.5" width="17.36" height="16.45"/><rect class="cls-1" x="770.67" y="579.5" width="17.36" height="16.45"/><rect class="cls-1" x="638.82" y="679.4" width="25.5" height="16.45"/><rect class="cls-2" x="613.33" y="679.4" width="17.04" height="16.45"/><rect class="cls-3" x="613.33" y="679.4" width="25.5" height="16.45"/><rect class="cls-1" x="945.58" y="680.42" width="25.5" height="16.45"/><rect class="cls-2" x="920.08" y="680.42" width="17.04" height="16.45"/><rect class="cls-3" x="920.08" y="680.42" width="25.5" height="16.45"/><rect class="cls-1" x="779.17" y="678.62" width="25.5" height="16.45"/><rect class="cls-2" x="753.67" y="678.62" width="17.04" height="16.45"/><rect class="cls-3" x="753.67" y="678.62" width="25.5" height="16.45"/><rect class="cls-1" x="779.09" y="529.77" width="25.5" height="16.45"/><rect class="cls-2" x="753.59" y="529.77" width="17.04" height="16.45"/><rect class="cls-3" x="753.59" y="529.77" width="25.5" height="16.45"/><rect class="cls-1" x="779.1" y="430.13" width="25.5" height="16.45"/><rect class="cls-2" x="753.61" y="430.13" width="17.04" height="16.45"/><rect class="cls-3" x="753.61" y="430.13" width="25.5" height="16.45"/><rect class="cls-1" x="778.56" y="329.02" width="25.5" height="16.45"/><rect class="cls-2" x="753.06" y="329.02" width="17.04" height="16.45"/><rect class="cls-3" x="753.06" y="329.02" width="25.5" height="16.45"/><rect class="cls-5" x="637.62" y="731.32" width="26.53" height="16.45"/><rect class="cls-6" x="611.09" y="731.32" width="17.72" height="16.45"/><rect class="cls-7" x="611.09" y="731.32" width="26.53" height="16.45"/><rect class="cls-8" x="954.75" y="779.25" width="17.16" height="16.45"/><rect class="cls-8" x="920.55" y="779.25" width="17.16" height="16.45"/><rect class="cls-8" x="937.71" y="779.25" width="17.16" height="16.45"/><rect class="cls-8" x="867.22" y="779.25" width="17.16" height="16.45"/><rect class="cls-8" x="833.02" y="779.25" width="17.16" height="16.45"/><rect class="cls-8" x="850.17" y="779.25" width="17.16" height="16.45"/><rect class="cls-8" x="789.66" y="781.25" width="17.16" height="16.45"/><rect class="cls-8" x="755.47" y="781.25" width="17.16" height="16.45"/><rect class="cls-8" x="772.62" y="781.25" width="17.16" height="16.45"/><rect class="cls-8" x="954.5" y="629.94" width="17.16" height="16.45"/><rect class="cls-8" x="920.3" y="629.94" width="17.16" height="16.45"/><rect class="cls-8" x="937.46" y="629.94" width="17.16" height="16.45"/><rect class="cls-8" x="787.48" y="628.62" width="17.16" height="16.45"/><rect class="cls-8" x="753.28" y="628.62" width="17.16" height="16.45"/><rect class="cls-8" x="770.44" y="628.62" width="17.16" height="16.45"/><rect class="cls-8" x="492.43" y="328.84" width="19.11" height="16.45"/><rect class="cls-8" x="454.35" y="328.84" width="19.11" height="16.45"/><rect class="cls-8" x="473.45" y="328.84" width="19.11" height="16.45"/><rect class="cls-8" x="787.94" y="479.59" width="17.16" height="16.45"/><rect class="cls-8" x="753.74" y="479.59" width="17.16" height="16.45"/><rect class="cls-8" x="770.9" y="479.59" width="17.16" height="16.45"/><rect class="cls-8" x="786.55" y="380.01" width="17.16" height="16.45"/><rect class="cls-8" x="752.35" y="380.01" width="17.16" height="16.45"/><rect class="cls-8" x="769.51" y="380.01" width="17.16" height="16.45"/><rect class="cls-5" x="310.37" y="757.61" width="17.28" height="16.45"/><rect class="cls-8" x="275.92" y="757.61" width="17.28" height="16.45"/><rect class="cls-7" x="293.2" y="757.61" width="17.28" height="16.45"/><rect class="cls-5" x="425.02" y="760.05" width="17.28" height="16.45"/><rect class="cls-8" x="390.58" y="760.05" width="17.28" height="16.45"/><rect class="cls-7" x="407.86" y="760.05" width="17.28" height="16.45"/><rect class="cls-5" x="425.02" y="710.05" width="17.28" height="16.45"/><rect class="cls-8" x="390.58" y="710.05" width="17.28" height="16.45"/><rect class="cls-7" x="407.86" y="710.05" width="17.28" height="16.45"/><rect class="cls-5" x="424.96" y="658.04" width="17.28" height="16.45"/><rect class="cls-8" x="390.52" y="658.04" width="17.28" height="16.45"/><rect class="cls-7" x="407.8" y="658.04" width="17.28" height="16.45"/><rect class="cls-5" x="425.02" y="608.62" width="17.28" height="16.45"/><rect class="cls-8" x="390.58" y="608.62" width="17.28" height="16.45"/><rect class="cls-7" x="407.86" y="608.62" width="17.28" height="16.45"/><rect class="cls-5" x="954.04" y="829.53" width="17.28" height="16.45"/><rect class="cls-8" x="919.59" y="829.53" width="17.28" height="16.45"/><rect class="cls-7" x="936.87" y="829.53" width="17.28" height="16.45"/><rect class="cls-5" x="867.76" y="831.59" width="17.28" height="16.45"/><rect class="cls-8" x="833.31" y="831.59" width="17.28" height="16.45"/><rect class="cls-7" x="850.59" y="831.59" width="17.28" height="16.45"/><rect class="cls-5" x="868.86" y="610.56" width="17.28" height="16.45"/><rect class="cls-8" x="834.42" y="610.56" width="17.28" height="16.45"/><rect class="cls-7" x="851.7" y="610.56" width="17.28" height="16.45"/><rect class="cls-5" x="567.83" y="609.65" width="17.28" height="16.45"/><rect class="cls-8" x="533.39" y="609.65" width="17.28" height="16.45"/><rect class="cls-7" x="550.67" y="609.65" width="17.28" height="16.45"/><rect class="cls-5" x="424.96" y="410.03" width="17.28" height="16.45"/><rect class="cls-8" x="390.52" y="410.03" width="17.28" height="16.45"/><rect class="cls-7" x="407.8" y="410.03" width="17.28" height="16.45"/><rect class="cls-5" x="424.77" y="308.68" width="17.28" height="16.45"/><rect class="cls-8" x="390.33" y="308.68" width="17.28" height="16.45"/><rect class="cls-7" x="407.61" y="308.68" width="17.28" height="16.45"/><rect class="cls-5" x="492" y="210.54" width="19.54" height="16.45"/><rect class="cls-8" x="453.05" y="210.54" width="19.54" height="16.45"/><rect class="cls-7" x="472.59" y="210.54" width="19.54" height="16.45"/><rect class="cls-5" x="493.68" y="480.26" width="19.54" height="16.45"/><rect class="cls-8" x="454.72" y="480.26" width="19.54" height="16.45"/><rect class="cls-7" x="474.27" y="480.26" width="19.54" height="16.45"/><rect class="cls-5" x="786.91" y="272.14" width="17.46" height="16.45"/><rect class="cls-8" x="752.1" y="272.14" width="17.46" height="16.45"/><rect class="cls-7" x="769.56" y="272.14" width="17.46" height="16.45"/><rect class="cls-7" x="483.03" y="629.62" width="25.91" height="16.45"/><rect class="cls-6" x="457.13" y="629.62" width="17.31" height="16.45"/><rect class="cls-8" x="457.13" y="629.62" width="25.91" height="16.45"/><rect class="cls-7" x="349.43" y="729" width="25.91" height="16.45"/><rect class="cls-6" x="323.53" y="729" width="17.31" height="16.45"/><rect class="cls-8" x="323.53" y="729" width="25.91" height="16.45"/><rect class="cls-7" x="945.98" y="730" width="25.91" height="16.45"/><rect class="cls-6" x="920.07" y="730" width="17.31" height="16.45"/><rect class="cls-8" x="920.07" y="730" width="25.91" height="16.45"/><rect class="cls-7" x="778.39" y="730" width="25.91" height="16.45"/><rect class="cls-6" x="752.48" y="730" width="17.31" height="16.45"/><rect class="cls-8" x="752.48" y="730" width="25.91" height="16.45"/><rect class="cls-7" x="482.83" y="149.82" width="25.91" height="16.45"/><rect class="cls-6" x="456.92" y="149.82" width="17.31" height="16.45"/><rect class="cls-8" x="456.92" y="149.82" width="25.91" height="16.45"/><rect class="cls-7" x="482.56" y="93.03" width="25.52" height="16.45"/><rect class="cls-6" x="457.04" y="93.03" width="17.05" height="16.45"/><rect class="cls-8" x="457.04" y="93.03" width="25.52" height="16.45"/><rect class="cls-7" x="482.56" y="92.11" width="24.78" height="16.45"/><rect class="cls-6" x="457.79" y="92.11" width="16.55" height="16.45"/><rect class="cls-8" x="457.79" y="92.11" width="24.78" height="16.45"/><g id="Rec"><rect class="cls-9" x="906.79" y="75.06" width="83.65" height="20.31"/><text class="cls-10" transform="translate(930.94 89.3) scale(1.05 1)">KEGG</text></g><g id="Rec-2" data-name="Rec"><rect class="cls-9" x="906.79" y="107.82" width="83.65" height="20.31"/><text class="cls-10" transform="translate(936.41 122.07) scale(1.05 1)">RN<tspan x="18.01" y="0">A</tspan></text></g><g id="Rec-3" data-name="Rec"><rect class="cls-9" x="906.79" y="142.19" width="83.65" height="20.31"/><text class="cls-10" transform="translate(924.72 156.43) scale(1.05 1)">Genome</text></g><rect class="cls-11" x="869.68" y="73.08" width="23.27" height="24.25"/><rect class="cls-12" x="869.68" y="105.85" width="23.27" height="24.25"/><rect class="cls-13" x="869.68" y="140.21" width="23.27" height="24.25"/><rect class="cls-9" x="854.32" y="58.91" width="157.42" height="120.63"/><text class="cls-14" transform="translate(491.5 78.8)">Farnesyl-P<tspan x="58.01" y="0">P</tspan></text><text class="cls-14" transform="translate(489.43 137.1)">Presqualene-P<tspan x="79.38" y="0">P</tspan></text><text class="cls-14" transform="translate(489.43 197.02)">Squalene</text><text class="cls-14" transform="translate(489.43 321.99)">Lanosterol</text><text class="cls-14" transform="translate(786.8 321.99)">Cycloartenol</text><text class="cls-14" transform="translate(786.8 361.56)">24-Methylene-<tspan x="0" y="14.4">cycloartanol</tspan></text><text class="cls-14" transform="translate(784.88 421.58)">Cycloeucalenol</text><text class="cls-14" transform="translate(784.88 471.14)">Obtusifoliol</text><text class="cls-14" transform="translate(786.8 523.69)">Δ8,14-Sterol</text><text class="cls-14" transform="translate(786.8 573.77)">4ά-Methylfecosterol</text><text class="cls-14" transform="translate(786.8 673.56)">Episterol</text><text class="cls-14" transform="translate(951.62 671.81)">Δ7-<tspan x="18.69" y="0">A</tspan><tspan x="26.47" y="0">venasterol</tspan></text><text class="cls-14" transform="translate(784.88 725.3)">5-Dehydroepisterol</text><text class="cls-14" transform="translate(951.62 771.08)">Isofucosterol</text><text class="cls-14" transform="translate(951.62 821.41)">Sitosterol</text><text class="cls-14" transform="translate(916.28 885.83)">Stigmasterol</text><text class="cls-14" transform="translate(825.61 885.83)">Brassicasterol</text><text class="cls-14" transform="translate(865.95 812.15)">24-epi-<tspan x="0" y="14.4">Campesterol</tspan></text><text class="cls-14" transform="translate(784.88 821.41)">Campesterol</text><text class="cls-14" transform="translate(951.62 724.52)">5-Dehydroeavenasterol</text><text class="cls-14" transform="translate(693.57 618.79)">24-Methylene-<tspan x="0" y="14.4">lophenol</tspan></text><text class="cls-14" transform="translate(953.58 610.54)">24-Ethylidene-<tspan x="0" y="14.4">lophenol</tspan></text><text class="cls-14" transform="translate(489.43 360.53)">4,4-Dimethyl-cholesta-<tspan x="0" y="14.4">8,14,24-trienol</tspan></text><text class="cls-14" transform="translate(489.43 412.28)">14-Demethyl-<tspan x="0" y="14.4">lanosterol</tspan></text><text class="cls-14" transform="translate(491.5 461.29)">4-Methylzymosterol-<tspan x="0" y="14.4">carboxylate</tspan></text><text class="cls-14" transform="translate(493.21 510.54)">3-Keto-4methyl-<tspan x="0" y="14.4">zymosterol</tspan></text><text class="cls-14" transform="translate(491.5 573.77)">4-Methylzylmosterol</text><text class="cls-14" transform="translate(614.47 607.01)">Fecosterol</text><text class="cls-14" transform="translate(643.67 673.56)">Episterol</text><text class="cls-14" transform="translate(491.5 667.38)">Cholesta-7,24-<tspan x="0" y="14.4">dien-3β-ol</tspan></text><text class="cls-14" transform="translate(279.78 671.88)">Lathosterol</text><text class="cls-14" transform="translate(158.79 708.13)">V<tspan x="7.79" y="0">itamin D3</tspan></text><text class="cls-14" transform="translate(221.41 755.27)">Cholesterol<tspan x="0" y="14.4">ester</tspan></text><text class="cls-14" transform="translate(226.76 898.58)">Secalciferol</text><text class="cls-14" transform="translate(126.28 901.27)">Calcitetrol</text><text class="cls-14" transform="translate(97.28 832.96)">Calcitriol</text><text class="cls-14" transform="translate(98.81 777.16)">Calcidiol</text><text class="cls-14" transform="translate(226.76 713.19)">7-Dehydrocholesterol</text><text class="cls-14" transform="translate(492.21 717.41)">7-Dehydro-<tspan x="0" y="14.4">desmosterol</tspan></text><text class="cls-14" transform="translate(490.43 772.59)">Desmosterol</text><text class="cls-14" transform="translate(351.28 787.37)">Cholesterol</text><text class="cls-14" transform="translate(646.74 712.39)">5,7,24(28)-Ergosta-<tspan x="0" y="14.4">trienol</tspan></text><text class="cls-14" transform="translate(646.74 763.09)">5,7,22,24(28)-Ergosta-<tspan x="0" y="14.4">tetraenol</tspan></text><text class="cls-14" transform="translate(643.67 822.01)">Ergosterol</text><text class="cls-14" transform="translate(614.47 890.22)">V<tspan x="7.79" y="0">itamin D2</tspan></text><text class="cls-14" transform="translate(620.34 842.08)">hv</text><text class="cls-14" transform="translate(265.38 728.98)">hv</text><text class="cls-14" transform="translate(492.21 607.01)">Zymosterol</text><text class="cls-14" transform="translate(296.84 608.01)">Cholesta-8-en-<tspan x="0" y="14.4">3β-ol</tspan></text><text class="cls-14" transform="translate(235.31 414.17)">4,4-Dimethyl-<tspan x="0" y="14.4">cholesta-8-en-3β-ol</tspan></text><text class="cls-14" transform="translate(400.82 250.75)">(S)-Squalene-<tspan x="0" y="14.4">2,3-epoxide</tspan></text><text class="cls-14" transform="translate(259.13 316.91)">24,25-Dihydro-<tspan x="0" y="14.4">lanosterol</tspan></text><circle class="cls-9" cx="778.36" cy="367.93" r="4.09"/><circle class="cls-9" cx="481.81" cy="367.93" r="4.09"/><circle class="cls-9" cx="481.81" cy="516.62" r="4.09"/><circle class="cls-9" cx="481.81" cy="567.59" r="4.09"/><circle class="cls-9" cx="481.81" cy="617.56" r="4.09"/><circle class="cls-9" cx="347.19" cy="617.56" r="4.09"/><circle class="cls-9" cx="481.81" cy="667.73" r="4.09"/><circle class="cls-9" cx="347.19" cy="667.73" r="4.09"/><circle class="cls-9" cx="482.81" cy="717.28" r="4.09"/><circle class="cls-9" cx="347.19" cy="717.28" r="4.09"/><circle class="cls-9" cx="153.58" cy="717.28" r="4.09"/><circle class="cls-9" cx="153.58" cy="773.08" r="4.09"/><circle class="cls-9" cx="153.58" cy="828.87" r="4.09"/><circle class="cls-9" cx="153.58" cy="882.65" r="4.09"/><circle class="cls-9" cx="482.81" cy="767.83" r="4.09"/><circle class="cls-9" cx="347.19" cy="767.83" r="4.09"/><circle class="cls-9" cx="261.3" cy="766.83" r="4.09"/><circle class="cls-9" cx="245.91" cy="882.65" r="4.09"/><circle class="cls-9" cx="481.81" cy="467.05" r="4.09"/><circle class="cls-9" cx="779.1" cy="467.05" r="4.09"/><circle class="cls-9" cx="779.1" cy="517.05" r="4.09"/><circle class="cls-9" cx="779.1" cy="567.55" r="4.09"/><circle class="cls-9" cx="778.36" cy="768.1" r="4.09"/><circle class="cls-9" cx="778.36" cy="717.91" r="4.09"/><circle class="cls-9" cx="778.36" cy="817.32" r="4.09"/><circle class="cls-9" cx="779.1" cy="667.73" r="4.09"/><circle class="cls-9" cx="779.1" cy="617.78" r="4.09"/><circle class="cls-9" cx="944.72" cy="667.73" r="4.09"/><circle class="cls-9" cx="944.72" cy="717.91" r="4.09"/><circle class="cls-9" cx="944.72" cy="868.19" r="4.09"/><circle class="cls-9" cx="944.72" cy="818.28" r="4.09"/><circle class="cls-9" cx="858.81" cy="817.32" r="4.09"/><circle class="cls-9" cx="858.81" cy="868.19" r="4.09"/><circle class="cls-9" cx="944.72" cy="768.1" r="4.09"/><circle class="cls-9" cx="943.72" cy="617.54" r="4.09"/><circle class="cls-9" cx="636.19" cy="667.38" r="4.09"/><circle class="cls-9" cx="636.19" cy="617.54" r="4.09"/><circle class="cls-9" cx="636.19" cy="717.28" r="4.09"/><circle class="cls-9" cx="636.19" cy="870.24" r="4.09"/><circle class="cls-9" cx="636.19" cy="817.08" r="4.09"/><circle class="cls-9" cx="636.19" cy="767.18" r="4.09"/><circle class="cls-9" cx="481.81" cy="417.49" r="4.09"/><circle class="cls-9" cx="778.36" cy="417.49" r="4.09"/><circle class="cls-9" cx="778.36" cy="316.14" r="4.09"/><circle class="cls-9" cx="481.81" cy="316.14" r="4.09"/><circle class="cls-9" cx="482.81" cy="251.72" r="4.09"/><circle class="cls-9" cx="482.03" cy="191.36" r="4.09"/><circle class="cls-9" cx="482.47" cy="133.01" r="4.09"/><circle class="cls-9" cx="482.47" cy="72" r="4.09"/><circle class="cls-9" cx="347.88" cy="418.25" r="4.09"/><circle class="cls-9" cx="346.88" cy="316.91" r="4.09"/><line class="cls-15" x1="482.4" y1="66.44" x2="482.29" y2="42.04"/><polygon class="cls-16" points="482.14 66.27 485.94 57.4 478.38 57.39 482.14 66.27"/><line class="cls-15" x1="482.4" y1="127.17" x2="482.32" y2="108.58"/><line class="cls-15" x1="482.51" y1="91.2" x2="482.45" y2="76.92"/><polygon class="cls-16" points="482.14 126.98 485.94 118.12 478.38 118.11 482.14 126.98"/><line class="cls-15" x1="482.4" y1="185.88" x2="482.32" y2="167.29"/><line class="cls-15" x1="482.51" y1="149.9" x2="482.45" y2="137.1"/><polygon class="cls-16" points="482.14 185.69 485.94 176.82 478.38 176.81 482.14 185.69"/><line class="cls-15" x1="482.4" y1="245.93" x2="482.32" y2="227.34"/><line class="cls-15" x1="482.51" y1="209.95" x2="482.45" y2="197.15"/><polygon class="cls-16" points="482.14 245.74 485.94 236.87 478.38 236.87 482.14 245.74"/><line class="cls-15" x1="482.4" y1="310.28" x2="482.3" y2="288.67"/><line class="cls-15" x1="482.5" y1="270.52" x2="482.43" y2="256.5"/><polygon class="cls-16" points="482.14 310.09 485.94 301.23 478.38 301.22 482.14 310.09"/><line class="cls-15" x1="778.59" y1="310.64" x2="778.49" y2="289.03"/><line class="cls-15" x1="778.69" y1="270.89" x2="778.6" y2="251.44"/><line class="cls-15" x1="778.6" y1="251.44" x2="486.9" y2="251.72"/><polygon class="cls-16" points="778.34 310.45 782.13 301.59 774.58 301.58 778.34 310.45"/><line class="cls-15" x1="778.59" y1="361.74" x2="778.52" y2="345.44"/><line class="cls-15" x1="778.65" y1="328.94" x2="778.61" y2="320.66"/><polygon class="cls-16" points="778.34 361.56 782.13 352.69 774.58 352.68 778.34 361.56"/><line class="cls-15" x1="778.84" y1="412.46" x2="778.77" y2="396.15"/><line class="cls-15" x1="778.9" y1="379.66" x2="778.86" y2="371.38"/><polygon class="cls-16" points="778.59 412.28 782.38 403.41 774.83 403.4 778.59 412.28"/><line class="cls-15" x1="778.84" y1="462.66" x2="778.77" y2="446.35"/><line class="cls-15" x1="778.9" y1="429.86" x2="778.86" y2="421.58"/><polygon class="cls-16" points="778.59 462.48 782.38 453.61 774.83 453.6 778.59 462.48"/><line class="cls-15" x1="481.97" y1="462.3" x2="481.9" y2="447.79"/><line class="cls-15" x1="482.03" y1="430.5" x2="481.99" y2="422.22"/><polygon class="cls-16" points="481.71 462.12 485.51 453.25 477.95 453.24 481.71 462.12"/><line class="cls-15" x1="778.84" y1="512.53" x2="778.77" y2="496.73"/><line class="cls-15" x1="778.9" y1="479.73" x2="778.86" y2="471.44"/><polygon class="cls-16" points="778.59 512.34 782.38 503.48 774.83 503.47 778.59 512.34"/><line class="cls-15" x1="778.84" y1="562.44" x2="778.77" y2="546.63"/><line class="cls-15" x1="778.9" y1="529.64" x2="778.86" y2="521.35"/><polygon class="cls-16" points="778.59 562.25 782.38 553.38 774.83 553.38 778.59 562.25"/><line class="cls-15" x1="778.84" y1="612.13" x2="778.77" y2="596.33"/><line class="cls-15" x1="778.9" y1="579.34" x2="778.86" y2="571.05"/><polygon class="cls-16" points="778.59 611.95 782.38 603.08 774.83 603.07 778.59 611.95"/><line class="cls-15" x1="778.84" y1="663.03" x2="778.76" y2="645.09"/><line class="cls-15" x1="778.9" y1="628.6" x2="778.87" y2="621.95"/><polygon class="cls-16" points="778.59 662.85 782.38 653.98 774.83 653.98 778.59 662.85"/><line class="cls-15" x1="778.84" y1="712.9" x2="778.76" y2="694.96"/><line class="cls-15" x1="778.9" y1="678.47" x2="778.87" y2="671.81"/><polygon class="cls-16" points="778.59 712.71 782.38 703.85 774.83 703.84 778.59 712.71"/><line class="cls-15" x1="778.84" y1="763.09" x2="778.76" y2="745.14"/><line class="cls-15" x1="778.9" y1="728.65" x2="778.87" y2="722"/><polygon class="cls-16" points="778.59 762.9 782.38 754.03 774.83 754.03 778.59 762.9"/><line class="cls-15" x1="859.05" y1="812.34" x2="858.97" y2="796.38"/><line class="cls-15" x1="859.09" y1="780.23" x2="859.03" y2="767.28"/><polygon class="cls-16" points="858.79 812.15 862.59 803.29 855.03 803.28 858.79 812.15"/><line class="cls-15" x1="858.92" y1="767.07" x2="782.44" y2="768.1"/><line class="cls-15" x1="778.34" y1="812.15" x2="778.27" y2="796.2"/><line class="cls-15" x1="778.41" y1="780.23" x2="778.37" y2="772.4"/><polygon class="cls-16" points="778.09 811.97 781.88 803.1 774.33 803.1 778.09 811.97"/><line class="cls-15" x1="778.84" y1="892.15" x2="778.9" y2="857.72"/><line class="cls-15" x1="778.9" y1="857.72" x2="778.73" y2="821.41"/><polygon class="cls-16" points="778.59 891.97 782.38 883.1 774.83 883.09 778.59 891.97"/><line class="cls-15" x1="939.64" y1="617.31" x2="905.2" y2="617.25"/><line class="cls-15" x1="905.2" y1="617.25" x2="886.29" y2="617.34"/><polygon class="cls-16" points="939.45 617.56 930.59 613.76 930.58 621.32 939.45 617.56"/><line class="cls-15" x1="834.27" y1="617.6" x2="783.19" y2="617.52"/><line class="cls-15" x1="631.67" y1="617.55" x2="597.23" y2="617.49"/><line class="cls-15" x1="597.21" y1="617.49" x2="585.01" y2="617.55"/><polygon class="cls-16" points="631.48 617.8 622.61 614 622.61 621.56 631.48 617.8"/><line class="cls-15" x1="533.3" y1="617.84" x2="486.9" y2="617.76"/><line class="cls-15" x1="476.73" y1="616.94" x2="442.3" y2="616.89"/><polygon class="cls-16" points="476.55 617.2 467.68 613.4 467.67 620.96 476.55 617.2"/><polygon class="cls-16" points="353.22 616.9 362.09 620.7 362.1 613.14 353.22 616.9"/><line class="cls-15" x1="390.58" y1="617.25" x2="357.29" y2="617.2"/><line class="cls-15" x1="475.47" y1="417.39" x2="441.04" y2="417.33"/><polygon class="cls-16" points="475.29 417.64 466.42 413.84 466.41 421.4 475.29 417.64"/><polygon class="cls-16" points="351.96 417.34 360.83 421.14 360.84 413.58 351.96 417.34"/><line class="cls-15" x1="389.32" y1="417.7" x2="356.03" y2="417.64"/><line class="cls-15" x1="478.44" y1="316.04" x2="444.01" y2="315.98"/><polygon class="cls-16" points="478.26 316.29 469.39 312.5 469.38 320.06 478.26 316.29"/><polygon class="cls-16" points="354.93 315.99 363.8 319.79 363.81 312.23 354.93 315.99"/><line class="cls-15" x1="392.3" y1="316.35" x2="359" y2="316.3"/><line class="cls-15" x1="476.73" y1="666.87" x2="442.3" y2="666.81"/><polygon class="cls-16" points="476.55 667.12 467.68 663.33 467.67 670.88 476.55 667.12"/><polygon class="cls-16" points="353.22 666.82 362.09 670.62 362.1 663.06 353.22 666.82"/><line class="cls-15" x1="390.58" y1="667.18" x2="357.29" y2="667.13"/><line class="cls-15" x1="476.73" y1="717.17" x2="442.3" y2="717.12"/><polygon class="cls-16" points="476.55 717.43 467.68 713.63 467.67 721.19 476.55 717.43"/><polygon class="cls-16" points="353.22 717.13 362.09 720.92 362.1 713.37 353.22 717.13"/><line class="cls-15" x1="390.58" y1="717.48" x2="357.29" y2="717.43"/><line class="cls-15" x1="343.11" y1="717.2" x2="240.99" y2="717.48"/><polygon class="cls-16" points="158.79 717.13 167.66 720.92 167.67 713.37 158.79 717.13"/><line class="cls-15" x1="240.99" y1="717.48" x2="165.01" y2="717.36"/><line class="cls-15" x1="476.73" y1="767.72" x2="442.3" y2="767.67"/><polygon class="cls-16" points="476.55 767.98 467.68 764.18 467.67 771.74 476.55 767.98"/><polygon class="cls-16" points="353.22 767.68 362.09 771.48 362.1 763.92 353.22 767.68"/><line class="cls-15" x1="390.58" y1="768.03" x2="357.29" y2="767.98"/><line class="cls-15" x1="405.3" y1="802.77" x2="347.39" y2="802.68"/><polygon class="cls-16" points="411.53 802.74 402.66 798.94 402.65 806.5 411.53 802.74"/><line class="cls-15" x1="405.3" y1="833.45" x2="347.39" y2="833.36"/><polygon class="cls-16" points="411.53 833.41 402.66 829.62 402.65 837.18 411.53 833.41"/><polygon class="cls-16" points="347.35 851.62 351.14 842.75 343.59 842.74 347.35 851.62"/><line class="cls-15" x1="347.42" y1="773.08" x2="347.31" y2="838.91"/><line class="cls-15" x1="337.2" y1="766.85" x2="327.86" y2="766.84"/><polygon class="cls-16" points="341.64 766.85 332.78 763.05 332.77 770.61 341.64 766.85"/><line class="cls-15" x1="274.55" y1="767.68" x2="265.61" y2="767.67"/><line class="cls-15" x1="342.28" y1="797.91" x2="261.28" y2="797.91"/><polygon class="cls-16" points="342.31 773.08 338.52 781.94 346.07 781.95 342.31 773.08"/><polygon class="cls-16" points="261.32 773.08 257.52 781.94 265.08 781.95 261.32 773.08"/><line class="cls-15" x1="261.3" y1="782.9" x2="261.28" y2="797.91"/><line class="cls-15" x1="342.31" y1="782.9" x2="342.28" y2="797.91"/><line class="cls-15" x1="944.65" y1="712.82" x2="944.58" y2="696.87"/><line class="cls-15" x1="944.71" y1="678.39" x2="944.68" y2="671.81"/><polygon class="cls-16" points="944.4 712.64 948.2 703.77 940.64 703.76 944.4 712.64"/><line class="cls-15" x1="944.65" y1="763.08" x2="944.58" y2="747.12"/><line class="cls-15" x1="944.71" y1="728.64" x2="944.68" y2="722"/><polygon class="cls-16" points="944.4 762.89 948.2 754.02 940.64 754.02 944.4 762.89"/><line class="cls-15" x1="944.65" y1="813.16" x2="944.58" y2="797.2"/><line class="cls-15" x1="944.71" y1="778.72" x2="944.68" y2="772.08"/><polygon class="cls-16" points="944.4 812.97 948.2 804.1 940.64 804.1 944.4 812.97"/><line class="cls-15" x1="944.47" y1="862.62" x2="944.39" y2="846.66"/><line class="cls-15" x1="944.52" y1="828.18" x2="944.49" y2="821.54"/><polygon class="cls-16" points="944.21 862.43 948.01 853.56 940.45 853.56 944.21 862.43"/><line class="cls-15" x1="944.96" y1="662.7" x2="944.89" y2="646.74"/><line class="cls-15" x1="945.02" y1="628.27" x2="944.99" y2="622.11"/><polygon class="cls-16" points="944.71 662.51 948.5 653.65 940.95 653.64 944.71 662.51"/><line class="cls-15" x1="859.05" y1="863.34" x2="858.97" y2="847.39"/><line class="cls-15" x1="859.11" y1="829.91" x2="859.07" y2="821.41"/><polygon class="cls-16" points="858.79 863.16 862.59 854.29 855.03 854.28 858.79 863.16"/><line class="cls-15" x1="482.4" y1="361.72" x2="482.32" y2="345.69"/><line class="cls-15" x1="482.25" y1="328.49" x2="482.21" y2="320.23"/><polygon class="cls-16" points="482.14 361.54 485.94 352.67 478.38 352.66 482.14 361.54"/><line class="cls-15" x1="482.05" y1="412.71" x2="481.98" y2="397.48"/><line class="cls-15" x1="481.9" y1="380.48" x2="481.86" y2="372.22"/><polygon class="cls-16" points="481.79 412.53 485.59 403.66 478.03 403.65 481.79 412.53"/><line class="cls-15" x1="482.05" y1="511.73" x2="481.98" y2="496.5"/><line class="cls-15" x1="481.9" y1="479.49" x2="481.86" y2="471.24"/><polygon class="cls-16" points="481.79 511.54 485.59 502.67 478.03 502.67 481.79 511.54"/><line class="cls-15" x1="482.25" y1="562.17" x2="482.18" y2="546.94"/><line class="cls-15" x1="482.1" y1="529.36" x2="482.06" y2="521.68"/><polygon class="cls-16" points="482 561.99 485.79 553.12 478.24 553.11 482 561.99"/><line class="cls-15" x1="482.05" y1="661.74" x2="481.98" y2="646.51"/><line class="cls-15" x1="481.89" y1="628.92" x2="481.86" y2="621.25"/><polygon class="cls-16" points="481.79 661.55 485.59 652.68 478.03 652.68 481.79 661.55"/><line class="cls-15" x1="347.43" y1="662.89" x2="347.35" y2="646.67"/><line class="cls-15" x1="347.27" y1="629.44" x2="347.24" y2="622.4"/><polygon class="cls-16" points="347.18 662.71 350.97 653.84 343.42 653.83 347.18 662.71"/><line class="cls-15" x1="347.43" y1="712.75" x2="347.35" y2="696.52"/><line class="cls-15" x1="347.27" y1="679.29" x2="347.24" y2="672.26"/><polygon class="cls-16" points="347.18 712.56 350.97 703.7 343.42 703.69 347.18 712.56"/><line class="cls-15" x1="347.43" y1="762.8" x2="347.35" y2="746.57"/><line class="cls-15" x1="347.27" y1="729.34" x2="347.24" y2="722.31"/><polygon class="cls-16" points="347.18 762.61 350.97 753.75 343.42 753.74 347.18 762.61"/><line class="cls-15" x1="153.81" y1="766.71" x2="153.74" y2="750.49"/><line class="cls-15" x1="153.74" y1="750.49" x2="153.6" y2="722.27"/><polygon class="cls-16" points="153.56 766.53 157.36 757.66 149.8 757.65 153.56 766.53"/><line class="cls-15" x1="153.81" y1="823.88" x2="153.74" y2="807.65"/><line class="cls-15" x1="153.74" y1="807.65" x2="153.6" y2="779.44"/><polygon class="cls-16" points="153.56 823.69 157.36 814.82 149.8 814.82 153.56 823.69"/><line class="cls-15" x1="153.81" y1="877.98" x2="153.74" y2="861.76"/><line class="cls-15" x1="153.74" y1="861.76" x2="153.6" y2="833.54"/><polygon class="cls-16" points="153.56 877.79 157.36 868.93 149.8 868.92 153.56 877.79"/><line class="cls-15" x1="246.15" y1="877.4" x2="246.07" y2="861.17"/><line class="cls-15" x1="246.07" y1="861.17" x2="246.09" y2="773.09"/><line class="cls-15" x1="246.09" y1="773.09" x2="159.85" y2="773.14"/><polygon class="cls-16" points="245.89 877.21 249.69 868.34 242.13 868.34 245.89 877.21"/><line class="cls-15" x1="636.42" y1="662.74" x2="636.35" y2="646.51"/><line class="cls-15" x1="636.27" y1="629.28" x2="636.23" y2="622.25"/><polygon class="cls-16" points="636.17 662.55 639.97 653.68 632.41 653.68 636.17 662.55"/><line class="cls-15" x1="636.42" y1="712.57" x2="636.35" y2="696.35"/><line class="cls-15" x1="636.27" y1="679.12" x2="636.23" y2="672.08"/><polygon class="cls-16" points="636.17 712.39 639.97 703.52 632.41 703.51 636.17 712.39"/><line class="cls-15" x1="636.42" y1="760.45" x2="636.36" y2="747.47"/><line class="cls-15" x1="636.27" y1="729.34" x2="636.23" y2="722.3"/><polygon class="cls-16" points="636.17 761.6 639.97 752.74 632.41 752.73 636.17 761.6"/><line class="cls-15" x1="636.61" y1="810.9" x2="636.54" y2="795.8"/><line class="cls-15" x1="636.46" y1="779.13" x2="636.44" y2="772.75"/><polygon class="cls-16" points="636.37 812.06 640.17 803.19 632.61 803.18 636.37 812.06"/><line class="cls-15" x1="482.25" y1="612.63" x2="482.18" y2="597.4"/><line class="cls-15" x1="482.19" y1="600.23" x2="482.06" y2="572.14"/><polygon class="cls-16" points="482 612.44 485.79 603.58 478.24 603.57 482 612.44"/><line class="cls-15" x1="482.25" y1="712.85" x2="482.18" y2="697.61"/><line class="cls-15" x1="482.19" y1="700.44" x2="482.06" y2="672.35"/><polygon class="cls-16" points="482 712.66 485.79 703.79 478.24 703.78 482 712.66"/><line class="cls-15" x1="482.25" y1="762.95" x2="482.18" y2="747.72"/><line class="cls-15" x1="482.19" y1="750.55" x2="482.06" y2="722.46"/><polygon class="cls-16" points="482 762.77 485.79 753.9 478.24 753.89 482 762.77"/><line class="cls-15" x1="636.69" y1="864.26" x2="636.62" y2="849.03"/><line class="cls-15" x1="636.63" y1="851.86" x2="636.5" y2="823.77"/><polygon class="cls-16" points="636.43 864.07 640.23 855.21 632.67 855.2 636.43 864.07"/><g id="Rec-4" data-name="Rec"><rect class="cls-9" x="453.58" y="210.52" width="57.96" height="16.49"/><text class="cls-14" transform="translate(454.66 222.09)">1.14.14.17</text></g><g id="Rec-5" data-name="Rec"><rect class="cls-9" x="454.52" y="480.24" width="57.96" height="16.49"/><text class="cls-14" transform="translate(458.93 491.8)">1.1.1.170</text></g><g id="Rec-6" data-name="Rec"><rect class="cls-9" x="455.24" y="529.36" width="57.96" height="16.49"/><text class="cls-14" transform="translate(459.65 540.93)">1.1.1.270</text></g><g id="Rec-7" data-name="Rec"><rect class="cls-9" x="93.53" y="728.98" width="57.96" height="16.49"/><text class="cls-14" transform="translate(94.6 740.54)">1.14.14.24</text></g><g id="Rec-8" data-name="Rec"><rect class="cls-9" x="93" y="787.37" width="57.96" height="16.49"/><text class="cls-14" transform="translate(94.07 798.94)">1.14.15.18</text></g><g id="Rec-9" data-name="Rec"><rect class="cls-9" x="93" y="843.08" width="57.96" height="16.49"/><text class="cls-14" transform="translate(94.07 854.64)">1.14.15.16</text></g><g id="Rec-10" data-name="Rec"><rect class="cls-9" x="156.48" y="843.08" width="57.96" height="16.49"/><text class="cls-14" transform="translate(157.56 854.64)">1.14.15.16</text></g><g id="Rec-11" data-name="Rec"><rect class="cls-9" x="155.95" y="787.37" width="57.96" height="16.49"/><text class="cls-14" transform="translate(157.03 798.94)">1.14.15.22</text></g><g id="Rec-12" data-name="Rec"><rect class="cls-9" x="218.32" y="843.08" width="57.96" height="16.49"/><text class="cls-14" transform="translate(219.39 854.64)">1.14.15.16</text></g><g id="Rec-13" data-name="Rec"><rect class="cls-9" x="155.48" y="728.98" width="57.96" height="16.49"/><text class="cls-14" transform="translate(156.56 740.54)">1.14.15.22</text></g><g id="Rec-14" data-name="Rec"><rect class="cls-9" x="318.98" y="679.88" width="57.96" height="16.49"/><text class="cls-14" transform="translate(320.06 691.45)">1.14.19.20</text></g><g id="Rec-15" data-name="Rec"><rect class="cls-9" x="454.77" y="431.11" width="57.96" height="16.49"/><text class="cls-14" transform="translate(459.18 442.68)">1.14.1.89</text></g><g id="Rec-16" data-name="Rec"><rect class="cls-9" x="454.05" y="328.94" width="57.96" height="16.49"/><text class="cls-14" transform="translate(455.13 340.51)">1.14.13.70</text></g><g id="Round"><rect class="cls-9" x="426.46" y="0.5" width="118.55" height="41.53" rx="12" ry="12"/><text class="cls-17" transform="translate(434.69 18.3) scale(0.94 1)"><tspan class="cls-18">T</tspan><tspan x="6.3" y="0">erpenoid backbone</tspan><tspan x="0" y="15.11">biosynthesis</tspan></text></g><g id="Round-2" data-name="Round"><rect class="cls-9" x="297.45" y="854.48" width="102.53" height="41.53" rx="12" ry="12"/><text class="cls-17" transform="translate(305.67 872.28) scale(0.94 1)">Primary bile acid<tspan x="0" y="15.11">biosynthesis</tspan></text></g><g id="Round-3" data-name="Round"><rect class="cls-9" x="413.27" y="791.8" width="171.28" height="24" rx="12" ry="12"/><text class="cls-17" transform="translate(421.5 809.6) scale(0.94 1)">Steroid hormone biosynthesis</text></g><g id="Round-4" data-name="Round"><rect class="cls-9" x="413.27" y="822.01" width="120.53" height="24" rx="12" ry="12"/><text class="cls-17" transform="translate(421.5 839.81) scale(0.94 1)">Steroid degradation</text></g><g id="Round-5" data-name="Round"><rect class="cls-9" x="730.32" y="893.19" width="97.07" height="38.77" rx="12" ry="12"/><text class="cls-17" transform="translate(738.55 910.99) scale(0.94 1)">Brassinosteroid<tspan x="0" y="15.11">biosynthesis</tspan></text></g><g id="Head"><rect class="cls-19" x="54.46" y="5.51" width="355.79" height="31.5"/><text class="cls-20" transform="translate(69.09 28.01) scale(1.15 1)">Steroid Biosynthesis - 00100 - <tspan class="cls-21" x="190.65" y="0">Jatropha curcas</tspan></text></g><text x="-253.06" y="-27.2"/><g id="Rec-17" data-name="Rec"><rect class="cls-9" x="456.55" y="92.09" width="52.02" height="16.49"/><text class="cls-14" transform="translate(461.11 103.66)">2.5.1.21</text></g><g id="Rec-18" data-name="Rec"><rect class="cls-9" x="456.55" y="149.8" width="52.02" height="16.49"/><text class="cls-14" transform="translate(461.11 161.37)">2.5.1.21</text></g><g id="Rec-19" data-name="Rec"><rect class="cls-9" x="752.34" y="272.18" width="52.02" height="16.49"/><text class="cls-14" transform="translate(756.91 283.75)">5.4.99.8</text></g><g id="Rec-20" data-name="Rec"><rect class="cls-9" x="456.55" y="272.18" width="52.02" height="16.49"/><text class="cls-14" transform="translate(461.11 283.75)">5.4.99.7</text></g><g id="Rec-21" data-name="Rec"><rect class="cls-9" x="457.49" y="380.99" width="52.02" height="16.49"/><text class="cls-14" transform="translate(462.05 392.56)">1.3.1.70</text></g><g id="Rec-22" data-name="Rec"><rect class="cls-9" x="390.43" y="410.01" width="52.02" height="16.49"/><text class="cls-14" transform="translate(394.99 421.58)">1.3.1.72</text></g><g id="Rec-23" data-name="Rec"><rect class="cls-9" x="390.18" y="308.66" width="52.02" height="16.49"/><text class="cls-14" transform="translate(394.74 320.23)">1.3.1.72</text></g><g id="Rec-24" data-name="Rec"><rect class="cls-9" x="752.34" y="328.94" width="52.02" height="16.49"/><text class="cls-14" transform="translate(762.59 340.51)">SMT1</text></g><g id="Rec-25" data-name="Rec"><rect class="cls-9" x="752.34" y="379.99" width="52.02" height="16.49"/><text class="cls-14" transform="translate(761.59 391.56)">SMO1</text></g><g id="Rec-26" data-name="Rec"><rect class="cls-9" x="752.34" y="480.24" width="52.02" height="16.49"/><text class="cls-14" transform="translate(751.57 491.8)">CYP51G1</text></g><g id="Rec-27" data-name="Rec"><rect class="cls-9" x="752.34" y="529.36" width="52.02" height="16.49"/><text class="cls-14" transform="translate(770.93 540.93)">FK</text></g><g id="Rec-28" data-name="Rec"><rect class="cls-9" x="322.7" y="629.6" width="52.02" height="16.49"/><text class="cls-14" transform="translate(330.6 641.17)">5.3.3.5</text></g><g id="Rec-29" data-name="Rec"><rect class="cls-9" x="457.21" y="629.6" width="52.02" height="16.49"/><text class="cls-14" transform="translate(465.11 641.17)">5.3.3.5</text></g><g id="Rec-30" data-name="Rec"><rect class="cls-9" x="322.7" y="729.98" width="52.02" height="16.49"/><text class="cls-14" transform="translate(327.26 741.54)">1.3.1.21</text></g><g id="Rec-31" data-name="Rec"><rect class="cls-9" x="275.29" y="757.58" width="52.02" height="16.49"/><text class="cls-14" transform="translate(279.85 769.15)">3.1.1.13</text></g><g id="Rec-32" data-name="Rec"><rect class="cls-9" x="279.78" y="801.67" width="52.02" height="16.49"/><text class="cls-14" transform="translate(284.35 813.24)">2.3.1.73</text></g><g id="Rec-33" data-name="Rec"><rect class="cls-9" x="279.53" y="779.13" width="52.02" height="16.49"/><text class="cls-14" transform="translate(284.1 790.7)">2.3.1.26</text></g><g id="Rec-34" data-name="Rec"><rect class="cls-9" x="612.56" y="679.38" width="52.02" height="16.49"/><text class="cls-14" transform="translate(622.47 690.95)">ERG3</text></g><g id="Rec-35" data-name="Rec"><rect class="cls-9" x="611.7" y="730.98" width="52.02" height="16.49"/><text class="cls-14" transform="translate(621.61 742.54)">ERG5</text></g><g id="Rec-36" data-name="Rec"><rect class="cls-9" x="611.3" y="779.13" width="52.02" height="16.49"/><text class="cls-14" transform="translate(621.21 790.7)">ERG4</text></g><g id="Rec-37" data-name="Rec"><rect class="cls-9" x="612.56" y="629.6" width="52.02" height="16.49"/><text class="cls-14" transform="translate(622.47 641.17)">ERG2</text></g><g id="Rec-38" data-name="Rec"><rect class="cls-9" x="532.99" y="609.54" width="52.02" height="16.49"/><text class="cls-14" transform="translate(542.9 621.11)">ERG6</text></g><g id="Rec-39" data-name="Rec"><rect class="cls-9" x="390.43" y="608.54" width="52.02" height="16.49"/><text class="cls-14" transform="translate(394.99 620.11)">1.3.1.72</text></g><g id="Rec-40" data-name="Rec"><rect class="cls-9" x="390.43" y="759.51" width="52.02" height="16.49"/><text class="cls-14" transform="translate(394.99 771.08)">1.3.1.72</text></g><g id="Rec-41" data-name="Rec"><rect class="cls-9" x="390.43" y="658.02" width="52.02" height="16.49"/><text class="cls-14" transform="translate(394.99 669.59)">1.3.1.72</text></g><g id="Rec-42" data-name="Rec"><rect class="cls-9" x="390.43" y="709.76" width="52.02" height="16.49"/><text class="cls-14" transform="translate(394.99 721.33)">1.3.1.72</text></g><g id="Rec-43" data-name="Rec"><rect class="cls-9" x="752.34" y="579.48" width="52.02" height="16.49"/><text class="cls-14" transform="translate(762.59 591.05)">HYD1</text></g><g id="Rec-44" data-name="Rec"><rect class="cls-9" x="834.27" y="610.54" width="52.02" height="16.49"/><text class="cls-14" transform="translate(844.52 622.11)">SMT2</text></g><g id="Rec-45" data-name="Rec"><rect class="cls-9" x="752.34" y="628.6" width="52.02" height="16.49"/><text class="cls-14" transform="translate(761.59 640.17)">SMO2</text></g><g id="Rec-46" data-name="Rec"><rect class="cls-9" x="752.84" y="678.72" width="52.02" height="16.49"/><text class="cls-14" transform="translate(764.09 690.29)">STE1</text></g><g id="Rec-47" data-name="Rec"><rect class="cls-9" x="752.84" y="728.98" width="52.02" height="16.49"/><text class="cls-14" transform="translate(762.1 740.54)">DWF5</text></g><g id="Rec-48" data-name="Rec"><rect class="cls-9" x="754.88" y="780.23" width="52.02" height="16.49"/><text class="cls-14" transform="translate(764.14 791.8)">DWF1</text></g><g id="Rec-49" data-name="Rec"><rect class="cls-9" x="919.72" y="779.23" width="52.02" height="16.49"/><text class="cls-14" transform="translate(928.97 790.8)">DWF1</text></g><g id="Rec-50" data-name="Rec"><rect class="cls-9" x="832.8" y="780.23" width="52.02" height="16.49"/><text class="cls-14" transform="translate(842.05 791.8)">DWF1</text></g><g id="Rec-51" data-name="Rec"><rect class="cls-9" x="832.8" y="830.51" width="52.02" height="16.49"/><text class="cls-14" transform="translate(833.03 842.08)">CYP710<tspan x="44.7" y="0">A</tspan></text></g><g id="Rec-52" data-name="Rec"><rect class="cls-9" x="919.97" y="829.51" width="52.02" height="16.49"/><text class="cls-14" transform="translate(920.2 841.08)">CYP710<tspan x="44.7" y="0">A</tspan></text></g><g id="Rec-53" data-name="Rec"><rect class="cls-9" x="919.97" y="729.98" width="52.02" height="16.49"/><text class="cls-14" transform="translate(929.22 741.54)">DWF5</text></g><g id="Rec-54" data-name="Rec"><rect class="cls-9" x="919.72" y="679.72" width="52.02" height="16.49"/><text class="cls-14" transform="translate(930.97 691.29)">STE1</text></g><g id="Rec-55" data-name="Rec"><rect class="cls-9" x="919.72" y="629.92" width="52.02" height="16.49"/><text class="cls-14" transform="translate(928.97 641.49)">SMO2</text></g><g id="Rec-56" data-name="Rec"><rect class="cls-9" x="752.59" y="430.11" width="52.02" height="16.49"/><text class="cls-14" transform="translate(760.49 441.68)">5.5.1.9</text></g><text x="-253.06" y="-27.2"/><text x="-253.06" y="-27.2"/></svg>