<svg id="Layer_2" data-name="Layer 2" xmlns="http://www.w3.org/2000/svg" viewBox="0 0 869.19 870.66"><defs><style>.cls-1,.cls-12{fill:#1f91ff;}.cls-10,.cls-2{fill:#fff984;}.cls-11,.cls-3{fill:#ff6e7d;}.cls-4{fill:#f16d7d;}.cls-5{fill:#fbf28a;}.cls-6{fill:#fbf288;}.cls-7{fill:#fcf289;}.cls-17,.cls-8{fill:none;}.cls-10,.cls-11,.cls-12,.cls-17,.cls-8{stroke:#000;}.cls-10,.cls-11,.cls-12,.cls-14,.cls-15,.cls-17,.cls-8{stroke-miterlimit:10;}.cls-9{font-size:12.47px;}.cls-13,.cls-16,.cls-18,.cls-9{font-family:Arial;}.cls-13{font-size:12px;}.cls-14{fill:#e6e7e8;}.cls-14,.cls-15{stroke:#231f20;stroke-linecap:round;}.cls-16{font-size:12.59px;}.cls-17{stroke-width:2px;}.cls-18{font-size:14px;}.cls-19{font-style:italic;}</style></defs><title>jcu_ec00561</title><rect class="cls-1" x="468.01" y="487.42" width="17.36" height="16.45"/><rect class="cls-2" x="433.4" y="487.42" width="17.36" height="16.45"/><rect class="cls-3" x="450.76" y="487.42" width="17.36" height="16.45"/><rect class="cls-1" x="575.66" y="436.22" width="17.36" height="16.45"/><rect class="cls-2" x="541.05" y="436.22" width="17.36" height="16.45"/><rect class="cls-3" x="558.41" y="436.22" width="17.36" height="16.45"/><rect class="cls-1" x="509.27" y="371.39" width="17.36" height="16.45"/><rect class="cls-2" x="474.66" y="371.39" width="17.36" height="16.45"/><rect class="cls-3" x="492.02" y="371.39" width="17.36" height="16.45"/><rect class="cls-1" x="510.26" y="228.52" width="17.36" height="16.45"/><rect class="cls-2" x="475.65" y="228.52" width="17.36" height="16.45"/><rect class="cls-3" x="493.02" y="228.52" width="17.36" height="16.45"/><rect class="cls-4" x="507.91" y="446.25" width="17.16" height="16.45"/><rect class="cls-4" x="473.71" y="446.25" width="17.16" height="16.45"/><rect class="cls-4" x="490.87" y="446.25" width="17.16" height="16.45"/><rect class="cls-4" x="608.27" y="642.47" width="25.5" height="16.45"/><rect class="cls-5" x="582.77" y="642.47" width="17.04" height="16.45"/><rect class="cls-6" x="582.77" y="642.47" width="25.5" height="16.45"/><rect class="cls-4" x="525.9" y="752.72" width="25.5" height="16.45"/><rect class="cls-5" x="500.4" y="752.72" width="17.04" height="16.45"/><rect class="cls-6" x="500.4" y="752.72" width="25.5" height="16.45"/><rect class="cls-4" x="420.29" y="306.66" width="25.5" height="16.45"/><rect class="cls-5" x="394.8" y="306.66" width="17.04" height="16.45"/><rect class="cls-6" x="394.8" y="306.66" width="25.5" height="16.45"/><rect class="cls-6" x="176.16" y="259.12" width="17.16" height="16.45"/><rect class="cls-6" x="141.97" y="259.12" width="17.16" height="16.45"/><rect class="cls-6" x="159.12" y="259.12" width="17.16" height="16.45"/><rect class="cls-3" x="305.58" y="117.13" width="25.5" height="16.45"/><rect class="cls-7" x="280.08" y="117.13" width="17.04" height="16.45"/><rect class="cls-2" x="280.08" y="117.13" width="25.5" height="16.45"/><rect class="cls-3" x="647.51" y="507.83" width="25.5" height="16.45"/><rect class="cls-7" x="622.02" y="507.83" width="17.04" height="16.45"/><rect class="cls-2" x="622.02" y="507.83" width="25.5" height="16.45"/><rect class="cls-1" x="398.84" y="157.75" width="17.2" height="16.45"/><rect class="cls-2" x="364.56" y="157.75" width="17.2" height="16.45"/><rect class="cls-3" x="381.76" y="157.75" width="17.2" height="16.45"/><rect class="cls-1" x="454.59" y="228.52" width="17.21" height="16.45"/><rect class="cls-2" x="420.29" y="228.52" width="17.21" height="16.45"/><rect class="cls-3" x="437.5" y="228.52" width="17.21" height="16.45"/><rect class="cls-1" x="402.38" y="371.39" width="17.39" height="16.45"/><rect class="cls-2" x="367.72" y="371.39" width="17.39" height="16.45"/><rect class="cls-3" x="385.11" y="371.39" width="17.39" height="16.45"/><rect class="cls-1" x="401.88" y="463.4" width="18.01" height="16.45"/><rect class="cls-2" x="365.98" y="463.4" width="18.01" height="16.45"/><rect class="cls-3" x="383.99" y="463.4" width="18.01" height="16.45"/><rect class="cls-1" x="468.04" y="533.06" width="18.01" height="16.45"/><rect class="cls-2" x="432.14" y="533.06" width="18.01" height="16.45"/><rect class="cls-3" x="450.15" y="533.06" width="18.01" height="16.45"/><rect class="cls-1" x="467.43" y="510.16" width="17.46" height="16.45"/><rect class="cls-2" x="432.62" y="510.16" width="17.46" height="16.45"/><rect class="cls-3" x="450.09" y="510.16" width="17.46" height="16.45"/><rect class="cls-1" x="655.15" y="445.25" width="17.38" height="16.45"/><rect class="cls-2" x="620.5" y="445.25" width="17.38" height="16.45"/><rect class="cls-3" x="637.88" y="445.25" width="17.38" height="16.45"/><rect class="cls-1" x="655.15" y="487.82" width="17.38" height="16.45"/><rect class="cls-2" x="620.5" y="487.82" width="17.38" height="16.45"/><rect class="cls-3" x="637.88" y="487.82" width="17.38" height="16.45"/><rect class="cls-1" x="423.23" y="724.67" width="17.83" height="16.45"/><rect class="cls-2" x="387.69" y="724.67" width="17.83" height="16.45"/><rect class="cls-3" x="405.52" y="724.67" width="17.83" height="16.45"/><rect class="cls-1" x="423.97" y="763.25" width="17.08" height="16.45"/><rect class="cls-2" x="389.93" y="763.25" width="17.08" height="16.45"/><rect class="cls-3" x="407.01" y="763.25" width="17.08" height="16.45"/><rect class="cls-1" x="423.14" y="803.34" width="17.98" height="16.45"/><rect class="cls-2" x="387.3" y="803.34" width="17.98" height="16.45"/><rect class="cls-3" x="405.28" y="803.34" width="17.98" height="16.45"/><g id="Rec"><rect class="cls-8" x="725.89" y="59.36" width="83.65" height="20.31"/><text class="cls-9" transform="translate(750.04 73.6) scale(1.05 1)">KEGG</text></g><g id="Rec-2" data-name="Rec"><rect class="cls-8" x="725.89" y="92.13" width="83.65" height="20.31"/><text class="cls-9" transform="translate(755.51 106.37) scale(1.05 1)">RN<tspan x="18.01" y="0">A</tspan></text></g><g id="Rec-3" data-name="Rec"><rect class="cls-8" x="725.89" y="126.49" width="83.65" height="20.31"/><text class="cls-9" transform="translate(743.83 140.74) scale(1.05 1)">Genome</text></g><rect class="cls-10" x="688.78" y="57.39" width="23.27" height="24.25"/><rect class="cls-11" x="688.78" y="90.16" width="23.27" height="24.25"/><rect class="cls-12" x="688.78" y="124.52" width="23.27" height="24.25"/><rect class="cls-8" x="673.42" y="43.21" width="157.42" height="120.63"/><text class="cls-13" transform="translate(196.45 103.53)">3-Phospho-<tspan x="0" y="14.4">D-glycerate</tspan></text><text class="cls-13" x="-400.73" y="-67.24"><tspan x="399.6" y="131.34">D-Glycerate</tspan></text><text class="cls-13" x="-400.73" y="-67.24"><tspan x="331.09" y="199.46">D-Glycer-</tspan><tspan x="331.09" y="213.86">aldehyde</tspan></text><text class="cls-13" transform="translate(43.26 272.74)">Glycerone<tspan x="0" y="14.4">phosphate</tspan></text><text class="cls-13" transform="translate(199.59 269.47)">Glycerone</text><text class="cls-13" transform="translate(338.79 294.54)">Glycerol</text><text class="cls-13" transform="translate(403.52 345.51)">sn-Glycerol<tspan x="0" y="14.4">3-phosphate</tspan></text><text class="cls-13" transform="translate(298.57 366.8)">Acyl-Co<tspan x="42.01" y="0">A</tspan></text><text class="cls-13" transform="translate(298.57 449.93)">Acyl-Co<tspan x="42.01" y="0">A</tspan></text><text class="cls-13" transform="translate(286.63 416.41)">1-Acyl-sn-glycerol<tspan x="0" y="14.4">3-phosphate</tspan></text><text class="cls-13" transform="translate(503.48 399.22)">Monoacyl-<tspan x="0" y="14.4">glycerol</tspan></text><text class="cls-13" transform="translate(503.48 476.52)">1,2-Diacyl-<tspan x="0" y="14.4">sn-glycerol</tspan></text><text class="cls-13" transform="translate(727.52 510.86)">T<tspan x="6.88" y="0">riacylglycerol</tspan></text><text class="cls-13" transform="translate(618.61 547.94)">Acyl-Co<tspan x="42.01" y="0">A</tspan></text><text class="cls-13" transform="translate(723.56 568.59)">1,2-Diacyl-<tspan x="0" y="14.4">3-(6’-sulfo-ά-D-quinovosyl)-</tspan><tspan x="0" y="28.8">sn-glycerol</tspan></text><text class="cls-13" transform="translate(440.7 563.36)">1,2-Diacyl-<tspan x="0" y="14.4">3-ά-D-glucosyl-</tspan><tspan x="0" y="28.8">sn-glycerol</tspan></text><text class="cls-13" transform="translate(333.93 560.21)">1,2-Diacyl-<tspan x="0" y="14.4">3-(Glcά1-2Glcά1)-</tspan><tspan x="0" y="28.8">sn-glycerol</tspan></text><text class="cls-13" transform="translate(332.09 677.48)">1,2-Diacyl-<tspan x="0" y="14.4">3-(Glcβ1-6Glcβ1)-</tspan><tspan x="0" y="28.8">sn-glycerol</tspan></text><text class="cls-13" transform="translate(468.81 721.27)">1,2-Diacyl-<tspan x="0" y="14.4">3-β-D-galactosyl-</tspan><tspan x="0" y="28.8">sn-glycerol</tspan></text><text class="cls-13" transform="translate(192.22 565.24)">1,2-Diacyl-3-(sn-glycero-<tspan x="0" y="14.4">1-P-6Glcά1-2Glcά1)-</tspan><tspan x="0" y="28.8">sn-glycerol</tspan></text><text class="cls-13" transform="translate(194.45 677.73)">1,2-Diacyl-3-(sn-glycero-<tspan x="0" y="14.4">1-P-6Glcβ1-6Glcβ1)-</tspan><tspan x="0" y="28.8">sn-glycerol</tspan></text><text class="cls-13" transform="translate(189.11 767.69)">1,2-Diacyl-3-(Galά1-6Galβ1)-<tspan x="0" y="14.4">sn-glycerol</tspan></text><text class="cls-13" transform="translate(189.11 807.79)">1,2-Diacyl-3-(Galβ1-6Galβ1)-<tspan x="0" y="14.4">sn-glycerol</tspan></text><text class="cls-13" transform="translate(173.71 851.77)">1,2-Diacyl-3-(NeuAcά2-3Galβ1)-<tspan x="0" y="14.4">sn-glycerol</tspan></text><text class="cls-13" transform="translate(689.03 771.01)">Monogalactosyl-<tspan x="0" y="14.4">manoacylglyerol</tspan></text><text class="cls-13" transform="translate(653.21 804.39)">Acyl-monogalactosyl-<tspan x="0" y="14.4">diacylglycerol</tspan></text><text class="cls-13" transform="translate(575.91 852.36)">3-β-D-Galactosyl-<tspan x="0" y="14.4">sn-glycerol</tspan></text><text class="cls-13" transform="translate(66.22 575.92)">Lipoteichoic acid<tspan x="0" y="14.4">(kojibiose-containing)</tspan></text><text class="cls-13" transform="translate(66.22 677.73)">Lipoteichoic acid<tspan x="0" y="14.4">(gentibiose-containing)</tspan></text><text class="cls-13" transform="translate(616.09 615.83)">UDP-6-sulfoquinovose</text><text class="cls-13" transform="translate(616.09 691.63)">UDP-glucose</text><text class="cls-13" transform="translate(560.29 254.63)">3-Hydroxy-<tspan x="0" y="14.4">propanal</tspan></text><text class="cls-13" transform="translate(696.67 272.74)">Propane-<tspan x="0" y="14.4">1,3-diol</tspan></text><text class="cls-13" transform="translate(587.25 334.96)">Fatty acid</text><text class="cls-13" transform="translate(198.02 50.43)">2-Phospho-<tspan x="0" y="14.4">D-glycerate</tspan></text><circle class="cls-8" cx="104.31" cy="276.52" r="4.09"/><circle class="cls-8" cx="391.76" cy="276.52" r="4.09"/><circle class="cls-8" cx="391.76" cy="346.51" r="4.09"/><circle class="cls-8" cx="391.76" cy="419.5" r="4.09"/><circle class="cls-8" cx="499.39" cy="419.5" r="4.09"/><circle class="cls-8" cx="571.31" cy="505.29" r="4.09"/><circle class="cls-8" cx="608.27" cy="609.16" r="4.09"/><circle class="cls-8" cx="608.27" cy="684.88" r="4.09"/><circle class="cls-8" cx="463.72" cy="771.77" r="4.09"/><circle class="cls-8" cx="356.47" cy="771.77" r="4.09"/><circle class="cls-8" cx="355.47" cy="811.57" r="4.09"/><circle class="cls-8" cx="355.47" cy="852.58" r="4.09"/><circle class="cls-8" cx="644.56" cy="808.48" r="4.09"/><circle class="cls-8" cx="679.6" cy="776.86" r="4.09"/><circle class="cls-8" cx="570.39" cy="852.58" r="4.09"/><circle class="cls-8" cx="716.75" cy="579.75" r="4.09"/><circle class="cls-8" cx="608.27" cy="540.83" r="4.09"/><circle class="cls-8" cx="716.75" cy="506.29" r="4.09"/><circle class="cls-8" cx="356.47" cy="445.84" r="4.09"/><circle class="cls-8" cx="391.76" cy="506.29" r="4.09"/><circle class="cls-8" cx="463.72" cy="599.99" r="4.09"/><circle class="cls-8" cx="463.72" cy="656.72" r="4.09"/><circle class="cls-8" cx="355.47" cy="598.99" r="4.09"/><circle class="cls-8" cx="356.47" cy="656.72" r="4.09"/><circle class="cls-8" cx="248.22" cy="599.22" r="4.09"/><circle class="cls-8" cx="248.22" cy="656.72" r="4.09"/><circle class="cls-8" cx="139.96" cy="598.87" r="4.09"/><circle class="cls-8" cx="140.05" cy="656.72" r="4.09"/><circle class="cls-8" cx="607.27" cy="346.26" r="4.09"/><circle class="cls-8" cx="355.47" cy="362.72" r="4.09"/><circle class="cls-8" cx="584.49" cy="276.52" r="4.09"/><circle class="cls-8" cx="690.79" cy="276.52" r="4.09"/><circle class="cls-8" cx="224.94" cy="276.52" r="4.09"/><circle class="cls-8" cx="391.76" cy="203.93" r="4.09"/><circle class="cls-8" cx="391.76" cy="126.03" r="4.09"/><circle class="cls-8" cx="225.94" cy="126.03" r="4.09"/><circle class="cls-8" cx="225.94" cy="75.22" r="4.09"/><line class="cls-14" x1="234.03" y1="74.24" x2="278.98" y2="74.03"/><line class="cls-14" x1="331.09" y1="74.06" x2="391.76" y2="73.77"/><polygon class="cls-15" points="231.21 73.99 240.08 77.78 240.09 70.23 231.21 73.99"/><line class="cls-14" x1="234.03" y1="125.42" x2="278.98" y2="125.21"/><line class="cls-14" x1="331.09" y1="125.23" x2="387.68" y2="124.97"/><polygon class="cls-15" points="231.21 125.16 240.08 128.96 240.09 121.4 231.21 125.16"/><line class="cls-14" x1="112.68" y1="276.76" x2="220.85" y2="276.25"/><polygon class="cls-15" points="109.87 276.5 118.73 280.3 118.74 272.74 109.87 276.5"/><line class="cls-14" x1="233.03" y1="276.76" x2="377.14" y2="276.09"/><polygon class="cls-15" points="230.21 276.5 239.08 280.3 239.09 272.74 230.21 276.5"/><polygon class="cls-15" points="382.89 276.54 374.02 272.74 374.02 280.3 382.89 276.54"/><line class="cls-14" x1="400.31" y1="280.84" x2="498.77" y2="280.38"/><polygon class="cls-15" points="397.49 280.59 406.36 284.38 406.37 276.83 397.49 280.59"/><line class="cls-14" x1="500.08" y1="371.37" x2="499.66" y2="280.3"/><line class="cls-14" x1="500.71" y1="415.26" x2="500.58" y2="388.9"/><line class="cls-14" x1="401.4" y1="276.89" x2="502.48" y2="276.42"/><polygon class="cls-15" points="578.81 276.54 569.95 272.74 569.94 280.3 578.81 276.54"/><line class="cls-14" x1="554.5" y1="276.5" x2="572.32" y2="276.42"/><line class="cls-14" x1="588.58" y1="276.3" x2="606.41" y2="276.21"/><polygon class="cls-15" points="685.05 276.32 676.19 272.53 676.18 280.08 685.05 276.32"/><line class="cls-14" x1="658.44" y1="276.5" x2="676.26" y2="276.42"/><polygon class="cls-15" points="673.2 346.27 664.34 342.48 664.33 350.04 673.2 346.27"/><line class="cls-14" x1="611.35" y1="346.26" x2="664.41" y2="346.37"/><polygon class="cls-15" points="709.31 502.22 700.44 498.42 700.43 505.98 709.31 502.22"/><polygon class="cls-15" points="574.38 496.67 578.18 487.81 570.62 487.8 574.38 496.67"/><polygon class="cls-15" points="709.31 510.39 700.44 506.6 700.43 514.15 709.31 510.39"/><line class="cls-14" x1="673.03" y1="502.26" x2="700.52" y2="502.31"/><line class="cls-14" x1="715.72" y1="500.34" x2="715.79" y2="464.12"/><line class="cls-14" x1="574.37" y1="493.12" x2="574.43" y2="463.94"/><line class="cls-14" x1="673.03" y1="510.35" x2="700.52" y2="510.4"/><line class="cls-14" x1="580.56" y1="502.23" x2="619.88" y2="502.32"/><line class="cls-14" x1="574.4" y1="463.92" x2="715.79" y2="464.12"/><line class="cls-14" x1="580.56" y1="510.15" x2="619.88" y2="510.23"/><polygon class="cls-15" points="600.87 342.5 592 338.7 591.99 346.26 600.87 342.5"/><line class="cls-14" x1="499.89" y1="342.39" x2="592.08" y2="342.59"/><polygon class="cls-15" points="600.86 350.36 592 346.56 591.99 354.12 600.86 350.36"/><line class="cls-14" x1="568.22" y1="350.4" x2="592.07" y2="350.45"/><polygon class="cls-15" points="506.13 419.02 515 422.82 515 415.26 506.13 419.02"/><line class="cls-14" x1="568.15" y1="419.13" x2="514.48" y2="419.02"/><line class="cls-14" x1="568.29" y1="350.43" x2="568.11" y2="435.99"/><line class="cls-14" x1="568.08" y1="452.26" x2="567.99" y2="496.67"/><polygon class="cls-15" points="561.96 498.44 553.1 494.64 553.09 502.2 561.96 498.44"/><line class="cls-14" x1="500.34" y1="497.69" x2="553.18" y2="498.53"/><polygon class="cls-15" points="397.74 419.02 406.61 422.82 406.61 415.26 397.74 419.02"/><line class="cls-14" x1="430.27" y1="419.07" x2="406.09" y2="419.01"/><line class="cls-14" x1="500.41" y1="462.72" x2="500.34" y2="497.69"/><line class="cls-14" x1="499.64" y1="423.57" x2="499.94" y2="446.23"/><line class="cls-14" x1="495.3" y1="419.04" x2="482.3" y2="419.01"/><line class="cls-14" x1="391.09" y1="157.73" x2="391" y2="137.58"/><line class="cls-14" x1="391.48" y1="192.63" x2="391.39" y2="174.22"/><polygon class="cls-15" points="391.74 197.49 395.54 188.63 387.98 188.62 391.74 197.49"/><polygon class="cls-15" points="391.45 131.83 387.65 140.69 395.21 140.7 391.45 131.83"/><line class="cls-14" x1="391.79" y1="227.39" x2="391.72" y2="211.07"/><line class="cls-14" x1="391.8" y1="267.2" x2="391.7" y2="246.47"/><polygon class="cls-15" points="391.74 270.98 395.54 262.11 387.98 262.11 391.74 270.98"/><polygon class="cls-15" points="391.78 208.96 387.98 217.82 395.54 217.83 391.78 208.96"/><line class="cls-14" x1="473.83" y1="203.66" x2="406.78" y2="203.97"/><line class="cls-14" x1="473.83" y1="270.82" x2="406.78" y2="271.14"/><line class="cls-14" x1="473.83" y1="270.82" x2="473.83" y2="203.66"/><polygon class="cls-15" points="396.96 203.61 405.83 207.41 405.84 199.85 396.96 203.61"/><polygon class="cls-15" points="396.96 271.1 405.83 274.9 405.84 267.34 396.96 271.1"/><line class="cls-14" x1="143.38" y1="125.42" x2="209.92" y2="125.11"/><polygon class="cls-15" points="220.33 125.1 211.46 121.3 211.45 128.86 220.33 125.1"/><polygon class="cls-15" points="139.7 125.25 148.56 129.04 148.57 121.48 139.7 125.25"/><line class="cls-14" x1="103.55" y1="267.42" x2="103.4" y2="145.38"/><polygon class="cls-15" points="103.42 139.59 99.62 148.46 107.18 148.47 103.42 139.59"/><polygon class="cls-15" points="103.38 271.1 107.18 262.23 99.62 262.23 103.38 271.1"/><line class="cls-14" x1="104.46" y1="394.49" x2="104.33" y2="289.62"/><polygon class="cls-15" points="104.32 281.86 100.53 290.72 108.08 290.73 104.32 281.86"/><polygon class="cls-15" points="104.29 398.17 108.08 389.31 100.53 389.3 104.29 398.17"/><line class="cls-14" x1="387.76" y1="339.16" x2="387.74" y2="322.65"/><line class="cls-14" x1="395.54" y1="306.16" x2="395.51" y2="284.38"/><line class="cls-14" x1="395.54" y1="336.18" x2="395.52" y2="322.65"/><line class="cls-14" x1="387.68" y1="305.94" x2="387.67" y2="292.41"/><polygon class="cls-15" points="387.69 283.54 383.9 292.4 391.45 292.41 387.69 283.54"/><polygon class="cls-15" points="395.83 341.25 399.63 332.38 392.07 332.38 395.83 341.25"/><line class="cls-14" x1="607.38" y1="409.7" x2="607.36" y2="393.19"/><line class="cls-14" x1="607.41" y1="463.46" x2="607.29" y2="362.95"/><polygon class="cls-15" points="607.31 354.08 603.52 362.94 611.08 362.95 607.31 354.08"/><line class="cls-14" x1="103.29" y1="112.4" x2="103.04" y2="74.01"/><line class="cls-14" x1="213.74" y1="74.01" x2="104.04" y2="74.01"/><polygon class="cls-15" points="103.29 112.4 107.08 103.54 99.53 103.53 103.29 112.4"/><polygon class="cls-15" points="218.8 74.02 209.93 70.23 209.92 77.78 218.8 74.02"/><line class="cls-14" x1="104.05" y1="440.9" x2="103.91" y2="506.22"/><line class="cls-14" x1="379.51" y1="506.27" x2="104.91" y2="506.22"/><polygon class="cls-15" points="104.03 438.68 107.83 447.55 100.27 447.55 104.03 438.68"/><polygon class="cls-15" points="385.59 506.55 376.72 510.35 376.72 502.79 385.59 506.55"/><line class="cls-14" x1="556.6" y1="506.78" x2="395.85" y2="506.25"/><polygon class="cls-15" points="562.68 507.06 553.82 510.86 553.81 503.3 562.68 507.06"/><line class="cls-14" x1="704.33" y1="579.45" x2="673.27" y2="579.35"/><line class="cls-14" x1="620.8" y1="579.45" x2="582.26" y2="579.32"/><polygon class="cls-15" points="710.41 579.73 701.54 583.53 701.54 575.97 710.41 579.73"/><line class="cls-14" x1="582.41" y1="514.15" x2="582.19" y2="578.82"/><g id="Round"><rect class="cls-8" x="68.92" y="114.03" width="70.78" height="24" rx="12" ry="12"/><text class="cls-16" transform="translate(77.14 131.83) scale(0.94 1)">Glycolysis</text></g><g id="Round-2" data-name="Round"><rect class="cls-8" x="46.36" y="398.61" width="128.51" height="39.09" rx="12" ry="12"/><text class="cls-16" transform="translate(54.59 416.41) scale(0.94 1)">Glyecerophospholipid<tspan x="0" y="15.11">metabolism</tspan></text></g><g id="Round-3" data-name="Round"><rect class="cls-8" x="678.38" y="327.71" width="76.73" height="39.09" rx="12" ry="12"/><text class="cls-16" transform="translate(686.61 345.51) scale(0.94 1)">Fatty acid<tspan x="0" y="15.11">degradation</tspan></text></g><g id="Head"><rect class="cls-17" x="1" y="1" width="372.16" height="31.5"/><text class="cls-18" transform="translate(8.12 23.5) scale(1.15 1)">Glycerolipid Metabolism - 00561 - <tspan class="cls-19" x="212.42" y="0">Jatropha curcas</tspan></text></g><g id="Rec-4" data-name="Rec"><rect class="cls-8" x="279.07" y="65.97" width="52.02" height="16.49"/><text class="cls-13" transform="translate(280.29 77.54)">2.7.1.165</text></g><g id="Rec-5" data-name="Rec"><rect class="cls-8" x="279.07" y="116.94" width="52.02" height="16.49"/><text class="cls-13" transform="translate(283.63 128.5)">2.7.1.31</text></g><g id="Rec-6" data-name="Rec"><rect class="cls-8" x="364.75" y="157.73" width="52.02" height="16.49"/><text class="cls-13" transform="translate(372.65 169.29)">1.2.1.3</text></g><g id="Rec-7" data-name="Rec"><rect class="cls-8" x="366.75" y="228.54" width="52.02" height="16.49"/><text class="cls-13" transform="translate(371.31 240.11)">1.1.1.72</text></g><g id="Rec-8" data-name="Rec"><rect class="cls-8" x="419.77" y="228.54" width="52.02" height="16.49"/><text class="cls-13" transform="translate(427.67 240.11)">1.1.1.2</text></g><g id="Rec-9" data-name="Rec"><rect class="cls-8" x="502.48" y="268.27" width="52.02" height="16.49"/><text class="cls-13" transform="translate(507.04 279.84)">4.2.1.30</text></g><g id="Rec-10" data-name="Rec"><rect class="cls-8" x="337.51" y="306.16" width="52.02" height="16.49"/><text class="cls-13" transform="translate(342.07 317.73)">3.1.3.21</text></g><g id="Rec-11" data-name="Rec"><rect class="cls-8" x="366.75" y="371.37" width="52.02" height="16.49"/><text class="cls-13" transform="translate(371.31 382.93)">2.3.1.15</text></g><g id="Rec-12" data-name="Rec"><rect class="cls-8" x="430.27" y="411.25" width="52.02" height="16.49"/><text class="cls-13" transform="translate(434.84 422.82)">2.7.1.94</text></g><g id="Rec-13" data-name="Rec"><rect class="cls-8" x="366.75" y="463.46" width="52.02" height="16.49"/><text class="cls-13" transform="translate(371.31 475.03)">2.3.1.51</text></g><g id="Rec-14" data-name="Rec"><rect class="cls-8" x="432.62" y="487.8" width="52.02" height="16.49"/><text class="cls-13" transform="translate(440.53 499.37)">3.1.3.4</text></g><g id="Rec-15" data-name="Rec"><rect class="cls-8" x="432.87" y="509.38" width="52.02" height="16.49"/><text class="cls-13" transform="translate(437.44 520.94)">3.1.3.81</text></g><g id="Rec-16" data-name="Rec"><rect class="cls-8" x="433.12" y="533.04" width="52.02" height="16.49"/><text class="cls-13" transform="translate(434.35 544.61)">2.7.1.107</text></g><g id="Rec-17" data-name="Rec"><rect class="cls-8" x="499.89" y="591.74" width="52.02" height="16.49"/><text class="cls-13" transform="translate(501.11 603.31)">2.4.1.337</text></g><g id="Rec-18" data-name="Rec"><rect class="cls-8" x="388.68" y="591.74" width="52.02" height="16.49"/><text class="cls-13" transform="translate(389.9 603.31)">2.4.1.208</text></g><g id="Rec-19" data-name="Rec"><rect class="cls-8" x="388.68" y="648.47" width="52.02" height="16.49"/><text class="cls-13" transform="translate(389.9 660.04)">2.4.1.315</text></g><g id="Rec-20" data-name="Rec"><rect class="cls-8" x="437.71" y="689.61" width="52.02" height="16.49"/><text class="cls-13" transform="translate(442.27 701.17)">5.1.3.34</text></g><g id="Rec-21" data-name="Rec"><rect class="cls-8" x="388.68" y="724.52" width="52.02" height="16.49"/><text class="cls-13" transform="translate(393.24 736.08)">3.2.1.22</text></g><g id="Rec-22" data-name="Rec"><rect class="cls-8" x="388.68" y="763.53" width="52.02" height="16.49"/><text class="cls-13" transform="translate(389.9 775.1)">2.4.1.241</text></g><g id="Rec-23" data-name="Rec"><rect class="cls-8" x="388.68" y="803.32" width="52.02" height="16.49"/><text class="cls-13" transform="translate(389.9 814.89)">2.4.1.184</text></g><g id="Rec-24" data-name="Rec"><rect class="cls-8" x="388.68" y="844.33" width="52.02" height="16.49"/><text class="cls-13" transform="translate(393.24 855.9)">2.4.99.5</text></g><g id="Rec-25" data-name="Rec"><rect class="cls-8" x="500.14" y="637.52" width="52.02" height="16.49"/><text class="cls-13" transform="translate(501.36 649.09)">2.4.1.315</text></g><g id="Rec-26" data-name="Rec"><rect class="cls-8" x="500.39" y="658.94" width="52.02" height="16.49"/><text class="cls-13" transform="translate(501.61 670.51)">2.4.1.336</text></g><g id="Rec-27" data-name="Rec"><rect class="cls-8" x="281.91" y="591.74" width="52.02" height="16.49"/><text class="cls-13" transform="translate(286.47 603.31)">2.7.8.20</text></g><g id="Rec-28" data-name="Rec"><rect class="cls-8" x="281.91" y="648.47" width="52.02" height="16.49"/><text class="cls-13" transform="translate(286.47 660.04)">2.7.8.20</text></g><g id="Rec-29" data-name="Rec"><rect class="cls-8" x="474.38" y="371.37" width="52.02" height="16.49"/><text class="cls-13" transform="translate(478.94 382.93)">3.1.1.23</text></g><g id="Rec-30" data-name="Rec"><rect class="cls-8" x="541.21" y="435.99" width="52.02" height="16.49"/><text class="cls-13" transform="translate(549.11 447.55)">3.1.1.3</text></g><g id="Rec-31" data-name="Rec"><rect class="cls-8" x="620.5" y="445.23" width="52.02" height="16.49"/><text class="cls-13" transform="translate(628.4 456.8)">3.1.1.3</text></g><g id="Rec-32" data-name="Rec"><rect class="cls-8" x="620.75" y="466.78" width="52.02" height="16.49"/><text class="cls-13" transform="translate(625.31 478.35)">3.1.1.34</text></g><g id="Rec-33" data-name="Rec"><rect class="cls-8" x="621" y="487.8" width="52.02" height="16.49"/><text class="cls-13" transform="translate(622.23 499.37)">2.3.1.158</text></g><g id="Rec-34" data-name="Rec"><rect class="cls-8" x="621.25" y="507.81" width="52.02" height="16.49"/><text class="cls-13" transform="translate(625.81 519.38)">2.3.1.20</text></g><g id="Rec-35" data-name="Rec"><rect class="cls-8" x="620.5" y="571.51" width="52.02" height="16.49"/><text class="cls-13" transform="translate(630.42 583.08)">SQD2</text></g><g id="Rec-36" data-name="Rec"><rect class="cls-8" x="582.26" y="642.45" width="52.02" height="16.49"/><text class="cls-13" transform="translate(592.17 654.02)">SQD1</text></g><g id="Rec-37" data-name="Rec"><rect class="cls-8" x="602.97" y="759.44" width="52.02" height="16.49"/><text class="cls-13" transform="translate(604.19 771.01)">2.3.1.141</text></g><g id="Rec-38" data-name="Rec"><rect class="cls-8" x="545.65" y="776.86" width="52.02" height="16.49"/><text class="cls-13" transform="translate(546.87 788.43)">2.3.1.134</text></g><g id="Rec-39" data-name="Rec"><rect class="cls-8" x="499.89" y="752.52" width="52.02" height="16.49"/><text class="cls-13" transform="translate(504.45 764.09)">2.4.1.46</text></g><g id="Rec-40" data-name="Rec"><rect class="cls-8" x="488.06" y="844.33" width="52.02" height="16.49"/><text class="cls-13" transform="translate(492.62 855.9)">3.1.1.26</text></g><g id="Rec-41" data-name="Rec"><rect class="cls-8" x="473.63" y="446.23" width="52.02" height="16.49"/><text class="cls-13" transform="translate(478.19 457.8)">2.3.1.22</text></g><g id="Rec-42" data-name="Rec"><rect class="cls-8" x="393.76" y="306.16" width="52.02" height="16.49"/><text class="cls-13" transform="translate(398.32 317.73)">2.7.1.30</text></g><g id="Rec-43" data-name="Rec"><rect class="cls-8" x="606.41" y="268.27" width="52.02" height="16.49"/><text class="cls-13" transform="translate(607.64 279.84)">1.1.1.202</text></g><g id="Rec-44" data-name="Rec"><rect class="cls-8" x="475.38" y="229" width="52.02" height="16.49"/><text class="cls-13" transform="translate(479.94 240.56)">1.1.1.21</text></g><g id="Rec-45" data-name="Rec"><rect class="cls-8" x="278.32" y="257.9" width="52.02" height="16.49"/><text class="cls-13" transform="translate(286.22 269.47)">1.1.1.6</text></g><g id="Rec-46" data-name="Rec"><rect class="cls-8" x="141.63" y="257.9" width="52.02" height="16.49"/><text class="cls-13" transform="translate(146.2 269.47)">2.7.1.29</text></g><g id="Rec-47" data-name="Rec"><rect class="cls-8" x="141.63" y="278.05" width="52.02" height="16.49"/><text class="cls-13" transform="translate(142.86 289.62)">2.7.1.121</text></g><g id="Rec-48" data-name="Rec"><rect class="cls-8" x="278.32" y="278.05" width="52.02" height="16.49"/><text class="cls-13" transform="translate(279.54 289.62)">1.1.1.156</text></g><line class="cls-14" x1="391.76" y1="119.38" x2="391.76" y2="73.91"/><line class="cls-14" x1="391.13" y1="410.58" x2="391.1" y2="387.86"/><line class="cls-14" x1="391.08" y1="371.37" x2="391.05" y2="352.79"/><polygon class="cls-15" points="391.11 413.69 394.91 404.82 387.35 404.82 391.11 413.69"/><line class="cls-14" x1="391.13" y1="497.61" x2="391.11" y2="479.95"/><line class="cls-14" x1="391.77" y1="541.28" x2="391.74" y2="519.38"/><line class="cls-14" x1="561.98" y1="541.28" x2="561.94" y2="513.41"/><line class="cls-14" x1="391.13" y1="463.3" x2="391.76" y2="423.58"/><polygon class="cls-15" points="391.11 500.71 394.91 491.85 387.35 491.84 391.11 500.71"/><polygon class="cls-15" points="391.46 511.62 387.67 520.49 395.22 520.5 391.46 511.62"/><line class="cls-14" x1="433.12" y1="541.25" x2="391.76" y2="541.3"/><line class="cls-14" x1="561.97" y1="541.2" x2="485.15" y2="541.3"/><line class="cls-14" x1="152.43" y1="599.17" x2="244.13" y2="599.47"/><polygon class="cls-15" points="146.35 598.88 155.22 595.09 155.23 602.65 146.35 598.88"/><line class="cls-14" x1="151.32" y1="656.51" x2="243.02" y2="656.82"/><polygon class="cls-15" points="145.24 656.23 154.11 652.43 154.12 659.99 145.24 656.23"/><line class="cls-14" x1="259.53" y1="599.52" x2="281.91" y2="599.59"/><polygon class="cls-15" points="253.45 599.24 262.32 595.44 262.33 603 253.45 599.24"/><line class="cls-14" x1="333.93" y1="599.77" x2="352.38" y2="599.83"/><line class="cls-14" x1="259.53" y1="656.97" x2="281.91" y2="657.04"/><polygon class="cls-15" points="253.45 656.69 262.32 652.89 262.33 660.45 253.45 656.69"/><line class="cls-14" x1="333.93" y1="657.22" x2="352.38" y2="657.28"/><line class="cls-14" x1="366.63" y1="599.52" x2="389.01" y2="599.59"/><polygon class="cls-15" points="360.56 599.24 369.42 595.44 369.43 603 360.56 599.24"/><line class="cls-14" x1="441.03" y1="599.77" x2="459.48" y2="599.83"/><line class="cls-14" x1="366.63" y1="657" x2="389.01" y2="657.07"/><polygon class="cls-15" points="360.56 656.71 369.42 652.92 369.43 660.48 360.56 656.71"/><line class="cls-14" x1="441.03" y1="657.24" x2="459.48" y2="657.31"/><line class="cls-14" x1="369.85" y1="771.31" x2="388.68" y2="771.37"/><polygon class="cls-15" points="363.77 771.03 372.64 767.23 372.64 774.79 363.77 771.03"/><line class="cls-14" x1="440.94" y1="771.31" x2="459.39" y2="771.37"/><line class="cls-14" x1="356.47" y1="732.69" x2="388.68" y2="732.8"/><line class="cls-14" x1="458.19" y1="757.87" x2="458.27" y2="732.76"/><line class="cls-14" x1="356.39" y1="767.23" x2="356.51" y2="731.98"/><line class="cls-14" x1="463.68" y1="757.87" x2="463.85" y2="706.1"/><line class="cls-14" x1="463.76" y1="689.61" x2="463.86" y2="660.8"/><polygon class="cls-15" points="463.74 764.75 459.94 755.88 467.5 755.87 463.74 764.75"/><polygon class="cls-15" points="458.26 764.75 454.46 755.88 462.02 755.87 458.26 764.75"/><line class="cls-14" x1="442.18" y1="732.73" x2="458.24" y2="732.78"/><line class="cls-14" x1="369.85" y1="811.86" x2="388.68" y2="811.93"/><polygon class="cls-15" points="363.77 811.58 372.64 807.79 372.64 815.35 363.77 811.58"/><line class="cls-14" x1="440.94" y1="811.87" x2="458.87" y2="811.93"/><line class="cls-14" x1="458.87" y1="811.93" x2="458.91" y2="779.21"/><line class="cls-14" x1="369.85" y1="852.47" x2="388.68" y2="852.53"/><polygon class="cls-15" points="363.77 852.19 372.64 848.39 372.64 855.95 363.77 852.19"/><line class="cls-14" x1="440.94" y1="852.47" x2="463.87" y2="852.53"/><line class="cls-14" x1="463.87" y1="852.53" x2="463.96" y2="779.46"/><line class="cls-14" x1="558.09" y1="852.42" x2="540.08" y2="852.48"/><polygon class="cls-15" points="564.17 852.14 555.3 848.34 555.29 855.9 564.17 852.14"/><line class="cls-14" x1="487" y1="852.42" x2="468.63" y2="852.47"/><line class="cls-14" x1="468" y1="852.5" x2="467.91" y2="779.43"/><line class="cls-14" x1="474.89" y1="599.52" x2="499.89" y2="599.6"/><polygon class="cls-15" points="468.81 599.24 477.68 595.44 477.68 603 468.81 599.24"/><line class="cls-14" x1="551.91" y1="599.78" x2="567.74" y2="599.83"/><line class="cls-14" x1="567.47" y1="513.97" x2="567.47" y2="599.99"/><line class="cls-14" x1="474.89" y1="656.56" x2="554.77" y2="656.83"/><polygon class="cls-15" points="468.81 656.28 477.68 652.48 477.68 660.04 468.81 656.28"/><line class="cls-14" x1="551.91" y1="656.82" x2="571.47" y2="657.03"/><line class="cls-14" x1="571.47" y1="514.52" x2="571.47" y2="657.03"/><line class="cls-14" x1="479.32" y1="760.61" x2="499.89" y2="760.68"/><polygon class="cls-15" points="473.25 760.33 482.11 756.53 482.12 764.09 473.25 760.33"/><line class="cls-14" x1="551.91" y1="760.82" x2="575.9" y2="761.08"/><line class="cls-14" x1="575.91" y1="514.89" x2="575.9" y2="761.08"/><line class="cls-14" x1="479.32" y1="772.74" x2="602.97" y2="772.78"/><polygon class="cls-15" points="473.25 772.79 482.11 769 482.12 776.55 473.25 772.79"/><line class="cls-14" x1="654.99" y1="772.64" x2="671.91" y2="772.83"/><line class="cls-14" x1="666.13" y1="779.75" x2="597.67" y2="779.73"/><polygon class="cls-15" points="672.21 779.7 663.34 783.49 663.33 775.93 672.21 779.7"/><polygon class="cls-15" points="644.58 803.39 640.78 794.53 648.34 794.52 644.58 803.39"/><line class="cls-14" x1="545.65" y1="780.45" x2="473.54" y2="779.66"/><line class="cls-14" x1="644.89" y1="801.97" x2="644.89" y2="779.74"/><line class="cls-14" x1="608.35" y1="622.01" x2="608.29" y2="642.45"/><polygon class="cls-15" points="608.25 614.29 612.05 623.16 604.49 623.17 608.25 614.29"/><line class="cls-14" x1="608.3" y1="660.04" x2="608.23" y2="680.48"/><path class="cls-8" d="M1009.1,672.32c1.27-7.77-9.13-23,10.23-25.84-0.92,0-1.82-.08-2.73-0.11,0.94,0,1.8,0,2.73.11" transform="translate(-400.73 -67.24)"/><path class="cls-8" d="M1009.1,603.57c1.27-7.77-9.13-23,10.23-25.84-0.92,0-1.82-.08-2.73-0.11,0.94,0,1.8,0,2.73.11" transform="translate(-400.73 -67.24)"/><path class="cls-8" d="M761.27,512.7c9.16,1.12,27.16-8.05,30.45,9,0-.81.1-1.6,0.13-2.41a18.9,18.9,0,0,1-.13,2.41" transform="translate(-400.73 -67.24)"/><path class="cls-8" d="M761.27,429.93c9.2,0.87,27.27-6.2,30.58,7,0-.62.1-1.23,0.13-1.86a11.21,11.21,0,0,1-.13,1.86" transform="translate(-400.73 -67.24)"/><text x="-400.73" y="-67.24"/></svg>