<svg id="Layer_2" data-name="Layer 2" xmlns="http://www.w3.org/2000/svg" viewBox="0 0 1134.4 949.37"><defs><style>.cls-1{fill:#f16d7d;}.cls-2{fill:#fbf28a;}.cls-3{fill:#fbf288;}.cls-4{fill:#4c86c5;}.cls-13,.cls-5{fill:none;}.cls-13,.cls-15,.cls-16,.cls-17,.cls-5{stroke:#000;}.cls-13,.cls-15,.cls-16,.cls-17,.cls-19,.cls-20,.cls-5{stroke-miterlimit:10;}.cls-5{stroke-width:2px;}.cls-6{font-size:14px;}.cls-11,.cls-14,.cls-18,.cls-6,.cls-8,.cls-9{font-family:Arial;}.cls-7{font-style:italic;}.cls-8{font-size:12px;}.cls-9{font-size:9.92px;}.cls-10{letter-spacing:-0.83px;}.cls-11{font-size:9.29px;}.cls-12{letter-spacing:-0.87px;}.cls-14{font-size:12.47px;}.cls-15,.cls-22{fill:#fff984;}.cls-16,.cls-23{fill:#ff6e7d;}.cls-17,.cls-21{fill:#1f91ff;}.cls-18{font-size:12.59px;}.cls-19{fill:#e6e7e8;}.cls-19,.cls-20{stroke:#231f20;stroke-linecap:round;}.cls-24{fill:#4c87c7;}.cls-25{fill:#fcf289;}.cls-26{fill:#f26d7d;}</style></defs><title>jcu_ec00071</title><rect class="cls-1" x="474.17" y="777.2" width="25.5" height="16.45"/><rect class="cls-2" x="448.67" y="777.2" width="17.04" height="16.45"/><rect class="cls-3" x="448.67" y="777.2" width="25.5" height="16.45"/><rect class="cls-1" x="825.06" y="605.01" width="25.5" height="16.45"/><rect class="cls-2" x="799.57" y="605.01" width="17.04" height="16.45"/><rect class="cls-3" x="799.57" y="605.01" width="25.5" height="16.45"/><rect class="cls-1" x="921.06" y="614.88" width="25.5" height="16.45"/><rect class="cls-2" x="895.56" y="614.88" width="17.04" height="16.45"/><rect class="cls-3" x="895.56" y="614.88" width="25.5" height="16.45"/><rect class="cls-1" x="919.29" y="448.64" width="25.5" height="16.45"/><rect class="cls-2" x="893.79" y="448.64" width="17.04" height="16.45"/><rect class="cls-3" x="893.79" y="448.64" width="25.5" height="16.45"/><rect class="cls-1" x="761.9" y="454.17" width="25.5" height="16.45"/><rect class="cls-2" x="736.4" y="454.17" width="17.04" height="16.45"/><rect class="cls-3" x="736.4" y="454.17" width="25.5" height="16.45"/><rect class="cls-1" x="631.17" y="453.17" width="25.5" height="16.45"/><rect class="cls-2" x="605.68" y="453.17" width="17.04" height="16.45"/><rect class="cls-3" x="605.68" y="453.17" width="25.5" height="16.45"/><rect class="cls-1" x="504.32" y="454.17" width="25.5" height="16.45"/><rect class="cls-2" x="478.83" y="454.17" width="17.04" height="16.45"/><rect class="cls-3" x="478.83" y="454.17" width="25.5" height="16.45"/><rect class="cls-1" x="375.7" y="453.17" width="25.5" height="16.45"/><rect class="cls-2" x="350.2" y="453.17" width="17.04" height="16.45"/><rect class="cls-3" x="350.2" y="453.17" width="25.5" height="16.45"/><rect class="cls-1" x="247.87" y="453.49" width="25.5" height="16.45"/><rect class="cls-2" x="222.37" y="453.49" width="17.04" height="16.45"/><rect class="cls-3" x="222.37" y="453.49" width="25.5" height="16.45"/><rect class="cls-1" x="119.17" y="453.17" width="25.5" height="16.45"/><rect class="cls-2" x="93.67" y="453.17" width="17.04" height="16.45"/><rect class="cls-3" x="93.67" y="453.17" width="25.5" height="16.45"/><rect class="cls-1" x="247.87" y="355.3" width="25.5" height="16.45"/><rect class="cls-2" x="222.37" y="355.3" width="17.04" height="16.45"/><rect class="cls-3" x="222.37" y="355.3" width="25.5" height="16.45"/><rect class="cls-1" x="375.75" y="356.79" width="25.5" height="16.45"/><rect class="cls-2" x="350.26" y="356.79" width="17.04" height="16.45"/><rect class="cls-3" x="350.26" y="356.79" width="25.5" height="16.45"/><rect class="cls-1" x="505" y="356.09" width="25.5" height="16.45"/><rect class="cls-2" x="479.51" y="356.09" width="17.04" height="16.45"/><rect class="cls-3" x="479.51" y="356.09" width="25.5" height="16.45"/><rect class="cls-1" x="632.93" y="357.37" width="25.5" height="16.45"/><rect class="cls-2" x="607.44" y="357.37" width="17.04" height="16.45"/><rect class="cls-3" x="607.44" y="357.37" width="25.5" height="16.45"/><rect class="cls-1" x="761.9" y="358.52" width="25.5" height="16.45"/><rect class="cls-2" x="736.4" y="358.52" width="17.04" height="16.45"/><rect class="cls-3" x="736.4" y="358.52" width="25.5" height="16.45"/><rect class="cls-1" x="948.87" y="355.65" width="25.5" height="16.45"/><rect class="cls-2" x="923.38" y="355.65" width="17.04" height="16.45"/><rect class="cls-3" x="923.38" y="355.65" width="25.5" height="16.45"/><rect class="cls-1" x="119.17" y="357.37" width="25.5" height="16.45"/><rect class="cls-2" x="93.67" y="357.37" width="17.04" height="16.45"/><rect class="cls-3" x="93.67" y="357.37" width="25.5" height="16.45"/><rect class="cls-4" x="660.75" y="902.71" width="27.55" height="16.45"/><rect class="cls-3" x="633.2" y="902.71" width="27.55" height="16.45"/><rect class="cls-3" x="672.7" y="879.62" width="20.25" height="16.45"/><rect class="cls-3" x="632.33" y="879.62" width="20.25" height="16.45"/><rect class="cls-3" x="652.58" y="879.62" width="20.25" height="16.45"/><g id="Head"><rect class="cls-5" x="1" y="1" width="361.95" height="31.5"/><text class="cls-6" transform="translate(7.13 23.5) scale(1.15 1)">Fatty<tspan x="31.12" y="0"> </tspan><tspan x="34.23" y="0">Acid Degradatoin - 00071 - </tspan><tspan class="cls-7" x="205.45" y="0">Jatropha curcas</tspan></text></g><text class="cls-8" transform="translate(1022.83 288.77)">Glutarate</text><text class="cls-8" transform="translate(1022.83 353)">Glutaryl-<tspan x="0" y="14.4">Co</tspan><tspan x="15.34" y="14.4">A</tspan></text><text class="cls-8" transform="translate(73.6 259.44)">L-Palmitoyl-<tspan x="0" y="14.4">carnitine</tspan></text><text class="cls-9" transform="translate(154.6 312.47) scale(1.2 1)">Hexa-<tspan x="0" y="11.9">decanoyl-</tspan><tspan x="0" y="23.81">Co</tspan><tspan x="12.68" y="23.81">A</tspan></text><text class="cls-9" transform="translate(282.87 311.02) scale(1.2 1)"><tspan class="cls-10">T</tspan><tspan x="4.96" y="0">etra-</tspan><tspan x="0" y="11.9">decanoyl-</tspan><tspan x="0" y="23.81">Co</tspan><tspan x="12.68" y="23.81">A</tspan></text><text class="cls-9" transform="translate(411.02 320.15) scale(1.09 1)">Dodecanoyl-<tspan x="0" y="11.9">Co</tspan><tspan x="12.68" y="11.9">A</tspan></text><text class="cls-9" transform="translate(540.57 319.51) scale(1.09 1)">Decanoyl-<tspan x="0" y="11.9">Co</tspan><tspan x="12.68" y="11.9">A</tspan></text><text class="cls-9" transform="translate(670.06 319.51) scale(1.09 1)">Octanoyl-<tspan x="0" y="11.9">Co</tspan><tspan x="12.68" y="11.9">A</tspan></text><text class="cls-9" transform="translate(796.97 319.51) scale(1.09 1)">Hexanoyl-<tspan x="0" y="11.9">Co</tspan><tspan x="12.68" y="11.9">A</tspan></text><text class="cls-9" transform="translate(926.84 319.51) scale(1.09 1)">Butanoyl-<tspan x="0" y="11.9">Co</tspan><tspan x="12.68" y="11.9">A</tspan></text><text class="cls-11" transform="translate(157.81 408.29) scale(1.15 1)">trans-<tspan x="0" y="11.15">Hexadec-</tspan><tspan x="0" y="22.3">2-enoyl</tspan><tspan x="0" y="33.46">-Co</tspan><tspan x="14.97" y="33.46">A</tspan></text><text class="cls-11" transform="translate(282.87 408.29) scale(1.15 1)">trans-<tspan class="cls-12" x="0" y="11.15">T</tspan><tspan x="4.65" y="11.15">etradec-</tspan><tspan x="0" y="22.3">2-enoyl</tspan><tspan x="0" y="33.46">-Co</tspan><tspan x="14.97" y="33.46">A</tspan></text><text class="cls-11" transform="translate(413.05 406.49) scale(1.15 1)">trans-<tspan x="0" y="11.15">Dodec-</tspan><tspan x="0" y="22.3">2-enoyl</tspan><tspan x="0" y="33.46">-Co</tspan><tspan x="14.97" y="33.46">A</tspan></text><text class="cls-11" transform="translate(542.05 406.48) scale(1.15 1)">trans-Dec-<tspan x="0" y="11.15">2-enoyl</tspan><tspan x="0" y="22.3">-Co</tspan><tspan x="14.97" y="22.3">A</tspan></text><text class="cls-11" transform="translate(670.06 408.29) scale(1.15 1)">trans-Oct-<tspan x="0" y="11.15">2-enoyl</tspan><tspan x="0" y="22.3">-Co</tspan><tspan x="14.97" y="22.3">A</tspan></text><text class="cls-11" transform="translate(800.67 408.29) scale(1.15 1)">trans-Hex-<tspan x="0" y="11.15">2-enoyl</tspan><tspan x="0" y="22.3">-Co</tspan><tspan x="14.97" y="22.3">A</tspan></text><text class="cls-11" transform="translate(926.84 427.51) scale(1.15 1)">trans-But-<tspan x="0" y="11.15">2-enoyl-Co</tspan><tspan x="45.46" y="11.15">A</tspan></text><text class="cls-11" transform="translate(157.81 484.02) scale(1.15 1)">(S)-3-<tspan x="0" y="11.15">Hydroxy-</tspan><tspan x="0" y="22.3">hexa-</tspan><tspan x="0" y="33.46">decanoyl-</tspan><tspan x="0" y="44.61">Co</tspan><tspan x="11.88" y="44.61">A</tspan></text><text class="cls-11" transform="translate(284.93 484.02) scale(1.15 1)">(S)-3-<tspan x="0" y="11.15">Hydroxy-</tspan><tspan x="0" y="22.3">tetra-</tspan><tspan x="0" y="33.46">decanoyl-</tspan><tspan x="0" y="44.61">Co</tspan><tspan x="11.88" y="44.61">A</tspan></text><text class="cls-11" transform="translate(413.05 488.04) scale(1.15 1)">(S)-3-<tspan x="0" y="11.15">Hydroxy-</tspan><tspan x="0" y="22.3">dodecanoyl-</tspan><tspan x="0" y="33.46">Co</tspan><tspan x="11.88" y="33.46">A</tspan></text><text class="cls-11" transform="translate(542.05 488.04) scale(1.15 1)">(S)-3-<tspan x="0" y="11.15">Hydroxy-</tspan><tspan x="0" y="22.3">decanoyl-</tspan><tspan x="0" y="33.46">Co</tspan><tspan x="11.88" y="33.46">A</tspan></text><text class="cls-11" transform="translate(798.75 488.04) scale(1.15 1)">(S)-3-<tspan x="0" y="11.15">Hydroxy-</tspan><tspan x="0" y="22.3">hexanoyl-</tspan><tspan x="0" y="33.46">Co</tspan><tspan x="11.88" y="33.46">A</tspan></text><text class="cls-11" transform="translate(926.84 499.63) scale(1.15 1)">(S)-3-Hydroxy-<tspan x="0" y="11.15">butanoyl-Co</tspan><tspan x="50.11" y="11.15">A</tspan></text><text class="cls-11" transform="translate(670.23 488.04) scale(1.15 1)">(S)-3-<tspan x="0" y="11.15">Hydroxy-</tspan><tspan x="0" y="22.3">octanoyl-</tspan><tspan x="0" y="33.46">Co</tspan><tspan x="11.88" y="33.46">A</tspan></text><text class="cls-11" transform="translate(157.81 570.19) scale(1.15 1)">3-Oxo-<tspan x="0" y="11.15">hexa-</tspan><tspan x="0" y="22.3">decanoyl-</tspan><tspan x="0" y="33.46">Co</tspan><tspan x="11.88" y="33.46">A</tspan></text><text class="cls-11" transform="translate(542.05 571.83) scale(1.15 1)">3-Oxo-<tspan x="0" y="11.15">decanoyl-</tspan><tspan x="0" y="22.3">Co</tspan><tspan x="11.88" y="22.3">A</tspan></text><text class="cls-11" transform="translate(800.67 574.2) scale(1.15 1)">3-Oxo-<tspan x="0" y="11.15">hexanoyl-</tspan><tspan x="0" y="22.3">Co</tspan><tspan x="11.88" y="22.3">A</tspan></text><text class="cls-11" transform="translate(926.84 574.33) scale(1.15 1)">Acetoacetyl-Co<tspan x="63.02" y="0">A</tspan></text><text class="cls-11" transform="translate(413.05 574.21) scale(1.15 1)">3-Oxo-<tspan x="0" y="11.15">dodecanoyl-</tspan><tspan x="0" y="22.3">Co</tspan><tspan x="11.88" y="22.3">A</tspan></text><text class="cls-11" transform="translate(282.87 570.19) scale(1.15 1)">3-Oxo-<tspan x="0" y="11.15">tetra-</tspan><tspan x="0" y="22.3">decanoyl-</tspan><tspan x="0" y="33.46">Co</tspan><tspan x="11.88" y="33.46">A</tspan></text><text class="cls-8" transform="translate(154.6 206.03)">Hexadecanoyl-Co<tspan x="95.38" y="0">A</tspan></text><text class="cls-8" transform="translate(56.16 140.52)">Hexadecanoate<tspan x="0" y="14.4">(Fatty acid)</tspan></text><text class="cls-8" transform="translate(229.62 162.49)">16-Hexadecanal</text><text class="cls-8" transform="translate(375.7 143.74)">16-Hexadecanol</text><g id="Rec"><rect class="cls-13" x="1027.33" y="56.87" width="83.65" height="20.31"/><text class="cls-14" transform="translate(1051.48 71.11) scale(1.05 1)">KEGG</text></g><g id="Rec-2" data-name="Rec"><rect class="cls-13" x="1027.33" y="89.64" width="83.65" height="20.31"/><text class="cls-14" transform="translate(1056.95 103.88) scale(1.05 1)">RN<tspan x="18.01" y="0">A</tspan></text></g><g id="Rec-3" data-name="Rec"><rect class="cls-13" x="1027.33" y="124" width="83.65" height="20.31"/><text class="cls-14" transform="translate(1045.27 138.24) scale(1.05 1)">Genome</text></g><rect class="cls-15" x="990.22" y="54.9" width="23.27" height="24.25"/><rect class="cls-16" x="990.22" y="87.66" width="23.27" height="24.25"/><rect class="cls-17" x="990.22" y="122.03" width="23.27" height="24.25"/><rect class="cls-13" x="974.86" y="40.72" width="157.42" height="120.63"/><g id="Round"><rect class="cls-13" x="992.39" y="770.94" width="141.5" height="26.5" rx="12" ry="12"/><text class="cls-18" transform="translate(1000.62 788.74) scale(0.94 1)">Butonoate metabolism</text></g><g id="Round-2" data-name="Round"><rect class="cls-13" x="998.77" y="728.25" width="128.75" height="37.06" rx="12" ry="12"/><text class="cls-18" transform="translate(1006.99 746.05) scale(0.94 1)">Alanine and aspartate<tspan x="0" y="15.11">metabolism</tspan></text></g><g id="Round-3" data-name="Round"><rect class="cls-13" x="977.53" y="606.41" width="152.08" height="39.74" rx="12" ry="12"/><text class="cls-18" transform="translate(985.75 624.21) scale(0.94 1)">Synthesis and degradation<tspan x="0" y="15.11">of ketone bodies</tspan></text></g><g id="Round-4" data-name="Round"><rect class="cls-13" x="246.27" y="63.69" width="124.31" height="24.81" rx="12" ry="12"/><text class="cls-18" transform="translate(254.49 81.49) scale(0.94 1)">Fatty acid elongation</text></g><g id="Round-5" data-name="Round"><rect class="cls-13" x="243.06" y="91.23" width="140.83" height="24.81" rx="12" ry="12"/><text class="cls-18" transform="translate(251.29 109.03) scale(0.94 1)">Glycerolipid metabolism</text></g><g id="Round-6" data-name="Round"><rect class="cls-13" x="107.67" y="56.51" width="83.16" height="39.17" rx="12" ry="12"/><text class="cls-18" transform="translate(115.9 74.31) scale(0.94 1)">Fatty acid<tspan x="0" y="15.11">biosynthesis</tspan></text></g><g id="Round-7" data-name="Round"><rect class="cls-13" x="879.02" y="810.17" width="83.46" height="26.5" rx="12" ry="12"/><text class="cls-18" transform="translate(887.24 827.97) scale(0.94 1)">Citrate cycle</text></g><text class="cls-8" transform="translate(850.69 744.91) scale(0.97 1)">Acetyl-Co<tspan x="52.01" y="0">A</tspan></text><text class="cls-8" transform="translate(288.29 740.5) scale(0.97 1)">Long-chain-fatty acid</text><text class="cls-8" transform="translate(549.47 740.5) scale(0.97 1)">Long-chain acyl -[acyl-carrier protein]</text><text class="cls-8" transform="translate(444.84 766.34) scale(0.97 1)">[acyl-carrier protein]</text><text class="cls-8" transform="translate(235.18 789.2) scale(0.97 1)">cis,cis-3,6-Docecadienoyl-Co<tspan x="155.39" y="0">A</tspan></text><text class="cls-8" transform="translate(251.29 814.92) scale(0.97 1)">(R)-3-Hydroxybutanoyl-Co<tspan x="140.04" y="0">A</tspan></text><text class="cls-8" transform="translate(375.7 863.83) scale(0.97 1)">1-Alcohol</text><text class="cls-8" transform="translate(587.3 853.83) scale(0.97 1)">Fatty acid</text><text class="cls-8" transform="translate(722.09 880.36) scale(0.97 1)">ω-Hydroxy fatty acid</text><text class="cls-8" transform="translate(722.09 912.93) scale(0.97 1)">ά-Hydroxy fatty acid</text><text class="cls-8" transform="translate(232.63 879.36) scale(0.97 1)">Alkane</text><text class="cls-8" transform="translate(204.82 912.04) scale(0.97 1)">Rubredoxin (red)</text><text class="cls-8" transform="translate(388.29 912.93) scale(0.97 1)">Rubredoxin (ox)</text><text class="cls-8" transform="translate(549.47 816.68) scale(0.97 1)">(S)-3-Hydroxybutanoyl-Co<tspan x="139.38" y="0">A</tspan></text><text class="cls-8" transform="translate(549.47 790.39) scale(0.97 1)">trans,cis-Lauro-2,6dienoyl-Co<tspan x="157.41" y="0">A</tspan></text><line class="cls-19" x1="1055.43" y1="583.27" x2="929.48" y2="582.94"/><polygon class="cls-20" points="923.34 583.18 930.35 579 930.33 587.38 923.34 583.18"/><line class="cls-19" x1="923.34" y1="740.88" x2="992.21" y2="741.07"/><polygon class="cls-20" points="998.05 740.84 991.35 745.01 991.37 736.64 998.05 740.84"/><line class="cls-19" x1="920.2" y1="784.25" x2="985.79" y2="784.44"/><polygon class="cls-20" points="991.35 784.2 984.98 788.38 984.99 780 991.35 784.2"/><rect class="cls-21" x="572.25" y="858.8" width="17.16" height="16.45"/><rect class="cls-22" x="538.06" y="858.8" width="17.16" height="16.45"/><rect class="cls-23" x="555.21" y="858.8" width="17.16" height="16.45"/><rect class="cls-21" x="469.21" y="858.8" width="17.16" height="16.45"/><rect class="cls-22" x="435.01" y="858.8" width="17.16" height="16.45"/><rect class="cls-23" x="452.17" y="858.8" width="17.16" height="16.45"/><rect class="cls-21" x="190.59" y="614.65" width="17.16" height="16.45"/><rect class="cls-22" x="156.39" y="614.65" width="17.16" height="16.45"/><rect class="cls-23" x="173.55" y="614.65" width="17.16" height="16.45"/><rect class="cls-21" x="319.21" y="614.36" width="17.16" height="16.45"/><rect class="cls-22" x="285.01" y="614.36" width="17.16" height="16.45"/><rect class="cls-23" x="302.17" y="614.36" width="17.16" height="16.45"/><rect class="cls-21" x="449.54" y="615.98" width="17.16" height="16.45"/><rect class="cls-22" x="415.34" y="615.98" width="17.16" height="16.45"/><rect class="cls-23" x="432.5" y="615.98" width="17.16" height="16.45"/><rect class="cls-21" x="704.31" y="613.36" width="17.16" height="16.45"/><rect class="cls-22" x="670.11" y="613.36" width="17.16" height="16.45"/><rect class="cls-23" x="687.27" y="613.36" width="17.16" height="16.45"/><rect class="cls-21" x="575.09" y="614.36" width="17.16" height="16.45"/><rect class="cls-22" x="540.89" y="614.36" width="17.16" height="16.45"/><rect class="cls-23" x="558.05" y="614.36" width="17.16" height="16.45"/><rect class="cls-21" x="833.53" y="623.98" width="17.16" height="16.45"/><rect class="cls-22" x="799.33" y="623.98" width="17.16" height="16.45"/><rect class="cls-23" x="816.49" y="623.98" width="17.16" height="16.45"/><rect class="cls-21" x="898.05" y="337.36" width="17.16" height="16.45"/><rect class="cls-22" x="863.85" y="337.36" width="17.16" height="16.45"/><rect class="cls-23" x="881.01" y="337.36" width="17.16" height="16.45"/><rect class="cls-21" x="829.7" y="340.69" width="17.16" height="16.45"/><rect class="cls-22" x="795.5" y="340.69" width="17.16" height="16.45"/><rect class="cls-23" x="812.66" y="340.69" width="17.16" height="16.45"/><rect class="cls-21" x="641.4" y="338.86" width="17.16" height="16.45"/><rect class="cls-22" x="607.2" y="338.86" width="17.16" height="16.45"/><rect class="cls-23" x="624.36" y="338.86" width="17.16" height="16.45"/><rect class="cls-21" x="512.84" y="338.86" width="17.16" height="16.45"/><rect class="cls-22" x="478.64" y="338.86" width="17.16" height="16.45"/><rect class="cls-23" x="495.8" y="338.86" width="17.16" height="16.45"/><rect class="cls-21" x="385.27" y="339.54" width="17.16" height="16.45"/><rect class="cls-22" x="351.07" y="339.54" width="17.16" height="16.45"/><rect class="cls-23" x="368.23" y="339.54" width="17.16" height="16.45"/><rect class="cls-21" x="256.1" y="339.54" width="17.16" height="16.45"/><rect class="cls-22" x="221.9" y="339.54" width="17.16" height="16.45"/><rect class="cls-23" x="239.06" y="339.54" width="17.16" height="16.45"/><rect class="cls-21" x="126.92" y="338.86" width="17.16" height="16.45"/><rect class="cls-22" x="92.73" y="338.86" width="17.16" height="16.45"/><rect class="cls-23" x="109.88" y="338.86" width="17.16" height="16.45"/><rect class="cls-21" x="157.02" y="164.37" width="17.16" height="16.45"/><rect class="cls-22" x="122.82" y="164.37" width="17.16" height="16.45"/><rect class="cls-23" x="139.98" y="164.37" width="17.16" height="16.45"/><rect class="cls-22" x="927.75" y="532" width="17.16" height="16.45"/><rect class="cls-22" x="893.55" y="532" width="17.16" height="16.45"/><rect class="cls-22" x="910.71" y="532" width="17.16" height="16.45"/><rect class="cls-22" x="828.95" y="537.86" width="17.16" height="16.45"/><rect class="cls-22" x="794.76" y="537.86" width="17.16" height="16.45"/><rect class="cls-22" x="811.91" y="537.86" width="17.16" height="16.45"/><rect class="cls-22" x="768.43" y="537.19" width="17.16" height="16.45"/><rect class="cls-22" x="734.23" y="537.19" width="17.16" height="16.45"/><rect class="cls-22" x="751.39" y="537.19" width="17.16" height="16.45"/><rect class="cls-22" x="700.49" y="537.86" width="17.16" height="16.45"/><rect class="cls-22" x="666.29" y="537.86" width="17.16" height="16.45"/><rect class="cls-22" x="683.45" y="537.86" width="17.16" height="16.45"/><rect class="cls-22" x="641.45" y="537.19" width="17.16" height="16.45"/><rect class="cls-22" x="607.26" y="537.19" width="17.16" height="16.45"/><rect class="cls-22" x="624.41" y="537.19" width="17.16" height="16.45"/><rect class="cls-22" x="572.25" y="537.19" width="17.16" height="16.45"/><rect class="cls-22" x="538.06" y="537.19" width="17.16" height="16.45"/><rect class="cls-22" x="555.21" y="537.19" width="17.16" height="16.45"/><rect class="cls-22" x="513.47" y="537.19" width="17.16" height="16.45"/><rect class="cls-22" x="479.27" y="537.19" width="17.16" height="16.45"/><rect class="cls-22" x="496.43" y="537.19" width="17.16" height="16.45"/><rect class="cls-22" x="443.25" y="537.19" width="17.16" height="16.45"/><rect class="cls-22" x="409.06" y="537.19" width="17.16" height="16.45"/><rect class="cls-22" x="426.21" y="537.19" width="17.16" height="16.45"/><rect class="cls-22" x="384.22" y="537.19" width="17.16" height="16.45"/><rect class="cls-22" x="350.02" y="537.19" width="17.16" height="16.45"/><rect class="cls-22" x="367.18" y="537.19" width="17.16" height="16.45"/><rect class="cls-22" x="314.97" y="537.21" width="17.16" height="16.45"/><rect class="cls-22" x="280.77" y="537.21" width="17.16" height="16.45"/><rect class="cls-22" x="297.93" y="537.21" width="17.16" height="16.45"/><rect class="cls-22" x="255.79" y="537.19" width="17.16" height="16.45"/><rect class="cls-22" x="221.59" y="537.19" width="17.16" height="16.45"/><rect class="cls-22" x="238.74" y="537.19" width="17.16" height="16.45"/><rect class="cls-22" x="185.96" y="537.19" width="17.16" height="16.45"/><rect class="cls-22" x="151.76" y="537.19" width="17.16" height="16.45"/><rect class="cls-22" x="168.92" y="537.19" width="17.16" height="16.45"/><rect class="cls-22" x="126.98" y="535.59" width="17.16" height="16.45"/><rect class="cls-22" x="92.78" y="535.59" width="17.16" height="16.45"/><rect class="cls-22" x="109.94" y="535.59" width="17.16" height="16.45"/><rect class="cls-24" x="157.02" y="164.37" width="17.16" height="16.45"/><rect class="cls-25" x="122.82" y="164.37" width="17.16" height="16.45"/><rect class="cls-26" x="139.98" y="164.37" width="17.16" height="16.45"/><g id="Rec-4" data-name="Rec"><rect class="cls-13" x="282.41" y="132.17" width="52.02" height="16.49"/><text class="cls-8" transform="translate(283.64 143.74)">1.1.1.192</text></g><g id="Rec-5" data-name="Rec"><rect class="cls-13" x="181.25" y="132.17" width="52.02" height="16.49"/><text class="cls-8" transform="translate(185.81 143.74)">1.2.1.48</text></g><g id="Rec-6" data-name="Rec"><rect class="cls-13" x="123.24" y="224.21" width="52.02" height="16.49"/><text class="cls-8" transform="translate(134.15 235.78)">CPT1</text></g><g id="Rec-7" data-name="Rec"><rect class="cls-13" x="122.99" y="164.44" width="52.02" height="16.49"/><text class="cls-8" transform="translate(130.89 176.01)">6.2.1.3</text></g><text x="-62.4" y="-10.4"/><text x="-62.4" y="-10.4"/><circle class="cls-13" cx="148.25" cy="324.23" r="4.09"/><circle class="cls-13" cx="148.25" cy="415.06" r="4.09"/><circle class="cls-13" cx="148.25" cy="500.95" r="4.09"/><circle class="cls-13" cx="148.25" cy="585.68" r="4.09"/><circle class="cls-13" cx="148.25" cy="654.38" r="4.09"/><g id="Rec-8" data-name="Rec"><rect class="cls-13" x="151.49" y="338.84" width="52.02" height="16.49"/><text class="cls-8" transform="translate(157.39 350.41)">1.3.99.-</text></g><g id="Rec-9" data-name="Rec"><rect class="cls-13" x="155.81" y="614.42" width="52.02" height="16.49"/><text class="cls-8" transform="translate(160.37 625.99)">2.3.1.16</text></g><g id="Rec-10" data-name="Rec"><rect class="cls-13" x="151.49" y="537.16" width="52.02" height="16.49"/><text class="cls-8" transform="translate(153.15 548.73)">1.1.1.2<tspan x="36.7" y="0">1</tspan><tspan x="42.48" y="0">1</tspan></text></g><g id="Rec-11" data-name="Rec"><rect class="cls-13" x="92.45" y="537.16" width="52.02" height="16.49"/><text class="cls-8" transform="translate(97.01 548.73)">1.1.1.35</text></g><g id="Rec-12" data-name="Rec"><rect class="cls-13" x="151.98" y="452.47" width="52.02" height="16.49"/><text class="cls-8" transform="translate(156.55 464.04)">4.2.1.74</text></g><g id="Rec-13" data-name="Rec"><rect class="cls-13" x="92.7" y="453.47" width="52.02" height="16.49"/><text class="cls-8" transform="translate(97.26 465.04)">4.2.1.17</text></g><g id="Rec-14" data-name="Rec"><rect class="cls-13" x="122.24" y="378.21" width="52.02" height="16.49"/><text class="cls-8" transform="translate(130.14 389.78)">1.3.8.9</text></g><g id="Rec-15" data-name="Rec"><rect class="cls-13" x="151.73" y="356.68" width="52.02" height="16.49"/><text class="cls-8" transform="translate(159.64 368.25)">1.3.8.8</text></g><g id="Rec-16" data-name="Rec"><rect class="cls-13" x="92.45" y="356.68" width="52.02" height="16.49"/><text class="cls-8" transform="translate(100.35 368.25)">1.3.8.7</text></g><g id="Rec-17" data-name="Rec"><rect class="cls-13" x="92.45" y="338.84" width="52.02" height="16.49"/><text class="cls-8" transform="translate(100.35 350.41)">1.3.3.6</text></g><g id="Rec-18" data-name="Rec"><rect class="cls-13" x="123.49" y="283.99" width="52.02" height="16.49"/><text class="cls-8" transform="translate(134.4 295.56)">CPT2</text></g><polygon class="cls-20" points="148.14 418.98 152.32 428.61 143.94 428.6 148.14 418.98"/><line class="cls-19" x1="148.13" y1="423.79" x2="148.13" y2="484.02"/><polygon class="cls-20" points="148.36 492.07 144.19 484.02 152.56 484.04 148.36 492.07"/><polygon class="cls-20" points="148.14 505.15 152.32 514.78 143.94 514.76 148.14 505.15"/><line class="cls-19" x1="148.13" y1="509.96" x2="148.13" y2="570.19"/><polygon class="cls-20" points="148.36 578.24 144.19 570.19 152.56 570.21 148.36 578.24"/><line class="cls-19" x1="148.28" y1="395.7" x2="148.28" y2="404.2"/><line class="cls-19" x1="147.93" y1="331.21" x2="147.93" y2="378.21"/><polygon class="cls-20" points="148.12 408.29 144.35 400.38 151.91 400.4 148.12 408.29"/><path class="cls-13" d="M210.88,651.22c0.89-5.57-6.68-16.48,7.29-18.56-0.66,0-1.31-.05-2-0.07,0.68,0,1.3,0,2,.07" transform="translate(-62.4 -10.4)"/><path class="cls-13" d="M209.44,609.26c0.67,7.11-4.43,21.1,5.19,23.61-0.46,0-.9.08-1.35,0.11a7.74,7.74,0,0,0,1.35-.11" transform="translate(-62.4 -10.4)"/><path class="cls-13" d="M279.48,684c-0.94-15.74,7-46.67-7.66-52.35,0.69,0,1.37-.17,2.06-0.22a8.2,8.2,0,0,0-2.06.22" transform="translate(-62.4 -10.4)"/><path class="cls-13" d="M281,609.26c-1.15,6.8,8.16,20.19-9.19,22.62,0.82,0,1.63.08,2.45,0.1-0.85,0-1.61,0-2.45-.1" transform="translate(-62.4 -10.4)"/><polygon class="cls-20" points="147.21 590.84 151.4 598.87 143.02 598.88 147.21 590.84"/><polygon class="cls-20" points="148.49 645.99 144.31 637.94 152.69 637.96 148.49 645.99"/><text class="cls-8" transform="translate(114.44 661.39) scale(0.97 1)">Co<tspan x="15.34" y="0">A</tspan></text><line class="cls-19" x1="218.53" y1="306.14" x2="218.65" y2="600.94"/><path class="cls-13" d="M307.84,309.35c8.41,1.19,24.93-8.56,28,9.56,0-.86.09-1.7,0.12-2.55a23.13,23.13,0,0,1-.12,2.55" transform="translate(-62.4 -10.4)"/><path class="cls-13" d="M309.49,309.33c-8.53,1.19-25.3-8.55-28.37,9.57,0-.86-0.09-1.7-0.12-2.55a22.8,22.8,0,0,0,.12,2.55" transform="translate(-62.4 -10.4)"/><polygon class="cls-20" points="273.51 316.42 269.74 308.51 277.3 308.53 273.51 316.42"/><path class="cls-13" d="M297.59,691.18c-5.55-1-16.63,6.31-18.39-7.7,0,0.66-.08,1.31-0.11,2,0-.68.05-1.3,0.11-2" transform="translate(-62.4 -10.4)"/><circle class="cls-13" cx="276.87" cy="324.23" r="4.09"/><circle class="cls-13" cx="276.87" cy="415.06" r="4.09"/><circle class="cls-13" cx="276.87" cy="500.95" r="4.09"/><circle class="cls-13" cx="276.87" cy="585.68" r="4.09"/><circle class="cls-13" cx="276.87" cy="654.38" r="4.09"/><g id="Rec-19" data-name="Rec"><rect class="cls-13" x="280.1" y="338.84" width="52.02" height="16.49"/><text class="cls-8" transform="translate(286.01 350.41)">1.3.99.-</text></g><g id="Rec-20" data-name="Rec"><rect class="cls-13" x="284.43" y="614.42" width="52.02" height="16.49"/><text class="cls-8" transform="translate(288.99 625.99)">2.3.1.16</text></g><g id="Rec-21" data-name="Rec"><rect class="cls-13" x="280.1" y="537.16" width="52.02" height="16.49"/><text class="cls-8" transform="translate(281.77 548.73)">1.1.1.2<tspan x="36.7" y="0">1</tspan><tspan x="42.48" y="0">1</tspan></text></g><g id="Rec-22" data-name="Rec"><rect class="cls-13" x="221.07" y="537.16" width="52.02" height="16.49"/><text class="cls-8" transform="translate(225.63 548.73)">1.1.1.35</text></g><g id="Rec-23" data-name="Rec"><rect class="cls-13" x="280.6" y="452.47" width="52.02" height="16.49"/><text class="cls-8" transform="translate(285.16 464.04)">4.2.1.74</text></g><g id="Rec-24" data-name="Rec"><rect class="cls-13" x="221.32" y="453.47" width="52.02" height="16.49"/><text class="cls-8" transform="translate(225.88 465.04)">4.2.1.17</text></g><g id="Rec-25" data-name="Rec"><rect class="cls-13" x="250.86" y="378.21" width="52.02" height="16.49"/><text class="cls-8" transform="translate(258.76 389.78)">1.3.8.9</text></g><g id="Rec-26" data-name="Rec"><rect class="cls-13" x="280.35" y="356.68" width="52.02" height="16.49"/><text class="cls-8" transform="translate(288.25 368.25)">1.3.8.8</text></g><g id="Rec-27" data-name="Rec"><rect class="cls-13" x="221.07" y="356.68" width="52.02" height="16.49"/><text class="cls-8" transform="translate(228.97 368.25)">1.3.8.7</text></g><g id="Rec-28" data-name="Rec"><rect class="cls-13" x="221.07" y="338.84" width="52.02" height="16.49"/><text class="cls-8" transform="translate(228.97 350.41)">1.3.3.6</text></g><polygon class="cls-20" points="276.76 418.98 280.94 428.61 272.56 428.6 276.76 418.98"/><line class="cls-19" x1="276.75" y1="423.79" x2="276.75" y2="484.02"/><polygon class="cls-20" points="276.98 492.07 272.8 484.02 281.18 484.04 276.98 492.07"/><polygon class="cls-20" points="276.76 505.15 280.94 514.78 272.56 514.76 276.76 505.15"/><line class="cls-19" x1="276.75" y1="509.96" x2="276.75" y2="570.19"/><polygon class="cls-20" points="276.98 578.24 272.8 570.19 281.18 570.21 276.98 578.24"/><line class="cls-19" x1="276.9" y1="395.7" x2="276.9" y2="404.2"/><line class="cls-19" x1="276.55" y1="331.21" x2="276.55" y2="378.21"/><polygon class="cls-20" points="276.74 408.29 272.97 400.38 280.53 400.4 276.74 408.29"/><path class="cls-13" d="M339.5,651.22c0.89-5.57-6.68-16.48,7.29-18.56-0.66,0-1.31-.05-2-0.07,0.68,0,1.3,0,2,.07" transform="translate(-62.4 -10.4)"/><path class="cls-13" d="M338.06,609.26c0.67,7.11-4.43,21.1,5.19,23.61-0.46,0-.9.08-1.35,0.11a7.74,7.74,0,0,0,1.35-.11" transform="translate(-62.4 -10.4)"/><path class="cls-13" d="M408.1,684c-0.94-15.74,7-46.67-7.66-52.35,0.69,0,1.37-.17,2.06-0.22a8.2,8.2,0,0,0-2.06.22" transform="translate(-62.4 -10.4)"/><path class="cls-13" d="M409.61,609.26c-1.15,6.8,8.16,20.19-9.19,22.62,0.82,0,1.63.08,2.45,0.1-0.85,0-1.61,0-2.45-.1" transform="translate(-62.4 -10.4)"/><polygon class="cls-20" points="275.82 590.84 280.02 598.87 271.64 598.88 275.82 590.84"/><polygon class="cls-20" points="277.11 645.99 272.93 637.94 281.31 637.96 277.11 645.99"/><text class="cls-8" transform="translate(243.06 661.39) scale(0.97 1)">Co<tspan x="15.34" y="0">A</tspan></text><line class="cls-19" x1="347.15" y1="306.14" x2="347.27" y2="600.94"/><path class="cls-13" d="M436.46,309.35c8.41,1.19,24.93-8.56,28,9.56,0-.86.09-1.7,0.12-2.55a23.13,23.13,0,0,1-.12,2.55" transform="translate(-62.4 -10.4)"/><path class="cls-13" d="M438.11,309.33c-8.53,1.19-25.3-8.55-28.37,9.57,0-.86-0.09-1.7-0.12-2.55a22.8,22.8,0,0,0,.12,2.55" transform="translate(-62.4 -10.4)"/><polygon class="cls-20" points="402.13 316.42 398.36 308.51 405.91 308.53 402.13 316.42"/><path class="cls-13" d="M426.2,691.18c-5.55-1-16.63,6.31-18.39-7.7,0,0.66-.08,1.31-0.11,2,0-.68.05-1.3,0.11-2" transform="translate(-62.4 -10.4)"/><circle class="cls-13" cx="405.49" cy="324.23" r="4.09"/><circle class="cls-13" cx="405.49" cy="415.06" r="4.09"/><circle class="cls-13" cx="405.49" cy="500.95" r="4.09"/><circle class="cls-13" cx="405.49" cy="585.68" r="4.09"/><circle class="cls-13" cx="405.49" cy="654.38" r="4.09"/><g id="Rec-29" data-name="Rec"><rect class="cls-13" x="408.72" y="338.84" width="52.02" height="16.49"/><text class="cls-8" transform="translate(414.62 350.41)">1.3.99.-</text></g><g id="Rec-30" data-name="Rec"><rect class="cls-13" x="413.05" y="614.42" width="52.02" height="16.49"/><text class="cls-8" transform="translate(417.61 625.99)">2.3.1.16</text></g><g id="Rec-31" data-name="Rec"><rect class="cls-13" x="408.72" y="537.16" width="52.02" height="16.49"/><text class="cls-8" transform="translate(410.39 548.73)">1.1.1.2<tspan x="36.7" y="0">1</tspan><tspan x="42.48" y="0">1</tspan></text></g><g id="Rec-32" data-name="Rec"><rect class="cls-13" x="349.69" y="537.16" width="52.02" height="16.49"/><text class="cls-8" transform="translate(354.25 548.73)">1.1.1.35</text></g><g id="Rec-33" data-name="Rec"><rect class="cls-13" x="409.22" y="452.47" width="52.02" height="16.49"/><text class="cls-8" transform="translate(413.78 464.04)">4.2.1.74</text></g><g id="Rec-34" data-name="Rec"><rect class="cls-13" x="349.94" y="453.47" width="52.02" height="16.49"/><text class="cls-8" transform="translate(354.5 465.04)">4.2.1.17</text></g><g id="Rec-35" data-name="Rec"><rect class="cls-13" x="408.97" y="356.68" width="52.02" height="16.49"/><text class="cls-8" transform="translate(416.87 368.25)">1.3.8.8</text></g><g id="Rec-36" data-name="Rec"><rect class="cls-13" x="349.69" y="356.68" width="52.02" height="16.49"/><text class="cls-8" transform="translate(357.59 368.25)">1.3.8.7</text></g><g id="Rec-37" data-name="Rec"><rect class="cls-13" x="349.69" y="338.84" width="52.02" height="16.49"/><text class="cls-8" transform="translate(357.59 350.41)">1.3.3.6</text></g><polygon class="cls-20" points="405.38 418.98 409.55 428.61 401.18 428.6 405.38 418.98"/><line class="cls-19" x1="405.37" y1="423.79" x2="405.37" y2="484.02"/><polygon class="cls-20" points="405.6 492.07 401.42 484.02 409.8 484.04 405.6 492.07"/><polygon class="cls-20" points="405.38 505.15 409.55 514.78 401.18 514.76 405.38 505.15"/><line class="cls-19" x1="405.37" y1="509.96" x2="405.37" y2="570.19"/><polygon class="cls-20" points="405.6 578.24 401.42 570.19 409.8 570.21 405.6 578.24"/><line class="cls-19" x1="405.52" y1="395.7" x2="405.52" y2="404.2"/><line class="cls-19" x1="405.17" y1="331.21" x2="405.52" y2="395.7"/><polygon class="cls-20" points="405.36 408.29 401.59 400.38 409.14 400.4 405.36 408.29"/><path class="cls-13" d="M468.11,651.22c0.89-5.57-6.68-16.48,7.29-18.56-0.66,0-1.31-.05-2-0.07,0.68,0,1.3,0,2,.07" transform="translate(-62.4 -10.4)"/><path class="cls-13" d="M466.68,609.26c0.67,7.11-4.43,21.1,5.19,23.61-0.46,0-.9.08-1.35,0.11a7.74,7.74,0,0,0,1.35-.11" transform="translate(-62.4 -10.4)"/><path class="cls-13" d="M536.72,684c-0.94-15.74,7-46.67-7.66-52.35,0.69,0,1.37-.17,2.06-0.22a8.2,8.2,0,0,0-2.06.22" transform="translate(-62.4 -10.4)"/><path class="cls-13" d="M538.23,609.26c-1.15,6.8,8.16,20.19-9.19,22.62,0.82,0,1.63.08,2.45,0.1-0.85,0-1.61,0-2.45-.1" transform="translate(-62.4 -10.4)"/><polygon class="cls-20" points="404.44 590.84 408.64 598.87 400.26 598.88 404.44 590.84"/><polygon class="cls-20" points="405.73 645.99 401.55 637.94 409.93 637.96 405.73 645.99"/><text class="cls-8" transform="translate(371.68 661.39) scale(0.97 1)">Co<tspan x="15.34" y="0">A</tspan></text><line class="cls-19" x1="475.77" y1="306.14" x2="475.89" y2="600.94"/><path class="cls-13" d="M565.07,309.35c8.41,1.19,24.93-8.56,28,9.56,0-.86.09-1.7,0.12-2.55a23.13,23.13,0,0,1-.12,2.55" transform="translate(-62.4 -10.4)"/><path class="cls-13" d="M566.73,309.33c-8.53,1.19-25.3-8.55-28.37,9.57,0-.86-0.09-1.7-0.12-2.55a22.8,22.8,0,0,0,.12,2.55" transform="translate(-62.4 -10.4)"/><polygon class="cls-20" points="530.75 316.42 526.97 308.51 534.53 308.53 530.75 316.42"/><path class="cls-13" d="M554.82,691.18c-5.55-1-16.63,6.31-18.39-7.7,0,0.66-.08,1.31-0.11,2,0-.68.05-1.3,0.11-2" transform="translate(-62.4 -10.4)"/><circle class="cls-13" cx="534.49" cy="324.23" r="4.09"/><circle class="cls-13" cx="534.49" cy="415.06" r="4.09"/><circle class="cls-13" cx="534.49" cy="500.95" r="4.09"/><circle class="cls-13" cx="534.49" cy="585.68" r="4.09"/><circle class="cls-13" cx="534.49" cy="654.38" r="4.09"/><g id="Rec-38" data-name="Rec"><rect class="cls-13" x="537.72" y="338.84" width="52.02" height="16.49"/><text class="cls-8" transform="translate(543.62 350.41)">1.3.99.-</text></g><g id="Rec-39" data-name="Rec"><rect class="cls-13" x="542.05" y="614.42" width="52.02" height="16.49"/><text class="cls-8" transform="translate(546.61 625.99)">2.3.1.16</text></g><g id="Rec-40" data-name="Rec"><rect class="cls-13" x="537.72" y="537.16" width="52.02" height="16.49"/><text class="cls-8" transform="translate(539.39 548.73)">1.1.1.2<tspan x="36.7" y="0">1</tspan><tspan x="42.48" y="0">1</tspan></text></g><g id="Rec-41" data-name="Rec"><rect class="cls-13" x="478.69" y="537.16" width="52.02" height="16.49"/><text class="cls-8" transform="translate(483.25 548.73)">1.1.1.35</text></g><g id="Rec-42" data-name="Rec"><rect class="cls-13" x="538.22" y="452.47" width="52.02" height="16.49"/><text class="cls-8" transform="translate(542.78 464.04)">4.2.1.74</text></g><g id="Rec-43" data-name="Rec"><rect class="cls-13" x="478.94" y="453.47" width="52.02" height="16.49"/><text class="cls-8" transform="translate(483.5 465.04)">4.2.1.17</text></g><g id="Rec-44" data-name="Rec"><rect class="cls-13" x="537.97" y="356.68" width="52.02" height="16.49"/><text class="cls-8" transform="translate(545.87 368.25)">1.3.8.8</text></g><g id="Rec-45" data-name="Rec"><rect class="cls-13" x="478.69" y="356.68" width="52.02" height="16.49"/><text class="cls-8" transform="translate(486.59 368.25)">1.3.8.7</text></g><g id="Rec-46" data-name="Rec"><rect class="cls-13" x="478.69" y="338.84" width="52.02" height="16.49"/><text class="cls-8" transform="translate(486.59 350.41)">1.3.3.6</text></g><polygon class="cls-20" points="534.38 418.98 538.55 428.61 530.18 428.6 534.38 418.98"/><line class="cls-19" x1="534.37" y1="423.79" x2="534.37" y2="484.02"/><polygon class="cls-20" points="534.6 492.07 530.42 484.02 538.8 484.04 534.6 492.07"/><polygon class="cls-20" points="534.38 505.15 538.55 514.78 530.18 514.76 534.38 505.15"/><line class="cls-19" x1="534.37" y1="509.96" x2="534.37" y2="570.19"/><polygon class="cls-20" points="534.6 578.24 530.42 570.19 538.8 570.21 534.6 578.24"/><line class="cls-19" x1="534.52" y1="395.7" x2="534.52" y2="404.2"/><line class="cls-19" x1="534.17" y1="331.21" x2="534.52" y2="395.7"/><polygon class="cls-20" points="534.36 408.29 530.59 400.38 538.14 400.4 534.36 408.29"/><path class="cls-13" d="M597.11,651.22c0.89-5.57-6.68-16.48,7.29-18.56-0.66,0-1.31-.05-2-0.07,0.68,0,1.3,0,2,.07" transform="translate(-62.4 -10.4)"/><path class="cls-13" d="M595.68,609.26c0.67,7.11-4.43,21.1,5.19,23.61-0.46,0-.9.08-1.35,0.11a7.74,7.74,0,0,0,1.35-.11" transform="translate(-62.4 -10.4)"/><path class="cls-13" d="M665.72,684c-0.94-15.74,7-46.67-7.66-52.35,0.69,0,1.37-.17,2.06-0.22a8.2,8.2,0,0,0-2.06.22" transform="translate(-62.4 -10.4)"/><path class="cls-13" d="M667.23,609.26c-1.15,6.8,8.16,20.19-9.19,22.62,0.82,0,1.63.08,2.45,0.1-0.85,0-1.61,0-2.45-.1" transform="translate(-62.4 -10.4)"/><polygon class="cls-20" points="533.44 590.84 537.64 598.87 529.26 598.88 533.44 590.84"/><polygon class="cls-20" points="534.73 645.99 530.55 637.94 538.93 637.96 534.73 645.99"/><text class="cls-8" transform="translate(500.68 661.39) scale(0.97 1)">Co<tspan x="15.34" y="0">A</tspan></text><line class="cls-19" x1="604.77" y1="306.14" x2="604.89" y2="600.94"/><path class="cls-13" d="M694.07,309.35c8.41,1.19,24.93-8.56,28,9.56,0-.86.09-1.7,0.12-2.55a23.13,23.13,0,0,1-.12,2.55" transform="translate(-62.4 -10.4)"/><path class="cls-13" d="M695.73,309.33c-8.53,1.19-25.3-8.55-28.37,9.57,0-.86-0.09-1.7-0.12-2.55a22.8,22.8,0,0,0,.12,2.55" transform="translate(-62.4 -10.4)"/><polygon class="cls-20" points="659.75 316.42 655.97 308.51 663.53 308.53 659.75 316.42"/><path class="cls-13" d="M683.82,691.18c-5.55-1-16.63,6.31-18.39-7.7,0,0.66-.08,1.31-0.11,2,0-.68.05-1.3,0.11-2" transform="translate(-62.4 -10.4)"/><circle class="cls-13" cx="662.72" cy="324.23" r="4.09"/><circle class="cls-13" cx="662.72" cy="415.06" r="4.09"/><circle class="cls-13" cx="662.72" cy="500.95" r="4.09"/><circle class="cls-13" cx="662.72" cy="585.68" r="4.09"/><circle class="cls-13" cx="662.72" cy="654.38" r="4.09"/><g id="Rec-47" data-name="Rec"><rect class="cls-13" x="665.96" y="338.84" width="52.02" height="16.49"/><text class="cls-8" transform="translate(671.86 350.41)">1.3.99.-</text></g><g id="Rec-48" data-name="Rec"><rect class="cls-13" x="670.28" y="614.42" width="52.02" height="16.49"/><text class="cls-8" transform="translate(674.84 625.99)">2.3.1.16</text></g><g id="Rec-49" data-name="Rec"><rect class="cls-13" x="665.96" y="537.16" width="52.02" height="16.49"/><text class="cls-8" transform="translate(667.63 548.73)">1.1.1.2<tspan x="36.7" y="0">1</tspan><tspan x="42.48" y="0">1</tspan></text></g><g id="Rec-50" data-name="Rec"><rect class="cls-13" x="606.92" y="537.16" width="52.02" height="16.49"/><text class="cls-8" transform="translate(611.48 548.73)">1.1.1.35</text></g><g id="Rec-51" data-name="Rec"><rect class="cls-13" x="666.46" y="452.47" width="52.02" height="16.49"/><text class="cls-8" transform="translate(671.02 464.04)">4.2.1.74</text></g><g id="Rec-52" data-name="Rec"><rect class="cls-13" x="607.17" y="453.47" width="52.02" height="16.49"/><text class="cls-8" transform="translate(611.73 465.04)">4.2.1.17</text></g><g id="Rec-53" data-name="Rec"><rect class="cls-13" x="666.21" y="356.68" width="52.02" height="16.49"/><text class="cls-8" transform="translate(674.11 368.25)">1.3.8.8</text></g><g id="Rec-54" data-name="Rec"><rect class="cls-13" x="606.92" y="356.68" width="52.02" height="16.49"/><text class="cls-8" transform="translate(614.82 368.25)">1.3.8.7</text></g><g id="Rec-55" data-name="Rec"><rect class="cls-13" x="606.92" y="338.84" width="52.02" height="16.49"/><text class="cls-8" transform="translate(614.82 350.41)">1.3.3.6</text></g><polygon class="cls-20" points="662.61 418.98 666.79 428.61 658.41 428.6 662.61 418.98"/><line class="cls-19" x1="662.6" y1="423.79" x2="662.6" y2="484.02"/><polygon class="cls-20" points="662.84 492.07 658.66 484.02 667.04 484.04 662.84 492.07"/><polygon class="cls-20" points="662.61 505.15 666.79 514.78 658.41 514.76 662.61 505.15"/><line class="cls-19" x1="662.6" y1="509.96" x2="662.6" y2="570.19"/><polygon class="cls-20" points="662.84 578.24 658.66 570.19 667.04 570.21 662.84 578.24"/><line class="cls-19" x1="662.75" y1="395.7" x2="662.75" y2="404.2"/><line class="cls-19" x1="662.4" y1="331.21" x2="662.75" y2="395.7"/><polygon class="cls-20" points="662.59 408.29 658.82 400.38 666.38 400.4 662.59 408.29"/><path class="cls-13" d="M725.35,651.22c0.89-5.57-6.68-16.48,7.29-18.56-0.66,0-1.31-.05-2-0.07,0.68,0,1.3,0,2,.07" transform="translate(-62.4 -10.4)"/><path class="cls-13" d="M723.91,609.26c0.67,7.11-4.43,21.1,5.19,23.61-0.46,0-.9.08-1.35,0.11a7.74,7.74,0,0,0,1.35-.11" transform="translate(-62.4 -10.4)"/><path class="cls-13" d="M794,684c-0.94-15.74,7-46.67-7.66-52.35,0.69,0,1.37-.17,2.06-0.22a8.2,8.2,0,0,0-2.06.22" transform="translate(-62.4 -10.4)"/><path class="cls-13" d="M795.46,609.26c-1.15,6.8,8.16,20.19-9.19,22.62,0.82,0,1.63.08,2.45,0.1-0.85,0-1.61,0-2.45-.1" transform="translate(-62.4 -10.4)"/><polygon class="cls-20" points="661.68 590.84 665.87 598.87 657.5 598.88 661.68 590.84"/><polygon class="cls-20" points="662.96 645.99 658.78 637.94 667.16 637.96 662.96 645.99"/><text class="cls-8" transform="translate(628.92 661.39) scale(0.97 1)">Co<tspan x="15.34" y="0">A</tspan></text><line class="cls-19" x1="733" y1="306.14" x2="733.13" y2="600.94"/><path class="cls-13" d="M822.31,309.35c8.41,1.19,24.93-8.56,28,9.56,0-.86.09-1.7,0.12-2.55a23.13,23.13,0,0,1-.12,2.55" transform="translate(-62.4 -10.4)"/><path class="cls-13" d="M824,309.33c-8.53,1.19-25.3-8.55-28.37,9.57,0-.86-0.09-1.7-0.12-2.55a22.8,22.8,0,0,0,.12,2.55" transform="translate(-62.4 -10.4)"/><polygon class="cls-20" points="787.98 316.42 784.21 308.51 791.77 308.53 787.98 316.42"/><path class="cls-13" d="M812.06,691.18c-5.55-1-16.63,6.31-18.39-7.7,0,0.66-.08,1.31-0.11,2,0-.68.05-1.3,0.11-2" transform="translate(-62.4 -10.4)"/><circle class="cls-13" cx="791.19" cy="324.91" r="4.09"/><circle class="cls-13" cx="791.19" cy="415.73" r="4.09"/><circle class="cls-13" cx="791.19" cy="501.62" r="4.09"/><circle class="cls-13" cx="791.19" cy="586.35" r="4.09"/><circle class="cls-13" cx="791.19" cy="655.06" r="4.09"/><g id="Rec-56" data-name="Rec"><rect class="cls-13" x="794.42" y="339.52" width="52.02" height="16.49"/><text class="cls-8" transform="translate(802.32 351.09)">1.3.3.6</text></g><g id="Rec-57" data-name="Rec"><rect class="cls-13" x="798.75" y="623.09" width="52.02" height="16.49"/><text class="cls-8" transform="translate(803.31 634.66)">2.3.1.16</text></g><g id="Rec-58" data-name="Rec"><rect class="cls-13" x="794.42" y="537.84" width="52.02" height="16.49"/><text class="cls-8" transform="translate(796.09 549.41)">1.1.1.2<tspan x="36.7" y="0">1</tspan><tspan x="42.48" y="0">1</tspan></text></g><g id="Rec-59" data-name="Rec"><rect class="cls-13" x="735.39" y="537.84" width="52.02" height="16.49"/><text class="cls-8" transform="translate(739.95 549.41)">1.1.1.35</text></g><g id="Rec-60" data-name="Rec"><rect class="cls-13" x="794.92" y="453.15" width="52.02" height="16.49"/><text class="cls-8" transform="translate(799.48 464.72)">4.2.1.74</text></g><g id="Rec-61" data-name="Rec"><rect class="cls-13" x="735.64" y="454.15" width="52.02" height="16.49"/><text class="cls-8" transform="translate(740.2 465.72)">4.2.1.17</text></g><g id="Rec-62" data-name="Rec"><rect class="cls-13" x="765.18" y="378.88" width="52.02" height="16.49"/><text class="cls-8" transform="translate(771.08 390.45)">1.3.99.-</text></g><g id="Rec-63" data-name="Rec"><rect class="cls-13" x="794.67" y="357.35" width="52.02" height="16.49"/><text class="cls-8" transform="translate(802.57 368.92)">1.3.8.8</text></g><g id="Rec-64" data-name="Rec"><rect class="cls-13" x="735.39" y="357.35" width="52.02" height="16.49"/><text class="cls-8" transform="translate(743.29 368.92)">1.3.8.7</text></g><g id="Rec-65" data-name="Rec"><rect class="cls-13" x="735.39" y="339.52" width="52.02" height="16.49"/><text class="cls-8" transform="translate(743.29 351.09)">1.3.8.1</text></g><polygon class="cls-20" points="791.08 419.65 795.25 429.29 786.88 429.27 791.08 419.65"/><line class="cls-19" x1="791.07" y1="424.47" x2="791.07" y2="484.7"/><polygon class="cls-20" points="791.3 492.74 787.12 484.7 795.5 484.71 791.3 492.74"/><polygon class="cls-20" points="791.08 505.82 795.25 515.45 786.88 515.44 791.08 505.82"/><line class="cls-19" x1="791.07" y1="510.64" x2="791.07" y2="570.86"/><polygon class="cls-20" points="791.3 578.91 787.12 570.86 795.5 570.88 791.3 578.91"/><line class="cls-19" x1="791.22" y1="396.37" x2="791.22" y2="404.87"/><line class="cls-19" x1="790.87" y1="331.88" x2="790.87" y2="378.88"/><polygon class="cls-20" points="791.06 408.96 787.29 401.05 794.85 401.07 791.06 408.96"/><path class="cls-13" d="M853.82,651.9c0.89-5.57-6.68-16.48,7.29-18.56-0.66,0-1.31-.05-2-0.07,0.68,0,1.3,0,2,.07" transform="translate(-62.4 -10.4)"/><path class="cls-13" d="M852.38,609.94C853,617,848,631,857.57,633.55c-0.46,0-.9.08-1.35,0.11a7.74,7.74,0,0,0,1.35-.11" transform="translate(-62.4 -10.4)"/><path class="cls-13" d="M922.42,684.66c-0.94-15.74,7-46.67-7.66-52.35,0.69,0,1.37-.17,2.06-0.22a8.2,8.2,0,0,0-2.06.22" transform="translate(-62.4 -10.4)"/><path class="cls-13" d="M923.93,609.93c-1.15,6.8,8.16,20.19-9.19,22.62,0.82,0,1.63.08,2.45,0.1-0.85,0-1.61,0-2.45-.1" transform="translate(-62.4 -10.4)"/><polygon class="cls-20" points="790.14 591.51 794.34 599.55 785.96 599.55 790.14 591.51"/><polygon class="cls-20" points="791.43 646.66 787.25 638.62 795.63 638.63 791.43 646.66"/><text class="cls-8" transform="translate(757.38 662.06) scale(0.97 1)">Co<tspan x="15.34" y="0">A</tspan></text><line class="cls-19" x1="861.47" y1="306.81" x2="861.59" y2="601.61"/><path class="cls-13" d="M950.78,310c9.41,1.19,27.9-8.56,31.29,9.56,0-.86.1-1.7,0.13-2.55a20.69,20.69,0,0,1-.13,2.55" transform="translate(-62.4 -10.4)"/><path class="cls-13" d="M952.43,310c-8.53,1.19-25.3-8.55-28.37,9.57,0-.86-0.09-1.7-0.12-2.55a22.8,22.8,0,0,0,.12,2.55" transform="translate(-62.4 -10.4)"/><polygon class="cls-20" points="919.48 318.67 915.71 310.76 923.27 310.78 919.48 318.67"/><path class="cls-13" d="M940.52,691.85c-5.55-1-16.63,6.31-18.39-7.7,0,0.66-.08,1.31-0.11,2,0-.68.05-1.3,0.11-2" transform="translate(-62.4 -10.4)"/><g id="Rec-66" data-name="Rec"><rect class="cls-13" x="922.61" y="337.34" width="52.02" height="16.49"/><text class="cls-8" transform="translate(928.51 348.91)">1.3.99.-</text></g><g id="Rec-67" data-name="Rec"><rect class="cls-13" x="922.86" y="355.18" width="52.02" height="16.49"/><text class="cls-8" transform="translate(930.76 366.75)">1.3.8.7</text></g><g id="Rec-68" data-name="Rec"><rect class="cls-13" x="863.58" y="355.18" width="52.02" height="16.49"/><text class="cls-8" transform="translate(871.48 366.75)">1.3.8.1</text></g><g id="Rec-69" data-name="Rec"><rect class="cls-13" x="863.58" y="337.34" width="52.02" height="16.49"/><text class="cls-8" transform="translate(871.48 348.91)">1.3.3.6</text></g><line class="cls-19" x1="919.41" y1="394.2" x2="919.41" y2="402.7"/><line class="cls-19" x1="919.06" y1="329.71" x2="919.41" y2="394.2"/><polygon class="cls-20" points="919.25 406.79 915.48 398.88 923.03 398.9 919.25 406.79"/><g id="Rec-70" data-name="Rec"><rect class="cls-13" x="989.46" y="373.96" width="52.02" height="16.49"/><text class="cls-8" transform="translate(997.36 385.53)">1.3.8.6</text></g><g id="Rec-71" data-name="Rec"><rect class="cls-13" x="893.61" y="448.62" width="52.02" height="16.49"/><text class="cls-8" transform="translate(898.18 460.19)">4.2.1.17</text></g><g id="Rec-72" data-name="Rec"><rect class="cls-13" x="893.94" y="532.24" width="52.02" height="16.49"/><text class="cls-8" transform="translate(898.5 543.81)">1.1.1.35</text></g><g id="Rec-73" data-name="Rec"><rect class="cls-13" x="799.05" y="605.87" width="52.02" height="16.49"/><text class="cls-8" transform="translate(806.95 617.44)">2.3.1.9</text></g><g id="Rec-74" data-name="Rec"><rect class="cls-13" x="895.05" y="615.02" width="52.02" height="16.49"/><text class="cls-8" transform="translate(902.95 626.59)">2.3.1.9</text></g><g id="Rec-75" data-name="Rec"><rect class="cls-13" x="447.91" y="728.17" width="52.02" height="16.49"/><text class="cls-8" transform="translate(452.47 739.74)">6.2.1.20</text></g><g id="Rec-76" data-name="Rec"><rect class="cls-13" x="447.82" y="777.06" width="52.02" height="16.49"/><text class="cls-8" transform="translate(455.72 788.62)">5.3.3.8</text></g><g id="Rec-77" data-name="Rec"><rect class="cls-13" x="447.61" y="803.35" width="52.02" height="16.49"/><text class="cls-8" transform="translate(455.51 814.92)">5.1.2.3</text></g><g id="Rec-78" data-name="Rec"><rect class="cls-13" x="434.73" y="858.78" width="52.02" height="16.49"/><text class="cls-8" transform="translate(442.63 870.35)">1.1.1.1</text></g><g id="Rec-79" data-name="Rec"><rect class="cls-13" x="434.98" y="877.53" width="52.02" height="16.49"/><text class="cls-8" transform="translate(436.21 889.1)">1.1.99.20</text></g><g id="Rec-80" data-name="Rec"><rect class="cls-13" x="536.47" y="876.27" width="52.02" height="16.49"/><text class="cls-8" transform="translate(544.37 887.84)">1.2.5.2</text></g><g id="Rec-81" data-name="Rec"><rect class="cls-13" x="633.74" y="879.23" width="58.98" height="16.49"/><text class="cls-8" transform="translate(635.72 890.8)">1.14.14.80</text></g><g id="Rec-82" data-name="Rec"><rect class="cls-13" x="637.59" y="855.58" width="52.02" height="16.49"/><text class="cls-8" transform="translate(638.81 867.15)">1.14.15.3</text></g><g id="Rec-83" data-name="Rec"><rect class="cls-13" x="633.74" y="902.69" width="52.02" height="16.49"/><text class="cls-8" transform="translate(634.96 914.25)">1.14.14.1</text></g><g id="Rec-84" data-name="Rec"><rect class="cls-13" x="536.47" y="858.78" width="52.02" height="16.49"/><text class="cls-8" transform="translate(544.37 870.35)">1.2.1.3</text></g><g id="Rec-85" data-name="Rec"><rect class="cls-13" x="314.51" y="868.03" width="52.02" height="16.49"/><text class="cls-8" transform="translate(315.73 879.6)">1.14.15.3</text></g><g id="Rec-86" data-name="Rec"><rect class="cls-13" x="314.51" y="910.93" width="52.02" height="16.49"/><text class="cls-8" transform="translate(319.07 922.5)">1.18.1.4</text></g><g id="Rec-87" data-name="Rec"><rect class="cls-13" x="314.03" y="932.38" width="52.02" height="16.49"/><text class="cls-8" transform="translate(318.59 943.95)">1.18.1.1</text></g><g id="Rec-88" data-name="Rec"><rect class="cls-13" x="314.03" y="889.48" width="52.02" height="16.49"/><text class="cls-8" transform="translate(318.59 901.05)">1.18.1.3</text></g><g id="Rec-89" data-name="Rec"><rect class="cls-13" x="989.46" y="304.22" width="52.02" height="16.49"/><text class="cls-8" transform="translate(997.36 315.79)">6.2.1.6</text></g><line class="cls-19" x1="1015.63" y1="321.1" x2="1015.63" y2="339.02"/><line class="cls-19" x1="1015.4" y1="289.74" x2="1015.48" y2="304.56"/><polygon class="cls-20" points="1015.47 343.1 1011.69 335.19 1019.25 335.21 1015.47 343.1"/><line class="cls-19" x1="919.41" y1="466.04" x2="919.41" y2="490.64"/><line class="cls-19" x1="919.01" y1="420.97" x2="919.16" y2="448.44"/><polygon class="cls-20" points="919.25 494.72 915.48 486.82 923.03 486.83 919.25 494.72"/><polygon class="cls-20" points="919.27 421.14 915.48 429.68 923.03 429.69 919.27 421.14"/><line class="cls-19" x1="919.41" y1="549.6" x2="919.41" y2="574.2"/><line class="cls-19" x1="919.01" y1="504.53" x2="919.16" y2="532"/><polygon class="cls-20" points="919.25 578.28 915.48 570.38 923.03 570.39 919.25 578.28"/><polygon class="cls-20" points="919.27 504.7 915.48 513.24 923.03 513.25 919.27 504.7"/><line class="cls-19" x1="500.68" y1="736.26" x2="530.41" y2="736.26"/><line class="cls-19" x1="414.14" y1="735.84" x2="447.61" y2="735.66"/><polygon class="cls-20" points="534.49 736.43 526.59 740.2 526.6 732.64 534.49 736.43"/><polygon class="cls-20" points="410.53 736.25 419.07 740.04 419.08 732.49 410.53 736.25"/><line class="cls-19" x1="500.68" y1="785.27" x2="530.41" y2="785.27"/><line class="cls-19" x1="414.14" y1="784.84" x2="447.61" y2="784.66"/><polygon class="cls-20" points="534.49 785.43 526.59 789.2 526.6 781.64 534.49 785.43"/><polygon class="cls-20" points="410.53 785.25 419.07 789.05 419.08 781.49 410.53 785.25"/><line class="cls-19" x1="500.68" y1="810.09" x2="530.41" y2="810.09"/><line class="cls-19" x1="414.14" y1="809.67" x2="447.61" y2="809.49"/><polygon class="cls-20" points="534.49 810.25 526.59 814.02 526.6 806.47 534.49 810.25"/><polygon class="cls-20" points="410.53 810.07 419.07 813.87 419.08 806.31 410.53 810.07"/><line class="cls-19" x1="486.75" y1="871.26" x2="499.15" y2="871.11"/><line class="cls-19" x1="416.61" y1="870.84" x2="434.64" y2="870.66"/><polygon class="cls-20" points="503.24 871.27 495.33 875.04 495.35 867.48 503.24 871.27"/><polygon class="cls-20" points="414.63 871.24 422.52 875.05 422.52 867.49 414.63 871.24"/><line class="cls-19" x1="919.41" y1="630.45" x2="919.08" y2="728.25"/><line class="cls-19" x1="919.01" y1="589.4" x2="919.15" y2="613.95"/><polygon class="cls-20" points="919.08 736.16 915.31 728.25 922.87 728.27 919.08 736.16"/><polygon class="cls-20" points="919.27 589.57 915.48 598.11 923.03 598.12 919.27 589.57"/><line class="cls-19" x1="916.83" y1="806.31" x2="917.69" y2="745.01"/><polygon class="cls-20" points="916.52 809.55 920.32 801.01 912.76 801 916.52 809.55"/><circle class="cls-13" cx="919.23" cy="324.23" r="4.09"/><circle class="cls-13" cx="1015.72" cy="284.69" r="4.09"/><circle class="cls-13" cx="1015.47" cy="348.91" r="4.09"/><circle class="cls-13" cx="919.25" cy="415.06" r="4.09"/><circle class="cls-13" cx="919.25" cy="499.63" r="4.09"/><circle class="cls-13" cx="919.25" cy="583.19" r="4.09"/><circle class="cls-13" cx="919.25" cy="740.82" r="4.09"/><circle class="cls-13" cx="297.44" cy="907.93" r="4.09"/><circle class="cls-13" cx="383.36" cy="908.85" r="4.09"/><circle class="cls-13" cx="275.83" cy="875.27" r="4.09"/><circle class="cls-13" cx="406.49" cy="875.27" r="4.09"/><circle class="cls-13" cx="511.61" cy="875.27" r="4.09"/><circle class="cls-13" cx="711.81" cy="908.93" r="4.09"/><circle class="cls-13" cx="615.33" cy="876.27" r="4.09"/><circle class="cls-13" cx="712.89" cy="876.27" r="4.09"/><circle class="cls-13" cx="403.51" cy="810.17" r="4.09"/><circle class="cls-13" cx="542.05" cy="811.6" r="4.09"/><circle class="cls-13" cx="403.51" cy="785.3" r="4.09"/><circle class="cls-13" cx="542.05" cy="785.3" r="4.09"/><circle class="cls-13" cx="404.45" cy="736.42" r="4.09"/><circle class="cls-13" cx="435.23" cy="762.25" r="4.09"/><circle class="cls-13" cx="540.57" cy="736.42" r="4.09"/><line class="cls-19" x1="1015.47" y1="353" x2="1015.48" y2="373.17"/><path class="cls-13" d="M1078.09,400.17c-1.19,7.74,8.56,22.93-9.56,25.72,0.86,0,1.7.08,2.55,0.11a25.13,25.13,0,0,1-2.55-.11" transform="translate(-62.4 -10.4)"/><line class="cls-19" x1="1006.14" y1="415.37" x2="927.42" y2="415.65"/><polygon class="cls-20" points="925.32 415.5 933.22 411.71 933.22 419.27 925.32 415.5"/><line class="cls-19" x1="218.38" y1="681.67" x2="919.43" y2="681.88"/><line class="cls-19" x1="1055.19" y1="606.33" x2="1055.42" y2="583.27"/><line class="cls-19" x1="920.2" y1="784.25" x2="920.06" y2="744.91"/><line class="cls-19" x1="334.65" y1="140.27" x2="355.65" y2="140.34"/><line class="cls-19" x1="262.82" y1="140.57" x2="282.41" y2="140.47"/><polygon class="cls-20" points="359.72 140.09 351.58 143.86 351.59 136.31 359.72 140.09"/><polygon class="cls-20" points="262.99 140.32 271.52 144.11 271.53 136.56 262.99 140.32"/><line class="cls-19" x1="233.27" y1="140.29" x2="247.27" y2="140.34"/><line class="cls-19" x1="154.44" y1="140.57" x2="181.25" y2="140.43"/><polygon class="cls-20" points="251.34 140.09 243.19 143.86 243.21 136.31 251.34 140.09"/><polygon class="cls-20" points="154.6 140.32 163.14 144.11 163.15 136.56 154.6 140.32"/><circle class="cls-13" cx="365.54" cy="140.42" r="4.09"/><circle class="cls-13" cx="257.84" cy="140.42" r="4.09"/><circle class="cls-13" cx="147.93" cy="140.42" r="4.09"/><circle class="cls-13" cx="147.93" cy="201.94" r="4.09"/><circle class="cls-13" cx="147.93" cy="263.7" r="4.09"/><line class="cls-19" x1="148.01" y1="164.1" x2="148.06" y2="150.1"/><line class="cls-19" x1="148.3" y1="196.93" x2="148.21" y2="181.69"/><polygon class="cls-20" points="147.81 146.03 151.58 154.17 144.03 154.15 147.81 146.03"/><polygon class="cls-20" points="148.04 196.76 151.83 188.22 144.28 188.22 148.04 196.76"/><line class="cls-19" x1="147.91" y1="224.21" x2="147.96" y2="207.91"/><line class="cls-19" x1="148.42" y1="258.27" x2="148.32" y2="240.7"/><polygon class="cls-20" points="148.16 258.11 151.96 249.57 144.4 249.56 148.16 258.11"/><line class="cls-19" x1="147.41" y1="284.3" x2="147.46" y2="267.99"/><line class="cls-19" x1="147.92" y1="318.36" x2="147.83" y2="300.79"/><polygon class="cls-20" points="147.66 318.19 151.46 309.65 143.9 309.64 147.66 318.19"/><line class="cls-19" x1="147.88" y1="125.92" x2="147.71" y2="95.68"/><polygon class="cls-20" points="147.79 135.15 151.58 126.61 144.03 126.6 147.79 135.15"/><line class="cls-19" x1="204.39" y1="102.4" x2="204.25" y2="76.09"/><line class="cls-19" x1="246.27" y1="76.01" x2="204.24" y2="76.09"/><line class="cls-19" x1="243.06" y1="102.62" x2="204.3" y2="102.69"/><path class="cls-13" d="M266.72,113.08c-16.93,1.16-50.19-8.29-56.27,9.3,0-.83-0.18-1.65-0.24-2.48a11,11,0,0,0,.24,2.48" transform="translate(-62.4 -10.4)"/><text x="-62.4" y="-10.4"/><line class="cls-19" x1="487.58" y1="881.69" x2="499.97" y2="881.54"/><line class="cls-19" x1="414.62" y1="881.3" x2="434.73" y2="881.1"/><polygon class="cls-20" points="504.06 881.7 496.15 885.47 496.17 877.91 504.06 881.7"/><line class="cls-19" x1="310.31" y1="908.93" x2="370.54" y2="908.85"/><line class="cls-19" x1="280.2" y1="876.31" x2="314.03" y2="876.27"/><line class="cls-19" x1="366.53" y1="876.4" x2="392.34" y2="876.14"/><polygon class="cls-20" points="396.3 876.28 388.39 880.05 388.4 872.49 396.3 876.28"/><line class="cls-19" x1="588.49" y1="871.28" x2="602.29" y2="871.11"/><line class="cls-19" x1="519.75" y1="870.84" x2="536.47" y2="870.67"/><polygon class="cls-20" points="606.38 871.27 598.47 875.04 598.49 867.48 606.38 871.27"/><polygon class="cls-20" points="517.76 871.24 522.46 875.04 522.47 867.48 517.76 871.24"/><line class="cls-19" x1="684.96" y1="876.34" x2="702.52" y2="876.12"/><line class="cls-19" x1="619.98" y1="875.85" x2="702.65" y2="876.27"/><polygon class="cls-20" points="706.61 876.28 698.7 880.05 698.72 872.49 706.61 876.28"/><line class="cls-19" x1="686.76" y1="908.67" x2="702.52" y2="908.47"/><line class="cls-19" x1="615.33" y1="908.65" x2="632.05" y2="908.49"/><polygon class="cls-20" points="706.61 908.63 698.7 912.4 698.72 904.85 706.61 908.63"/><line class="cls-19" x1="588.49" y1="881.3" x2="603.11" y2="881.11"/><polygon class="cls-20" points="607.2 880.7 599.29 884.47 599.31 876.91 607.2 880.7"/><line class="cls-19" x1="516.92" y1="881.33" x2="536.31" y2="881.09"/><line class="cls-19" x1="615.34" y1="908.65" x2="615.34" y2="880.36"/><polygon class="cls-20" points="302.42 908.82 310.31 912.62 310.31 905.07 302.42 908.82"/><polygon class="cls-20" points="376.85 908.87 368.95 905.07 368.96 912.62 376.85 908.87"/><polygon class="cls-20" points="297.46 915.23 293.66 923.12 301.22 923.12 297.46 915.23"/><path class="cls-13" d="M444.65,923.32c-2.13,9,13.72,26.93-16.38,29.66,1.42,0,2.82.15,4.23,0.2-1.46,0-2.79-.1-4.23-0.2" transform="translate(-62.4 -10.4)"/><path class="cls-13" d="M376,949.82c-4.89-2.05-14.12,15.62-16.43-16.92,0,1.54,0,3.06,0,4.59,0-1.59,0-3,0-4.59" transform="translate(-62.4 -10.4)"/><path class="cls-13" d="M509.37,749.54c-3.56,2.48-10.57-15.83-11.85,19,0-1.65,0-3.26-.05-4.9,0,1.69,0,3.23.05,4.9" transform="translate(-62.4 -10.4)"/><path class="cls-13" d="M376.43,891.49c-4.92,2.78-14.09-20.84-16.6,22.76,0-2.07,0-4.09,0-6.15-0.05,2.13,0,4,0,6.15" transform="translate(-62.4 -10.4)"/></svg>