<svg id="Layer_2" data-name="Layer 2" xmlns="http://www.w3.org/2000/svg" viewBox="0 0 731.87 748.84"><defs><style>.cls-1{fill:#fbf288;}.cls-2{fill:#f16d7d;}.cls-3{fill:#fbf28a;}.cls-20,.cls-4{fill:#1f91ff;}.cls-18,.cls-5{fill:#fff984;}.cls-19,.cls-6{fill:#ff6e7d;}.cls-7{fill:#fcf289;}.cls-13,.cls-8{fill:none;}.cls-13,.cls-18,.cls-19,.cls-20,.cls-8{stroke:#000;}.cls-13,.cls-15,.cls-16,.cls-18,.cls-19,.cls-20,.cls-8{stroke-miterlimit:10;}.cls-8{stroke-width:2px;}.cls-9{font-size:14px;}.cls-12,.cls-14,.cls-17,.cls-9{font-family:Arial;}.cls-10{letter-spacing:-0.87px;}.cls-11{font-style:italic;}.cls-12{font-size:12px;}.cls-14{font-size:12.56px;}.cls-15{fill:#e6e7e8;}.cls-15,.cls-16{stroke:#231f20;stroke-linecap:round;}.cls-17{font-size:12.47px;}</style></defs><title>jcu_ec00592</title><rect class="cls-1" x="250.97" y="97.03" width="17.16" height="16.45"/><rect class="cls-1" x="216.77" y="97.03" width="17.16" height="16.45"/><rect class="cls-1" x="233.93" y="97.03" width="17.16" height="16.45"/><rect class="cls-2" x="217.95" y="639.02" width="25.5" height="16.45"/><rect class="cls-3" x="192.45" y="639.02" width="17.04" height="16.45"/><rect class="cls-1" x="192.45" y="639.02" width="25.5" height="16.45"/><rect class="cls-2" x="325.78" y="586.64" width="25.5" height="16.45"/><rect class="cls-3" x="300.28" y="586.64" width="17.04" height="16.45"/><rect class="cls-1" x="300.28" y="586.64" width="25.5" height="16.45"/><rect class="cls-2" x="426.98" y="516.62" width="25.5" height="16.45"/><rect class="cls-3" x="401.48" y="516.62" width="17.04" height="16.45"/><rect class="cls-1" x="401.48" y="516.62" width="25.5" height="16.45"/><rect class="cls-2" x="378.59" y="473.17" width="25.5" height="16.45"/><rect class="cls-3" x="353.1" y="473.17" width="17.04" height="16.45"/><rect class="cls-1" x="353.1" y="473.17" width="25.5" height="16.45"/><rect class="cls-2" x="377.51" y="296.39" width="25.5" height="16.45"/><rect class="cls-3" x="352.01" y="296.39" width="17.04" height="16.45"/><rect class="cls-1" x="352.01" y="296.39" width="25.5" height="16.45"/><rect class="cls-4" x="592.05" y="674.04" width="17.34" height="16.45"/><rect class="cls-5" x="557.49" y="674.04" width="17.34" height="16.45"/><rect class="cls-6" x="574.83" y="674.04" width="17.34" height="16.45"/><rect class="cls-4" x="332.78" y="657.93" width="16.97" height="16.45"/><rect class="cls-5" x="298.96" y="657.93" width="16.97" height="16.45"/><rect class="cls-6" x="315.93" y="657.93" width="16.97" height="16.45"/><rect class="cls-4" x="169.28" y="608.31" width="17.22" height="16.45"/><rect class="cls-5" x="134.95" y="608.31" width="17.22" height="16.45"/><rect class="cls-6" x="152.17" y="608.31" width="17.22" height="16.45"/><rect class="cls-4" x="224.83" y="586.64" width="17.62" height="16.45"/><rect class="cls-5" x="189.72" y="586.64" width="17.62" height="16.45"/><rect class="cls-6" x="207.33" y="586.64" width="17.62" height="16.45"/><rect class="cls-4" x="438.36" y="586.52" width="17.7" height="16.45"/><rect class="cls-5" x="403.07" y="586.52" width="17.7" height="16.45"/><rect class="cls-6" x="420.78" y="586.52" width="17.7" height="16.45"/><rect class="cls-4" x="540.22" y="565.64" width="17.33" height="16.45"/><rect class="cls-5" x="505.68" y="565.64" width="17.33" height="16.45"/><rect class="cls-6" x="523.01" y="565.64" width="17.33" height="16.45"/><rect class="cls-4" x="633.98" y="566.64" width="17.19" height="16.45"/><rect class="cls-5" x="599.72" y="566.64" width="17.19" height="16.45"/><rect class="cls-6" x="616.91" y="566.64" width="17.19" height="16.45"/><rect class="cls-4" x="680.22" y="536.82" width="17.08" height="16.45"/><rect class="cls-5" x="646.18" y="536.82" width="17.08" height="16.45"/><rect class="cls-6" x="663.26" y="536.82" width="17.08" height="16.45"/><rect class="cls-4" x="539.62" y="493.74" width="17.94" height="16.45"/><rect class="cls-5" x="503.86" y="493.74" width="17.94" height="16.45"/><rect class="cls-6" x="521.8" y="493.74" width="17.94" height="16.45"/><rect class="cls-4" x="332.46" y="444.28" width="20.45" height="16.45"/><rect class="cls-5" x="291.7" y="444.28" width="20.45" height="16.45"/><rect class="cls-6" x="312.15" y="444.28" width="20.45" height="16.45"/><rect class="cls-4" x="521.85" y="371.27" width="17.56" height="16.45"/><rect class="cls-5" x="486.86" y="371.27" width="17.56" height="16.45"/><rect class="cls-6" x="504.41" y="371.27" width="17.56" height="16.45"/><rect class="cls-4" x="332.06" y="262.37" width="20.29" height="16.45"/><rect class="cls-5" x="291.62" y="262.37" width="20.29" height="16.45"/><rect class="cls-6" x="311.91" y="262.37" width="20.29" height="16.45"/><rect class="cls-4" x="308.57" y="97.03" width="17.08" height="16.45"/><rect class="cls-5" x="274.52" y="97.03" width="17.08" height="16.45"/><rect class="cls-6" x="291.6" y="97.03" width="17.08" height="16.45"/><rect class="cls-5" x="632.06" y="514.26" width="17.16" height="16.45"/><rect class="cls-5" x="597.86" y="514.26" width="17.16" height="16.45"/><rect class="cls-5" x="615.02" y="514.26" width="17.16" height="16.45"/><rect class="cls-5" x="228.73" y="239.07" width="17.16" height="16.45"/><rect class="cls-5" x="194.53" y="239.07" width="17.16" height="16.45"/><rect class="cls-5" x="211.69" y="239.07" width="17.16" height="16.45"/><rect class="cls-5" x="437.45" y="242.91" width="17.16" height="16.45"/><rect class="cls-5" x="403.25" y="242.91" width="17.16" height="16.45"/><rect class="cls-5" x="420.41" y="242.91" width="17.16" height="16.45"/><rect class="cls-4" x="625.2" y="370.09" width="25.58" height="16.45"/><rect class="cls-7" x="599.61" y="370.09" width="17.09" height="16.45"/><rect class="cls-6" x="599.61" y="370.09" width="25.58" height="16.45"/><rect class="cls-7" x="622.15" y="513.23" width="24.78" height="16.45"/><rect class="cls-7" x="597.38" y="513.23" width="16.55" height="16.45"/><rect class="cls-7" x="597.38" y="513.23" width="24.78" height="16.45"/><rect class="cls-7" x="429.22" y="244.24" width="24.78" height="16.45"/><rect class="cls-7" x="404.44" y="244.24" width="16.55" height="16.45"/><rect class="cls-7" x="404.44" y="244.24" width="24.78" height="16.45"/><g id="Head"><rect class="cls-8" x="1" y="1" width="452.29" height="31.5"/><text class="cls-9" transform="translate(10.11 23.5) scale(1.15 1)">ά-LINOLENIC<tspan x="86.67" y="0"> </tspan><tspan x="89.78" y="0">ACID ME</tspan><tspan class="cls-10" x="148.12" y="0">T</tspan><tspan x="155.63" y="0">ABOLISM - 00592- </tspan><tspan class="cls-11" x="277.8" y="0">Jatropha curcas</tspan></text></g><text class="cls-12" transform="translate(277.51 81.71)">Phosphatidylcholine</text><text class="cls-12" transform="translate(176.69 150.75)">ά-Linolenic acid</text><text class="cls-12" transform="translate(72.33 178.3)">V<tspan x="7.34" y="0">olicitin</tspan></text><text class="cls-12" transform="translate(346.93 202.32)">9(S)-HO<tspan x="44.67" y="0">T</tspan><tspan x="51.55" y="0">rE</tspan></text><text class="cls-12" transform="translate(117.24 253.98)">2(R)-HpO<tspan x="52" y="0">T</tspan><tspan x="58.89" y="0">rE</tspan></text><text class="cls-12" transform="translate(66.31 281.82)">2(R)-HO<tspan x="45.33" y="0">T</tspan><tspan x="52.21" y="0">rE</tspan></text><text class="cls-12" transform="translate(164.19 299.47)">spontaneous</text><text class="cls-12" transform="translate(66.32 337.77)">Heptadecatrienal</text><text class="cls-12" transform="translate(110.56 407.7)">(8Z,<tspan x="21.33" y="0">1</tspan><tspan x="27.12" y="0">1Z,14Z)-</tspan><tspan x="0" y="14.4">Heptadecatrienoic acid</tspan></text><text class="cls-12" transform="translate(472.44 211.5)">3,6-Nonadiel</text><text class="cls-12" transform="translate(495.13 265.72)">9-Oxononanoic acid</text><text class="cls-12" transform="translate(495.49 291.36)">Colnelenic acid</text><text class="cls-12" transform="translate(308.03 337.77)">9,10-EO<tspan x="44.69" y="0">T</tspan><tspan x="51.57" y="0">rE</tspan></text><text class="cls-12" transform="translate(495.49 337.77)">10-OPD<tspan x="43.35" y="0">A</tspan></text><text class="cls-12" transform="translate(342.2 381.57)">13(S)-HO<tspan x="51.34" y="0">T</tspan><tspan x="58.22" y="0">rE</tspan></text><text class="cls-12" transform="translate(428.28 369.24)">3-Hexenal</text><text class="cls-12" transform="translate(613.77 365.62)">3-Hexen-1-ol acetate</text><text class="cls-12" transform="translate(299.65 516.81)">12,13-EO<tspan x="51.36" y="0">T</tspan><tspan x="58.25" y="0">rE</tspan></text><text class="cls-12" transform="translate(456.18 534.38)">12-OPD<tspan x="43.35" y="0">A</tspan></text><text class="cls-12" transform="translate(567.64 504.23)">OPC8</text><text class="cls-12" transform="translate(651.16 505.24)">OPC8-Co<tspan x="52.01" y="0">A</tspan></text><text class="cls-12" transform="translate(656.51 600.07)">trans-2-Enoyl-<tspan x="0" y="14.4">OPC8-Co</tspan><tspan x="52.01" y="14.4">A</tspan></text><text class="cls-12" transform="translate(542.81 397.75)">3-Hexenol</text><text class="cls-12" transform="translate(464.81 416.9)">12-Oxo-9(Z)-<tspan x="0" y="14.4">dodecenoic acid</tspan></text><text class="cls-12" transform="translate(560.84 457.66)">T<tspan x="6.88" y="0">raumatin</tspan></text><text class="cls-12" transform="translate(495.13 471.27)">Etherolenic acid</text><text class="cls-12" transform="translate(638.49 457.66)">T<tspan x="6.88" y="0">raumatic acid</tspan></text><text class="cls-12" transform="translate(330.44 414.82)">13(S)-<tspan x="0" y="14.4">HpO</tspan><tspan x="24.67" y="14.4">T</tspan><tspan x="31.56" y="14.4">rE</tspan></text><text class="cls-12" transform="translate(557.04 604.71)">3-Oxo-<tspan x="0" y="14.4">OPC8-Co</tspan><tspan x="52.01" y="14.4">A</tspan></text><text class="cls-12" transform="translate(454.76 604.71)">OPC6-Co<tspan x="52.01" y="0">A</tspan></text><text class="cls-12" transform="translate(242.2 560.98)">3-oxo-<tspan x="0" y="14.4">OPC6-Co</tspan><tspan x="52.01" y="14.4">A</tspan></text><text class="cls-12" transform="translate(122.72 575.5)">OPC4-Co<tspan x="52.01" y="0">A</tspan></text><text class="cls-12" transform="translate(122.72 677.83)">trans-2-Enoyl-<tspan x="0" y="14.4">OPC4-Co</tspan><tspan x="52.01" y="14.4">A</tspan></text><text class="cls-12" transform="translate(244.21 674.02)">3-Oxo-<tspan x="0" y="14.4">OPC4-Co</tspan><tspan x="52.01" y="14.4">A</tspan></text><text class="cls-12" transform="translate(359.95 677.83)">JA-Co<tspan x="33.34" y="0">A</tspan></text><text class="cls-12" transform="translate(472.96 635.12)">(+)-7-Iso-<tspan x="0" y="14.4">jasmonate</tspan></text><text class="cls-12" transform="translate(546.98 648.23)">(-)-jasmonate</text><text class="cls-12" transform="translate(556.66 730.55)">(-)-Methyl-<tspan x="0" y="14.4">jasmonate</tspan></text><text class="cls-12" transform="translate(437.05 730.55)">(+)-7-Isomethyl-<tspan x="0" y="14.4">jasmonate</tspan></text><text class="cls-12" transform="translate(349.75 560.98)">trans-2-Enoyl-<tspan x="0" y="14.4">OPC6-Co</tspan><tspan x="52.01" y="14.4">A</tspan></text><text class="cls-12" transform="translate(303.77 245.45)">9(S)-HpO<tspan x="51.34" y="0">T</tspan><tspan x="58.22" y="0">rE</tspan></text><text class="cls-12" transform="translate(388.51 150.75)">Stearidonic acid</text><circle class="cls-13" cx="162.41" cy="658.24" r="4.09"/><circle class="cls-13" cx="269.97" cy="658.24" r="4.09"/><circle class="cls-13" cx="377.51" cy="657.16" r="4.09"/><circle class="cls-13" cx="484.05" cy="658.24" r="4.09"/><circle class="cls-13" cx="485.05" cy="713.09" r="4.09"/><circle class="cls-13" cx="581.02" cy="713.09" r="4.09"/><circle class="cls-13" cx="581.02" cy="658.24" r="4.09"/><circle class="cls-13" cx="162.41" cy="585.87" r="4.09"/><circle class="cls-13" cx="269.97" cy="583.87" r="4.09"/><circle class="cls-13" cx="379.59" cy="584.87" r="4.09"/><circle class="cls-13" cx="485.05" cy="584.87" r="4.09"/><circle class="cls-13" cx="581.02" cy="585.87" r="4.09"/><circle class="cls-13" cx="671.38" cy="585.87" r="4.09"/><circle class="cls-13" cx="379.59" cy="513.49" r="4.09"/><circle class="cls-13" cx="485.05" cy="513.49" r="4.09"/><circle class="cls-13" cx="583.02" cy="513.49" r="4.09"/><circle class="cls-13" cx="671.29" cy="513.49" r="4.09"/><circle class="cls-13" cx="671.38" cy="441.11" r="4.09"/><circle class="cls-13" cx="581.02" cy="442.11" r="4.09"/><circle class="cls-13" cx="485.05" cy="442.11" r="4.09"/><circle class="cls-13" cx="486.86" cy="467.19" r="4.09"/><circle class="cls-13" cx="379.59" cy="442.11" r="4.09"/><circle class="cls-13" cx="379.59" cy="388.4" r="4.09"/><circle class="cls-13" cx="460.26" cy="378.48" r="4.09"/><circle class="cls-13" cx="571.84" cy="377.48" r="4.09"/><circle class="cls-13" cx="680.55" cy="378.48" r="4.09"/><circle class="cls-13" cx="487.14" cy="333.69" r="4.09"/><circle class="cls-13" cx="378.59" cy="333.69" r="4.09"/><circle class="cls-13" cx="487.05" cy="286.01" r="4.09"/><circle class="cls-13" cx="379.59" cy="262.22" r="4.09"/><circle class="cls-13" cx="488.14" cy="262.22" r="4.09"/><circle class="cls-13" cx="162.41" cy="388.4" r="4.09"/><circle class="cls-13" cx="162.41" cy="334.69" r="4.09"/><circle class="cls-13" cx="92.13" cy="262.22" r="4.09"/><circle class="cls-13" cx="162.41" cy="262.22" r="4.09"/><circle class="cls-13" cx="92.13" cy="187.76" r="4.09"/><circle class="cls-13" cx="162.41" cy="187.76" r="4.09"/><circle class="cls-13" cx="377.51" cy="207.41" r="4.09"/><circle class="cls-13" cx="464.35" cy="207.41" r="4.09"/><circle class="cls-13" cx="269.97" cy="147.43" r="4.09"/><circle class="cls-13" cx="379.59" cy="147.43" r="4.09"/><circle class="cls-13" cx="270.97" cy="76.62" r="4.09"/><g id="Rec"><rect class="cls-13" x="193.95" y="239.05" width="52.02" height="16.49"/><text class="cls-12" transform="translate(203.86 250.62)">DOX1</text></g><g id="Rec-2" data-name="Rec"><rect class="cls-13" x="504.02" y="440.86" width="52.02" height="16.49"/><text class="cls-12" transform="translate(513.26 452.43)">5.3.3.-</text></g><g id="Rec-3" data-name="Rec"><rect class="cls-13" x="351.37" y="295.84" width="52.02" height="16.49"/><text class="cls-12" transform="translate(355.94 307.41)">4.2.1.92</text></g><g id="Rec-4" data-name="Rec"><rect class="cls-13" x="352.61" y="473.15" width="52.02" height="16.49"/><text class="cls-12" transform="translate(357.17 484.72)">4.2.1.92</text></g><g id="Rec-5" data-name="Rec"><rect class="cls-13" x="597.14" y="513.16" width="52.02" height="16.49"/><text class="cls-12" transform="translate(603.72 524.72)">OPCL1</text></g><g id="Rec-6" data-name="Rec"><rect class="cls-13" x="645.28" y="537.09" width="52.02" height="16.49"/><text class="cls-12" transform="translate(659.2 548.66)">ACX</text></g><g id="Rec-7" data-name="Rec"><rect class="cls-13" x="599.14" y="566.5" width="52.02" height="16.49"/><text class="cls-12" transform="translate(609.39 578.06)">MPF2</text></g><g id="Rec-8" data-name="Rec"><rect class="cls-13" x="505.02" y="565.62" width="52.02" height="16.49"/><text class="cls-12" transform="translate(509.58 577.19)">2.3.1.16</text></g><g id="Rec-9" data-name="Rec"><rect class="cls-13" x="402.73" y="656.97" width="52.02" height="16.49"/><text class="cls-12" transform="translate(411.97 668.54)">3.1.2.-</text></g><g id="Rec-10" data-name="Rec"><rect class="cls-13" x="558.09" y="674.02" width="52.02" height="16.49"/><text class="cls-12" transform="translate(559.31 685.59)">2.1.1.141</text></g><g id="Rec-11" data-name="Rec"><rect class="cls-13" x="190.18" y="586.62" width="52.02" height="16.49"/><text class="cls-12" transform="translate(194.74 598.19)">2.3.1.16</text></g><g id="Rec-12" data-name="Rec"><rect class="cls-13" x="297.73" y="657.91" width="52.02" height="16.49"/><text class="cls-12" transform="translate(302.29 669.48)">2.3.1.16</text></g><g id="Rec-13" data-name="Rec"><rect class="cls-13" x="299.65" y="585.5" width="52.02" height="16.49"/><text class="cls-12" transform="translate(309.9 597.06)">MPF2</text></g><g id="Rec-14" data-name="Rec"><rect class="cls-13" x="330.44" y="611.29" width="77.78" height="26.83"/><text class="cls-14" transform="translate(331.9 627.78) scale(1.16 1)">β-Oxidation</text></g><g id="Rec-15" data-name="Rec"><rect class="cls-13" x="191.93" y="639" width="52.02" height="16.49"/><text class="cls-12" transform="translate(202.18 650.57)">MPF2</text></g><g id="Rec-16" data-name="Rec"><rect class="cls-13" x="134.48" y="608.29" width="52.02" height="16.49"/><text class="cls-12" transform="translate(148.4 619.86)">ACX</text></g><g id="Rec-17" data-name="Rec"><rect class="cls-13" x="402.73" y="586.62" width="52.02" height="16.49"/><text class="cls-12" transform="translate(416.65 598.19)">ACX</text></g><g id="Rec-18" data-name="Rec"><rect class="cls-13" x="401.27" y="516.6" width="52.02" height="16.49"/><text class="cls-12" transform="translate(405.83 528.17)">5.3.99.6</text></g><g id="Rec-19" data-name="Rec"><rect class="cls-13" x="504.67" y="493.72" width="52.02" height="16.49"/><text class="cls-12" transform="translate(509.23 505.29)">1.3.1.42</text></g><g id="Rec-20" data-name="Rec"><rect class="cls-13" x="599.19" y="370.24" width="52.02" height="16.49"/><text class="cls-12" transform="translate(600.41 381.81)">2.3.1.195</text></g><g id="Rec-21" data-name="Rec"><rect class="cls-13" x="487.38" y="371.24" width="52.02" height="16.49"/><text class="cls-12" transform="translate(495.29 382.81)">1.1.1.1</text></g><g id="Rec-22" data-name="Rec"><rect class="cls-13" x="402.73" y="243.98" width="52.02" height="16.49"/><text class="cls-12" transform="translate(413.98 255.55)">HPL1</text></g><g id="Rec-23" data-name="Rec"><rect class="cls-13" x="402.73" y="422.86" width="52.02" height="16.49"/><text class="cls-12" transform="translate(413.98 434.43)">HPL1</text></g><g id="Rec-24" data-name="Rec"><rect class="cls-13" x="291.22" y="262.35" width="61.59" height="16.49"/><text class="cls-12" transform="translate(294.08 274.76)">1.13.<tspan x="26.69" y="0">1</tspan><tspan x="32.47" y="0">1.12</tspan></text></g><g id="Rec-25" data-name="Rec"><rect class="cls-13" x="291.16" y="444.19" width="61.59" height="16.49"/><text class="cls-12" transform="translate(294.02 456.59)">1.13.<tspan x="26.69" y="0">1</tspan><tspan x="32.47" y="0">1.12</tspan></text></g><g id="Rec-26" data-name="Rec"><rect class="cls-13" x="273.64" y="97" width="52.02" height="16.49"/><text class="cls-12" transform="translate(278.2 108.57)">3.1.1.32</text></g><g id="Rec-27" data-name="Rec"><rect class="cls-13" x="216.19" y="97" width="52.02" height="16.49"/><text class="cls-12" transform="translate(224.09 108.57)">3.1.1.4</text></g><g id="Rec-28" data-name="Rec"><rect class="cls-13" x="299.4" y="139.18" width="52.02" height="16.49"/><text class="cls-12" transform="translate(306.64 150.75)">F<tspan x="6.67" y="0">ADS2</tspan></text></g><line class="cls-15" x1="162.41" y1="266.38" x2="162.83" y2="321.48"/><polygon class="cls-16" points="163.07 328.8 158.89 320.44 167.27 320.46 163.07 328.8"/><line class="cls-15" x1="270.3" y1="80.71" x2="270.72" y2="135.81"/><polygon class="cls-16" points="270.96 143.13 266.78 134.77 275.16 134.79 270.96 143.13"/><line class="cls-15" x1="378.3" y1="256.25" x2="378.08" y2="217.96"/><polygon class="cls-16" points="377.78 213.57 381.95 222.35 373.57 222.32 377.78 213.57"/><line class="cls-15" x1="378.3" y1="436.04" x2="378.08" y2="397.75"/><polygon class="cls-16" points="377.78 393.36 381.95 402.14 373.57 402.11 377.78 393.36"/><line class="cls-15" x1="460.88" y1="440.11" x2="460.59" y2="388.06"/><polygon class="cls-16" points="460.29 383.67 464.45 392.44 456.07 392.41 460.29 383.67"/><line class="cls-15" x1="464.94" y1="261.72" x2="464.69" y2="219.76"/><polygon class="cls-16" points="464.38 213.31 468.54 221.67 460.16 221.64 464.38 213.31"/><line class="cls-15" x1="277.51" y1="147.31" x2="299.4" y2="147.37"/><line class="cls-15" x1="351.11" y1="147.31" x2="367.95" y2="147.36"/><polygon class="cls-16" points="373.13 147.31 364.78 151.5 364.78 143.13 373.13 147.31"/><line class="cls-15" x1="156.61" y1="187.77" x2="105.29" y2="187.52"/><polygon class="cls-16" points="97.97 187.75 106.33 183.57 106.31 191.95 97.97 187.75"/><line class="cls-15" x1="157.4" y1="260.15" x2="106.08" y2="259.89"/><polygon class="cls-16" points="98.77 260.13 107.12 255.95 107.11 264.33 98.77 260.13"/><line class="cls-15" x1="264.4" y1="186.17" x2="175.52" y2="185.73"/><polygon class="cls-16" points="168.21 185.96 176.56 181.79 176.54 190.16 168.21 185.96"/><line class="cls-15" x1="268.42" y1="260.67" x2="175.65" y2="260.2"/><polygon class="cls-16" points="168.34 260.43 176.69 256.25 176.68 264.63 168.34 260.43"/><line class="cls-15" x1="277.51" y1="259.8" x2="366.12" y2="260.26"/><polygon class="cls-16" points="373.44 260.03 365.08 264.21 365.1 255.83 373.44 260.03"/><line class="cls-15" x1="377.64" y1="267.38" x2="377.44" y2="295.84"/><line class="cls-15" x1="377.33" y1="312.31" x2="377.22" y2="327"/><polygon class="cls-16" points="377.48 328.8 373.32 320.44 381.7 320.47 377.48 328.8"/><line class="cls-15" x1="378.3" y1="447" x2="378.11" y2="473.17"/><line class="cls-15" x1="378.29" y1="489.64" x2="378.18" y2="505.29"/><polygon class="cls-16" points="378.13 508.41 373.97 500.05 382.35 500.08 378.13 508.41"/><line class="cls-15" x1="671.37" y1="518.97" x2="671.24" y2="537.09"/><line class="cls-15" x1="671.37" y1="553.58" x2="671.24" y2="571.71"/><polygon class="cls-16" points="671.21 580.38 667.05 572.02 675.42 572.05 671.21 580.38"/><line class="cls-15" x1="162.15" y1="591" x2="162.03" y2="608.29"/><line class="cls-15" x1="162.15" y1="624.68" x2="162.01" y2="645.4"/><polygon class="cls-16" points="161.99 652.41 157.83 644.05 166.21 644.08 161.99 652.41"/><line class="cls-15" x1="485.46" y1="662.33" x2="485.21" y2="698.4"/><polygon class="cls-16" points="485.43 705.72 481.27 697.36 489.64 697.39 485.43 705.72"/><line class="cls-15" x1="581.02" y1="663.97" x2="580.95" y2="674.04"/><line class="cls-15" x1="581.02" y1="690.49" x2="580.95" y2="700.56"/><polygon class="cls-16" points="580.99 707.36 576.83 699 585.21 699.03 580.99 707.36"/><line class="cls-15" x1="385.9" y1="260.3" x2="474.52" y2="260.77"/><polygon class="cls-16" points="481.83 260.54 473.48 264.72 473.49 256.34 481.83 260.54"/><line class="cls-15" x1="469.09" y1="378.26" x2="487.38" y2="378.36"/><line class="cls-15" x1="539.41" y1="378.26" x2="557.7" y2="378.36"/><polygon class="cls-16" points="565.02 378.5 556.66 382.67 556.68 374.29 565.02 378.5"/><line class="cls-15" x1="382.97" y1="466.97" x2="471.59" y2="467.43"/><polygon class="cls-16" points="481.31 467.2 472.96 471.38 472.97 463 481.31 467.2"/><line class="cls-15" x1="577.48" y1="378.26" x2="599.19" y2="378.37"/><line class="cls-15" x1="650.98" y1="378.26" x2="672.69" y2="378.37"/><polygon class="cls-16" points="673.41 378.5 665.06 382.67 665.08 374.29 673.41 378.5"/><line class="cls-15" x1="586.1" y1="513.46" x2="658.16" y2="513.84"/><polygon class="cls-16" points="665.48 513.61 657.12 517.79 657.14 509.41 665.48 513.61"/><line class="cls-15" x1="572.43" y1="583.68" x2="500.38" y2="584.29"/><polygon class="cls-16" points="490.94 584.84 499.23 580.55 499.33 588.93 490.94 584.84"/><line class="cls-15" x1="475.96" y1="583.92" x2="395.88" y2="584.54"/><polygon class="cls-16" points="386.83 585.09 396.05 580.8 396.16 589.17 386.83 585.09"/><line class="cls-15" x1="373.32" y1="583.19" x2="283.1" y2="583.88"/><polygon class="cls-16" points="274.05 584.43 283.27 580.14 283.38 588.52 274.05 584.43"/><line class="cls-15" x1="265.82" y1="583.25" x2="175.6" y2="583.95"/><polygon class="cls-16" points="166.56 584.5 175.78 580.21 175.89 588.58 166.56 584.5"/><line class="cls-15" x1="665.09" y1="584.02" x2="593.03" y2="584.64"/><polygon class="cls-16" points="585.72 584.97 594.02 580.68 594.12 589.05 585.72 584.97"/><line class="cls-15" x1="383.68" y1="285.78" x2="474.52" y2="286.26"/><polygon class="cls-16" points="481.83 286.02 473.48 290.2 473.49 281.82 481.83 286.02"/><line class="cls-15" x1="384.79" y1="332.07" x2="475.62" y2="332.54"/><polygon class="cls-16" points="482.94 332.31 474.58 336.49 474.6 328.11 482.94 332.31"/><line class="cls-15" x1="274.51" y1="440.85" x2="369.51" y2="441.35"/><polygon class="cls-16" points="374.98 441.12 366.63 445.3 366.64 436.92 374.98 441.12"/><line class="cls-15" x1="385.92" y1="440.88" x2="475.5" y2="441.35"/><polygon class="cls-16" points="480.97 441.12 472.62 445.29 472.64 436.92 480.97 441.12"/><line class="cls-15" x1="386.04" y1="513.37" x2="475.62" y2="513.84"/><polygon class="cls-16" points="481.09 513.61 472.74 517.79 472.75 509.41 481.09 513.61"/><line class="cls-15" x1="168.52" y1="656.93" x2="258.1" y2="657.4"/><polygon class="cls-16" points="263.57 657.17 255.22 661.35 255.23 652.97 263.57 657.17"/><line class="cls-15" x1="278.13" y1="656.93" x2="367.71" y2="657.4"/><polygon class="cls-16" points="373.19 657.17 364.83 661.35 364.85 652.97 373.19 657.17"/><line class="cls-15" x1="385.75" y1="656.86" x2="475.33" y2="657.33"/><polygon class="cls-16" points="480.8 657.1 472.44 661.27 472.46 652.89 480.8 657.1"/><line class="cls-15" x1="492.22" y1="439.94" x2="570.53" y2="440.35"/><polygon class="cls-16" points="576 440.12 567.64 444.3 567.66 435.92 576 440.12"/><line class="cls-15" x1="493.9" y1="512.82" x2="572.2" y2="513.23"/><polygon class="cls-16" points="577.67 513 569.32 517.17 569.34 508.8 577.67 513"/><line class="cls-15" x1="588.54" y1="440.5" x2="659.4" y2="440.87"/><polygon class="cls-16" points="664.87 440.64 656.51 444.82 656.53 436.44 664.87 440.64"/><line class="cls-15" x1="161.87" y1="338.77" x2="162.16" y2="376.35"/><polygon class="cls-16" points="162.4 383.67 158.22 375.31 166.6 375.33 162.4 383.67"/><line class="cls-15" x1="264.39" y1="158.88" x2="264.4" y2="186.17"/><line class="cls-15" x1="268.38" y1="158.97" x2="268.42" y2="260.67"/><line class="cls-15" x1="277.49" y1="158.97" x2="277.53" y2="260.67"/><line class="cls-15" x1="382.89" y1="267.6" x2="382.9" y2="286.01"/><line class="cls-15" x1="382.97" y1="448.46" x2="382.98" y2="466.87"/><line class="cls-15" x1="274.45" y1="158.83" x2="274.57" y2="440.11"/><polygon class="cls-16" points="578.33 656.59 568.66 660.68 568.75 652.31 578.33 656.59"/><line class="cls-15" x1="573.5" y1="656.5" x2="499.49" y2="656.25"/><polygon class="cls-16" points="491.44 656.41 499.53 652.31 499.44 660.68 491.44 656.41"/><polygon class="cls-16" points="574.82 711.71 565.6 715.8 565.68 707.42 574.82 711.71"/><line class="cls-15" x1="570.21" y1="711.61" x2="499.64" y2="711.36"/><polygon class="cls-16" points="491.97 711.52 499.68 707.42 499.59 715.8 491.97 711.52"/><g id="Rec-29" data-name="Rec"><rect class="cls-13" x="602.82" y="70.38" width="83.65" height="20.31"/><text class="cls-17" transform="translate(626.97 84.62) scale(1.05 1)">KEGG</text></g><g id="Rec-30" data-name="Rec"><rect class="cls-13" x="602.82" y="103.15" width="83.65" height="20.31"/><text class="cls-17" transform="translate(632.44 117.39) scale(1.05 1)">RN<tspan x="18.01" y="0">A</tspan></text></g><g id="Rec-31" data-name="Rec"><rect class="cls-13" x="602.82" y="137.51" width="83.65" height="20.31"/><text class="cls-17" transform="translate(620.76 151.75) scale(1.05 1)">Genome</text></g><rect class="cls-18" x="565.71" y="68.41" width="23.27" height="24.25"/><rect class="cls-19" x="565.71" y="101.17" width="23.27" height="24.25"/><rect class="cls-20" x="565.71" y="135.54" width="23.27" height="24.25"/><rect class="cls-13" x="550.35" y="54.23" width="157.42" height="120.63"/></svg>