<svg id="Layer_2" data-name="Layer 2" xmlns="http://www.w3.org/2000/svg" viewBox="0 0 736.69 748.84"><defs><style>.cls-1,.cls-18{fill:#1f91ff;}.cls-16,.cls-2{fill:#fff984;}.cls-17,.cls-3{fill:#ff6e7d;}.cls-4{fill:#fbf288;}.cls-5{fill:#fcf289;}.cls-11,.cls-6{fill:none;}.cls-11,.cls-16,.cls-17,.cls-18,.cls-6{stroke:#000;}.cls-11,.cls-13,.cls-14,.cls-16,.cls-17,.cls-18,.cls-6{stroke-miterlimit:10;}.cls-6{stroke-width:2px;}.cls-7{font-size:14px;}.cls-10,.cls-12,.cls-15,.cls-7{font-family:Arial;}.cls-8{letter-spacing:-0.87px;}.cls-9{font-style:italic;}.cls-10{font-size:12px;}.cls-12{font-size:12.56px;}.cls-13{fill:#e6e7e8;}.cls-13,.cls-14{stroke:#231f20;stroke-linecap:round;}.cls-15{font-size:12.47px;}</style></defs><title>rcu_ec00592</title><rect class="cls-1" x="339.22" y="585.52" width="17.36" height="16.45"/><rect class="cls-2" x="304.62" y="585.52" width="17.36" height="16.45"/><rect class="cls-3" x="321.98" y="585.52" width="17.36" height="16.45"/><rect class="cls-1" x="231.64" y="639.02" width="17.36" height="16.45"/><rect class="cls-2" x="197.03" y="639.02" width="17.36" height="16.45"/><rect class="cls-3" x="214.39" y="639.02" width="17.36" height="16.45"/><rect class="cls-1" x="440.42" y="516.62" width="17.36" height="16.45"/><rect class="cls-2" x="405.81" y="516.62" width="17.36" height="16.45"/><rect class="cls-3" x="423.18" y="516.62" width="17.36" height="16.45"/><rect class="cls-1" x="391.71" y="473.17" width="17.36" height="16.45"/><rect class="cls-2" x="357.1" y="473.17" width="17.36" height="16.45"/><rect class="cls-3" x="374.46" y="473.17" width="17.36" height="16.45"/><rect class="cls-1" x="391.65" y="295.86" width="17.36" height="16.45"/><rect class="cls-2" x="357.04" y="295.86" width="17.36" height="16.45"/><rect class="cls-3" x="374.4" y="295.86" width="17.36" height="16.45"/><rect class="cls-1" x="255.64" y="97.03" width="17.36" height="16.45"/><rect class="cls-2" x="221.03" y="97.03" width="17.36" height="16.45"/><rect class="cls-3" x="238.4" y="97.03" width="17.36" height="16.45"/><rect class="cls-1" x="588.92" y="674.04" width="25.58" height="16.45"/><rect class="cls-4" x="563.34" y="674.04" width="25.58" height="16.45"/><rect class="cls-1" x="337.6" y="657.93" width="16.97" height="16.45"/><rect class="cls-2" x="303.78" y="657.93" width="16.97" height="16.45"/><rect class="cls-3" x="320.75" y="657.93" width="16.97" height="16.45"/><rect class="cls-1" x="174.1" y="608.31" width="17.22" height="16.45"/><rect class="cls-2" x="139.77" y="608.31" width="17.22" height="16.45"/><rect class="cls-3" x="156.99" y="608.31" width="17.22" height="16.45"/><rect class="cls-1" x="229.65" y="586.64" width="17.62" height="16.45"/><rect class="cls-2" x="194.54" y="586.64" width="17.62" height="16.45"/><rect class="cls-3" x="212.15" y="586.64" width="17.62" height="16.45"/><rect class="cls-1" x="443.18" y="586.52" width="17.7" height="16.45"/><rect class="cls-2" x="407.9" y="586.52" width="17.7" height="16.45"/><rect class="cls-3" x="425.6" y="586.52" width="17.7" height="16.45"/><rect class="cls-1" x="545.05" y="565.64" width="17.33" height="16.45"/><rect class="cls-2" x="510.5" y="565.64" width="17.33" height="16.45"/><rect class="cls-3" x="527.83" y="565.64" width="17.33" height="16.45"/><rect class="cls-1" x="638.8" y="566.64" width="17.19" height="16.45"/><rect class="cls-2" x="604.54" y="566.64" width="17.19" height="16.45"/><rect class="cls-3" x="621.73" y="566.64" width="17.19" height="16.45"/><rect class="cls-1" x="685.04" y="536.82" width="17.08" height="16.45"/><rect class="cls-2" x="651" y="536.82" width="17.08" height="16.45"/><rect class="cls-3" x="668.08" y="536.82" width="17.08" height="16.45"/><rect class="cls-1" x="544.44" y="493.74" width="17.94" height="16.45"/><rect class="cls-2" x="508.68" y="493.74" width="17.94" height="16.45"/><rect class="cls-3" x="526.62" y="493.74" width="17.94" height="16.45"/><rect class="cls-1" x="337.28" y="444.28" width="20.45" height="16.45"/><rect class="cls-2" x="296.53" y="444.28" width="20.45" height="16.45"/><rect class="cls-3" x="316.97" y="444.28" width="20.45" height="16.45"/><rect class="cls-1" x="526.67" y="371.27" width="17.56" height="16.45"/><rect class="cls-2" x="491.68" y="371.27" width="17.56" height="16.45"/><rect class="cls-3" x="509.23" y="371.27" width="17.56" height="16.45"/><rect class="cls-1" x="336.88" y="262.37" width="20.29" height="16.45"/><rect class="cls-2" x="296.45" y="262.37" width="20.29" height="16.45"/><rect class="cls-3" x="316.73" y="262.37" width="20.29" height="16.45"/><rect class="cls-1" x="313.39" y="97.03" width="17.08" height="16.45"/><rect class="cls-2" x="279.34" y="97.03" width="17.08" height="16.45"/><rect class="cls-3" x="296.42" y="97.03" width="17.08" height="16.45"/><rect class="cls-2" x="636.88" y="514.26" width="17.16" height="16.45"/><rect class="cls-2" x="602.68" y="514.26" width="17.16" height="16.45"/><rect class="cls-2" x="619.84" y="514.26" width="17.16" height="16.45"/><rect class="cls-2" x="233.55" y="239.07" width="17.16" height="16.45"/><rect class="cls-2" x="199.35" y="239.07" width="17.16" height="16.45"/><rect class="cls-2" x="216.51" y="239.07" width="17.16" height="16.45"/><rect class="cls-2" x="442.27" y="242.91" width="17.16" height="16.45"/><rect class="cls-2" x="408.07" y="242.91" width="17.16" height="16.45"/><rect class="cls-2" x="425.23" y="242.91" width="17.16" height="16.45"/><rect class="cls-1" x="630.02" y="370.09" width="25.58" height="16.45"/><rect class="cls-5" x="604.43" y="370.09" width="17.09" height="16.45"/><rect class="cls-3" x="604.43" y="370.09" width="25.58" height="16.45"/><rect class="cls-5" x="626.97" y="513.23" width="24.78" height="16.45"/><rect class="cls-5" x="602.2" y="513.23" width="16.55" height="16.45"/><rect class="cls-5" x="602.2" y="513.23" width="24.78" height="16.45"/><rect class="cls-5" x="434.04" y="244.24" width="24.78" height="16.45"/><rect class="cls-5" x="409.27" y="244.24" width="16.55" height="16.45"/><rect class="cls-5" x="409.27" y="244.24" width="24.78" height="16.45"/><g id="Head"><rect class="cls-6" x="1" y="1" width="457.11" height="31.5"/><text class="cls-7" transform="translate(6.93 23.5) scale(1.15 1)">ά-LINOLENIC<tspan x="86.67" y="0"> </tspan><tspan x="89.78" y="0">ACID ME</tspan><tspan class="cls-8" x="148.12" y="0">T</tspan><tspan x="155.63" y="0">ABOLISM - 00592- </tspan><tspan class="cls-9" x="277.8" y="0">Ricinus communis</tspan></text></g><text class="cls-10" transform="translate(282.33 81.71)">Phosphatidylcholine</text><text class="cls-10" transform="translate(181.51 150.75)">ά-Linolenic acid</text><text class="cls-10" transform="translate(77.15 178.3)">V<tspan x="7.34" y="0">olicitin</tspan></text><text class="cls-10" transform="translate(351.75 202.32)">9(S)-HO<tspan x="44.67" y="0">T</tspan><tspan x="51.55" y="0">rE</tspan></text><text class="cls-10" transform="translate(122.06 253.98)">2(R)-HpO<tspan x="52" y="0">T</tspan><tspan x="58.89" y="0">rE</tspan></text><text class="cls-10" transform="translate(71.14 281.82)">2(R)-HO<tspan x="45.33" y="0">T</tspan><tspan x="52.21" y="0">rE</tspan></text><text class="cls-10" transform="translate(169.01 299.47)">spontaneous</text><text class="cls-10" transform="translate(71.14 337.77)">Heptadecatrienal</text><text class="cls-10" transform="translate(115.38 407.7)">(8Z,<tspan x="21.33" y="0">1</tspan><tspan x="27.12" y="0">1Z,14Z)-</tspan><tspan x="0" y="14.4">Heptadecatrienoic acid</tspan></text><text class="cls-10" transform="translate(477.26 211.5)">3,6-Nonadiel</text><text class="cls-10" transform="translate(499.95 265.72)">9-Oxononanoic acid</text><text class="cls-10" transform="translate(500.31 291.36)">Colnelenic acid</text><text class="cls-10" transform="translate(312.85 337.77)">9,10-EO<tspan x="44.69" y="0">T</tspan><tspan x="51.57" y="0">rE</tspan></text><text class="cls-10" transform="translate(500.31 337.77)">10-OPD<tspan x="43.35" y="0">A</tspan></text><text class="cls-10" transform="translate(347.02 381.57)">13(S)-HO<tspan x="51.34" y="0">T</tspan><tspan x="58.22" y="0">rE</tspan></text><text class="cls-10" transform="translate(433.1 369.24)">3-Hexenal</text><text class="cls-10" transform="translate(618.59 365.62)">3-Hexen-1-ol acetate</text><text class="cls-10" transform="translate(304.47 516.81)">12,13-EO<tspan x="51.36" y="0">T</tspan><tspan x="58.25" y="0">rE</tspan></text><text class="cls-10" transform="translate(461 534.38)">12-OPD<tspan x="43.35" y="0">A</tspan></text><text class="cls-10" transform="translate(572.46 504.23)">OPC8</text><text class="cls-10" transform="translate(655.99 505.24)">OPC8-Co<tspan x="52.01" y="0">A</tspan></text><text class="cls-10" transform="translate(661.33 600.07)">trans-2-Enoyl-<tspan x="0" y="14.4">OPC8-Co</tspan><tspan x="52.01" y="14.4">A</tspan></text><text class="cls-10" transform="translate(547.63 397.75)">3-Hexenol</text><text class="cls-10" transform="translate(469.63 416.9)">12-Oxo-9(Z)-<tspan x="0" y="14.4">dodecenoic acid</tspan></text><text class="cls-10" transform="translate(565.66 457.66)">T<tspan x="6.88" y="0">raumatin</tspan></text><text class="cls-10" transform="translate(499.95 471.27)">Etherolenic acid</text><text class="cls-10" transform="translate(643.31 457.66)">T<tspan x="6.88" y="0">raumatic acid</tspan></text><text class="cls-10" transform="translate(335.26 414.82)">13(S)-<tspan x="0" y="14.4">HpO</tspan><tspan x="24.67" y="14.4">T</tspan><tspan x="31.56" y="14.4">rE</tspan></text><text class="cls-10" transform="translate(561.86 604.71)">3-Oxo-<tspan x="0" y="14.4">OPC8-Co</tspan><tspan x="52.01" y="14.4">A</tspan></text><text class="cls-10" transform="translate(459.58 604.71)">OPC6-Co<tspan x="52.01" y="0">A</tspan></text><text class="cls-10" transform="translate(247.02 560.98)">3-oxo-<tspan x="0" y="14.4">OPC6-Co</tspan><tspan x="52.01" y="14.4">A</tspan></text><text class="cls-10" transform="translate(127.54 575.5)">OPC4-Co<tspan x="52.01" y="0">A</tspan></text><text class="cls-10" transform="translate(127.54 677.83)">trans-2-Enoyl-<tspan x="0" y="14.4">OPC4-Co</tspan><tspan x="52.01" y="14.4">A</tspan></text><text class="cls-10" transform="translate(249.03 674.02)">3-Oxo-<tspan x="0" y="14.4">OPC4-Co</tspan><tspan x="52.01" y="14.4">A</tspan></text><text class="cls-10" transform="translate(364.77 677.83)">JA-Co<tspan x="33.34" y="0">A</tspan></text><text class="cls-10" transform="translate(477.78 635.12)">(+)-7-Iso-<tspan x="0" y="14.4">jasmonate</tspan></text><text class="cls-10" transform="translate(551.8 648.23)">(-)-jasmonate</text><text class="cls-10" transform="translate(561.49 730.55)">(-)-Methyl-<tspan x="0" y="14.4">jasmonate</tspan></text><text class="cls-10" transform="translate(441.87 730.55)">(+)-7-Isomethyl-<tspan x="0" y="14.4">jasmonate</tspan></text><text class="cls-10" transform="translate(354.57 560.98)">trans-2-Enoyl-<tspan x="0" y="14.4">OPC6-Co</tspan><tspan x="52.01" y="14.4">A</tspan></text><text class="cls-10" transform="translate(308.59 245.45)">9(S)-HpO<tspan x="51.34" y="0">T</tspan><tspan x="58.22" y="0">rE</tspan></text><text class="cls-10" transform="translate(393.33 150.75)">Stearidonic acid</text><circle class="cls-11" cx="167.23" cy="658.24" r="4.09"/><circle class="cls-11" cx="274.79" cy="658.24" r="4.09"/><circle class="cls-11" cx="382.33" cy="657.16" r="4.09"/><circle class="cls-11" cx="488.87" cy="658.24" r="4.09"/><circle class="cls-11" cx="489.87" cy="713.09" r="4.09"/><circle class="cls-11" cx="585.84" cy="713.09" r="4.09"/><circle class="cls-11" cx="585.84" cy="658.24" r="4.09"/><circle class="cls-11" cx="167.23" cy="585.87" r="4.09"/><circle class="cls-11" cx="274.79" cy="583.87" r="4.09"/><circle class="cls-11" cx="384.41" cy="584.87" r="4.09"/><circle class="cls-11" cx="489.87" cy="584.87" r="4.09"/><circle class="cls-11" cx="585.84" cy="585.87" r="4.09"/><circle class="cls-11" cx="676.2" cy="585.87" r="4.09"/><circle class="cls-11" cx="384.41" cy="513.49" r="4.09"/><circle class="cls-11" cx="489.87" cy="513.49" r="4.09"/><circle class="cls-11" cx="587.84" cy="513.49" r="4.09"/><circle class="cls-11" cx="676.11" cy="513.49" r="4.09"/><circle class="cls-11" cx="676.2" cy="441.11" r="4.09"/><circle class="cls-11" cx="585.84" cy="442.11" r="4.09"/><circle class="cls-11" cx="489.87" cy="442.11" r="4.09"/><circle class="cls-11" cx="491.68" cy="467.19" r="4.09"/><circle class="cls-11" cx="384.41" cy="442.11" r="4.09"/><circle class="cls-11" cx="384.41" cy="388.4" r="4.09"/><circle class="cls-11" cx="465.08" cy="378.48" r="4.09"/><circle class="cls-11" cx="576.66" cy="377.48" r="4.09"/><circle class="cls-11" cx="685.37" cy="378.48" r="4.09"/><circle class="cls-11" cx="491.96" cy="333.69" r="4.09"/><circle class="cls-11" cx="383.41" cy="333.69" r="4.09"/><circle class="cls-11" cx="491.87" cy="286.01" r="4.09"/><circle class="cls-11" cx="384.41" cy="262.22" r="4.09"/><circle class="cls-11" cx="492.96" cy="262.22" r="4.09"/><circle class="cls-11" cx="167.23" cy="388.4" r="4.09"/><circle class="cls-11" cx="167.23" cy="334.69" r="4.09"/><circle class="cls-11" cx="96.95" cy="262.22" r="4.09"/><circle class="cls-11" cx="167.23" cy="262.22" r="4.09"/><circle class="cls-11" cx="96.95" cy="187.76" r="4.09"/><circle class="cls-11" cx="167.23" cy="187.76" r="4.09"/><circle class="cls-11" cx="382.33" cy="207.41" r="4.09"/><circle class="cls-11" cx="469.17" cy="207.41" r="4.09"/><circle class="cls-11" cx="274.79" cy="147.43" r="4.09"/><circle class="cls-11" cx="384.41" cy="147.43" r="4.09"/><circle class="cls-11" cx="275.79" cy="76.62" r="4.09"/><g id="Rec"><rect class="cls-11" x="198.77" y="239.05" width="52.02" height="16.49"/><text class="cls-10" transform="translate(208.68 250.62)">DOX1</text></g><g id="Rec-2" data-name="Rec"><rect class="cls-11" x="508.84" y="440.86" width="52.02" height="16.49"/><text class="cls-10" transform="translate(518.08 452.43)">5.3.3.-</text></g><g id="Rec-3" data-name="Rec"><rect class="cls-11" x="356.19" y="295.84" width="52.02" height="16.49"/><text class="cls-10" transform="translate(360.76 307.41)">4.2.1.92</text></g><g id="Rec-4" data-name="Rec"><rect class="cls-11" x="357.43" y="473.15" width="52.02" height="16.49"/><text class="cls-10" transform="translate(361.99 484.72)">4.2.1.92</text></g><g id="Rec-5" data-name="Rec"><rect class="cls-11" x="601.96" y="513.16" width="52.02" height="16.49"/><text class="cls-10" transform="translate(608.54 524.72)">OPCL1</text></g><g id="Rec-6" data-name="Rec"><rect class="cls-11" x="650.1" y="537.09" width="52.02" height="16.49"/><text class="cls-10" transform="translate(664.02 548.66)">ACX</text></g><g id="Rec-7" data-name="Rec"><rect class="cls-11" x="603.96" y="566.5" width="52.02" height="16.49"/><text class="cls-10" transform="translate(614.21 578.06)">MPF2</text></g><g id="Rec-8" data-name="Rec"><rect class="cls-11" x="509.84" y="565.62" width="52.02" height="16.49"/><text class="cls-10" transform="translate(514.4 577.19)">2.3.1.16</text></g><g id="Rec-9" data-name="Rec"><rect class="cls-11" x="407.55" y="656.97" width="52.02" height="16.49"/><text class="cls-10" transform="translate(416.8 668.54)">3.1.2.-</text></g><g id="Rec-10" data-name="Rec"><rect class="cls-11" x="562.91" y="674.02" width="52.02" height="16.49"/><text class="cls-10" transform="translate(564.14 685.59)">2.1.1.141</text></g><g id="Rec-11" data-name="Rec"><rect class="cls-11" x="195" y="586.62" width="52.02" height="16.49"/><text class="cls-10" transform="translate(199.56 598.19)">2.3.1.16</text></g><g id="Rec-12" data-name="Rec"><rect class="cls-11" x="302.55" y="657.91" width="52.02" height="16.49"/><text class="cls-10" transform="translate(307.11 669.48)">2.3.1.16</text></g><g id="Rec-13" data-name="Rec"><rect class="cls-11" x="304.47" y="585.5" width="52.02" height="16.49"/><text class="cls-10" transform="translate(314.72 597.06)">MPF2</text></g><g id="Rec-14" data-name="Rec"><rect class="cls-11" x="335.26" y="611.29" width="77.78" height="26.83"/><text class="cls-12" transform="translate(336.72 627.78) scale(1.16 1)">β-Oxidation</text></g><g id="Rec-15" data-name="Rec"><rect class="cls-11" x="196.75" y="639" width="52.02" height="16.49"/><text class="cls-10" transform="translate(207 650.57)">MPF2</text></g><g id="Rec-16" data-name="Rec"><rect class="cls-11" x="139.3" y="608.29" width="52.02" height="16.49"/><text class="cls-10" transform="translate(153.22 619.86)">ACX</text></g><g id="Rec-17" data-name="Rec"><rect class="cls-11" x="407.55" y="586.62" width="52.02" height="16.49"/><text class="cls-10" transform="translate(421.47 598.19)">ACX</text></g><g id="Rec-18" data-name="Rec"><rect class="cls-11" x="406.09" y="516.6" width="52.02" height="16.49"/><text class="cls-10" transform="translate(410.65 528.17)">5.3.99.6</text></g><g id="Rec-19" data-name="Rec"><rect class="cls-11" x="509.49" y="493.72" width="52.02" height="16.49"/><text class="cls-10" transform="translate(514.05 505.29)">1.3.1.42</text></g><g id="Rec-20" data-name="Rec"><rect class="cls-11" x="604.01" y="370.24" width="52.02" height="16.49"/><text class="cls-10" transform="translate(605.23 381.81)">2.3.1.195</text></g><g id="Rec-21" data-name="Rec"><rect class="cls-11" x="492.2" y="371.24" width="52.02" height="16.49"/><text class="cls-10" transform="translate(500.11 382.81)">1.1.1.1</text></g><g id="Rec-22" data-name="Rec"><rect class="cls-11" x="407.55" y="243.98" width="52.02" height="16.49"/><text class="cls-10" transform="translate(418.8 255.55)">HPL1</text></g><g id="Rec-23" data-name="Rec"><rect class="cls-11" x="407.55" y="422.86" width="52.02" height="16.49"/><text class="cls-10" transform="translate(418.8 434.43)">HPL1</text></g><g id="Rec-24" data-name="Rec"><rect class="cls-11" x="296.04" y="262.35" width="61.59" height="16.49"/><text class="cls-10" transform="translate(298.9 274.76)">1.13.<tspan x="26.69" y="0">1</tspan><tspan x="32.47" y="0">1.12</tspan></text></g><g id="Rec-25" data-name="Rec"><rect class="cls-11" x="295.98" y="444.19" width="61.59" height="16.49"/><text class="cls-10" transform="translate(298.84 456.59)">1.13.<tspan x="26.69" y="0">1</tspan><tspan x="32.47" y="0">1.12</tspan></text></g><g id="Rec-26" data-name="Rec"><rect class="cls-11" x="278.46" y="97" width="52.02" height="16.49"/><text class="cls-10" transform="translate(283.02 108.57)">3.1.1.32</text></g><g id="Rec-27" data-name="Rec"><rect class="cls-11" x="221.01" y="97" width="52.02" height="16.49"/><text class="cls-10" transform="translate(228.91 108.57)">3.1.1.4</text></g><g id="Rec-28" data-name="Rec"><rect class="cls-11" x="304.22" y="139.18" width="52.02" height="16.49"/><text class="cls-10" transform="translate(311.46 150.75)">F<tspan x="6.67" y="0">ADS2</tspan></text></g><line class="cls-13" x1="167.23" y1="266.38" x2="167.65" y2="321.48"/><polygon class="cls-14" points="167.89 328.8 163.71 320.44 172.09 320.46 167.89 328.8"/><line class="cls-13" x1="275.12" y1="80.71" x2="275.54" y2="135.81"/><polygon class="cls-14" points="275.78 143.13 271.6 134.77 279.98 134.79 275.78 143.13"/><line class="cls-13" x1="383.12" y1="256.25" x2="382.9" y2="217.96"/><polygon class="cls-14" points="382.6 213.57 386.77 222.35 378.39 222.32 382.6 213.57"/><line class="cls-13" x1="383.12" y1="436.04" x2="382.9" y2="397.75"/><polygon class="cls-14" points="382.6 393.36 386.77 402.14 378.39 402.11 382.6 393.36"/><line class="cls-13" x1="465.7" y1="440.11" x2="465.41" y2="388.06"/><polygon class="cls-14" points="465.11 383.67 469.27 392.44 460.89 392.41 465.11 383.67"/><line class="cls-13" x1="469.76" y1="261.72" x2="469.51" y2="219.76"/><polygon class="cls-14" points="469.19 213.31 473.36 221.67 464.98 221.64 469.19 213.31"/><line class="cls-13" x1="282.33" y1="147.31" x2="304.22" y2="147.37"/><line class="cls-13" x1="355.93" y1="147.31" x2="372.77" y2="147.36"/><polygon class="cls-14" points="377.95 147.31 369.6 151.5 369.6 143.13 377.95 147.31"/><line class="cls-13" x1="161.43" y1="187.77" x2="110.11" y2="187.52"/><polygon class="cls-14" points="102.8 187.75 111.15 183.57 111.13 191.95 102.8 187.75"/><line class="cls-13" x1="162.23" y1="260.15" x2="110.9" y2="259.89"/><polygon class="cls-14" points="103.59 260.13 111.94 255.95 111.93 264.33 103.59 260.13"/><line class="cls-13" x1="269.22" y1="186.17" x2="180.34" y2="185.73"/><polygon class="cls-14" points="173.03 185.96 181.38 181.79 181.37 190.16 173.03 185.96"/><line class="cls-13" x1="273.24" y1="260.67" x2="180.48" y2="260.2"/><polygon class="cls-14" points="173.16 260.43 181.51 256.25 181.5 264.63 173.16 260.43"/><line class="cls-13" x1="282.33" y1="259.8" x2="370.94" y2="260.26"/><polygon class="cls-14" points="378.26 260.03 369.9 264.21 369.92 255.83 378.26 260.03"/><line class="cls-13" x1="382.46" y1="267.38" x2="382.26" y2="295.84"/><line class="cls-13" x1="382.15" y1="312.31" x2="382.04" y2="327"/><polygon class="cls-14" points="382.3 328.8 378.14 320.44 386.52 320.47 382.3 328.8"/><line class="cls-13" x1="383.12" y1="447" x2="382.93" y2="473.17"/><line class="cls-13" x1="383.11" y1="489.64" x2="383" y2="505.29"/><polygon class="cls-14" points="382.95 508.41 378.79 500.05 387.17 500.08 382.95 508.41"/><line class="cls-13" x1="676.19" y1="518.97" x2="676.06" y2="537.09"/><line class="cls-13" x1="676.19" y1="553.58" x2="676.06" y2="571.71"/><polygon class="cls-14" points="676.03 580.38 671.87 572.02 680.25 572.05 676.03 580.38"/><line class="cls-13" x1="166.97" y1="591" x2="166.85" y2="608.29"/><line class="cls-13" x1="166.97" y1="624.68" x2="166.83" y2="645.4"/><polygon class="cls-14" points="166.81 652.41 162.65 644.05 171.03 644.08 166.81 652.41"/><line class="cls-13" x1="490.28" y1="662.33" x2="490.03" y2="698.4"/><polygon class="cls-14" points="490.25 705.72 486.09 697.36 494.47 697.39 490.25 705.72"/><line class="cls-13" x1="585.84" y1="663.97" x2="585.77" y2="674.04"/><line class="cls-13" x1="585.84" y1="690.49" x2="585.77" y2="700.56"/><polygon class="cls-14" points="585.81 707.36 581.65 699 590.03 699.03 585.81 707.36"/><line class="cls-13" x1="390.72" y1="260.3" x2="479.34" y2="260.77"/><polygon class="cls-14" points="486.65 260.54 478.3 264.72 478.31 256.34 486.65 260.54"/><line class="cls-13" x1="473.91" y1="378.26" x2="492.2" y2="378.36"/><line class="cls-13" x1="544.23" y1="378.26" x2="562.52" y2="378.36"/><polygon class="cls-14" points="569.84 378.5 561.49 382.67 561.5 374.29 569.84 378.5"/><line class="cls-13" x1="387.79" y1="466.97" x2="476.41" y2="467.43"/><polygon class="cls-14" points="486.13 467.2 477.78 471.38 477.79 463 486.13 467.2"/><line class="cls-13" x1="582.3" y1="378.26" x2="604.01" y2="378.37"/><line class="cls-13" x1="655.8" y1="378.26" x2="677.51" y2="378.37"/><polygon class="cls-14" points="678.23 378.5 669.88 382.67 669.89 374.29 678.23 378.5"/><line class="cls-13" x1="590.92" y1="513.46" x2="662.98" y2="513.84"/><polygon class="cls-14" points="670.3 513.61 661.94 517.79 661.96 509.41 670.3 513.61"/><line class="cls-13" x1="577.25" y1="583.68" x2="505.2" y2="584.29"/><polygon class="cls-14" points="495.76 584.84 504.05 580.55 504.15 588.93 495.76 584.84"/><line class="cls-13" x1="480.78" y1="583.92" x2="400.7" y2="584.54"/><polygon class="cls-14" points="391.65 585.09 400.87 580.8 400.98 589.17 391.65 585.09"/><line class="cls-13" x1="378.14" y1="583.19" x2="287.92" y2="583.88"/><polygon class="cls-14" points="278.87 584.43 288.1 580.14 288.2 588.52 278.87 584.43"/><line class="cls-13" x1="270.64" y1="583.25" x2="180.43" y2="583.95"/><polygon class="cls-14" points="171.38 584.5 180.6 580.21 180.71 588.58 171.38 584.5"/><line class="cls-13" x1="669.91" y1="584.02" x2="597.85" y2="584.64"/><polygon class="cls-14" points="590.54 584.97 598.84 580.68 598.94 589.05 590.54 584.97"/><line class="cls-13" x1="388.5" y1="285.78" x2="479.34" y2="286.26"/><polygon class="cls-14" points="486.65 286.02 478.3 290.2 478.31 281.82 486.65 286.02"/><line class="cls-13" x1="389.61" y1="332.07" x2="480.44" y2="332.54"/><polygon class="cls-14" points="487.76 332.31 479.41 336.49 479.42 328.11 487.76 332.31"/><line class="cls-13" x1="279.33" y1="440.85" x2="374.33" y2="441.35"/><polygon class="cls-14" points="379.81 441.12 371.45 445.3 371.47 436.92 379.81 441.12"/><line class="cls-13" x1="390.74" y1="440.88" x2="480.32" y2="441.35"/><polygon class="cls-14" points="485.8 441.12 477.44 445.29 477.46 436.92 485.8 441.12"/><line class="cls-13" x1="390.86" y1="513.37" x2="480.44" y2="513.84"/><polygon class="cls-14" points="485.92 513.61 477.56 517.79 477.58 509.41 485.92 513.61"/><line class="cls-13" x1="173.34" y1="656.93" x2="262.92" y2="657.4"/><polygon class="cls-14" points="268.39 657.17 260.04 661.35 260.05 652.97 268.39 657.17"/><line class="cls-13" x1="282.95" y1="656.93" x2="372.53" y2="657.4"/><polygon class="cls-14" points="378 657.17 369.65 661.35 369.67 652.97 378 657.17"/><line class="cls-13" x1="390.57" y1="656.86" x2="480.15" y2="657.33"/><polygon class="cls-14" points="485.62 657.1 477.26 661.27 477.28 652.89 485.62 657.1"/><line class="cls-13" x1="497.04" y1="439.94" x2="575.35" y2="440.35"/><polygon class="cls-14" points="580.82 440.12 572.46 444.3 572.48 435.92 580.82 440.12"/><line class="cls-13" x1="498.72" y1="512.82" x2="577.02" y2="513.23"/><polygon class="cls-14" points="582.5 513 574.14 517.17 574.16 508.8 582.5 513"/><line class="cls-13" x1="593.36" y1="440.5" x2="664.22" y2="440.87"/><polygon class="cls-14" points="669.69 440.64 661.33 444.82 661.35 436.44 669.69 440.64"/><line class="cls-13" x1="166.69" y1="338.77" x2="166.98" y2="376.35"/><polygon class="cls-14" points="167.22 383.67 163.04 375.31 171.42 375.33 167.22 383.67"/><line class="cls-13" x1="269.21" y1="158.88" x2="269.22" y2="186.17"/><line class="cls-13" x1="273.2" y1="158.97" x2="273.24" y2="260.67"/><line class="cls-13" x1="282.31" y1="158.97" x2="282.35" y2="260.67"/><line class="cls-13" x1="387.71" y1="267.6" x2="387.72" y2="286.01"/><line class="cls-13" x1="387.79" y1="448.46" x2="387.8" y2="466.87"/><line class="cls-13" x1="279.27" y1="158.83" x2="279.39" y2="440.11"/><polygon class="cls-14" points="583.15 656.59 573.48 660.68 573.58 652.31 583.15 656.59"/><line class="cls-13" x1="578.32" y1="656.5" x2="504.31" y2="656.25"/><polygon class="cls-14" points="496.27 656.41 504.35 652.31 504.26 660.68 496.27 656.41"/><polygon class="cls-14" points="579.64 711.71 570.41 715.8 570.5 707.42 579.64 711.71"/><line class="cls-13" x1="575.03" y1="711.61" x2="504.46" y2="711.36"/><polygon class="cls-14" points="496.79 711.52 504.5 707.42 504.41 715.8 496.79 711.52"/><g id="Rec-29" data-name="Rec"><rect class="cls-11" x="607.64" y="70.38" width="83.65" height="20.31"/><text class="cls-15" transform="translate(631.79 84.62) scale(1.05 1)">KEGG</text></g><g id="Rec-30" data-name="Rec"><rect class="cls-11" x="607.64" y="103.15" width="83.65" height="20.31"/><text class="cls-15" transform="translate(637.26 117.39) scale(1.05 1)">RN<tspan x="18.01" y="0">A</tspan></text></g><g id="Rec-31" data-name="Rec"><rect class="cls-11" x="607.64" y="137.51" width="83.65" height="20.31"/><text class="cls-15" transform="translate(625.58 151.75) scale(1.05 1)">Genome</text></g><rect class="cls-16" x="570.53" y="68.41" width="23.27" height="24.25"/><rect class="cls-17" x="570.53" y="101.17" width="23.27" height="24.25"/><rect class="cls-18" x="570.53" y="135.54" width="23.27" height="24.25"/><rect class="cls-11" x="555.17" y="54.23" width="157.42" height="120.63"/></svg>