<svg id="Layer_2" data-name="Layer 2" xmlns="http://www.w3.org/2000/svg" viewBox="0 0 873.95 870.66"><defs><style>.cls-1,.cls-12{fill:#1f91ff;}.cls-2{fill:#fbf288;}.cls-10,.cls-3{fill:#fff984;}.cls-11,.cls-4{fill:#ff6e7d;}.cls-5{fill:#f16d7d;}.cls-6{fill:#fbf28a;}.cls-7{fill:#fcf289;}.cls-17,.cls-8{fill:none;}.cls-10,.cls-11,.cls-12,.cls-17,.cls-8{stroke:#000;}.cls-10,.cls-11,.cls-12,.cls-14,.cls-15,.cls-17,.cls-8{stroke-miterlimit:10;}.cls-9{font-size:12.47px;}.cls-13,.cls-16,.cls-18,.cls-9{font-family:Arial;}.cls-13{font-size:12px;}.cls-14{fill:#e6e7e8;}.cls-14,.cls-15{stroke:#231f20;stroke-linecap:round;}.cls-16{font-size:12.59px;}.cls-17{stroke-width:2px;}.cls-18{font-size:14px;}.cls-19{font-style:italic;}</style></defs><title>rcu_ec00561</title><rect class="cls-1" x="652.03" y="571.9" width="25.58" height="16.45"/><rect class="cls-2" x="626.44" y="571.9" width="25.58" height="16.45"/><rect class="cls-1" x="539.29" y="752.09" width="17.36" height="16.45"/><rect class="cls-3" x="504.68" y="752.09" width="17.36" height="16.45"/><rect class="cls-4" x="522.04" y="752.09" width="17.36" height="16.45"/><rect class="cls-1" x="621.65" y="642.47" width="17.36" height="16.45"/><rect class="cls-3" x="587.04" y="642.47" width="17.36" height="16.45"/><rect class="cls-4" x="604.4" y="642.47" width="17.36" height="16.45"/><rect class="cls-1" x="433.68" y="306.18" width="17.36" height="16.45"/><rect class="cls-3" x="399.07" y="306.18" width="17.36" height="16.45"/><rect class="cls-4" x="416.44" y="306.18" width="17.36" height="16.45"/><rect class="cls-5" x="463.4" y="488.02" width="25.5" height="16.45"/><rect class="cls-6" x="437.9" y="488.02" width="17.04" height="16.45"/><rect class="cls-2" x="437.9" y="488.02" width="25.5" height="16.45"/><rect class="cls-5" x="506.15" y="228.52" width="25.5" height="16.45"/><rect class="cls-6" x="480.66" y="228.52" width="17.04" height="16.45"/><rect class="cls-2" x="480.66" y="228.52" width="25.5" height="16.45"/><rect class="cls-1" x="580.42" y="436.22" width="17.36" height="16.45"/><rect class="cls-3" x="545.81" y="436.22" width="17.36" height="16.45"/><rect class="cls-4" x="563.17" y="436.22" width="17.36" height="16.45"/><rect class="cls-1" x="514.03" y="371.39" width="17.36" height="16.45"/><rect class="cls-3" x="479.42" y="371.39" width="17.36" height="16.45"/><rect class="cls-4" x="496.79" y="371.39" width="17.36" height="16.45"/><rect class="cls-5" x="512.67" y="446.25" width="17.16" height="16.45"/><rect class="cls-5" x="478.48" y="446.25" width="17.16" height="16.45"/><rect class="cls-5" x="495.63" y="446.25" width="17.16" height="16.45"/><rect class="cls-2" x="180.93" y="259.12" width="17.16" height="16.45"/><rect class="cls-2" x="146.73" y="259.12" width="17.16" height="16.45"/><rect class="cls-2" x="163.89" y="259.12" width="17.16" height="16.45"/><rect class="cls-4" x="310.34" y="117.13" width="25.5" height="16.45"/><rect class="cls-7" x="284.85" y="117.13" width="17.04" height="16.45"/><rect class="cls-3" x="284.85" y="117.13" width="25.5" height="16.45"/><rect class="cls-4" x="652.28" y="507.83" width="25.5" height="16.45"/><rect class="cls-7" x="626.78" y="507.83" width="17.04" height="16.45"/><rect class="cls-3" x="626.78" y="507.83" width="25.5" height="16.45"/><rect class="cls-1" x="403.6" y="157.75" width="17.2" height="16.45"/><rect class="cls-3" x="369.32" y="157.75" width="17.2" height="16.45"/><rect class="cls-4" x="386.52" y="157.75" width="17.2" height="16.45"/><rect class="cls-1" x="459.35" y="228.52" width="17.21" height="16.45"/><rect class="cls-3" x="425.06" y="228.52" width="17.21" height="16.45"/><rect class="cls-4" x="442.26" y="228.52" width="17.21" height="16.45"/><rect class="cls-1" x="407.15" y="371.39" width="17.39" height="16.45"/><rect class="cls-3" x="372.48" y="371.39" width="17.39" height="16.45"/><rect class="cls-4" x="389.87" y="371.39" width="17.39" height="16.45"/><rect class="cls-1" x="406.65" y="463.4" width="18.01" height="16.45"/><rect class="cls-3" x="370.74" y="463.4" width="18.01" height="16.45"/><rect class="cls-4" x="388.76" y="463.4" width="18.01" height="16.45"/><rect class="cls-1" x="472.8" y="533.06" width="18.01" height="16.45"/><rect class="cls-3" x="436.9" y="533.06" width="18.01" height="16.45"/><rect class="cls-4" x="454.91" y="533.06" width="18.01" height="16.45"/><rect class="cls-1" x="472.2" y="510.16" width="17.46" height="16.45"/><rect class="cls-3" x="437.39" y="510.16" width="17.46" height="16.45"/><rect class="cls-4" x="454.85" y="510.16" width="17.46" height="16.45"/><rect class="cls-1" x="659.91" y="445.25" width="17.38" height="16.45"/><rect class="cls-3" x="625.27" y="445.25" width="17.38" height="16.45"/><rect class="cls-4" x="642.65" y="445.25" width="17.38" height="16.45"/><rect class="cls-1" x="659.91" y="487.82" width="17.38" height="16.45"/><rect class="cls-3" x="625.27" y="487.82" width="17.38" height="16.45"/><rect class="cls-4" x="642.65" y="487.82" width="17.38" height="16.45"/><rect class="cls-1" x="427.99" y="724.67" width="17.83" height="16.45"/><rect class="cls-3" x="392.46" y="724.67" width="17.83" height="16.45"/><rect class="cls-4" x="410.28" y="724.67" width="17.83" height="16.45"/><rect class="cls-1" x="428.74" y="763.25" width="17.08" height="16.45"/><rect class="cls-3" x="394.7" y="763.25" width="17.08" height="16.45"/><rect class="cls-4" x="411.78" y="763.25" width="17.08" height="16.45"/><rect class="cls-1" x="427.91" y="803.34" width="17.98" height="16.45"/><rect class="cls-3" x="392.07" y="803.34" width="17.98" height="16.45"/><rect class="cls-4" x="410.05" y="803.34" width="17.98" height="16.45"/><g id="Rec"><rect class="cls-8" x="730.65" y="59.36" width="83.65" height="20.31"/><text class="cls-9" transform="translate(754.8 73.6) scale(1.05 1)">KEGG</text></g><g id="Rec-2" data-name="Rec"><rect class="cls-8" x="730.65" y="92.13" width="83.65" height="20.31"/><text class="cls-9" transform="translate(760.27 106.37) scale(1.05 1)">RN<tspan x="18.01" y="0">A</tspan></text></g><g id="Rec-3" data-name="Rec"><rect class="cls-8" x="730.65" y="126.49" width="83.65" height="20.31"/><text class="cls-9" transform="translate(748.59 140.74) scale(1.05 1)">Genome</text></g><rect class="cls-10" x="693.54" y="57.39" width="23.27" height="24.25"/><rect class="cls-11" x="693.54" y="90.16" width="23.27" height="24.25"/><rect class="cls-12" x="693.54" y="124.52" width="23.27" height="24.25"/><rect class="cls-8" x="678.18" y="43.21" width="157.42" height="120.63"/><text class="cls-13" transform="translate(201.21 103.53)">3-Phospho-<tspan x="0" y="14.4">D-glycerate</tspan></text><text class="cls-13" x="-395.96" y="-67.24"><tspan x="404.36" y="131.34">D-Glycerate</tspan></text><text class="cls-13" x="-395.96" y="-67.24"><tspan x="335.85" y="199.46">D-Glycer-</tspan><tspan x="335.85" y="213.86">aldehyde</tspan></text><text class="cls-13" transform="translate(48.03 272.74)">Glycerone<tspan x="0" y="14.4">phosphate</tspan></text><text class="cls-13" transform="translate(204.35 269.47)">Glycerone</text><text class="cls-13" transform="translate(343.55 294.54)">Glycerol</text><text class="cls-13" transform="translate(408.28 345.51)">sn-Glycerol<tspan x="0" y="14.4">3-phosphate</tspan></text><text class="cls-13" transform="translate(303.33 366.8)">Acyl-Co<tspan x="42.01" y="0">A</tspan></text><text class="cls-13" transform="translate(303.33 449.93)">Acyl-Co<tspan x="42.01" y="0">A</tspan></text><text class="cls-13" transform="translate(291.39 416.41)">1-Acyl-sn-glycerol<tspan x="0" y="14.4">3-phosphate</tspan></text><text class="cls-13" transform="translate(508.24 399.22)">Monoacyl-<tspan x="0" y="14.4">glycerol</tspan></text><text class="cls-13" transform="translate(508.24 476.52)">1,2-Diacyl-<tspan x="0" y="14.4">sn-glycerol</tspan></text><text class="cls-13" transform="translate(732.28 510.86)">T<tspan x="6.88" y="0">riacylglycerol</tspan></text><text class="cls-13" transform="translate(623.37 547.94)">Acyl-Co<tspan x="42.01" y="0">A</tspan></text><text class="cls-13" transform="translate(728.32 568.59)">1,2-Diacyl-<tspan x="0" y="14.4">3-(6’-sulfo-ά-D-quinovosyl)-</tspan><tspan x="0" y="28.8">sn-glycerol</tspan></text><text class="cls-13" transform="translate(445.46 563.36)">1,2-Diacyl-<tspan x="0" y="14.4">3-ά-D-glucosyl-</tspan><tspan x="0" y="28.8">sn-glycerol</tspan></text><text class="cls-13" transform="translate(338.7 560.21)">1,2-Diacyl-<tspan x="0" y="14.4">3-(Glcά1-2Glcά1)-</tspan><tspan x="0" y="28.8">sn-glycerol</tspan></text><text class="cls-13" transform="translate(336.85 677.48)">1,2-Diacyl-<tspan x="0" y="14.4">3-(Glcβ1-6Glcβ1)-</tspan><tspan x="0" y="28.8">sn-glycerol</tspan></text><text class="cls-13" transform="translate(473.57 721.27)">1,2-Diacyl-<tspan x="0" y="14.4">3-β-D-galactosyl-</tspan><tspan x="0" y="28.8">sn-glycerol</tspan></text><text class="cls-13" transform="translate(196.98 565.24)">1,2-Diacyl-3-(sn-glycero-<tspan x="0" y="14.4">1-P-6Glcά1-2Glcά1)-</tspan><tspan x="0" y="28.8">sn-glycerol</tspan></text><text class="cls-13" transform="translate(199.21 677.73)">1,2-Diacyl-3-(sn-glycero-<tspan x="0" y="14.4">1-P-6Glcβ1-6Glcβ1)-</tspan><tspan x="0" y="28.8">sn-glycerol</tspan></text><text class="cls-13" transform="translate(193.87 767.69)">1,2-Diacyl-3-(Galά1-6Galβ1)-<tspan x="0" y="14.4">sn-glycerol</tspan></text><text class="cls-13" transform="translate(193.87 807.79)">1,2-Diacyl-3-(Galβ1-6Galβ1)-<tspan x="0" y="14.4">sn-glycerol</tspan></text><text class="cls-13" transform="translate(178.47 851.77)">1,2-Diacyl-3-(NeuAcά2-3Galβ1)-<tspan x="0" y="14.4">sn-glycerol</tspan></text><text class="cls-13" transform="translate(693.79 771.01)">Monogalactosyl-<tspan x="0" y="14.4">manoacylglyerol</tspan></text><text class="cls-13" transform="translate(657.97 804.39)">Acyl-monogalactosyl-<tspan x="0" y="14.4">diacylglycerol</tspan></text><text class="cls-13" transform="translate(580.67 852.36)">3-β-D-Galactosyl-<tspan x="0" y="14.4">sn-glycerol</tspan></text><text class="cls-13" transform="translate(70.98 575.92)">Lipoteichoic acid<tspan x="0" y="14.4">(kojibiose-containing)</tspan></text><text class="cls-13" transform="translate(70.98 677.73)">Lipoteichoic acid<tspan x="0" y="14.4">(gentibiose-containing)</tspan></text><text class="cls-13" transform="translate(620.86 615.83)">UDP-6-sulfoquinovose</text><text class="cls-13" transform="translate(620.86 691.63)">UDP-glucose</text><text class="cls-13" transform="translate(565.06 254.63)">3-Hydroxy-<tspan x="0" y="14.4">propanal</tspan></text><text class="cls-13" transform="translate(701.43 272.74)">Propane-<tspan x="0" y="14.4">1,3-diol</tspan></text><text class="cls-13" transform="translate(592.01 334.96)">Fatty acid</text><text class="cls-13" transform="translate(202.78 50.43)">2-Phospho-<tspan x="0" y="14.4">D-glycerate</tspan></text><circle class="cls-8" cx="109.07" cy="276.52" r="4.09"/><circle class="cls-8" cx="396.53" cy="276.52" r="4.09"/><circle class="cls-8" cx="396.53" cy="346.51" r="4.09"/><circle class="cls-8" cx="396.53" cy="419.5" r="4.09"/><circle class="cls-8" cx="504.15" cy="419.5" r="4.09"/><circle class="cls-8" cx="576.07" cy="505.29" r="4.09"/><circle class="cls-8" cx="613.03" cy="609.16" r="4.09"/><circle class="cls-8" cx="613.03" cy="684.88" r="4.09"/><circle class="cls-8" cx="468.49" cy="771.77" r="4.09"/><circle class="cls-8" cx="361.23" cy="771.77" r="4.09"/><circle class="cls-8" cx="360.23" cy="811.57" r="4.09"/><circle class="cls-8" cx="360.23" cy="852.58" r="4.09"/><circle class="cls-8" cx="649.33" cy="808.48" r="4.09"/><circle class="cls-8" cx="684.37" cy="776.86" r="4.09"/><circle class="cls-8" cx="575.16" cy="852.58" r="4.09"/><circle class="cls-8" cx="721.51" cy="579.75" r="4.09"/><circle class="cls-8" cx="613.03" cy="540.83" r="4.09"/><circle class="cls-8" cx="721.51" cy="506.29" r="4.09"/><circle class="cls-8" cx="361.23" cy="445.84" r="4.09"/><circle class="cls-8" cx="396.53" cy="506.29" r="4.09"/><circle class="cls-8" cx="468.49" cy="599.99" r="4.09"/><circle class="cls-8" cx="468.49" cy="656.72" r="4.09"/><circle class="cls-8" cx="360.23" cy="598.99" r="4.09"/><circle class="cls-8" cx="361.23" cy="656.72" r="4.09"/><circle class="cls-8" cx="252.98" cy="599.22" r="4.09"/><circle class="cls-8" cx="252.98" cy="656.72" r="4.09"/><circle class="cls-8" cx="144.73" cy="598.87" r="4.09"/><circle class="cls-8" cx="144.81" cy="656.72" r="4.09"/><circle class="cls-8" cx="612.03" cy="346.26" r="4.09"/><circle class="cls-8" cx="360.23" cy="362.72" r="4.09"/><circle class="cls-8" cx="589.25" cy="276.52" r="4.09"/><circle class="cls-8" cx="695.56" cy="276.52" r="4.09"/><circle class="cls-8" cx="229.7" cy="276.52" r="4.09"/><circle class="cls-8" cx="396.53" cy="203.93" r="4.09"/><circle class="cls-8" cx="396.53" cy="126.03" r="4.09"/><circle class="cls-8" cx="230.7" cy="126.03" r="4.09"/><circle class="cls-8" cx="230.7" cy="75.22" r="4.09"/><line class="cls-14" x1="238.79" y1="74.24" x2="283.75" y2="74.03"/><line class="cls-14" x1="335.85" y1="74.06" x2="396.53" y2="73.77"/><polygon class="cls-15" points="235.98 73.99 244.84 77.78 244.85 70.23 235.98 73.99"/><line class="cls-14" x1="238.79" y1="125.42" x2="283.75" y2="125.21"/><line class="cls-14" x1="335.85" y1="125.23" x2="392.44" y2="124.97"/><polygon class="cls-15" points="235.98 125.16 244.84 128.96 244.85 121.4 235.98 125.16"/><line class="cls-14" x1="117.45" y1="276.76" x2="225.62" y2="276.25"/><polygon class="cls-15" points="114.63 276.5 123.5 280.3 123.51 272.74 114.63 276.5"/><line class="cls-14" x1="237.79" y1="276.76" x2="381.9" y2="276.09"/><polygon class="cls-15" points="234.98 276.5 243.84 280.3 243.85 272.74 234.98 276.5"/><polygon class="cls-15" points="387.65 276.54 378.79 272.74 378.78 280.3 387.65 276.54"/><line class="cls-14" x1="405.07" y1="280.84" x2="503.54" y2="280.38"/><polygon class="cls-15" points="402.26 280.59 411.12 284.38 411.13 276.83 402.26 280.59"/><line class="cls-14" x1="504.85" y1="371.37" x2="504.42" y2="280.3"/><line class="cls-14" x1="505.47" y1="415.26" x2="505.35" y2="388.9"/><line class="cls-14" x1="406.17" y1="276.89" x2="507.24" y2="276.42"/><polygon class="cls-15" points="583.58 276.54 574.71 272.74 574.71 280.3 583.58 276.54"/><line class="cls-14" x1="559.26" y1="276.5" x2="577.09" y2="276.42"/><line class="cls-14" x1="593.34" y1="276.3" x2="611.18" y2="276.21"/><polygon class="cls-15" points="689.82 276.32 680.95 272.53 680.94 280.08 689.82 276.32"/><line class="cls-14" x1="663.2" y1="276.5" x2="681.02" y2="276.42"/><polygon class="cls-15" points="677.97 346.27 669.1 342.48 669.09 350.04 677.97 346.27"/><line class="cls-14" x1="616.12" y1="346.26" x2="669.18" y2="346.37"/><polygon class="cls-15" points="714.07 502.22 705.21 498.42 705.2 505.98 714.07 502.22"/><polygon class="cls-15" points="579.15 496.67 582.95 487.81 575.39 487.8 579.15 496.67"/><polygon class="cls-15" points="714.07 510.39 705.21 506.6 705.2 514.15 714.07 510.39"/><line class="cls-14" x1="677.79" y1="502.26" x2="705.28" y2="502.31"/><line class="cls-14" x1="720.48" y1="500.34" x2="720.56" y2="464.12"/><line class="cls-14" x1="579.13" y1="493.12" x2="579.19" y2="463.94"/><line class="cls-14" x1="677.79" y1="510.35" x2="705.28" y2="510.4"/><line class="cls-14" x1="585.33" y1="502.23" x2="624.64" y2="502.32"/><line class="cls-14" x1="579.17" y1="463.92" x2="720.56" y2="464.12"/><line class="cls-14" x1="585.33" y1="510.15" x2="624.64" y2="510.23"/><polygon class="cls-15" points="605.63 342.5 596.76 338.7 596.75 346.26 605.63 342.5"/><line class="cls-14" x1="504.66" y1="342.39" x2="596.84" y2="342.59"/><polygon class="cls-15" points="605.63 350.36 596.76 346.56 596.75 354.12 605.63 350.36"/><line class="cls-14" x1="572.99" y1="350.4" x2="596.84" y2="350.45"/><polygon class="cls-15" points="510.89 419.02 519.76 422.82 519.77 415.26 510.89 419.02"/><line class="cls-14" x1="572.92" y1="419.13" x2="519.24" y2="419.02"/><line class="cls-14" x1="573.06" y1="350.43" x2="572.88" y2="435.99"/><line class="cls-14" x1="572.84" y1="452.26" x2="572.75" y2="496.67"/><polygon class="cls-15" points="566.73 498.44 557.86 494.64 557.85 502.2 566.73 498.44"/><line class="cls-14" x1="505.11" y1="497.69" x2="557.95" y2="498.53"/><polygon class="cls-15" points="402.5 419.02 411.37 422.82 411.38 415.26 402.5 419.02"/><line class="cls-14" x1="435.04" y1="419.07" x2="410.85" y2="419.01"/><line class="cls-14" x1="505.18" y1="462.72" x2="505.1" y2="497.69"/><line class="cls-14" x1="504.4" y1="423.57" x2="504.7" y2="446.23"/><line class="cls-14" x1="500.07" y1="419.04" x2="487.06" y2="419.01"/><line class="cls-14" x1="395.86" y1="157.73" x2="395.76" y2="137.58"/><line class="cls-14" x1="396.24" y1="192.63" x2="396.15" y2="174.22"/><polygon class="cls-15" points="396.51 197.49 400.31 188.63 392.75 188.62 396.51 197.49"/><polygon class="cls-15" points="396.22 131.83 392.42 140.69 399.98 140.7 396.22 131.83"/><line class="cls-14" x1="396.56" y1="227.39" x2="396.48" y2="211.07"/><line class="cls-14" x1="396.56" y1="267.2" x2="396.46" y2="246.47"/><polygon class="cls-15" points="396.51 270.98 400.31 262.11 392.75 262.11 396.51 270.98"/><polygon class="cls-15" points="396.54 208.96 392.75 217.82 400.31 217.83 396.54 208.96"/><line class="cls-14" x1="478.59" y1="203.66" x2="411.54" y2="203.97"/><line class="cls-14" x1="478.59" y1="270.82" x2="411.54" y2="271.14"/><line class="cls-14" x1="478.6" y1="270.82" x2="478.6" y2="203.66"/><polygon class="cls-15" points="401.73 203.61 410.6 207.41 410.6 199.85 401.73 203.61"/><polygon class="cls-15" points="401.73 271.1 410.6 274.9 410.6 267.34 401.73 271.1"/><line class="cls-14" x1="148.14" y1="125.42" x2="214.69" y2="125.11"/><polygon class="cls-15" points="225.09 125.1 216.22 121.3 216.22 128.86 225.09 125.1"/><polygon class="cls-15" points="144.46 125.25 153.33 129.04 153.33 121.48 144.46 125.25"/><line class="cls-14" x1="108.32" y1="267.42" x2="108.16" y2="145.38"/><polygon class="cls-15" points="108.18 139.59 104.38 148.46 111.94 148.47 108.18 139.59"/><polygon class="cls-15" points="108.14 271.1 111.94 262.23 104.38 262.23 108.14 271.1"/><line class="cls-14" x1="109.23" y1="394.49" x2="109.09" y2="289.62"/><polygon class="cls-15" points="109.09 281.86 105.29 290.72 112.85 290.73 109.09 281.86"/><polygon class="cls-15" points="109.05 398.17 112.85 389.31 105.29 389.3 109.05 398.17"/><line class="cls-14" x1="392.52" y1="339.16" x2="392.5" y2="322.65"/><line class="cls-14" x1="400.3" y1="306.16" x2="400.28" y2="284.38"/><line class="cls-14" x1="400.3" y1="336.18" x2="400.29" y2="322.65"/><line class="cls-14" x1="392.45" y1="305.94" x2="392.43" y2="292.41"/><polygon class="cls-15" points="392.46 283.54 388.66 292.4 396.22 292.41 392.46 283.54"/><polygon class="cls-15" points="400.59 341.25 404.39 332.38 396.83 332.38 400.59 341.25"/><line class="cls-14" x1="612.14" y1="409.7" x2="612.12" y2="393.19"/><line class="cls-14" x1="612.18" y1="463.46" x2="612.05" y2="362.95"/><polygon class="cls-15" points="612.08 354.08 608.28 362.94 615.84 362.95 612.08 354.08"/><line class="cls-14" x1="108.05" y1="112.4" x2="107.8" y2="74.01"/><line class="cls-14" x1="218.5" y1="74.01" x2="108.8" y2="74.01"/><polygon class="cls-15" points="108.05 112.4 111.85 103.54 104.29 103.53 108.05 112.4"/><polygon class="cls-15" points="223.56 74.02 214.69 70.23 214.69 77.78 223.56 74.02"/><line class="cls-14" x1="108.81" y1="440.9" x2="108.67" y2="506.22"/><line class="cls-14" x1="384.28" y1="506.27" x2="109.67" y2="506.22"/><polygon class="cls-15" points="108.79 438.68 112.59 447.55 105.03 447.55 108.79 438.68"/><polygon class="cls-15" points="390.36 506.55 381.49 510.35 381.48 502.79 390.36 506.55"/><line class="cls-14" x1="561.37" y1="506.78" x2="400.61" y2="506.25"/><polygon class="cls-15" points="567.45 507.06 558.58 510.86 558.57 503.3 567.45 507.06"/><line class="cls-14" x1="709.09" y1="579.45" x2="678.04" y2="579.35"/><line class="cls-14" x1="625.56" y1="579.45" x2="587.02" y2="579.32"/><polygon class="cls-15" points="715.17 579.73 706.31 583.53 706.3 575.97 715.17 579.73"/><line class="cls-14" x1="587.17" y1="514.15" x2="586.96" y2="578.82"/><g id="Round"><rect class="cls-8" x="73.68" y="114.03" width="70.78" height="24" rx="12" ry="12"/><text class="cls-16" transform="translate(81.9 131.83) scale(0.94 1)">Glycolysis</text></g><g id="Round-2" data-name="Round"><rect class="cls-8" x="51.13" y="398.61" width="128.51" height="39.09" rx="12" ry="12"/><text class="cls-16" transform="translate(59.35 416.41) scale(0.94 1)">Glyecerophospholipid<tspan x="0" y="15.11">metabolism</tspan></text></g><g id="Round-3" data-name="Round"><rect class="cls-8" x="683.15" y="327.71" width="76.73" height="39.09" rx="12" ry="12"/><text class="cls-16" transform="translate(691.37 345.51) scale(0.94 1)">Fatty acid<tspan x="0" y="15.11">degradation</tspan></text></g><g id="Head"><rect class="cls-17" x="1" y="1" width="382.22" height="31.5"/><text class="cls-18" transform="translate(4.88 23.5) scale(1.15 1)">Glycerolipid Metabolism - 00561 - <tspan class="cls-19" x="212.42" y="0">Ricinus communis</tspan></text></g><g id="Rec-4" data-name="Rec"><rect class="cls-8" x="283.83" y="65.97" width="52.02" height="16.49"/><text class="cls-13" transform="translate(285.05 77.54)">2.7.1.165</text></g><g id="Rec-5" data-name="Rec"><rect class="cls-8" x="283.83" y="116.94" width="52.02" height="16.49"/><text class="cls-13" transform="translate(288.39 128.5)">2.7.1.31</text></g><g id="Rec-6" data-name="Rec"><rect class="cls-8" x="369.51" y="157.73" width="52.02" height="16.49"/><text class="cls-13" transform="translate(377.42 169.29)">1.2.1.3</text></g><g id="Rec-7" data-name="Rec"><rect class="cls-8" x="371.51" y="228.54" width="52.02" height="16.49"/><text class="cls-13" transform="translate(376.08 240.11)">1.1.1.72</text></g><g id="Rec-8" data-name="Rec"><rect class="cls-8" x="424.54" y="228.54" width="52.02" height="16.49"/><text class="cls-13" transform="translate(432.44 240.11)">1.1.1.2</text></g><g id="Rec-9" data-name="Rec"><rect class="cls-8" x="507.24" y="268.27" width="52.02" height="16.49"/><text class="cls-13" transform="translate(511.8 279.84)">4.2.1.30</text></g><g id="Rec-10" data-name="Rec"><rect class="cls-8" x="342.27" y="306.16" width="52.02" height="16.49"/><text class="cls-13" transform="translate(346.84 317.73)">3.1.3.21</text></g><g id="Rec-11" data-name="Rec"><rect class="cls-8" x="371.51" y="371.37" width="52.02" height="16.49"/><text class="cls-13" transform="translate(376.08 382.93)">2.3.1.15</text></g><g id="Rec-12" data-name="Rec"><rect class="cls-8" x="435.04" y="411.25" width="52.02" height="16.49"/><text class="cls-13" transform="translate(439.6 422.82)">2.7.1.94</text></g><g id="Rec-13" data-name="Rec"><rect class="cls-8" x="371.51" y="463.46" width="52.02" height="16.49"/><text class="cls-13" transform="translate(376.08 475.03)">2.3.1.51</text></g><g id="Rec-14" data-name="Rec"><rect class="cls-8" x="437.39" y="487.8" width="52.02" height="16.49"/><text class="cls-13" transform="translate(445.29 499.37)">3.1.3.4</text></g><g id="Rec-15" data-name="Rec"><rect class="cls-8" x="437.64" y="509.38" width="52.02" height="16.49"/><text class="cls-13" transform="translate(442.2 520.94)">3.1.3.81</text></g><g id="Rec-16" data-name="Rec"><rect class="cls-8" x="437.89" y="533.04" width="52.02" height="16.49"/><text class="cls-13" transform="translate(439.11 544.61)">2.7.1.107</text></g><g id="Rec-17" data-name="Rec"><rect class="cls-8" x="504.65" y="591.74" width="52.02" height="16.49"/><text class="cls-13" transform="translate(505.88 603.31)">2.4.1.337</text></g><g id="Rec-18" data-name="Rec"><rect class="cls-8" x="393.44" y="591.74" width="52.02" height="16.49"/><text class="cls-13" transform="translate(394.66 603.31)">2.4.1.208</text></g><g id="Rec-19" data-name="Rec"><rect class="cls-8" x="393.44" y="648.47" width="52.02" height="16.49"/><text class="cls-13" transform="translate(394.66 660.04)">2.4.1.315</text></g><g id="Rec-20" data-name="Rec"><rect class="cls-8" x="442.48" y="689.61" width="52.02" height="16.49"/><text class="cls-13" transform="translate(447.04 701.17)">5.1.3.34</text></g><g id="Rec-21" data-name="Rec"><rect class="cls-8" x="393.44" y="724.52" width="52.02" height="16.49"/><text class="cls-13" transform="translate(398 736.08)">3.2.1.22</text></g><g id="Rec-22" data-name="Rec"><rect class="cls-8" x="393.44" y="763.53" width="52.02" height="16.49"/><text class="cls-13" transform="translate(394.66 775.1)">2.4.1.241</text></g><g id="Rec-23" data-name="Rec"><rect class="cls-8" x="393.44" y="803.32" width="52.02" height="16.49"/><text class="cls-13" transform="translate(394.66 814.89)">2.4.1.184</text></g><g id="Rec-24" data-name="Rec"><rect class="cls-8" x="393.44" y="844.33" width="52.02" height="16.49"/><text class="cls-13" transform="translate(398 855.9)">2.4.99.5</text></g><g id="Rec-25" data-name="Rec"><rect class="cls-8" x="504.9" y="637.52" width="52.02" height="16.49"/><text class="cls-13" transform="translate(506.12 649.09)">2.4.1.315</text></g><g id="Rec-26" data-name="Rec"><rect class="cls-8" x="505.15" y="658.94" width="52.02" height="16.49"/><text class="cls-13" transform="translate(506.37 670.51)">2.4.1.336</text></g><g id="Rec-27" data-name="Rec"><rect class="cls-8" x="286.68" y="591.74" width="52.02" height="16.49"/><text class="cls-13" transform="translate(291.24 603.31)">2.7.8.20</text></g><g id="Rec-28" data-name="Rec"><rect class="cls-8" x="286.68" y="648.47" width="52.02" height="16.49"/><text class="cls-13" transform="translate(291.24 660.04)">2.7.8.20</text></g><g id="Rec-29" data-name="Rec"><rect class="cls-8" x="479.14" y="371.37" width="52.02" height="16.49"/><text class="cls-13" transform="translate(483.7 382.93)">3.1.1.23</text></g><g id="Rec-30" data-name="Rec"><rect class="cls-8" x="545.97" y="435.99" width="52.02" height="16.49"/><text class="cls-13" transform="translate(553.87 447.55)">3.1.1.3</text></g><g id="Rec-31" data-name="Rec"><rect class="cls-8" x="625.27" y="445.23" width="52.02" height="16.49"/><text class="cls-13" transform="translate(633.17 456.8)">3.1.1.3</text></g><g id="Rec-32" data-name="Rec"><rect class="cls-8" x="625.52" y="466.78" width="52.02" height="16.49"/><text class="cls-13" transform="translate(630.08 478.35)">3.1.1.34</text></g><g id="Rec-33" data-name="Rec"><rect class="cls-8" x="625.77" y="487.8" width="52.02" height="16.49"/><text class="cls-13" transform="translate(626.99 499.37)">2.3.1.158</text></g><g id="Rec-34" data-name="Rec"><rect class="cls-8" x="626.02" y="507.81" width="52.02" height="16.49"/><text class="cls-13" transform="translate(630.58 519.38)">2.3.1.20</text></g><g id="Rec-35" data-name="Rec"><rect class="cls-8" x="625.27" y="571.51" width="52.02" height="16.49"/><text class="cls-13" transform="translate(635.18 583.08)">SQD2</text></g><g id="Rec-36" data-name="Rec"><rect class="cls-8" x="587.02" y="642.45" width="52.02" height="16.49"/><text class="cls-13" transform="translate(596.93 654.02)">SQD1</text></g><g id="Rec-37" data-name="Rec"><rect class="cls-8" x="607.74" y="759.44" width="52.02" height="16.49"/><text class="cls-13" transform="translate(608.96 771.01)">2.3.1.141</text></g><g id="Rec-38" data-name="Rec"><rect class="cls-8" x="550.41" y="776.86" width="52.02" height="16.49"/><text class="cls-13" transform="translate(551.63 788.43)">2.3.1.134</text></g><g id="Rec-39" data-name="Rec"><rect class="cls-8" x="504.65" y="752.52" width="52.02" height="16.49"/><text class="cls-13" transform="translate(509.21 764.09)">2.4.1.46</text></g><g id="Rec-40" data-name="Rec"><rect class="cls-8" x="492.82" y="844.33" width="52.02" height="16.49"/><text class="cls-13" transform="translate(497.39 855.9)">3.1.1.26</text></g><g id="Rec-41" data-name="Rec"><rect class="cls-8" x="478.39" y="446.23" width="52.02" height="16.49"/><text class="cls-13" transform="translate(482.95 457.8)">2.3.1.22</text></g><g id="Rec-42" data-name="Rec"><rect class="cls-8" x="398.53" y="306.16" width="52.02" height="16.49"/><text class="cls-13" transform="translate(403.09 317.73)">2.7.1.30</text></g><g id="Rec-43" data-name="Rec"><rect class="cls-8" x="611.18" y="268.27" width="52.02" height="16.49"/><text class="cls-13" transform="translate(612.4 279.84)">1.1.1.202</text></g><g id="Rec-44" data-name="Rec"><rect class="cls-8" x="480.14" y="229" width="52.02" height="16.49"/><text class="cls-13" transform="translate(484.7 240.56)">1.1.1.21</text></g><g id="Rec-45" data-name="Rec"><rect class="cls-8" x="283.08" y="257.9" width="52.02" height="16.49"/><text class="cls-13" transform="translate(290.98 269.47)">1.1.1.6</text></g><g id="Rec-46" data-name="Rec"><rect class="cls-8" x="146.4" y="257.9" width="52.02" height="16.49"/><text class="cls-13" transform="translate(150.96 269.47)">2.7.1.29</text></g><g id="Rec-47" data-name="Rec"><rect class="cls-8" x="146.4" y="278.05" width="52.02" height="16.49"/><text class="cls-13" transform="translate(147.62 289.62)">2.7.1.121</text></g><g id="Rec-48" data-name="Rec"><rect class="cls-8" x="283.08" y="278.05" width="52.02" height="16.49"/><text class="cls-13" transform="translate(284.3 289.62)">1.1.1.156</text></g><line class="cls-14" x1="396.53" y1="119.38" x2="396.53" y2="73.91"/><line class="cls-14" x1="395.89" y1="410.58" x2="395.86" y2="387.86"/><line class="cls-14" x1="395.84" y1="371.37" x2="395.82" y2="352.79"/><polygon class="cls-15" points="395.87 413.69 399.67 404.82 392.11 404.82 395.87 413.69"/><line class="cls-14" x1="395.89" y1="497.61" x2="395.87" y2="479.95"/><line class="cls-14" x1="396.54" y1="541.28" x2="396.51" y2="519.38"/><line class="cls-14" x1="566.74" y1="541.28" x2="566.71" y2="513.41"/><line class="cls-14" x1="395.89" y1="463.3" x2="396.53" y2="423.58"/><polygon class="cls-15" points="395.87 500.71 399.67 491.85 392.11 491.84 395.87 500.71"/><polygon class="cls-15" points="396.23 511.62 392.43 520.49 399.99 520.5 396.23 511.62"/><line class="cls-14" x1="437.89" y1="541.25" x2="396.52" y2="541.3"/><line class="cls-14" x1="566.73" y1="541.2" x2="489.91" y2="541.3"/><line class="cls-14" x1="157.2" y1="599.17" x2="248.89" y2="599.47"/><polygon class="cls-15" points="151.12 598.88 159.99 595.09 159.99 602.65 151.12 598.88"/><line class="cls-14" x1="156.09" y1="656.51" x2="247.78" y2="656.82"/><polygon class="cls-15" points="150.01 656.23 158.88 652.43 158.88 659.99 150.01 656.23"/><line class="cls-14" x1="264.3" y1="599.52" x2="286.68" y2="599.59"/><polygon class="cls-15" points="258.22 599.24 267.08 595.44 267.09 603 258.22 599.24"/><line class="cls-14" x1="338.7" y1="599.77" x2="357.15" y2="599.83"/><line class="cls-14" x1="264.3" y1="656.97" x2="286.68" y2="657.04"/><polygon class="cls-15" points="258.22 656.69 267.08 652.89 267.09 660.45 258.22 656.69"/><line class="cls-14" x1="338.7" y1="657.22" x2="357.15" y2="657.28"/><line class="cls-14" x1="371.4" y1="599.52" x2="393.78" y2="599.59"/><polygon class="cls-15" points="365.32 599.24 374.19 595.44 374.19 603 365.32 599.24"/><line class="cls-14" x1="445.8" y1="599.77" x2="464.25" y2="599.83"/><line class="cls-14" x1="371.4" y1="657" x2="393.78" y2="657.07"/><polygon class="cls-15" points="365.32 656.71 374.19 652.92 374.19 660.48 365.32 656.71"/><line class="cls-14" x1="445.8" y1="657.24" x2="464.25" y2="657.31"/><line class="cls-14" x1="374.61" y1="771.31" x2="393.44" y2="771.37"/><polygon class="cls-15" points="368.54 771.03 377.4 767.23 377.41 774.79 368.54 771.03"/><line class="cls-14" x1="445.71" y1="771.31" x2="464.16" y2="771.37"/><line class="cls-14" x1="361.23" y1="732.69" x2="393.44" y2="732.8"/><line class="cls-14" x1="462.95" y1="757.87" x2="463.04" y2="732.76"/><line class="cls-14" x1="361.15" y1="767.23" x2="361.27" y2="731.98"/><line class="cls-14" x1="468.44" y1="757.87" x2="468.62" y2="706.1"/><line class="cls-14" x1="468.53" y1="689.61" x2="468.62" y2="660.8"/><polygon class="cls-15" points="468.5 764.75 464.71 755.88 472.26 755.87 468.5 764.75"/><polygon class="cls-15" points="463.03 764.75 459.23 755.88 466.79 755.87 463.03 764.75"/><line class="cls-14" x1="446.95" y1="732.73" x2="463.01" y2="732.78"/><line class="cls-14" x1="374.61" y1="811.86" x2="393.44" y2="811.93"/><polygon class="cls-15" points="368.54 811.58 377.4 807.79 377.41 815.35 368.54 811.58"/><line class="cls-14" x1="445.71" y1="811.87" x2="463.64" y2="811.93"/><line class="cls-14" x1="463.64" y1="811.93" x2="463.68" y2="779.21"/><line class="cls-14" x1="374.61" y1="852.47" x2="393.44" y2="852.53"/><polygon class="cls-15" points="368.54 852.19 377.4 848.39 377.41 855.95 368.54 852.19"/><line class="cls-14" x1="445.71" y1="852.47" x2="468.64" y2="852.53"/><line class="cls-14" x1="468.63" y1="852.53" x2="468.73" y2="779.46"/><line class="cls-14" x1="562.85" y1="852.42" x2="544.85" y2="852.48"/><polygon class="cls-15" points="568.93 852.14 560.06 848.34 560.06 855.9 568.93 852.14"/><line class="cls-14" x1="491.76" y1="852.42" x2="473.4" y2="852.47"/><line class="cls-14" x1="472.76" y1="852.5" x2="472.67" y2="779.43"/><line class="cls-14" x1="479.65" y1="599.52" x2="504.65" y2="599.6"/><polygon class="cls-15" points="473.57 599.24 482.44 595.44 482.45 603 473.57 599.24"/><line class="cls-14" x1="556.67" y1="599.78" x2="572.5" y2="599.83"/><line class="cls-14" x1="572.23" y1="513.97" x2="572.23" y2="599.99"/><line class="cls-14" x1="479.65" y1="656.56" x2="559.54" y2="656.83"/><polygon class="cls-15" points="473.57 656.28 482.44 652.48 482.45 660.04 473.57 656.28"/><line class="cls-14" x1="556.67" y1="656.82" x2="576.23" y2="657.03"/><line class="cls-14" x1="576.24" y1="514.52" x2="576.23" y2="657.03"/><line class="cls-14" x1="484.09" y1="760.61" x2="504.65" y2="760.68"/><polygon class="cls-15" points="478.01 760.33 486.88 756.53 486.88 764.09 478.01 760.33"/><line class="cls-14" x1="556.67" y1="760.82" x2="580.67" y2="761.08"/><line class="cls-14" x1="580.68" y1="514.89" x2="580.67" y2="761.08"/><line class="cls-14" x1="484.09" y1="772.74" x2="607.74" y2="772.78"/><polygon class="cls-15" points="478.01 772.79 486.88 769 486.88 776.55 478.01 772.79"/><line class="cls-14" x1="659.76" y1="772.64" x2="676.67" y2="772.83"/><line class="cls-14" x1="670.89" y1="779.75" x2="602.43" y2="779.73"/><polygon class="cls-15" points="676.97 779.7 668.1 783.49 668.1 775.93 676.97 779.7"/><polygon class="cls-15" points="649.34 803.39 645.55 794.53 653.1 794.52 649.34 803.39"/><line class="cls-14" x1="550.41" y1="780.45" x2="478.31" y2="779.66"/><line class="cls-14" x1="649.65" y1="801.97" x2="649.66" y2="779.74"/><line class="cls-14" x1="613.12" y1="622.01" x2="613.05" y2="642.45"/><polygon class="cls-15" points="613.01 614.29 616.81 623.16 609.25 623.17 613.01 614.29"/><line class="cls-14" x1="613.07" y1="660.04" x2="613" y2="680.48"/><path class="cls-8" d="M1009.1,672.32c1.27-7.77-9.13-23,10.23-25.84-0.92,0-1.82-.08-2.73-0.11,0.94,0,1.8,0,2.73.11" transform="translate(-395.96 -67.24)"/><path class="cls-8" d="M1009.1,603.57c1.27-7.77-9.13-23,10.23-25.84-0.92,0-1.82-.08-2.73-0.11,0.94,0,1.8,0,2.73.11" transform="translate(-395.96 -67.24)"/><path class="cls-8" d="M761.27,512.7c9.16,1.12,27.16-8.05,30.45,9,0-.81.1-1.6,0.13-2.41a18.9,18.9,0,0,1-.13,2.41" transform="translate(-395.96 -67.24)"/><path class="cls-8" d="M761.27,429.93c9.2,0.87,27.27-6.2,30.58,7,0-.62.1-1.23,0.13-1.86a11.21,11.21,0,0,1-.13,1.86" transform="translate(-395.96 -67.24)"/><text x="-395.96" y="-67.24"/></svg>