<svg id="Layer_2" data-name="Layer 2" xmlns="http://www.w3.org/2000/svg" viewBox="0 0 1026.64 597.09"><defs><style>.cls-1{fill:#f16d7d;}.cls-14,.cls-2{fill:#1f91ff;}.cls-12,.cls-3{fill:#fff984;}.cls-13,.cls-4{fill:#ff6e7d;}.cls-5{fill:#fbf288;}.cls-6{fill:#fbf28a;}.cls-7{fill:#fcf289;}.cls-8{font-size:12px;}.cls-11,.cls-15,.cls-19,.cls-8,.cls-9{font-family:Arial;}.cls-9{font-size:11.17px;}.cls-10,.cls-18{fill:none;}.cls-10,.cls-12,.cls-13,.cls-14,.cls-18{stroke:#000;}.cls-10,.cls-12,.cls-13,.cls-14,.cls-16,.cls-17,.cls-18{stroke-miterlimit:10;}.cls-11{font-size:12.47px;}.cls-15{font-size:12.59px;}.cls-16{fill:#e6e7e8;}.cls-16,.cls-17{stroke:#231f20;stroke-linecap:round;}.cls-18{stroke-width:2px;}.cls-19{font-size:14px;}.cls-20{font-style:italic;}</style></defs><title>rcu_ec00600</title><rect class="cls-1" x="664.62" y="375.63" width="17.16" height="16.45"/><rect class="cls-1" x="630.42" y="375.63" width="17.16" height="16.45"/><rect class="cls-1" x="647.58" y="375.63" width="17.16" height="16.45"/><rect class="cls-2" x="553.63" y="236.52" width="17.36" height="16.45"/><rect class="cls-3" x="519.02" y="236.52" width="17.36" height="16.45"/><rect class="cls-4" x="536.38" y="236.52" width="17.36" height="16.45"/><rect class="cls-2" x="377.22" y="333.83" width="17.36" height="16.45"/><rect class="cls-3" x="342.62" y="333.83" width="17.36" height="16.45"/><rect class="cls-4" x="359.98" y="333.83" width="17.36" height="16.45"/><rect class="cls-2" x="580.39" y="135.08" width="17.36" height="16.45"/><rect class="cls-3" x="545.78" y="135.08" width="17.36" height="16.45"/><rect class="cls-4" x="563.15" y="135.08" width="17.36" height="16.45"/><rect class="cls-2" x="288.16" y="178.86" width="17.36" height="16.45"/><rect class="cls-3" x="253.55" y="178.86" width="17.36" height="16.45"/><rect class="cls-4" x="270.91" y="178.86" width="17.36" height="16.45"/><rect class="cls-2" x="233.14" y="323.26" width="17.36" height="16.45"/><rect class="cls-3" x="198.54" y="323.26" width="17.36" height="16.45"/><rect class="cls-4" x="215.9" y="323.26" width="17.36" height="16.45"/><rect class="cls-1" x="470.21" y="135.08" width="17.16" height="16.45"/><rect class="cls-1" x="436.01" y="135.08" width="17.16" height="16.45"/><rect class="cls-1" x="453.16" y="135.08" width="17.16" height="16.45"/><rect class="cls-1" x="177.61" y="178.86" width="17.16" height="16.45"/><rect class="cls-1" x="143.41" y="178.86" width="17.16" height="16.45"/><rect class="cls-1" x="160.57" y="178.86" width="17.16" height="16.45"/><rect class="cls-5" x="663.93" y="282.33" width="17.16" height="16.45"/><rect class="cls-5" x="629.73" y="282.33" width="17.16" height="16.45"/><rect class="cls-5" x="646.88" y="282.33" width="17.16" height="16.45"/><rect class="cls-2" x="375.39" y="312.69" width="17.36" height="16.45"/><rect class="cls-3" x="340.78" y="312.69" width="17.36" height="16.45"/><rect class="cls-4" x="358.14" y="312.69" width="17.36" height="16.45"/><rect class="cls-1" x="501.44" y="313.02" width="28.97" height="16.45"/><rect class="cls-6" x="472.47" y="313.02" width="19.35" height="16.45"/><rect class="cls-5" x="472.47" y="313.02" width="28.97" height="16.45"/><rect class="cls-1" x="593.37" y="214.53" width="25.5" height="16.45"/><rect class="cls-6" x="567.87" y="214.53" width="17.04" height="16.45"/><rect class="cls-5" x="567.87" y="214.53" width="25.5" height="16.45"/><rect class="cls-2" x="376.91" y="232.4" width="17.7" height="16.45"/><rect class="cls-3" x="341.63" y="232.4" width="17.7" height="16.45"/><rect class="cls-4" x="359.33" y="232.4" width="17.7" height="16.45"/><rect class="cls-2" x="316.28" y="288.1" width="17.7" height="16.45"/><rect class="cls-3" x="281" y="288.1" width="17.7" height="16.45"/><rect class="cls-4" x="298.7" y="288.1" width="17.7" height="16.45"/><rect class="cls-2" x="433.41" y="288.1" width="17.7" height="16.45"/><rect class="cls-3" x="398.13" y="288.1" width="17.7" height="16.45"/><rect class="cls-4" x="415.83" y="288.1" width="17.7" height="16.45"/><rect class="cls-2" x="375.15" y="395.92" width="17.58" height="16.45"/><rect class="cls-3" x="340.11" y="395.92" width="17.58" height="16.45"/><rect class="cls-4" x="357.69" y="395.92" width="17.58" height="16.45"/><rect class="cls-2" x="509.64" y="384.79" width="17.58" height="16.45"/><rect class="cls-3" x="474.59" y="384.79" width="17.58" height="16.45"/><rect class="cls-4" x="492.17" y="384.79" width="17.58" height="16.45"/><rect class="cls-2" x="598.74" y="509.77" width="17.37" height="16.45"/><rect class="cls-3" x="564.12" y="509.77" width="17.37" height="16.45"/><rect class="cls-4" x="581.49" y="509.77" width="17.37" height="16.45"/><rect class="cls-2" x="665.15" y="354.93" width="17.18" height="16.45"/><rect class="cls-3" x="630.9" y="354.93" width="17.18" height="16.45"/><rect class="cls-4" x="648.08" y="354.93" width="17.18" height="16.45"/><rect class="cls-3" x="376.87" y="356.01" width="17.16" height="16.45"/><rect class="cls-3" x="342.67" y="356.01" width="17.16" height="16.45"/><rect class="cls-3" x="359.83" y="356.01" width="17.16" height="16.45"/><rect class="cls-4" x="116.63" y="315.02" width="25.5" height="16.45"/><rect class="cls-7" x="91.14" y="315.02" width="17.04" height="16.45"/><rect class="cls-3" x="91.14" y="315.02" width="25.5" height="16.45"/><rect class="cls-4" x="500.97" y="83.97" width="25.5" height="16.45"/><rect class="cls-7" x="475.47" y="83.97" width="17.04" height="16.45"/><rect class="cls-3" x="475.47" y="83.97" width="25.5" height="16.45"/><rect class="cls-4" x="367.6" y="96.5" width="25.5" height="16.45"/><rect class="cls-7" x="342.11" y="96.5" width="17.04" height="16.45"/><rect class="cls-3" x="342.11" y="96.5" width="25.5" height="16.45"/><rect class="cls-2" x="367.94" y="195.47" width="25.58" height="16.45"/><rect class="cls-7" x="342.35" y="195.47" width="17.09" height="16.45"/><rect class="cls-4" x="342.35" y="195.47" width="25.58" height="16.45"/><rect class="cls-2" x="778.25" y="311.93" width="25.58" height="16.45"/><rect class="cls-7" x="752.67" y="311.93" width="17.09" height="16.45"/><rect class="cls-4" x="752.67" y="311.93" width="25.58" height="16.45"/><g id="Head"><text x="-327.47" y="-170.23"/></g><text class="cls-8" transform="translate(25.39 267.18)">L-Serine</text><text class="cls-8" transform="translate(10.07 342.05)">Palmitoyl-Co<tspan x="68.02" y="0">A</tspan></text><text class="cls-8" transform="translate(197.91 92.88)">Dihydrosphingosine-1<tspan x="116.07" y="0">P</tspan></text><text class="cls-8" transform="translate(393.61 75.8)">Phospho-<tspan x="0" y="14.4">ethanolamine</tspan></text><text class="cls-8" transform="translate(579.89 108.73)">Sphingosine-1<tspan x="76.72" y="0">P</tspan></text><text class="cls-8" transform="translate(577.89 195.41)">Sphingosine</text><text class="cls-8" transform="translate(435.55 250.26)">Phyto-<tspan x="0" y="14.4">ceramide</tspan></text><text class="cls-8" transform="translate(720.87 108.81)">Psychosine</text><text class="cls-8" transform="translate(721.55 226.8)">Ceramide<tspan x="0" y="14.4">phospho-</tspan><tspan x="0" y="28.8">ethanolamine</tspan></text><text class="cls-8" transform="translate(721.55 268.48)">Ceramide<tspan x="0" y="14.4">ciliatine</tspan></text><text class="cls-8" transform="translate(130.81 296.33)">3-Dehydro-<tspan x="0" y="14.4">sphinganine</tspan></text><text class="cls-8" transform="translate(353.5 190.41)">LAC1</text><text class="cls-9" transform="translate(200.38 282.12) scale(1.03 1)">Dihydro-<tspan x="0" y="13.4">sphingosine</tspan><tspan x="0" y="26.8">(Sphinganine)</tspan></text><text class="cls-8" transform="translate(178.06 399.57)">Lactosylceramide</text><text class="cls-8" transform="translate(391.86 473.58)">GM4</text><text class="cls-8" transform="translate(573.96 448.04)">Galactosyl-<tspan x="0" y="14.4">ceramide</tspan></text><text class="cls-8" transform="translate(724.76 399.6)">Ceramide-<tspan x="56.02" y="0">P</tspan></text><text class="cls-8" transform="translate(722.13 470.07)">Sulfatide</text><text class="cls-8" transform="translate(513.62 593.19)">Digalactosylceramide</text><text class="cls-8" transform="translate(687.69 593.19)">Digalactosylceramide sulfate</text><text class="cls-8" transform="translate(722.13 339.73)">Sphingomyelin</text><text class="cls-8" transform="translate(804.01 343)">Sphingosyl-<tspan x="0" y="14.4">phosphocholine</tspan></text><text class="cls-8" transform="translate(412.8 415.71)">Glucosyl-<tspan x="0" y="14.4">ceramide</tspan></text><text class="cls-8" transform="translate(454.3 290.55)">Ceramide<tspan x="0" y="14.4">(N-Acylsphingosine)</tspan></text><text class="cls-8" transform="translate(430.93 338.73)">Dehydro-<tspan x="0" y="14.4">ceramide</tspan></text><text class="cls-8" transform="translate(290.95 268.48)">Phyto-<tspan x="0" y="14.4">sphingosine</tspan></text><g id="Rec"><rect class="cls-10" x="921.19" y="87.57" width="83.65" height="20.31"/><text class="cls-11" transform="translate(945.34 101.82) scale(1.05 1)">KEGG</text></g><g id="Rec-2" data-name="Rec"><rect class="cls-10" x="921.19" y="120.34" width="83.65" height="20.31"/><text class="cls-11" transform="translate(950.81 134.58) scale(1.05 1)">RN<tspan x="18.01" y="0">A</tspan></text></g><g id="Rec-3" data-name="Rec"><rect class="cls-10" x="921.19" y="154.7" width="83.65" height="20.31"/><text class="cls-11" transform="translate(939.12 168.95) scale(1.05 1)">Genome</text></g><rect class="cls-12" x="884.08" y="85.6" width="23.27" height="24.25"/><rect class="cls-13" x="884.08" y="118.37" width="23.27" height="24.25"/><rect class="cls-14" x="884.08" y="152.73" width="23.27" height="24.25"/><rect class="cls-10" x="868.72" y="71.43" width="157.42" height="120.63"/><g id="Round"><rect class="cls-10" x="48.88" y="454.73" width="189.24" height="37.71" rx="12" ry="12"/><text class="cls-15" transform="translate(57.11 472.53) scale(0.94 1)">Glycosphingolipid biosynthesis<tspan x="0" y="15.11">- lacto and neolacto series</tspan></text></g><g id="Round-2" data-name="Round"><rect class="cls-10" x="13.77" y="121.19" width="129.74" height="37.71" rx="12" ry="12"/><text class="cls-15" transform="translate(21.99 138.99) scale(0.94 1)">Glycine, serine and<tspan x="0" y="15.11">threonine metabolism</tspan></text></g><g id="Round-3" data-name="Round"><rect class="cls-10" x="46.89" y="500.04" width="189.24" height="37.71" rx="12" ry="12"/><text class="cls-15" transform="translate(55.12 517.84) scale(0.94 1)">Glycosphingolipid biosynthesis<tspan x="0" y="15.11">- globo series</tspan></text></g><g id="Round-4" data-name="Round"><rect class="cls-10" x="48.88" y="545.36" width="189.24" height="37.71" rx="12" ry="12"/><text class="cls-15" transform="translate(57.11 563.16) scale(0.94 1)">Glycosphingolipid biosynthesis<tspan x="0" y="15.11">- ganglio series</tspan></text></g><g id="Rec-4" data-name="Rec"><rect class="cls-10" x="90.62" y="314.99" width="52.02" height="16.49"/><text class="cls-8" transform="translate(95.19 326.56)">2.3.1.50</text></g><g id="Rec-5" data-name="Rec"><rect class="cls-10" x="142.93" y="178.84" width="52.02" height="16.49"/><text class="cls-8" transform="translate(150.83 190.41)">3.1.3.4</text></g><g id="Rec-6" data-name="Rec"><rect class="cls-10" x="200.38" y="178.92" width="52.02" height="16.49"/><text class="cls-8" transform="translate(209.62 190.49)">3.1.3.-</text></g><g id="Rec-7" data-name="Rec"><rect class="cls-10" x="435.67" y="135.28" width="52.02" height="16.49"/><text class="cls-8" transform="translate(443.57 146.84)">3.1.3.4</text></g><g id="Rec-8" data-name="Rec"><rect class="cls-10" x="198.51" y="323.24" width="52.02" height="16.49"/><text class="cls-8" transform="translate(199.73 334.81)">1.1.1.102</text></g><g id="Rec-9" data-name="Rec"><rect class="cls-10" x="253.27" y="178.92" width="52.02" height="16.49"/><text class="cls-8" transform="translate(257.83 190.49)">2.7.1.91</text></g><g id="Rec-10" data-name="Rec"><rect class="cls-10" x="491.72" y="135.28" width="52.02" height="16.49"/><text class="cls-8" transform="translate(500.96 146.84)">3.1.3.-</text></g><g id="Rec-11" data-name="Rec"><rect class="cls-10" x="545.18" y="135.28" width="52.02" height="16.49"/><text class="cls-8" transform="translate(549.75 146.84)">2.7.1.91</text></g><g id="Rec-12" data-name="Rec"><rect class="cls-10" x="687.69" y="131.74" width="52.02" height="16.49"/><text class="cls-8" transform="translate(692.25 143.31)">2.4.1.23</text></g><g id="Rec-13" data-name="Rec"><rect class="cls-10" x="518.42" y="236.78" width="52.02" height="16.49"/><text class="cls-8" transform="translate(522.98 248.35)">2.3.1.24</text></g><g id="Rec-14" data-name="Rec"><rect class="cls-10" x="567.11" y="215.23" width="52.02" height="16.49"/><text class="cls-8" transform="translate(571.67 226.8)">3.5.1.23</text></g><g id="Rec-15" data-name="Rec"><rect class="cls-10" x="629.39" y="231.72" width="52.02" height="16.49"/><text class="cls-8" transform="translate(638.64 243.29)">2.7.8.-</text></g><g id="Rec-16" data-name="Rec"><rect class="cls-10" x="629.39" y="257.47" width="52.02" height="16.49"/><text class="cls-8" transform="translate(638.64 269.04)">2.7.8.-</text></g><g id="Rec-17" data-name="Rec"><rect class="cls-10" x="629.39" y="283.23" width="52.02" height="16.49"/><text class="cls-8" transform="translate(633.96 294.8)">2.7.8.27</text></g><g id="Rec-18" data-name="Rec"><rect class="cls-10" x="629.64" y="303.66" width="52.02" height="16.49"/><text class="cls-8" transform="translate(637.54 315.23)">2.7.8.3</text></g><g id="Rec-19" data-name="Rec"><rect class="cls-10" x="629.39" y="324.1" width="52.02" height="16.49"/><text class="cls-8" transform="translate(633.96 335.66)">3.1.4.12</text></g><g id="Rec-20" data-name="Rec"><rect class="cls-10" x="751.99" y="311.91" width="52.02" height="16.49"/><text class="cls-8" transform="translate(756.55 323.48)">2.3.1.24</text></g><g id="Rec-21" data-name="Rec"><rect class="cls-10" x="694.86" y="345.38" width="52.02" height="16.49"/><text class="cls-8" transform="translate(699.42 356.95)">3.1.4.41</text></g><g id="Rec-22" data-name="Rec"><rect class="cls-10" x="629.89" y="354.99" width="52.02" height="16.49"/><text class="cls-8" transform="translate(631.12 366.56)">2.7.1.138</text></g><g id="Rec-23" data-name="Rec"><rect class="cls-10" x="630.14" y="375.61" width="52.02" height="16.49"/><text class="cls-8" transform="translate(638.04 387.18)">3.1.3.4</text></g><g id="Rec-24" data-name="Rec"><rect class="cls-10" x="630.39" y="397.51" width="52.02" height="16.49"/><text class="cls-8" transform="translate(639.63 409.08)">3.1.3.-</text></g><g id="Rec-25" data-name="Rec"><rect class="cls-10" x="571.44" y="404.14" width="52.02" height="16.49"/><text class="cls-8" transform="translate(576.01 415.71)">3.2.1.46</text></g><g id="Rec-26" data-name="Rec"><rect class="cls-10" x="517.98" y="424.94" width="52.02" height="16.49"/><text class="cls-8" transform="translate(522.54 436.51)">2.4.1.47</text></g><g id="Rec-27" data-name="Rec"><rect class="cls-10" x="513.62" y="530.9" width="52.02" height="16.49"/><text class="cls-8" transform="translate(522.86 542.47)">2.4.1.-</text></g><g id="Rec-28" data-name="Rec"><rect class="cls-10" x="564.93" y="509.6" width="52.02" height="16.49"/><text class="cls-8" transform="translate(569.49 521.17)">3.2.1.22</text></g><g id="Rec-29" data-name="Rec"><rect class="cls-10" x="629.64" y="458.04" width="52.02" height="16.49"/><text class="cls-8" transform="translate(634.65 469.61)">2.8.2.<tspan x="30.02" y="0">1</tspan><tspan x="35.81" y="0">1</tspan></text></g><g id="Rec-30" data-name="Rec"><rect class="cls-10" x="629.64" y="483.85" width="52.02" height="16.49"/><text class="cls-8" transform="translate(637.54 495.42)">3.1.6.1</text></g><g id="Rec-31" data-name="Rec"><rect class="cls-10" x="629.64" y="503.76" width="52.02" height="16.49"/><text class="cls-8" transform="translate(637.54 515.32)">3.1.6.8</text></g><g id="Rec-32" data-name="Rec"><rect class="cls-10" x="629.64" y="566.08" width="52.02" height="16.49"/><text class="cls-8" transform="translate(634.65 577.65)">2.8.2.<tspan x="30.02" y="0">1</tspan><tspan x="35.81" y="0">1</tspan></text></g><g id="Rec-33" data-name="Rec"><rect class="cls-10" x="474.74" y="458.04" width="52.02" height="16.49"/><text class="cls-8" transform="translate(479.3 469.61)">3.2.1.18</text></g><g id="Rec-34" data-name="Rec"><rect class="cls-10" x="812.98" y="215.23" width="52.02" height="16.49"/><text class="cls-8" transform="translate(817.54 226.8)">2.7.8.10</text></g><g id="Rec-35" data-name="Rec"><rect class="cls-10" x="342.09" y="195.41" width="52.02" height="16.49"/><text class="cls-8" transform="translate(353 206.98)">LAG1</text></g><g id="Rec-36" data-name="Rec"><rect class="cls-10" x="341.59" y="232.38" width="52.02" height="16.49"/><text class="cls-8" transform="translate(346.15 243.95)">3.5.1.23</text></g><g id="Rec-37" data-name="Rec"><rect class="cls-10" x="280.65" y="288.08" width="52.02" height="16.49"/><text class="cls-8" transform="translate(281.87 299.65)">1.14.18.5</text></g><g id="Rec-38" data-name="Rec"><rect class="cls-10" x="341.59" y="312.89" width="52.02" height="16.49"/><text class="cls-8" transform="translate(346.15 324.46)">2.3.1.24</text></g><g id="Rec-39" data-name="Rec"><rect class="cls-10" x="342.34" y="376.94" width="52.02" height="16.49"/><text class="cls-8" transform="translate(343.56 388.5)">2.4.1.274</text></g><g id="Rec-40" data-name="Rec"><rect class="cls-10" x="475.2" y="355.99" width="52.02" height="16.49"/><text class="cls-8" transform="translate(479.77 367.56)">2.4.1.80</text></g><g id="Rec-41" data-name="Rec"><rect class="cls-10" x="472.03" y="312.89" width="58.38" height="16.49"/><text class="cls-8" transform="translate(472.37 324.46)">1.14.19.17</text></g><g id="Rec-42" data-name="Rec"><rect class="cls-10" x="475.45" y="385.18" width="52.02" height="16.49"/><text class="cls-8" transform="translate(480.01 396.75)">3.2.1.45</text></g><g id="Rec-43" data-name="Rec"><rect class="cls-10" x="339.84" y="396.51" width="52.02" height="16.49"/><text class="cls-8" transform="translate(344.4 408.08)">3.2.1.23</text></g><g id="Rec-44" data-name="Rec"><rect class="cls-10" x="342.59" y="333.81" width="52.02" height="16.49"/><text class="cls-8" transform="translate(347.15 345.38)">3.5.1.23</text></g><g id="Rec-45" data-name="Rec"><rect class="cls-10" x="398.72" y="288.08" width="52.02" height="16.49"/><text class="cls-8" transform="translate(399.95 299.65)">1.14.18.5</text></g><g id="Rec-46" data-name="Rec"><rect class="cls-10" x="342.34" y="254.15" width="52.02" height="16.49"/><text class="cls-8" transform="translate(352.92 265.72)">YPC1</text></g><g id="Rec-47" data-name="Rec"><rect class="cls-10" x="341.59" y="355.99" width="52.02" height="16.49"/><text class="cls-8" transform="translate(351.84 367.56)">YDC1</text></g><g id="Rec-48" data-name="Rec"><rect class="cls-10" x="341.84" y="96.48" width="52.02" height="16.49"/><text class="cls-8" transform="translate(346.4 108.05)">4.1.2.27</text></g><g id="Rec-49" data-name="Rec"><rect class="cls-10" x="474.95" y="84.64" width="52.02" height="16.49"/><text class="cls-8" transform="translate(479.52 96.21)">4.1.2.27</text></g><text x="-327.47" y="-170.23"/><circle class="cls-10" cx="81.72" cy="262.92" r="4.09"/><circle class="cls-10" cx="172.98" cy="323.24" r="4.09"/><circle class="cls-10" cx="280.65" cy="102.75" r="4.09"/><circle class="cls-10" cx="570.19" cy="102.75" r="4.09"/><circle class="cls-10" cx="570.19" cy="178.02" r="4.09"/><circle class="cls-10" cx="713.7" cy="265" r="4.09"/><circle class="cls-10" cx="713.7" cy="238.78" r="4.09"/><circle class="cls-10" cx="63.19" cy="322.24" r="4.09"/><circle class="cls-10" cx="280.65" cy="322.24" r="4.09"/><circle class="cls-10" cx="424.76" cy="100.73" r="4.09"/><circle class="cls-10" cx="713.7" cy="104.73" r="4.09"/><circle class="cls-10" cx="426.84" cy="250.06" r="4.09"/><circle class="cls-10" cx="424.76" cy="393.43" r="4.09"/><circle class="cls-10" cx="713.7" cy="322.24" r="4.09"/><circle class="cls-10" cx="713.7" cy="395.51" r="4.09"/><circle class="cls-10" cx="836.3" cy="322.24" r="4.09"/><circle class="cls-10" cx="280.65" cy="393.43" r="4.09"/><circle class="cls-10" cx="319.51" cy="251.06" r="4.09"/><circle class="cls-10" cx="424.74" cy="323.24" r="4.09"/><circle class="cls-10" cx="571.19" cy="320.15" r="4.09"/><circle class="cls-10" cx="425.76" cy="466.29" r="4.09"/><circle class="cls-10" cx="571.19" cy="465.29" r="4.09"/><circle class="cls-10" cx="713.78" cy="466.29" r="4.09"/><circle class="cls-10" cx="712.7" cy="574.33" r="4.09"/><circle class="cls-10" cx="569.11" cy="573.33" r="4.09"/><line class="cls-16" x1="836.55" y1="213.94" x2="836.55" y2="180.76"/><line class="cls-16" x1="836.3" y1="309.65" x2="836.3" y2="232.82"/><polygon class="cls-17" points="836.53 316.18 840.33 307.64 832.77 307.64 836.53 316.18"/><line class="cls-16" x1="274.79" y1="103.78" x2="197.99" y2="103.73"/><line class="cls-16" x1="199.67" y1="318.34" x2="197.99" y2="103.73"/><polygon class="cls-17" points="273.46 318.2 264.92 314.4 264.92 321.96 273.46 318.2"/><line class="cls-16" x1="265.45" y1="318.34" x2="199.67" y2="318.34"/><line class="cls-16" x1="280.66" y1="560.07" x2="281.9" y2="401.29"/><polygon class="cls-17" points="237.46 560.09 246 556.29 246 563.85 237.46 560.09"/><line class="cls-16" x1="245.47" y1="560.22" x2="280.65" y2="560.22"/><polygon class="cls-17" points="237.46 517.86 246 514.06 246 521.62 237.46 517.86"/><line class="cls-16" x1="245.47" y1="518" x2="280.65" y2="518"/><polygon class="cls-17" points="237.46 474.07 246 470.27 246 477.83 237.46 474.07"/><line class="cls-16" x1="245.47" y1="474.05" x2="280.65" y2="474.05"/><line class="cls-16" x1="341.85" y1="102.5" x2="286.51" y2="102.64"/><line class="cls-16" x1="417.24" y1="102.51" x2="393.86" y2="102.73"/><polygon class="cls-17" points="417.08 102.77 408.54 98.97 408.53 106.53 417.08 102.77"/><line class="cls-16" x1="490.36" y1="106.88" x2="490.36" y2="178.48"/><line class="cls-16" x1="562.91" y1="177.78" x2="490.36" y2="178.48"/><line class="cls-16" x1="562.91" y1="106.18" x2="490.36" y2="106.88"/><polygon class="cls-17" points="562.74 178.04 554.2 174.24 554.2 181.8 562.74 178.04"/><line class="cls-16" x1="578.14" y1="173.94" x2="714.14" y2="173.94"/><line class="cls-16" x1="714.05" y1="113.01" x2="714.23" y2="131.74"/><line class="cls-16" x1="713.94" y1="148.23" x2="714.14" y2="173.94"/><polygon class="cls-17" points="714.31 113.17 710.51 121.72 718.07 121.72 714.31 113.17"/><line class="cls-16" x1="526.98" y1="98.86" x2="566.12" y2="98.77"/><line class="cls-16" x1="435.38" y1="98.9" x2="474.95" y2="98.52"/><polygon class="cls-17" points="435.55 98.64 444.09 102.44 444.1 94.88 435.55 98.64"/><line class="cls-16" x1="629.4" y1="238.54" x2="575.28" y2="238.68"/><line class="cls-16" x1="629.42" y1="264.93" x2="577.78" y2="264.69"/><line class="cls-16" x1="577.78" y1="264.69" x2="577.99" y2="311.14"/><line class="cls-16" x1="575.02" y1="238.61" x2="574.65" y2="311.26"/><line class="cls-16" x1="707.63" y1="238.54" x2="681.42" y2="238.79"/><line class="cls-16" x1="707.88" y1="264.44" x2="681.67" y2="264.7"/><polygon class="cls-17" points="707.46 238.8 698.92 235 698.92 242.56 707.46 238.8"/><polygon class="cls-17" points="708.62 264.72 700.08 260.92 700.08 268.48 708.62 264.72"/><line class="cls-16" x1="569.65" y1="152.94" x2="569.7" y2="172.51"/><line class="cls-16" x1="569.08" y1="108.57" x2="569.34" y2="135.28"/><polygon class="cls-17" points="569.34 108.73 565.54 117.27 573.1 117.28 569.34 108.73"/><line class="cls-16" x1="564.42" y1="236.58" x2="564.42" y2="184.5"/><line class="cls-16" x1="564.69" y1="308.97" x2="564.15" y2="253.27"/><polygon class="cls-17" points="564.4 308.8 568.2 300.26 560.64 300.25 564.4 308.8"/><line class="cls-16" x1="319.5" y1="245.98" x2="319.5" y2="202.5"/><line class="cls-16" x1="424.96" y1="202.51" x2="394.36" y2="202.51"/><line class="cls-16" x1="425.36" y1="242.99" x2="424.96" y2="202.51"/><polygon class="cls-17" points="425.07 242.83 428.87 234.29 421.31 234.28 425.07 242.83"/><line class="cls-16" x1="341.59" y1="202.5" x2="319.5" y2="202.5"/><line class="cls-16" x1="568.38" y1="424.94" x2="568.39" y2="334.82"/><line class="cls-16" x1="568.47" y1="458.98" x2="568.3" y2="441.43"/><polygon class="cls-17" points="568.18 458.82 571.98 450.28 564.42 450.27 568.18 458.82"/><line class="cls-16" x1="561.42" y1="530.9" x2="561.88" y2="474.53"/><line class="cls-16" x1="561.51" y1="567.74" x2="561.32" y2="547.39"/><polygon class="cls-17" points="561.23 567.57 565.02 559.03 557.46 559.03 561.23 567.57"/><line class="cls-16" x1="572.13" y1="232.43" x2="572.12" y2="310.48"/><line class="cls-16" x1="571.5" y1="194.16" x2="571.7" y2="215.23"/><polygon class="cls-17" points="571.79 186.13 567.99 194.67 575.55 194.68 571.79 186.13"/><line class="cls-16" x1="582.61" y1="395.02" x2="708.21" y2="395.03"/><line class="cls-16" x1="582.33" y1="342.48" x2="582.61" y2="395.02"/><polygon class="cls-17" points="582.63 334.46 578.83 343 586.39 343 582.63 334.46"/><line class="cls-16" x1="527.22" y1="395.03" x2="563.06" y2="395.03"/><line class="cls-16" x1="432.17" y1="394.56" x2="475.2" y2="394.57"/><line class="cls-16" x1="562.74" y1="342.53" x2="563.06" y2="395.03"/><polygon class="cls-17" points="563.03 334.5 559.23 343.04 566.79 343.05 563.03 334.5"/><line class="cls-16" x1="425.33" y1="318.1" x2="425.33" y2="305.05"/><line class="cls-16" x1="424.77" y1="266.66" x2="424.9" y2="286.9"/><polygon class="cls-17" points="425.06 258.64 421.26 267.18 428.82 267.18 425.06 258.64"/><line class="cls-16" x1="474.17" y1="366.56" x2="425.04" y2="365.94"/><line class="cls-16" x1="556.25" y1="366.56" x2="528.41" y2="366.56"/><line class="cls-16" x1="556.25" y1="366.25" x2="528.41" y2="366.25"/><line class="cls-16" x1="555.84" y1="333.5" x2="556.25" y2="366.25"/><line class="cls-16" x1="425.13" y1="379.42" x2="425.04" y2="365.94"/><polygon class="cls-17" points="424.84 387.45 428.64 378.91 421.08 378.9 424.84 387.45"/><line class="cls-16" x1="569.12" y1="526.1" x2="569.11" y2="566.72"/><line class="cls-16" x1="569.12" y1="481.85" x2="569.11" y2="509.13"/><polygon class="cls-17" points="569.13 474.53 565.33 483.07 572.89 483.08 569.13 474.53"/><line class="cls-16" x1="713.95" y1="471.11" x2="713.95" y2="502.72"/><line class="cls-16" x1="576.68" y1="481.9" x2="576.67" y2="502.08"/><polygon class="cls-17" points="576.68 474.58 572.89 483.12 580.45 483.13 576.68 474.58"/><line class="cls-16" x1="81.36" y1="257.52" x2="80.89" y2="158.89"/><polygon class="cls-17" points="81.11 257.36 84.9 248.82 77.34 248.81 81.11 257.36"/><line class="cls-16" x1="836.86" y1="180.51" x2="575.93" y2="181.01"/><g id="Head-2" data-name="Head"><rect class="cls-18" x="1" y="12.6" width="386.59" height="31.5"/><text class="cls-19" transform="translate(5.83 35.1) scale(1.15 1)">Sphingolipid Metabolism - 00600 - <tspan class="cls-20" x="215.56" y="0">Ricinus communis</tspan></text></g><line class="cls-16" x1="470.94" y1="321.42" x2="432.55" y2="321.24"/><line class="cls-16" x1="562.64" y1="320.99" x2="530.4" y2="321.31"/><polygon class="cls-17" points="563.38 321.26 554.84 317.47 554.84 325.03 563.38 321.26"/><line class="cls-16" x1="629.39" y1="317.3" x2="581.05" y2="317.07"/><line class="cls-16" x1="707.13" y1="317.17" x2="681.42" y2="317.17"/><polygon class="cls-17" points="707.87 317.28 699.33 313.49 699.32 321.05 707.87 317.28"/><line class="cls-16" x1="713.7" y1="308.94" x2="713.7" y2="292.39"/><polygon class="cls-17" points="713.37 314.78 717.17 306.24 709.61 306.23 713.37 314.78"/><line class="cls-16" x1="583.98" y1="304" x2="583.98" y2="292.39"/><line class="cls-16" x1="629.39" y1="293.03" x2="584.47" y2="292.39"/><line class="cls-16" x1="713.95" y1="292.61" x2="681.67" y2="292.16"/><polygon class="cls-17" points="583.65 309.84 587.45 301.31 579.89 301.3 583.65 309.84"/><line class="cls-16" x1="341.59" y1="322.13" x2="287.27" y2="321.87"/><line class="cls-16" x1="417.37" y1="321.63" x2="393.61" y2="321.86"/><polygon class="cls-17" points="418.11 321.9 409.57 318.11 409.56 325.66 418.11 321.9"/><line class="cls-16" x1="338.91" y1="397.75" x2="287.28" y2="397.5"/><line class="cls-16" x1="417.38" y1="397.26" x2="391.86" y2="397.51"/><polygon class="cls-17" points="418.12 397.53 409.58 393.73 409.57 401.29 418.12 397.53"/><line class="cls-16" x1="198.51" y1="327.58" x2="179.62" y2="327.49"/><line class="cls-16" x1="272.74" y1="327.07" x2="250.53" y2="327.29"/><polygon class="cls-17" points="273.48 327.34 264.94 323.55 264.94 331.11 273.48 327.34"/><line class="cls-16" x1="89.15" y1="322.5" x2="69.82" y2="322.41"/><line class="cls-16" x1="165.07" y1="321.99" x2="142.35" y2="322.2"/><polygon class="cls-17" points="165.82 322.26 157.09 318.46 157.09 326.02 165.82 322.26"/><line class="cls-16" x1="285.98" y1="304.57" x2="285.93" y2="313.9"/><line class="cls-16" x1="286.01" y1="250.25" x2="285.91" y2="288.08"/><line class="cls-16" x1="311.52" y1="250" x2="286.01" y2="250.25"/><polygon class="cls-17" points="312.26 250.28 303.73 246.48 303.72 254.04 312.26 250.28"/><line class="cls-16" x1="426.69" y1="352.33" x2="426.71" y2="329.15"/><line class="cls-16" x1="280.31" y1="352.2" x2="426.69" y2="352.33"/><line class="cls-16" x1="280.09" y1="329.62" x2="280.31" y2="352.2"/><polygon class="cls-17" points="280.36 328.88 276.56 337.42 284.12 337.42 280.36 328.88"/><line class="cls-16" x1="326.08" y1="250.32" x2="419.21" y2="250.19"/><polygon class="cls-17" points="325.34 250.05 333.88 253.84 333.88 246.29 325.34 250.05"/><line class="cls-16" x1="276.75" y1="195.41" x2="278.01" y2="314.4"/><line class="cls-16" x1="276.31" y1="113.8" x2="276.94" y2="178.92"/><polygon class="cls-17" points="276.58 113.06 272.78 121.6 280.34 121.61 276.58 113.06"/><line class="cls-16" x1="630.2" y1="466.52" x2="578.57" y2="466.28"/><line class="cls-16" x1="708.67" y1="466.03" x2="682.16" y2="466.29"/><polygon class="cls-17" points="709.41 466.31 700.87 462.51 700.86 470.07 709.41 466.31"/><line class="cls-16" x1="629.64" y1="574.57" x2="575.48" y2="574.31"/><line class="cls-16" x1="705.58" y1="574.07" x2="681.67" y2="574.3"/><polygon class="cls-17" points="706.32 574.34 697.78 570.55 697.78 578.11 706.32 574.34"/><line class="cls-16" x1="474.74" y1="466.59" x2="432.17" y2="466.39"/><line class="cls-16" x1="562.27" y1="466.15" x2="527.47" y2="466.48"/><polygon class="cls-17" points="563.01 466.42 554.47 462.62 554.47 470.18 563.01 466.42"/><line class="cls-16" x1="681.42" y1="325.18" x2="707.11" y2="325.31"/><line class="cls-16" x1="582.9" y1="325.58" x2="629.39" y2="326.33"/><polygon class="cls-17" points="582.16 325.31 590.7 329.11 590.71 321.55 582.16 325.31"/><line class="cls-16" x1="717.78" y1="345.38" x2="717.87" y2="327.68"/><line class="cls-16" x1="718.02" y1="387.06" x2="717.85" y2="362.1"/><polygon class="cls-17" points="717.75 387.8 721.54 379.26 713.99 379.25 717.75 387.8"/><line class="cls-16" x1="588.92" y1="366.56" x2="589.07" y2="334.81"/><line class="cls-16" x1="629.39" y1="366.75" x2="588.99" y2="366.56"/><line class="cls-16" x1="709.73" y1="366.56" x2="682.66" y2="366.93"/><line class="cls-16" x1="709.87" y1="387.06" x2="709.73" y2="366.56"/><polygon class="cls-17" points="709.59 387.8 713.39 379.26 705.83 379.25 709.59 387.8"/><line class="cls-16" x1="394.44" y1="389.93" x2="420.13" y2="390.05"/><line class="cls-16" x1="290.97" y1="389.59" x2="341.59" y2="390.41"/><polygon class="cls-17" points="290.23 389.32 298.77 393.12 298.77 385.56 290.23 389.32"/><line class="cls-16" x1="804.01" y1="322.67" x2="829.7" y2="322.79"/><line class="cls-16" x1="722.87" y1="322.49" x2="751.99" y2="322.96"/><polygon class="cls-17" points="722.13 322.22 730.67 326.02 730.67 318.46 722.13 322.22"/><path class="cls-10" d="M408.15,437.24c0.92,16.61-6.56,49.23,7.36,55.21-0.66,0-1.3.18-2,.23a7.07,7.07,0,0,0,2-.23" transform="translate(-327.47 -170.23)"/><line class="cls-16" x1="713.95" y1="502.28" x2="576.67" y2="502.08"/></svg>