<svg id="Layer_2" data-name="Layer 2" xmlns="http://www.w3.org/2000/svg" viewBox="0 0 931.51 1133.97"><defs><style>.cls-1,.cls-22{fill:#1f91ff;}.cls-2,.cls-20{fill:#fff984;}.cls-21,.cls-3{fill:#ff6e7d;}.cls-4{fill:#fbf28a;}.cls-5{fill:#f16d7d;}.cls-6{fill:#fbf288;}.cls-12,.cls-7{fill:none;}.cls-12,.cls-20,.cls-21,.cls-22,.cls-7{stroke:#000;}.cls-12,.cls-15,.cls-16,.cls-20,.cls-21,.cls-22,.cls-7{stroke-miterlimit:10;}.cls-7{stroke-width:2px;}.cls-8{font-size:14px;}.cls-10,.cls-13,.cls-14,.cls-19,.cls-8{font-family:Arial;}.cls-9{font-style:italic;}.cls-10,.cls-17{font-size:12px;}.cls-11{letter-spacing:-1px;}.cls-13{font-size:12px;}.cls-14{font-size:11.25px;}.cls-15{fill:#e6e7e8;}.cls-15,.cls-16{stroke:#231f20;stroke-linecap:round;}.cls-17{font-family:Myriad Pro;}.cls-18{white-space:pre;}.cls-19{font-size:12.47px;}</style></defs><title>rcu_ec00062</title><rect class="cls-1" x="157.81" y="968.85" width="17.36" height="16.45"/><rect class="cls-2" x="123.2" y="968.85" width="17.36" height="16.45"/><rect class="cls-3" x="140.56" y="968.85" width="17.36" height="16.45"/><rect class="cls-1" x="193.17" y="1051.27" width="17.36" height="16.45"/><rect class="cls-2" x="158.56" y="1051.27" width="17.36" height="16.45"/><rect class="cls-3" x="175.92" y="1051.27" width="17.36" height="16.45"/><rect class="cls-1" x="527.2" y="968.85" width="17.36" height="16.45"/><rect class="cls-2" x="492.59" y="968.85" width="17.36" height="16.45"/><rect class="cls-3" x="509.95" y="968.85" width="17.36" height="16.45"/><rect class="cls-1" x="527.38" y="891.15" width="17.36" height="16.45"/><rect class="cls-2" x="492.77" y="891.15" width="17.36" height="16.45"/><rect class="cls-3" x="510.13" y="891.15" width="17.36" height="16.45"/><rect class="cls-1" x="527.8" y="735.52" width="17.36" height="16.45"/><rect class="cls-2" x="493.19" y="735.52" width="17.36" height="16.45"/><rect class="cls-3" x="510.55" y="735.52" width="17.36" height="16.45"/><rect class="cls-1" x="182.42" y="735.52" width="25.58" height="16.45"/><rect class="cls-4" x="156.84" y="735.52" width="17.09" height="16.45"/><rect class="cls-5" x="156.84" y="735.52" width="25.58" height="16.45"/><rect class="cls-1" x="149.18" y="891.47" width="25.58" height="16.45"/><rect class="cls-4" x="123.6" y="891.47" width="17.09" height="16.45"/><rect class="cls-5" x="123.6" y="891.47" width="25.58" height="16.45"/><rect class="cls-6" x="526.61" y="810.49" width="17.16" height="16.45"/><rect class="cls-6" x="492.41" y="810.49" width="17.16" height="16.45"/><rect class="cls-6" x="509.57" y="810.49" width="17.16" height="16.45"/><rect class="cls-5" x="517.93" y="1049.9" width="25.5" height="16.45"/><rect class="cls-4" x="492.44" y="1049.9" width="17.04" height="16.45"/><rect class="cls-6" x="492.44" y="1049.9" width="25.5" height="16.45"/><rect class="cls-1" x="811.32" y="507.5" width="17.36" height="16.45"/><rect class="cls-2" x="776.72" y="507.5" width="17.36" height="16.45"/><rect class="cls-3" x="794.08" y="507.5" width="17.36" height="16.45"/><rect class="cls-1" x="783.76" y="418.48" width="17.36" height="16.45"/><rect class="cls-2" x="749.15" y="418.48" width="17.36" height="16.45"/><rect class="cls-3" x="766.51" y="418.48" width="17.36" height="16.45"/><rect class="cls-1" x="641.24" y="418.62" width="17.36" height="16.45"/><rect class="cls-2" x="606.63" y="418.62" width="17.36" height="16.45"/><rect class="cls-3" x="623.99" y="418.62" width="17.36" height="16.45"/><rect class="cls-1" x="500.67" y="418.91" width="17.36" height="16.45"/><rect class="cls-2" x="466.06" y="418.91" width="17.36" height="16.45"/><rect class="cls-3" x="483.42" y="418.91" width="17.36" height="16.45"/><rect class="cls-1" x="74.44" y="418.31" width="17.36" height="16.45"/><rect class="cls-2" x="39.83" y="418.31" width="17.36" height="16.45"/><rect class="cls-3" x="57.19" y="418.31" width="17.36" height="16.45"/><rect class="cls-1" x="218.14" y="418.58" width="17.36" height="16.45"/><rect class="cls-2" x="183.53" y="418.58" width="17.36" height="16.45"/><rect class="cls-3" x="200.89" y="418.58" width="17.36" height="16.45"/><rect class="cls-1" x="359.59" y="418.58" width="17.36" height="16.45"/><rect class="cls-2" x="324.98" y="418.58" width="17.36" height="16.45"/><rect class="cls-3" x="342.34" y="418.58" width="17.36" height="16.45"/><rect class="cls-1" x="775.19" y="335.62" width="25.58" height="16.45"/><rect class="cls-4" x="749.61" y="335.62" width="17.09" height="16.45"/><rect class="cls-5" x="749.61" y="335.62" width="25.58" height="16.45"/><rect class="cls-1" x="631.15" y="337.35" width="25.58" height="16.45"/><rect class="cls-4" x="605.57" y="337.35" width="17.09" height="16.45"/><rect class="cls-5" x="605.57" y="337.35" width="25.58" height="16.45"/><rect class="cls-1" x="492.29" y="338.64" width="25.58" height="16.45"/><rect class="cls-4" x="466.71" y="338.64" width="17.09" height="16.45"/><rect class="cls-5" x="466.71" y="338.64" width="25.58" height="16.45"/><rect class="cls-1" x="63.82" y="334.69" width="25.58" height="16.45"/><rect class="cls-4" x="38.23" y="334.69" width="17.09" height="16.45"/><rect class="cls-5" x="38.23" y="334.69" width="25.58" height="16.45"/><rect class="cls-1" x="207.09" y="336.67" width="25.58" height="16.45"/><rect class="cls-4" x="181.51" y="336.67" width="17.09" height="16.45"/><rect class="cls-5" x="181.51" y="336.67" width="25.58" height="16.45"/><rect class="cls-1" x="349.24" y="336.67" width="25.58" height="16.45"/><rect class="cls-4" x="323.65" y="336.67" width="17.09" height="16.45"/><rect class="cls-5" x="323.65" y="336.67" width="25.58" height="16.45"/><rect class="cls-1" x="804.82" y="168.71" width="25.58" height="16.45"/><rect class="cls-4" x="779.23" y="168.71" width="17.09" height="16.45"/><rect class="cls-5" x="779.23" y="168.71" width="25.58" height="16.45"/><rect class="cls-1" x="661.16" y="172.33" width="25.58" height="16.45"/><rect class="cls-4" x="635.58" y="172.33" width="17.09" height="16.45"/><rect class="cls-5" x="635.58" y="172.33" width="25.58" height="16.45"/><rect class="cls-1" x="519.92" y="171.84" width="25.58" height="16.45"/><rect class="cls-4" x="494.34" y="171.84" width="17.09" height="16.45"/><rect class="cls-5" x="494.34" y="171.84" width="25.58" height="16.45"/><rect class="cls-1" x="377.98" y="172.28" width="25.58" height="16.45"/><rect class="cls-4" x="352.39" y="172.28" width="17.09" height="16.45"/><rect class="cls-5" x="352.39" y="172.28" width="25.58" height="16.45"/><rect class="cls-1" x="234.83" y="170.52" width="25.58" height="16.45"/><rect class="cls-4" x="209.25" y="170.52" width="17.09" height="16.45"/><rect class="cls-5" x="209.25" y="170.52" width="25.58" height="16.45"/><rect class="cls-1" x="92.84" y="171.01" width="25.58" height="16.45"/><rect class="cls-4" x="67.26" y="171.01" width="17.09" height="16.45"/><rect class="cls-5" x="67.26" y="171.01" width="25.58" height="16.45"/><g id="Head"><rect class="cls-7" x="6.43" y="28.2" width="369.65" height="31.5"/><text class="cls-8" transform="translate(9.32 50.7) scale(1.15 1)">Fatty<tspan x="31.12" y="0"> </tspan><tspan x="34.23" y="0">Acid Elongation - 00062 - </tspan><tspan class="cls-9" x="195.34" y="0">Ricinus communis</tspan></text></g><text class="cls-10" transform="translate(39.49 90.1)">In mitochondria (4&lt;n&lt;16)</text><text class="cls-10" transform="translate(100.15 216.63)">3-Oxo-<tspan x="0" y="14.4">hexanoyl-Co</tspan><tspan x="67.37" y="14.4">A</tspan></text><text class="cls-10" transform="translate(240.17 299.25)">(S)-3Hydroxy-<tspan x="0" y="14.4">octanoyl-Co</tspan><tspan x="64.03" y="14.4">A</tspan></text><text class="cls-10" transform="translate(382.22 302.34)">(S)-3Hydroxy-<tspan x="0" y="14.4">decanoyl-Co</tspan><tspan x="67.37" y="14.4">A</tspan></text><text class="cls-10" transform="translate(524.14 298.02)">(S)-3Hydroxy-<tspan x="0" y="14.4">dodecanoyl-</tspan><tspan x="0" y="28.8">Co</tspan><tspan x="15.34" y="28.8">A</tspan></text><text class="cls-10" transform="translate(669.11 296.55)">(S)-3Hydroxy-<tspan x="0" y="14.4">tetradecanoyl-</tspan><tspan x="0" y="28.8">Co</tspan><tspan x="15.34" y="28.8">A</tspan></text><text class="cls-10" transform="translate(808.18 302.11)">(S)-3Hydroxy-<tspan x="0" y="14.4">hexadecanoyl-Co</tspan><tspan x="93.39" y="14.4">A</tspan></text><text class="cls-10" transform="translate(98.66 299.25)">(S)-3Hydroxy-<tspan x="0" y="14.4">hexanoyl-Co</tspan><tspan x="67.37" y="14.4">A</tspan></text><text class="cls-10" transform="translate(59.23 490.37)">Hexanoyl-Co<tspan x="69.36" y="0">A</tspan></text><text class="cls-10" transform="translate(206.66 487.64)">Octanoyl-Co<tspan x="66.69" y="0">A</tspan></text><text class="cls-10" transform="translate(348.99 487.64)">Decanoyl-Co<tspan x="69.36" y="0">A</tspan></text><text class="cls-10" transform="translate(480.72 490.37)">Dodecanoyl-Co<tspan x="82.71" y="0">A</tspan></text><text class="cls-10" transform="translate(620.03 490.37)"><tspan class="cls-11">T</tspan><tspan x="6" y="0">etradecanoyl-Co</tspan><tspan x="94.05" y="0">A</tspan></text><text class="cls-10" transform="translate(810.91 474.71)">Hexadecanoyl-Co<tspan x="95.38" y="0">A</tspan></text><text class="cls-10" transform="translate(767.88 575.71)">Hexadecanoate</text><text class="cls-10" transform="translate(243.56 383.87)">trans-Oct-<tspan x="0" y="14.4">2-enoyl-Co</tspan><tspan x="58.69" y="14.4">A</tspan></text><text class="cls-10" transform="translate(386.52 382.89)">trans-Dec-<tspan x="0" y="14.4">2-enoyl-Co</tspan><tspan x="58.69" y="14.4">A</tspan></text><text class="cls-10" transform="translate(527.33 382.89)">trans-Dodec-<tspan x="0" y="14.4">2-enoyl-Co</tspan><tspan x="58.69" y="14.4">A</tspan></text><text class="cls-10" transform="translate(669.11 383.89)">trans-<tspan class="cls-11" x="30.67" y="0">T</tspan><tspan x="36.67" y="0">etradec-</tspan><tspan x="0" y="14.4">2-enoyl-Co</tspan><tspan x="58.69" y="14.4">A</tspan></text><text class="cls-10" transform="translate(810.91 383.12)">trans-Hexadec-<tspan x="0" y="14.4">2-enoyl-Co</tspan><tspan x="58.69" y="14.4">A</tspan></text><text class="cls-10" transform="translate(243.56 216.63)">3-Oxo-<tspan x="0" y="14.4">octanoyl-Co</tspan><tspan x="64.03" y="14.4">A</tspan></text><text class="cls-10" transform="translate(382.19 215.52)">3-Oxo-<tspan x="0" y="14.4">decanoyl-Co</tspan><tspan x="67.37" y="14.4">A</tspan></text><text class="cls-10" transform="translate(528.33 212.46)">3-Oxo-<tspan x="0" y="14.4">dodecanoyl-</tspan><tspan x="0" y="28.8">Co</tspan><tspan x="15.34" y="28.8">A</tspan></text><text class="cls-10" transform="translate(665.34 217.63)">3-Oxotetra-<tspan x="0" y="14.4">decanoyl-Co</tspan><tspan x="67.37" y="14.4">A</tspan></text><text class="cls-10" transform="translate(808.18 216.63)">3-Oxohexa-<tspan x="0" y="14.4">decanoyl-Co</tspan><tspan x="67.37" y="14.4">A</tspan></text><g id="Round"><rect class="cls-12" x="593.41" y="545.05" width="130.27" height="25.26" rx="12" ry="12"/><text class="cls-13" transform="translate(602.64 562.02) scale(0.96 1)">Fatty acid degradation</text></g><g id="Round-2" data-name="Round"><rect class="cls-12" x="364.33" y="1083.73" width="110.34" height="35.81" rx="12" ry="12"/><text class="cls-13" transform="translate(372.91 1100.69) scale(1.03 1)">Cutin, subrin and <tspan x="0" y="14.4">wax biosynhesis</tspan></text></g><text class="cls-10" transform="translate(492.04 686.11)">Malonyl-Co<tspan x="60.69" y="0">A</tspan></text><text class="cls-14" transform="translate(59.23 121.13) scale(1.07 1)">Acetyl-Co<tspan x="48.76" y="0">A</tspan></text><circle class="cls-12" cx="91.58" cy="130.3" r="4.09"/><line class="cls-15" x1="92.73" y1="392.06" x2="92.58" y2="455.32"/><polygon class="cls-16" points="92.81 462.36 88.64 454.32 97.02 454.33 92.81 462.36"/><polygon class="cls-16" points="92.61 307.98 96.79 317.62 88.41 317.6 92.61 307.98"/><line class="cls-15" x1="92.6" y1="312.8" x2="92.6" y2="373.03"/><polygon class="cls-16" points="92.83 381.07 88.66 373.03 97.03 373.04 92.83 381.07"/><polygon class="cls-16" points="234.14 306.37 238.32 316 229.94 315.99 234.14 306.37"/><line class="cls-15" x1="234.13" y1="311.19" x2="234.13" y2="371.41"/><polygon class="cls-16" points="234.37 379.46 230.19 371.41 238.57 371.43 234.37 379.46"/><polygon class="cls-16" points="377.24 306.37 381.42 316 373.04 315.99 377.24 306.37"/><line class="cls-15" x1="377.23" y1="311.19" x2="377.23" y2="371.41"/><polygon class="cls-16" points="377.46 379.46 373.28 371.41 381.66 371.43 377.46 379.46"/><polygon class="cls-16" points="518.81 310.03 522.99 319.67 514.61 319.65 518.81 310.03"/><line class="cls-15" x1="518.8" y1="314.85" x2="518.8" y2="375.08"/><polygon class="cls-16" points="519.04 383.12 514.86 375.08 523.24 375.09 519.04 383.12"/><polygon class="cls-16" points="660.32 306.37 664.5 316 656.12 315.99 660.32 306.37"/><line class="cls-15" x1="660.31" y1="311.19" x2="660.31" y2="371.41"/><polygon class="cls-16" points="660.54 379.46 656.37 371.41 664.75 371.43 660.54 379.46"/><polygon class="cls-16" points="803.4 308.91 807.58 318.55 799.2 318.53 803.4 308.91"/><line class="cls-15" x1="803.39" y1="313.73" x2="803.39" y2="373.96"/><polygon class="cls-16" points="803.62 382 799.45 373.96 807.82 373.98 803.62 382"/><polygon class="cls-16" points="92.53 225.08 96.71 234.71 88.33 234.69 92.53 225.08"/><line class="cls-15" x1="92.52" y1="229.9" x2="92.52" y2="290.12"/><polygon class="cls-16" points="92.75 298.17 88.58 290.12 96.95 290.14 92.75 298.17"/><polygon class="cls-16" points="234.07 223.46 238.24 233.1 229.87 233.08 234.07 223.46"/><line class="cls-15" x1="234.05" y1="228.28" x2="234.05" y2="288.51"/><polygon class="cls-16" points="234.29 296.55 230.11 288.51 238.49 288.52 234.29 296.55"/><polygon class="cls-16" points="377.16 223.46 381.34 233.1 372.96 233.08 377.16 223.46"/><line class="cls-15" x1="377.15" y1="228.28" x2="377.15" y2="288.51"/><polygon class="cls-16" points="377.38 296.55 373.2 288.51 381.58 288.52 377.38 296.55"/><polygon class="cls-16" points="517.94 221.85 522.12 231.49 513.74 231.47 517.94 221.85"/><line class="cls-15" x1="517.93" y1="226.67" x2="517.93" y2="286.9"/><polygon class="cls-16" points="518.16 294.94 513.99 286.9 522.37 286.91 518.16 294.94"/><polygon class="cls-16" points="660.24 223.46 664.42 233.1 656.04 233.08 660.24 223.46"/><line class="cls-15" x1="660.23" y1="228.28" x2="660.23" y2="288.51"/><polygon class="cls-16" points="660.47 296.55 656.29 288.51 664.67 288.52 660.47 296.55"/><polygon class="cls-16" points="803.52 221.85 807.7 231.49 799.32 231.47 803.52 221.85"/><line class="cls-15" x1="803.51" y1="226.67" x2="803.51" y2="286.9"/><polygon class="cls-16" points="803.75 294.94 799.57 286.9 807.95 286.91 803.75 294.94"/><text class="cls-14" transform="translate(0 147.05) scale(1.07 1)">Butanoyl-Co<tspan x="61.91" y="0">A</tspan></text><circle class="cls-12" cx="43.57" cy="158.04" r="4.09"/><g id="Round-3" data-name="Round"><rect class="cls-12" x="59.23" y="1083.73" width="81.84" height="35.81" rx="12" ry="12"/><text class="cls-13" transform="translate(73.36 1101.63) scale(1.03 1)">Fatty acid<tspan x="-5.68" y="14.4">degradation</tspan></text></g><text class="cls-17" transform="translate(35.4 655.08)">I<tspan x="2.99" y="0">n mi</tspan><tspan x="25.01" y="0">t</tspan><tspan x="28.91" y="0">ochond</tspan><tspan x="67.55" y="0">r</tspan><tspan x="71.52" y="0">ia (4&lt;n&lt;16)</tspan></text><text class="cls-14" transform="translate(154.64 686.11) scale(1.07 1)">Acetyl-Co<tspan x="48.76" y="0">A</tspan></text><text class="cls-14" transform="translate(190.73 782.96) scale(1.07 1)">3-Oxoacyl-Co<tspan x="68.77" y="0">A</tspan></text><text class="cls-14" transform="translate(187.84 863.29) scale(1.07 1)">3-Hydroxyacyl-Co<tspan x="89.4" y="0">A</tspan></text><text class="cls-14" transform="translate(187.84 944.63) scale(1.07 1)">2,3-Dehydroacyl-Co<tspan x="100.04" y="0">A</tspan></text><text class="cls-14" transform="translate(161.02 1116.82) scale(1.07 1)">Fatty acid<tspan x="0" y="13.5">(Hexadecanoate)</tspan></text><text class="cls-14" transform="translate(71.33 703.86) scale(1.07 1)">Acetyl-Co<tspan x="48.76" y="0">A</tspan><tspan x="0" y="13.5">(4&lt;n&lt;16)</tspan></text><text class="cls-14" transform="translate(388.52 702.86) scale(1.07 1)">Long-chain<tspan x="0" y="13.5">acyl-Co</tspan><tspan x="38.13" y="13.5">A</tspan><tspan class="cls-18" x="45.02" y="13.5"> (n&gt;16)</tspan></text><text class="cls-14" transform="translate(527.33 776.87) scale(1.07 1)">Long-chain<tspan x="0" y="13.5">3-oxoacyl-Co</tspan><tspan x="66.27" y="13.5">A</tspan></text><text class="cls-14" transform="translate(528.33 859.21) scale(1.07 1)">Long-chain<tspan x="0" y="13.5">3-hydroxyacyl-Co</tspan><tspan x="87.53" y="13.5">A</tspan><tspan x="94.41" y="13.5"> </tspan></text><text class="cls-14" transform="translate(528.33 943.63) scale(1.07 1)">Long-chain<tspan x="0" y="13.5">trans-2,3-dehydroacyl-Co</tspan><tspan x="126.93" y="13.5">A</tspan><tspan x="133.81" y="13.5"> </tspan></text><text class="cls-14" transform="translate(527.33 1020.52) scale(1.07 1)">Long-chain<tspan x="0" y="13.5">acyl-Co</tspan><tspan x="38.13" y="13.5">A</tspan><tspan class="cls-18" x="45.02" y="13.5"> (n+2)</tspan></text><text class="cls-14" transform="translate(482.75 1119.54) scale(1.07 1)">Long-chain fatty acid</text><text class="cls-17" transform="translate(35.4 633.12)">G<tspan x="7.81" y="0">ene</tspan><tspan x="26.5" y="0">r</tspan><tspan x="30.36" y="0">al </tspan><tspan x="41.52" y="0">f</tspan><tspan x="44.87" y="0">o</tspan><tspan x="51.46" y="0">r</tspan><tspan x="55.43" y="0">ms</tspan></text><text class="cls-17" transform="translate(388.52 655.08)">I<tspan x="2.99" y="0">n endoplasm</tspan><tspan x="68.42" y="0">a</tspan><tspan x="74.16" y="0">tic </tspan><tspan x="88.86" y="0">r</tspan><tspan x="92.66" y="0">eticulum (n&gt;16)</tspan></text><g id="Rec"><rect class="cls-12" x="94.66" y="252" width="52.02" height="16.49"/><text class="cls-10" transform="translate(96.33 263.57)">1.1.1.2<tspan x="36.7" y="0">1</tspan><tspan x="42.48" y="0">1</tspan></text></g><g id="Rec-2" data-name="Rec"><rect class="cls-12" x="236.09" y="252" width="52.02" height="16.49"/><text class="cls-10" transform="translate(237.76 263.57)">1.1.1.2<tspan x="36.7" y="0">1</tspan><tspan x="42.48" y="0">1</tspan></text></g><g id="Rec-3" data-name="Rec"><rect class="cls-12" x="379.28" y="252" width="52.02" height="16.49"/><text class="cls-10" transform="translate(380.95 263.57)">1.1.1.2<tspan x="36.7" y="0">1</tspan><tspan x="42.48" y="0">1</tspan></text></g><g id="Rec-4" data-name="Rec"><rect class="cls-12" x="497.41" y="250.15" width="52.02" height="16.49"/><text class="cls-10" transform="translate(499.08 261.72)">1.1.1.2<tspan x="36.7" y="0">1</tspan><tspan x="42.48" y="0">1</tspan></text></g><g id="Rec-5" data-name="Rec"><rect class="cls-12" x="639.36" y="252" width="52.02" height="16.49"/><text class="cls-10" transform="translate(641.03 263.57)">1.1.1.2<tspan x="36.7" y="0">1</tspan><tspan x="42.48" y="0">1</tspan></text></g><g id="Rec-6" data-name="Rec"><rect class="cls-12" x="782.06" y="252" width="52.02" height="16.49"/><text class="cls-10" transform="translate(783.73 263.57)">1.1.1.2<tspan x="36.7" y="0">1</tspan><tspan x="42.48" y="0">1</tspan></text></g><g id="Rec-7" data-name="Rec"><rect class="cls-12" x="37.56" y="335.3" width="52.02" height="16.49"/><text class="cls-10" transform="translate(42.12 346.87)">4.2.1.17</text></g><g id="Rec-8" data-name="Rec"><rect class="cls-12" x="181.08" y="335.6" width="52.02" height="16.49"/><text class="cls-10" transform="translate(185.64 347.17)">4.2.1.17</text></g><g id="Rec-9" data-name="Rec"><rect class="cls-12" x="322.98" y="337.02" width="52.02" height="16.49"/><text class="cls-10" transform="translate(327.54 348.59)">4.2.1.17</text></g><g id="Rec-10" data-name="Rec"><rect class="cls-12" x="466.03" y="338.65" width="52.02" height="16.49"/><text class="cls-10" transform="translate(470.59 350.22)">4.2.1.17</text></g><g id="Rec-11" data-name="Rec"><rect class="cls-12" x="605.14" y="337.33" width="52.02" height="16.49"/><text class="cls-10" transform="translate(609.7 348.9)">4.2.1.17</text></g><g id="Rec-12" data-name="Rec"><rect class="cls-12" x="748.7" y="335.97" width="52.02" height="16.49"/><text class="cls-10" transform="translate(753.26 347.54)">4.2.1.17</text></g><g id="Rec-13" data-name="Rec"><rect class="cls-12" x="38.56" y="252" width="52.02" height="16.49"/><text class="cls-10" transform="translate(43.12 263.57)">1.1.1.35</text></g><g id="Rec-14" data-name="Rec"><rect class="cls-12" x="181.25" y="252" width="52.02" height="16.49"/><text class="cls-10" transform="translate(185.82 263.57)">1.1.1.35</text></g><g id="Rec-15" data-name="Rec"><rect class="cls-12" x="323.95" y="252" width="52.02" height="16.49"/><text class="cls-10" transform="translate(328.52 263.57)">1.1.1.35</text></g><g id="Rec-16" data-name="Rec"><rect class="cls-12" x="208.27" y="170.5" width="52.02" height="16.49"/><text class="cls-10" transform="translate(212.83 182.07)">2.3.1.16</text></g><g id="Rec-17" data-name="Rec"><rect class="cls-12" x="351.96" y="170.99" width="52.02" height="16.49"/><text class="cls-10" transform="translate(356.53 182.56)">2.3.1.16</text></g><g id="Rec-18" data-name="Rec"><rect class="cls-12" x="493.91" y="170.99" width="52.02" height="16.49"/><text class="cls-10" transform="translate(498.48 182.56)">2.3.1.16</text></g><g id="Rec-19" data-name="Rec"><rect class="cls-12" x="635.15" y="171.82" width="52.02" height="16.49"/><text class="cls-10" transform="translate(639.72 183.39)">2.3.1.16</text></g><g id="Rec-20" data-name="Rec"><rect class="cls-12" x="779.06" y="168.99" width="52.02" height="16.49"/><text class="cls-10" transform="translate(783.63 180.56)">2.3.1.16</text></g><g id="Rec-21" data-name="Rec"><rect class="cls-12" x="96.66" y="336.65" width="52.02" height="16.49"/><text class="cls-10" transform="translate(101.23 348.22)">4.2.1.74</text></g><g id="Rec-22" data-name="Rec"><rect class="cls-12" x="237.17" y="335.65" width="52.02" height="16.49"/><text class="cls-10" transform="translate(241.73 347.22)">4.2.1.74</text></g><g id="Rec-23" data-name="Rec"><rect class="cls-12" x="381.53" y="336.65" width="52.02" height="16.49"/><text class="cls-10" transform="translate(386.1 348.22)">4.2.1.74</text></g><g id="Rec-24" data-name="Rec"><rect class="cls-12" x="522.03" y="338.62" width="52.02" height="16.49"/><text class="cls-10" transform="translate(526.59 350.19)">4.2.1.74</text></g><g id="Rec-25" data-name="Rec"><rect class="cls-12" x="664.26" y="336.65" width="52.02" height="16.49"/><text class="cls-10" transform="translate(668.83 348.22)">4.2.1.74</text></g><g id="Rec-26" data-name="Rec"><rect class="cls-12" x="805.88" y="335.65" width="52.02" height="16.49"/><text class="cls-10" transform="translate(810.44 347.22)">4.2.1.74</text></g><g id="Rec-27" data-name="Rec"><rect class="cls-12" x="39.56" y="418.6" width="52.02" height="16.49"/><text class="cls-10" transform="translate(44.12 430.17)">1.3.1.38</text></g><g id="Rec-28" data-name="Rec"><rect class="cls-12" x="96.91" y="418.6" width="52.02" height="16.49"/><text class="cls-10" transform="translate(104.81 430.17)">1.3.1.8</text></g><g id="Rec-29" data-name="Rec"><rect class="cls-12" x="183.25" y="418.6" width="52.02" height="16.49"/><text class="cls-10" transform="translate(187.82 430.17)">1.3.1.38</text></g><g id="Rec-30" data-name="Rec"><rect class="cls-12" x="324.95" y="418.6" width="52.02" height="16.49"/><text class="cls-10" transform="translate(329.52 430.17)">1.3.1.38</text></g><g id="Rec-31" data-name="Rec"><rect class="cls-12" x="466.03" y="418.6" width="52.02" height="16.49"/><text class="cls-10" transform="translate(470.59 430.17)">1.3.1.38</text></g><g id="Rec-32" data-name="Rec"><rect class="cls-12" x="606.35" y="418.6" width="52.02" height="16.49"/><text class="cls-10" transform="translate(610.91 430.17)">1.3.1.38</text></g><g id="Rec-33" data-name="Rec"><rect class="cls-12" x="748.88" y="418.6" width="52.02" height="16.49"/><text class="cls-10" transform="translate(753.44 430.17)">1.3.1.38</text></g><g id="Rec-34" data-name="Rec"><rect class="cls-12" x="240.17" y="418.6" width="52.02" height="16.49"/><text class="cls-10" transform="translate(248.07 430.17)">1.3.1.8</text></g><g id="Rec-35" data-name="Rec"><rect class="cls-12" x="381.28" y="418.6" width="52.02" height="16.49"/><text class="cls-10" transform="translate(389.18 430.17)">1.3.1.8</text></g><g id="Rec-36" data-name="Rec"><rect class="cls-12" x="523.15" y="418.6" width="52.02" height="16.49"/><text class="cls-10" transform="translate(531.05 430.17)">1.3.1.8</text></g><g id="Rec-37" data-name="Rec"><rect class="cls-12" x="664.26" y="418.6" width="52.02" height="16.49"/><text class="cls-10" transform="translate(672.17 430.17)">1.3.1.8</text></g><g id="Rec-38" data-name="Rec"><rect class="cls-12" x="803.07" y="418.6" width="52.02" height="16.49"/><text class="cls-10" transform="translate(810.98 430.17)">1.3.1.8</text></g><g id="Rec-39" data-name="Rec"><rect class="cls-12" x="777.06" y="507.48" width="52.02" height="16.49"/><text class="cls-10" transform="translate(781.63 519.05)">3.1.2.22</text></g><text x="-33.49" y="-26.57"/><text x="-33.49" y="-26.57"/><g id="Rec-40" data-name="Rec"><rect class="cls-12" x="491.91" y="735.5" width="52.02" height="16.49"/><text class="cls-10" transform="translate(493.14 747.07)">2.3.1.199</text></g><g id="Rec-41" data-name="Rec"><rect class="cls-12" x="492.91" y="810.47" width="52.02" height="16.49"/><text class="cls-10" transform="translate(494.14 822.04)">1.1.1.330</text></g><g id="Rec-42" data-name="Rec"><rect class="cls-12" x="492.16" y="891.45" width="52.02" height="16.49"/><text class="cls-10" transform="translate(493.14 903.28)">4.2.1.134</text></g><text x="-33.49" y="-26.57"/><g id="Rec-43" data-name="Rec"><rect class="cls-12" x="492.91" y="968.43" width="52.02" height="16.49"/><text class="cls-10" transform="translate(497.23 980.25)">1.3.1.93</text></g><g id="Rec-44" data-name="Rec"><rect class="cls-12" x="491.91" y="1050.68" width="52.02" height="16.49"/><text class="cls-10" transform="translate(499.57 1062.51)">3.1.2.2</text></g><g id="Rec-45" data-name="Rec"><rect class="cls-12" x="156.64" y="735.5" width="52.02" height="16.49"/><text class="cls-10" transform="translate(160.95 747.33)">2.3.1.16</text></g><g id="Rec-46" data-name="Rec"><rect class="cls-12" x="123.17" y="810.47" width="52.02" height="16.49"/><text class="cls-10" transform="translate(127.49 822.3)">1.1.1.35</text></g><text x="-33.49" y="-26.57"/><g id="Rec-47" data-name="Rec"><rect class="cls-12" x="183.5" y="810.47" width="52.02" height="16.49"/><text class="cls-10" transform="translate(184.92 822.3)">1.1.1.2<tspan x="36.7" y="0">1</tspan><tspan x="42.48" y="0">1</tspan></text></g><g id="Rec-48" data-name="Rec"><rect class="cls-12" x="123.17" y="891.45" width="52.02" height="16.49"/><text class="cls-10" transform="translate(127.49 903.28)">4.2.1.17</text></g><g id="Rec-49" data-name="Rec"><rect class="cls-12" x="183.5" y="891.45" width="52.02" height="16.49"/><text class="cls-10" transform="translate(187.82 903.28)">4.2.1.74</text></g><g id="Rec-50" data-name="Rec"><rect class="cls-12" x="183.5" y="968.43" width="52.02" height="16.49"/><text class="cls-10" transform="translate(191.16 980.25)">1.3.1.8</text></g><g id="Rec-51" data-name="Rec"><rect class="cls-12" x="123.17" y="968.43" width="52.02" height="16.49"/><text class="cls-10" transform="translate(127.49 980.25)">1.3.1.38</text></g><g id="Rec-52" data-name="Rec"><rect class="cls-12" x="157.49" y="1050.68" width="52.02" height="16.49"/><text class="cls-10" transform="translate(161.81 1062.51)">3.1.2.22</text></g><circle class="cls-12" cx="518.3" cy="859.21" r="4.09"/><circle class="cls-12" cx="518.3" cy="778.87" r="4.09"/><circle class="cls-12" cx="519.17" cy="697.02" r="4.09"/><circle class="cls-12" cx="429.22" cy="722.06" r="4.09"/><circle class="cls-12" cx="802.7" cy="559.06" r="4.09"/><circle class="cls-12" cx="92.83" cy="468.51" r="4.09"/><circle class="cls-12" cx="94.58" cy="385.87" r="4.09"/><circle class="cls-12" cx="92.83" cy="303.23" r="4.09"/><circle class="cls-12" cx="92.83" cy="215.52" r="4.09"/><circle class="cls-12" cx="233.57" cy="469.62" r="4.09"/><circle class="cls-12" cx="235.32" cy="386.98" r="4.09"/><circle class="cls-12" cx="234.57" cy="303.34" r="4.09"/><circle class="cls-12" cx="233.57" cy="216.63" r="4.09"/><circle class="cls-12" cx="376.35" cy="470.62" r="4.09"/><circle class="cls-12" cx="378.1" cy="387.98" r="4.09"/><circle class="cls-12" cx="377.35" cy="302.34" r="4.09"/><circle class="cls-12" cx="376.35" cy="217.63" r="4.09"/><circle class="cls-12" cx="518.3" cy="470.62" r="4.09"/><circle class="cls-12" cx="520.05" cy="387.98" r="4.09"/><circle class="cls-12" cx="519.3" cy="302.34" r="4.09"/><circle class="cls-12" cx="518.3" cy="217.63" r="4.09"/><circle class="cls-12" cx="659.5" cy="470.62" r="4.09"/><circle class="cls-12" cx="661.25" cy="387.98" r="4.09"/><circle class="cls-12" cx="660.5" cy="302.34" r="4.09"/><circle class="cls-12" cx="659.5" cy="217.63" r="4.09"/><circle class="cls-12" cx="803.63" cy="469.24" r="4.09"/><circle class="cls-12" cx="803.45" cy="387.75" r="4.09"/><circle class="cls-12" cx="802.7" cy="302.11" r="4.09"/><circle class="cls-12" cx="803.72" cy="216.63" r="4.09"/><circle class="cls-12" cx="518.17" cy="939.54" r="4.09"/><circle class="cls-12" cx="519.17" cy="1020.52" r="4.09"/><circle class="cls-12" cx="517.17" cy="1100.38" r="4.09"/><circle class="cls-12" cx="180.86" cy="859.21" r="4.09"/><circle class="cls-12" cx="180.86" cy="776.87" r="4.09"/><circle class="cls-12" cx="182.74" cy="696.02" r="4.09"/><circle class="cls-12" cx="92.78" cy="723.06" r="4.09"/><circle class="cls-12" cx="180.74" cy="939.54" r="4.09"/><circle class="cls-12" cx="180.74" cy="1020.52" r="4.09"/><circle class="cls-12" cx="180.74" cy="1100.38" r="4.09"/><text class="cls-14" transform="translate(190.73 1024.61) scale(1.07 1)">Acetyl-Co<tspan x="48.76" y="0">A</tspan><tspan class="cls-18" x="55.65" y="0"> (n+2)</tspan></text><line class="cls-15" x1="234.33" y1="394.91" x2="234.18" y2="458.17"/><polygon class="cls-16" points="234.42 465.21 230.24 457.17 238.62 457.18 234.42 465.21"/><line class="cls-15" x1="377.13" y1="394.15" x2="376.98" y2="457.41"/><polygon class="cls-16" points="377.21 464.45 373.04 456.41 381.41 456.42 377.21 464.45"/><line class="cls-15" x1="518.59" y1="751.97" x2="518.56" y2="765.2"/><line class="cls-15" x1="518.63" y1="703.86" x2="518.56" y2="735.5"/><polygon class="cls-16" points="518.79 772.25 514.61 764.2 522.99 764.22 518.79 772.25"/><line class="cls-15" x1="180.26" y1="701.97" x2="180.11" y2="765.22"/><polygon class="cls-16" points="180.35 772.26 176.17 764.22 184.55 764.24 180.35 772.26"/><line class="cls-15" x1="518.1" y1="826.96" x2="518.06" y2="847.4"/><line class="cls-15" x1="518.11" y1="785.17" x2="518.06" y2="810.47"/><polygon class="cls-16" points="518.29 854.45 514.11 846.4 522.49 846.42 518.29 854.45"/><line class="cls-15" x1="803.54" y1="474.79" x2="803.47" y2="507.5"/><line class="cls-15" x1="803.53" y1="523.95" x2="803.47" y2="552"/><polygon class="cls-16" points="803.62 553.51 799.45 544.51 807.82 544.52 803.62 553.51"/><line class="cls-15" x1="427.71" y1="1018.73" x2="429.47" y2="736.1"/><polygon class="cls-16" points="429.26 729.05 433.41 737.12 425.03 737.07 429.26 729.05"/><line class="cls-15" x1="427.99" y1="1023.18" x2="427.24" y2="1076.63"/><polygon class="cls-16" points="427.42 1083.72 423.31 1075.59 431.68 1075.67 427.42 1083.72"/><line class="cls-15" x1="517.98" y1="907.92" x2="517.93" y2="927.6"/><line class="cls-15" x1="517.98" y1="865.3" x2="517.91" y2="891.47"/><polygon class="cls-16" points="518.16 934.64 513.99 926.6 522.36 926.62 518.16 934.64"/><line class="cls-15" x1="518.56" y1="984.92" x2="518.5" y2="1008.36"/><line class="cls-15" x1="518.56" y1="944.35" x2="518.5" y2="967.79"/><polygon class="cls-16" points="518.73 1015.4 514.56 1007.36 522.93 1007.37 518.73 1015.4"/><line class="cls-15" x1="517.98" y1="1067.18" x2="517.93" y2="1088.9"/><line class="cls-15" x1="517.98" y1="1028.18" x2="517.93" y2="1049.9"/><polygon class="cls-16" points="518.16 1095.94 513.99 1087.9 522.36 1087.91 518.16 1095.94"/><line class="cls-15" x1="180.77" y1="1067.18" x2="180.72" y2="1088.9"/><polygon class="cls-16" points="180.52 1095.94 176.34 1087.9 184.72 1087.91 180.52 1095.94"/><line class="cls-15" x1="180.77" y1="1026.27" x2="180.71" y2="1050.68"/><line class="cls-15" x1="180.43" y1="943.77" x2="180.28" y2="1007.03"/><polygon class="cls-16" points="180.52 1014.07 176.34 1006.03 184.72 1006.04 180.52 1014.07"/><line class="cls-15" x1="510.88" y1="1100.79" x2="481.71" y2="1100.44"/><polygon class="cls-16" points="474.67 1100.61 482.75 1096.5 482.65 1104.88 474.67 1100.61"/><line class="cls-15" x1="798.61" y1="559.06" x2="730.27" y2="558.79"/><polygon class="cls-16" points="723.22 558.95 731.3 554.85 731.21 563.23 723.22 558.95"/><line class="cls-15" x1="175.6" y1="1102.41" x2="146.43" y2="1102.06"/><polygon class="cls-16" points="139.38 1102.23 147.47 1098.13 147.37 1106.51 139.38 1102.23"/><line class="cls-15" x1="660.28" y1="394.15" x2="660.13" y2="457.41"/><polygon class="cls-16" points="660.36 464.45 656.19 456.41 664.56 456.42 660.36 464.45"/><line class="cls-15" x1="803.48" y1="392.71" x2="803.33" y2="455.96"/><polygon class="cls-16" points="803.56 463.01 799.38 454.96 807.76 454.98 803.56 463.01"/><line class="cls-15" x1="518.58" y1="394.15" x2="518.43" y2="457.41"/><polygon class="cls-16" points="518.66 464.45 514.49 456.41 522.86 456.42 518.66 464.45"/><g id="Rec-53" data-name="Rec"><rect class="cls-12" x="67.48" y="170.99" width="52.02" height="16.49"/><text class="cls-10" transform="translate(72.04 182.56)">2.3.1.16</text></g><path class="cls-12" d="M81.25,185.72c13.14,1.27,39.2-5.55,43.57,8.54,0-.66.18-1.31,0.24-2a8.89,8.89,0,0,1-.24,2" transform="translate(-33.49 -26.57)"/><line class="cls-15" x1="803.32" y1="132.55" x2="94.58" y2="132.55"/><line class="cls-15" x1="233.96" y1="133.49" x2="233.81" y2="201.85"/><polygon class="cls-16" points="234.04 209.47 229.87 200.77 238.24 200.79 234.04 209.47"/><line class="cls-15" x1="376.25" y1="133" x2="376.1" y2="201.36"/><polygon class="cls-16" points="376.34 208.98 372.16 200.28 380.54 200.3 376.34 208.98"/><line class="cls-15" x1="92.42" y1="135.09" x2="92.28" y2="200.8"/><polygon class="cls-16" points="92.51 208.12 88.33 199.76 96.71 199.78 92.51 208.12"/><line class="cls-15" x1="517.83" y1="130.29" x2="517.69" y2="205.2"/><polygon class="cls-16" points="517.92 213.54 513.74 204.02 522.12 204.03 517.92 213.54"/><line class="cls-15" x1="659.4" y1="130.6" x2="659.25" y2="205.23"/><polygon class="cls-16" points="659.49 213.54 655.31 204.05 663.69 204.07 659.49 213.54"/><line class="cls-15" x1="803.89" y1="132.93" x2="803.74" y2="204.49"/><polygon class="cls-16" points="803.98 212.46 799.8 203.36 808.18 203.38 803.98 212.46"/><line class="cls-15" x1="179.67" y1="468.51" x2="96.91" y2="468.51"/><line class="cls-15" x1="179.67" y1="162.12" x2="179.67" y2="468.51"/><line class="cls-15" x1="234.52" y1="162.12" x2="179.67" y2="162.12"/><line class="cls-15" x1="322.23" y1="472.86" x2="239.48" y2="472.86"/><line class="cls-15" x1="322.23" y1="166.48" x2="322.23" y2="472.86"/><line class="cls-15" x1="377.08" y1="166.48" x2="322.23" y2="166.48"/><line class="cls-15" x1="463.45" y1="473.15" x2="380.7" y2="473.15"/><line class="cls-15" x1="463.45" y1="166.77" x2="463.45" y2="473.15"/><line class="cls-15" x1="515.09" y1="1017.42" x2="427.87" y2="1019.01"/><line class="cls-15" x1="91.39" y1="1020.52" x2="93.13" y2="739.48"/><polygon class="cls-16" points="92.93 732.43 97.08 740.5 88.7 740.45 92.93 732.43"/><line class="cls-15" x1="175.28" y1="1020.86" x2="92.26" y2="1020.52"/><line class="cls-15" x1="515.75" y1="1022.74" x2="427.99" y2="1023.18"/><line class="cls-15" x1="518.3" y1="166.77" x2="463.45" y2="166.77"/><line class="cls-15" x1="603.55" y1="472.86" x2="520.79" y2="472.86"/><line class="cls-15" x1="603.55" y1="166.48" x2="603.55" y2="472.86"/><line class="cls-15" x1="658.4" y1="166.48" x2="603.55" y2="166.48"/><line class="cls-15" x1="747.28" y1="470.81" x2="664.53" y2="470.81"/><line class="cls-15" x1="747.28" y1="164.42" x2="747.28" y2="470.81"/><line class="cls-15" x1="802.13" y1="164.42" x2="747.28" y2="164.42"/><path class="cls-12" d="M466.8,748.61c25.62,1.6,76.21-4.57,85.07,9.64,0.07-.66.31-1.3,0.41-2a4.77,4.77,0,0,1-.41,2" transform="translate(-33.49 -26.57)"/><path class="cls-12" d="M129.51,750.89c24.65,1.57,73.34-4.65,81.85,9.56,0.07-.66.3-1.3,0.4-2a4.94,4.94,0,0,1-.4,2" transform="translate(-33.49 -26.57)"/><polygon class="cls-16" points="180.54 780.89 184.72 790.53 176.34 790.51 180.54 780.89"/><line class="cls-15" x1="180.53" y1="785.71" x2="180.53" y2="845.94"/><polygon class="cls-16" points="180.76 853.98 176.59 845.94 184.96 845.95 180.76 853.98"/><polygon class="cls-16" points="180.54 864.87 184.72 874.51 176.34 874.49 180.54 864.87"/><line class="cls-15" x1="180.53" y1="867.69" x2="180.53" y2="927.92"/><polygon class="cls-16" points="180.76 934.96 176.59 926.92 184.96 926.93 180.76 934.96"/><text x="-33.49" y="-26.57"/><g id="Rec-54" data-name="Rec"><rect class="cls-12" x="784.67" y="16.65" width="83.65" height="20.31"/><text class="cls-19" transform="translate(808.82 30.89) scale(1.05 1)">KEGG</text></g><g id="Rec-55" data-name="Rec"><rect class="cls-12" x="784.67" y="49.41" width="83.65" height="20.31"/><text class="cls-19" transform="translate(814.29 63.66) scale(1.05 1)">RN<tspan x="18.01" y="0">A</tspan></text></g><g id="Rec-56" data-name="Rec"><rect class="cls-12" x="784.67" y="83.78" width="83.65" height="20.31"/><text class="cls-19" transform="translate(802.61 98.02) scale(1.05 1)">Genome</text></g><rect class="cls-20" x="747.56" y="14.67" width="23.27" height="24.25"/><rect class="cls-21" x="747.56" y="47.44" width="23.27" height="24.25"/><rect class="cls-22" x="747.56" y="81.8" width="23.27" height="24.25"/><rect class="cls-12" x="732.2" y="0.5" width="157.42" height="120.63"/></svg>