<svg id="Layer_2" data-name="Layer 2" xmlns="http://www.w3.org/2000/svg" viewBox="0 0 1138.8 949.37"><defs><style>.cls-1,.cls-19{fill:#1f91ff;}.cls-17,.cls-2{fill:#fff984;}.cls-18,.cls-3{fill:#ff6e7d;}.cls-4{fill:#fbf28a;}.cls-5{fill:#f16d7d;}.cls-6{fill:#fbf288;}.cls-15,.cls-7{fill:none;}.cls-15,.cls-17,.cls-18,.cls-19,.cls-7{stroke:#000;}.cls-15,.cls-17,.cls-18,.cls-19,.cls-21,.cls-22,.cls-7{stroke-miterlimit:10;}.cls-7{stroke-width:2px;}.cls-8{font-size:14px;}.cls-10,.cls-11,.cls-13,.cls-16,.cls-20,.cls-8{font-family:Arial;}.cls-9{font-style:italic;}.cls-10{font-size:12px;}.cls-11{font-size:9.92px;}.cls-12{letter-spacing:-0.83px;}.cls-13{font-size:9.29px;}.cls-14{letter-spacing:-0.87px;}.cls-16{font-size:12.47px;}.cls-20{font-size:12.59px;}.cls-21{fill:#e6e7e8;}.cls-21,.cls-22{stroke:#231f20;stroke-linecap:round;}.cls-23{fill:#fcf289;}.cls-24{fill:#f26d7d;}</style></defs><title>rcu_ec00071</title><rect class="cls-1" x="932.44" y="448.64" width="17.36" height="16.45"/><rect class="cls-2" x="897.83" y="448.64" width="17.36" height="16.45"/><rect class="cls-3" x="915.19" y="448.64" width="17.36" height="16.45"/><rect class="cls-1" x="774.92" y="454.17" width="17.36" height="16.45"/><rect class="cls-2" x="740.32" y="454.17" width="17.36" height="16.45"/><rect class="cls-3" x="757.68" y="454.17" width="17.36" height="16.45"/><rect class="cls-1" x="646.21" y="453.49" width="17.36" height="16.45"/><rect class="cls-2" x="611.6" y="453.49" width="17.36" height="16.45"/><rect class="cls-3" x="628.97" y="453.49" width="17.36" height="16.45"/><rect class="cls-1" x="518.43" y="453.49" width="17.36" height="16.45"/><rect class="cls-2" x="483.82" y="453.49" width="17.36" height="16.45"/><rect class="cls-3" x="501.18" y="453.49" width="17.36" height="16.45"/><rect class="cls-1" x="389.22" y="453.49" width="17.36" height="16.45"/><rect class="cls-2" x="354.62" y="453.49" width="17.36" height="16.45"/><rect class="cls-3" x="371.98" y="453.49" width="17.36" height="16.45"/><rect class="cls-1" x="260.61" y="453.49" width="17.36" height="16.45"/><rect class="cls-2" x="226" y="453.49" width="17.36" height="16.45"/><rect class="cls-3" x="243.36" y="453.49" width="17.36" height="16.45"/><rect class="cls-1" x="131.55" y="453.49" width="17.36" height="16.45"/><rect class="cls-2" x="96.94" y="453.49" width="17.36" height="16.45"/><rect class="cls-3" x="114.3" y="453.49" width="17.36" height="16.45"/><rect class="cls-1" x="962.15" y="356.7" width="17.36" height="16.45"/><rect class="cls-2" x="927.54" y="356.7" width="17.36" height="16.45"/><rect class="cls-3" x="944.9" y="356.7" width="17.36" height="16.45"/><rect class="cls-1" x="774.92" y="357.37" width="17.36" height="16.45"/><rect class="cls-2" x="740.32" y="357.37" width="17.36" height="16.45"/><rect class="cls-3" x="757.68" y="357.37" width="17.36" height="16.45"/><rect class="cls-1" x="646.38" y="357.37" width="17.36" height="16.45"/><rect class="cls-2" x="611.78" y="357.37" width="17.36" height="16.45"/><rect class="cls-3" x="629.14" y="357.37" width="17.36" height="16.45"/><rect class="cls-1" x="518.37" y="357.5" width="17.36" height="16.45"/><rect class="cls-2" x="483.76" y="357.5" width="17.36" height="16.45"/><rect class="cls-3" x="501.12" y="357.5" width="17.36" height="16.45"/><rect class="cls-1" x="388.67" y="356.7" width="17.36" height="16.45"/><rect class="cls-2" x="354.06" y="356.7" width="17.36" height="16.45"/><rect class="cls-3" x="371.42" y="356.7" width="17.36" height="16.45"/><rect class="cls-1" x="260.05" y="356.7" width="17.36" height="16.45"/><rect class="cls-2" x="225.44" y="356.7" width="17.36" height="16.45"/><rect class="cls-3" x="242.8" y="356.7" width="17.36" height="16.45"/><rect class="cls-1" x="131.49" y="357.5" width="17.36" height="16.45"/><rect class="cls-2" x="96.88" y="357.5" width="17.36" height="16.45"/><rect class="cls-3" x="114.24" y="357.5" width="17.36" height="16.45"/><rect class="cls-1" x="664.15" y="902.71" width="25.58" height="16.45"/><rect class="cls-4" x="638.57" y="902.71" width="17.09" height="16.45"/><rect class="cls-5" x="638.57" y="902.71" width="25.58" height="16.45"/><rect class="cls-5" x="478.57" y="777.2" width="25.5" height="16.45"/><rect class="cls-4" x="453.08" y="777.2" width="17.04" height="16.45"/><rect class="cls-6" x="453.08" y="777.2" width="25.5" height="16.45"/><rect class="cls-5" x="829.47" y="605.01" width="25.5" height="16.45"/><rect class="cls-4" x="803.97" y="605.01" width="17.04" height="16.45"/><rect class="cls-6" x="803.97" y="605.01" width="25.5" height="16.45"/><rect class="cls-5" x="925.46" y="614.88" width="25.5" height="16.45"/><rect class="cls-4" x="899.97" y="614.88" width="17.04" height="16.45"/><rect class="cls-6" x="899.97" y="614.88" width="25.5" height="16.45"/><rect class="cls-6" x="677.1" y="879.62" width="20.25" height="16.45"/><rect class="cls-6" x="636.73" y="879.62" width="20.25" height="16.45"/><rect class="cls-6" x="656.98" y="879.62" width="20.25" height="16.45"/><g id="Head"><rect class="cls-7" x="1" y="1" width="370.42" height="31.5"/><text class="cls-8" transform="translate(3.53 23.5) scale(1.15 1)">Fatty<tspan x="31.12" y="0"> </tspan><tspan x="34.23" y="0">Acid Degradatoin - 00071 - </tspan><tspan class="cls-9" x="205.45" y="0">Ricinus communis</tspan></text></g><text class="cls-10" transform="translate(1027.24 288.77)">Glutarate</text><text class="cls-10" transform="translate(1027.24 353)">Glutaryl-<tspan x="0" y="14.4">Co</tspan><tspan x="15.34" y="14.4">A</tspan></text><text class="cls-10" transform="translate(78.01 259.44)">L-Palmitoyl-<tspan x="0" y="14.4">carnitine</tspan></text><text class="cls-11" transform="translate(159.01 312.47) scale(1.2 1)">Hexa-<tspan x="0" y="11.9">decanoyl-</tspan><tspan x="0" y="23.81">Co</tspan><tspan x="12.68" y="23.81">A</tspan></text><text class="cls-11" transform="translate(287.28 311.02) scale(1.2 1)"><tspan class="cls-12">T</tspan><tspan x="4.96" y="0">etra-</tspan><tspan x="0" y="11.9">decanoyl-</tspan><tspan x="0" y="23.81">Co</tspan><tspan x="12.68" y="23.81">A</tspan></text><text class="cls-11" transform="translate(415.42 320.15) scale(1.09 1)">Dodecanoyl-<tspan x="0" y="11.9">Co</tspan><tspan x="12.68" y="11.9">A</tspan></text><text class="cls-11" transform="translate(544.98 319.51) scale(1.09 1)">Decanoyl-<tspan x="0" y="11.9">Co</tspan><tspan x="12.68" y="11.9">A</tspan></text><text class="cls-11" transform="translate(674.47 319.51) scale(1.09 1)">Octanoyl-<tspan x="0" y="11.9">Co</tspan><tspan x="12.68" y="11.9">A</tspan></text><text class="cls-11" transform="translate(801.38 319.51) scale(1.09 1)">Hexanoyl-<tspan x="0" y="11.9">Co</tspan><tspan x="12.68" y="11.9">A</tspan></text><text class="cls-11" transform="translate(931.25 319.51) scale(1.09 1)">Butanoyl-<tspan x="0" y="11.9">Co</tspan><tspan x="12.68" y="11.9">A</tspan></text><text class="cls-13" transform="translate(162.21 408.29) scale(1.15 1)">trans-<tspan x="0" y="11.15">Hexadec-</tspan><tspan x="0" y="22.3">2-enoyl</tspan><tspan x="0" y="33.46">-Co</tspan><tspan x="14.97" y="33.46">A</tspan></text><text class="cls-13" transform="translate(287.28 408.29) scale(1.15 1)">trans-<tspan class="cls-14" x="0" y="11.15">T</tspan><tspan x="4.65" y="11.15">etradec-</tspan><tspan x="0" y="22.3">2-enoyl</tspan><tspan x="0" y="33.46">-Co</tspan><tspan x="14.97" y="33.46">A</tspan></text><text class="cls-13" transform="translate(417.45 406.49) scale(1.15 1)">trans-<tspan x="0" y="11.15">Dodec-</tspan><tspan x="0" y="22.3">2-enoyl</tspan><tspan x="0" y="33.46">-Co</tspan><tspan x="14.97" y="33.46">A</tspan></text><text class="cls-13" transform="translate(546.45 406.48) scale(1.15 1)">trans-Dec-<tspan x="0" y="11.15">2-enoyl</tspan><tspan x="0" y="22.3">-Co</tspan><tspan x="14.97" y="22.3">A</tspan></text><text class="cls-13" transform="translate(674.47 408.29) scale(1.15 1)">trans-Oct-<tspan x="0" y="11.15">2-enoyl</tspan><tspan x="0" y="22.3">-Co</tspan><tspan x="14.97" y="22.3">A</tspan></text><text class="cls-13" transform="translate(805.07 408.29) scale(1.15 1)">trans-Hex-<tspan x="0" y="11.15">2-enoyl</tspan><tspan x="0" y="22.3">-Co</tspan><tspan x="14.97" y="22.3">A</tspan></text><text class="cls-13" transform="translate(931.25 427.51) scale(1.15 1)">trans-But-<tspan x="0" y="11.15">2-enoyl-Co</tspan><tspan x="45.46" y="11.15">A</tspan></text><text class="cls-13" transform="translate(162.21 484.02) scale(1.15 1)">(S)-3-<tspan x="0" y="11.15">Hydroxy-</tspan><tspan x="0" y="22.3">hexa-</tspan><tspan x="0" y="33.46">decanoyl-</tspan><tspan x="0" y="44.61">Co</tspan><tspan x="11.88" y="44.61">A</tspan></text><text class="cls-13" transform="translate(289.33 484.02) scale(1.15 1)">(S)-3-<tspan x="0" y="11.15">Hydroxy-</tspan><tspan x="0" y="22.3">tetra-</tspan><tspan x="0" y="33.46">decanoyl-</tspan><tspan x="0" y="44.61">Co</tspan><tspan x="11.88" y="44.61">A</tspan></text><text class="cls-13" transform="translate(417.45 488.04) scale(1.15 1)">(S)-3-<tspan x="0" y="11.15">Hydroxy-</tspan><tspan x="0" y="22.3">dodecanoyl-</tspan><tspan x="0" y="33.46">Co</tspan><tspan x="11.88" y="33.46">A</tspan></text><text class="cls-13" transform="translate(546.45 488.04) scale(1.15 1)">(S)-3-<tspan x="0" y="11.15">Hydroxy-</tspan><tspan x="0" y="22.3">decanoyl-</tspan><tspan x="0" y="33.46">Co</tspan><tspan x="11.88" y="33.46">A</tspan></text><text class="cls-13" transform="translate(803.15 488.04) scale(1.15 1)">(S)-3-<tspan x="0" y="11.15">Hydroxy-</tspan><tspan x="0" y="22.3">hexanoyl-</tspan><tspan x="0" y="33.46">Co</tspan><tspan x="11.88" y="33.46">A</tspan></text><text class="cls-13" transform="translate(931.25 499.63) scale(1.15 1)">(S)-3-Hydroxy-<tspan x="0" y="11.15">butanoyl-Co</tspan><tspan x="50.11" y="11.15">A</tspan></text><text class="cls-13" transform="translate(674.64 488.04) scale(1.15 1)">(S)-3-<tspan x="0" y="11.15">Hydroxy-</tspan><tspan x="0" y="22.3">octanoyl-</tspan><tspan x="0" y="33.46">Co</tspan><tspan x="11.88" y="33.46">A</tspan></text><text class="cls-13" transform="translate(162.21 570.19) scale(1.15 1)">3-Oxo-<tspan x="0" y="11.15">hexa-</tspan><tspan x="0" y="22.3">decanoyl-</tspan><tspan x="0" y="33.46">Co</tspan><tspan x="11.88" y="33.46">A</tspan></text><text class="cls-13" transform="translate(546.45 571.83) scale(1.15 1)">3-Oxo-<tspan x="0" y="11.15">decanoyl-</tspan><tspan x="0" y="22.3">Co</tspan><tspan x="11.88" y="22.3">A</tspan></text><text class="cls-13" transform="translate(805.07 574.2) scale(1.15 1)">3-Oxo-<tspan x="0" y="11.15">hexanoyl-</tspan><tspan x="0" y="22.3">Co</tspan><tspan x="11.88" y="22.3">A</tspan></text><text class="cls-13" transform="translate(931.25 574.33) scale(1.15 1)">Acetoacetyl-Co<tspan x="63.02" y="0">A</tspan></text><text class="cls-13" transform="translate(417.45 574.21) scale(1.15 1)">3-Oxo-<tspan x="0" y="11.15">dodecanoyl-</tspan><tspan x="0" y="22.3">Co</tspan><tspan x="11.88" y="22.3">A</tspan></text><text class="cls-13" transform="translate(287.28 570.19) scale(1.15 1)">3-Oxo-<tspan x="0" y="11.15">tetra-</tspan><tspan x="0" y="22.3">decanoyl-</tspan><tspan x="0" y="33.46">Co</tspan><tspan x="11.88" y="33.46">A</tspan></text><text class="cls-10" transform="translate(159.01 206.03)">Hexadecanoyl-Co<tspan x="95.38" y="0">A</tspan></text><text class="cls-10" transform="translate(60.57 140.52)">Hexadecanoate<tspan x="0" y="14.4">(Fatty acid)</tspan></text><text class="cls-10" transform="translate(234.02 162.49)">16-Hexadecanal</text><text class="cls-10" transform="translate(380.11 143.74)">16-Hexadecanol</text><g id="Rec"><rect class="cls-15" x="1031.73" y="56.87" width="83.65" height="20.31"/><text class="cls-16" transform="translate(1055.88 71.11) scale(1.05 1)">KEGG</text></g><g id="Rec-2" data-name="Rec"><rect class="cls-15" x="1031.73" y="89.64" width="83.65" height="20.31"/><text class="cls-16" transform="translate(1061.36 103.88) scale(1.05 1)">RN<tspan x="18.01" y="0">A</tspan></text></g><g id="Rec-3" data-name="Rec"><rect class="cls-15" x="1031.73" y="124" width="83.65" height="20.31"/><text class="cls-16" transform="translate(1049.67 138.24) scale(1.05 1)">Genome</text></g><rect class="cls-17" x="994.63" y="54.9" width="23.27" height="24.25"/><rect class="cls-18" x="994.63" y="87.66" width="23.27" height="24.25"/><rect class="cls-19" x="994.63" y="122.03" width="23.27" height="24.25"/><rect class="cls-15" x="979.26" y="40.72" width="157.42" height="120.63"/><g id="Round"><rect class="cls-15" x="996.8" y="770.94" width="141.5" height="26.5" rx="12" ry="12"/><text class="cls-20" transform="translate(1005.02 788.74) scale(0.94 1)">Butonoate metabolism</text></g><g id="Round-2" data-name="Round"><rect class="cls-15" x="1003.17" y="728.25" width="128.75" height="37.06" rx="12" ry="12"/><text class="cls-20" transform="translate(1011.4 746.05) scale(0.94 1)">Alanine and aspartate<tspan x="0" y="15.11">metabolism</tspan></text></g><g id="Round-3" data-name="Round"><rect class="cls-15" x="981.93" y="606.41" width="152.08" height="39.74" rx="12" ry="12"/><text class="cls-20" transform="translate(990.16 624.21) scale(0.94 1)">Synthesis and degradation<tspan x="0" y="15.11">of ketone bodies</tspan></text></g><g id="Round-4" data-name="Round"><rect class="cls-15" x="250.67" y="63.69" width="124.31" height="24.81" rx="12" ry="12"/><text class="cls-20" transform="translate(258.9 81.49) scale(0.94 1)">Fatty acid elongation</text></g><g id="Round-5" data-name="Round"><rect class="cls-15" x="247.47" y="91.23" width="140.83" height="24.81" rx="12" ry="12"/><text class="cls-20" transform="translate(255.69 109.03) scale(0.94 1)">Glycerolipid metabolism</text></g><g id="Round-6" data-name="Round"><rect class="cls-15" x="112.08" y="56.51" width="83.16" height="39.17" rx="12" ry="12"/><text class="cls-20" transform="translate(120.3 74.31) scale(0.94 1)">Fatty acid<tspan x="0" y="15.11">biosynthesis</tspan></text></g><g id="Round-7" data-name="Round"><rect class="cls-15" x="883.42" y="810.17" width="83.46" height="26.5" rx="12" ry="12"/><text class="cls-20" transform="translate(891.65 827.97) scale(0.94 1)">Citrate cycle</text></g><text class="cls-10" transform="translate(855.09 744.91) scale(0.97 1)">Acetyl-Co<tspan x="52.01" y="0">A</tspan></text><text class="cls-10" transform="translate(292.7 740.5) scale(0.97 1)">Long-chain-fatty acid</text><text class="cls-10" transform="translate(553.88 740.5) scale(0.97 1)">Long-chain acyl -[acyl-carrier protein]</text><text class="cls-10" transform="translate(449.25 766.34) scale(0.97 1)">[acyl-carrier protein]</text><text class="cls-10" transform="translate(239.59 789.2) scale(0.97 1)">cis,cis-3,6-Docecadienoyl-Co<tspan x="155.39" y="0">A</tspan></text><text class="cls-10" transform="translate(255.69 814.92) scale(0.97 1)">(R)-3-Hydroxybutanoyl-Co<tspan x="140.04" y="0">A</tspan></text><text class="cls-10" transform="translate(380.11 863.83) scale(0.97 1)">1-Alcohol</text><text class="cls-10" transform="translate(591.71 853.83) scale(0.97 1)">Fatty acid</text><text class="cls-10" transform="translate(726.49 880.36) scale(0.97 1)">ω-Hydroxy fatty acid</text><text class="cls-10" transform="translate(726.49 912.93) scale(0.97 1)">ά-Hydroxy fatty acid</text><text class="cls-10" transform="translate(237.03 879.36) scale(0.97 1)">Alkane</text><text class="cls-10" transform="translate(209.23 912.04) scale(0.97 1)">Rubredoxin (red)</text><text class="cls-10" transform="translate(392.69 912.93) scale(0.97 1)">Rubredoxin (ox)</text><text class="cls-10" transform="translate(553.88 816.68) scale(0.97 1)">(S)-3-Hydroxybutanoyl-Co<tspan x="139.38" y="0">A</tspan></text><text class="cls-10" transform="translate(553.88 790.39) scale(0.97 1)">trans,cis-Lauro-2,6dienoyl-Co<tspan x="157.41" y="0">A</tspan></text><line class="cls-21" x1="1059.83" y1="583.27" x2="933.89" y2="582.94"/><polygon class="cls-22" points="927.75 583.18 934.75 579 934.74 587.38 927.75 583.18"/><line class="cls-21" x1="927.75" y1="740.88" x2="996.61" y2="741.07"/><polygon class="cls-22" points="1002.46 740.84 995.76 745.01 995.77 736.64 1002.46 740.84"/><line class="cls-21" x1="924.6" y1="784.25" x2="990.19" y2="784.44"/><polygon class="cls-22" points="995.76 784.2 989.38 788.38 989.39 780 995.76 784.2"/><rect class="cls-1" x="576.66" y="858.8" width="17.16" height="16.45"/><rect class="cls-2" x="542.46" y="858.8" width="17.16" height="16.45"/><rect class="cls-3" x="559.62" y="858.8" width="17.16" height="16.45"/><rect class="cls-1" x="473.61" y="858.8" width="17.16" height="16.45"/><rect class="cls-2" x="439.41" y="858.8" width="17.16" height="16.45"/><rect class="cls-3" x="456.57" y="858.8" width="17.16" height="16.45"/><rect class="cls-1" x="195" y="614.65" width="17.16" height="16.45"/><rect class="cls-2" x="160.8" y="614.65" width="17.16" height="16.45"/><rect class="cls-3" x="177.95" y="614.65" width="17.16" height="16.45"/><rect class="cls-1" x="323.61" y="614.36" width="17.16" height="16.45"/><rect class="cls-2" x="289.42" y="614.36" width="17.16" height="16.45"/><rect class="cls-3" x="306.57" y="614.36" width="17.16" height="16.45"/><rect class="cls-1" x="453.94" y="615.98" width="17.16" height="16.45"/><rect class="cls-2" x="419.74" y="615.98" width="17.16" height="16.45"/><rect class="cls-3" x="436.9" y="615.98" width="17.16" height="16.45"/><rect class="cls-1" x="708.72" y="613.36" width="17.16" height="16.45"/><rect class="cls-2" x="674.52" y="613.36" width="17.16" height="16.45"/><rect class="cls-3" x="691.67" y="613.36" width="17.16" height="16.45"/><rect class="cls-1" x="579.5" y="614.36" width="17.16" height="16.45"/><rect class="cls-2" x="545.3" y="614.36" width="17.16" height="16.45"/><rect class="cls-3" x="562.46" y="614.36" width="17.16" height="16.45"/><rect class="cls-1" x="837.93" y="623.98" width="17.16" height="16.45"/><rect class="cls-2" x="803.73" y="623.98" width="17.16" height="16.45"/><rect class="cls-3" x="820.89" y="623.98" width="17.16" height="16.45"/><rect class="cls-1" x="902.45" y="337.36" width="17.16" height="16.45"/><rect class="cls-2" x="868.26" y="337.36" width="17.16" height="16.45"/><rect class="cls-3" x="885.41" y="337.36" width="17.16" height="16.45"/><rect class="cls-1" x="834.11" y="340.69" width="17.16" height="16.45"/><rect class="cls-2" x="799.91" y="340.69" width="17.16" height="16.45"/><rect class="cls-3" x="817.07" y="340.69" width="17.16" height="16.45"/><rect class="cls-1" x="645.8" y="338.86" width="17.16" height="16.45"/><rect class="cls-2" x="611.6" y="338.86" width="17.16" height="16.45"/><rect class="cls-3" x="628.76" y="338.86" width="17.16" height="16.45"/><rect class="cls-1" x="517.25" y="338.86" width="17.16" height="16.45"/><rect class="cls-2" x="483.05" y="338.86" width="17.16" height="16.45"/><rect class="cls-3" x="500.21" y="338.86" width="17.16" height="16.45"/><rect class="cls-1" x="389.68" y="339.54" width="17.16" height="16.45"/><rect class="cls-2" x="355.48" y="339.54" width="17.16" height="16.45"/><rect class="cls-3" x="372.64" y="339.54" width="17.16" height="16.45"/><rect class="cls-1" x="260.5" y="339.54" width="17.16" height="16.45"/><rect class="cls-2" x="226.31" y="339.54" width="17.16" height="16.45"/><rect class="cls-3" x="243.46" y="339.54" width="17.16" height="16.45"/><rect class="cls-1" x="131.33" y="338.86" width="17.16" height="16.45"/><rect class="cls-2" x="97.13" y="338.86" width="17.16" height="16.45"/><rect class="cls-3" x="114.29" y="338.86" width="17.16" height="16.45"/><rect class="cls-1" x="161.43" y="164.37" width="17.16" height="16.45"/><rect class="cls-2" x="127.23" y="164.37" width="17.16" height="16.45"/><rect class="cls-3" x="144.38" y="164.37" width="17.16" height="16.45"/><rect class="cls-2" x="932.16" y="532" width="17.16" height="16.45"/><rect class="cls-2" x="897.96" y="532" width="17.16" height="16.45"/><rect class="cls-2" x="915.12" y="532" width="17.16" height="16.45"/><rect class="cls-2" x="833.36" y="537.86" width="17.16" height="16.45"/><rect class="cls-2" x="799.16" y="537.86" width="17.16" height="16.45"/><rect class="cls-2" x="816.32" y="537.86" width="17.16" height="16.45"/><rect class="cls-2" x="772.83" y="537.19" width="17.16" height="16.45"/><rect class="cls-2" x="738.63" y="537.19" width="17.16" height="16.45"/><rect class="cls-2" x="755.79" y="537.19" width="17.16" height="16.45"/><rect class="cls-2" x="704.9" y="537.86" width="17.16" height="16.45"/><rect class="cls-2" x="670.7" y="537.86" width="17.16" height="16.45"/><rect class="cls-2" x="687.85" y="537.86" width="17.16" height="16.45"/><rect class="cls-2" x="645.86" y="537.19" width="17.16" height="16.45"/><rect class="cls-2" x="611.66" y="537.19" width="17.16" height="16.45"/><rect class="cls-2" x="628.82" y="537.19" width="17.16" height="16.45"/><rect class="cls-2" x="576.66" y="537.19" width="17.16" height="16.45"/><rect class="cls-2" x="542.46" y="537.19" width="17.16" height="16.45"/><rect class="cls-2" x="559.62" y="537.19" width="17.16" height="16.45"/><rect class="cls-2" x="517.87" y="537.19" width="17.16" height="16.45"/><rect class="cls-2" x="483.67" y="537.19" width="17.16" height="16.45"/><rect class="cls-2" x="500.83" y="537.19" width="17.16" height="16.45"/><rect class="cls-2" x="447.66" y="537.19" width="17.16" height="16.45"/><rect class="cls-2" x="413.46" y="537.19" width="17.16" height="16.45"/><rect class="cls-2" x="430.62" y="537.19" width="17.16" height="16.45"/><rect class="cls-2" x="388.62" y="537.19" width="17.16" height="16.45"/><rect class="cls-2" x="354.42" y="537.19" width="17.16" height="16.45"/><rect class="cls-2" x="371.58" y="537.19" width="17.16" height="16.45"/><rect class="cls-2" x="319.37" y="537.21" width="17.16" height="16.45"/><rect class="cls-2" x="285.18" y="537.21" width="17.16" height="16.45"/><rect class="cls-2" x="302.33" y="537.21" width="17.16" height="16.45"/><rect class="cls-2" x="260.19" y="537.19" width="17.16" height="16.45"/><rect class="cls-2" x="225.99" y="537.19" width="17.16" height="16.45"/><rect class="cls-2" x="243.15" y="537.19" width="17.16" height="16.45"/><rect class="cls-2" x="190.37" y="537.19" width="17.16" height="16.45"/><rect class="cls-2" x="156.17" y="537.19" width="17.16" height="16.45"/><rect class="cls-2" x="173.32" y="537.19" width="17.16" height="16.45"/><rect class="cls-2" x="131.39" y="535.59" width="17.16" height="16.45"/><rect class="cls-2" x="97.19" y="535.59" width="17.16" height="16.45"/><rect class="cls-2" x="114.35" y="535.59" width="17.16" height="16.45"/><rect class="cls-1" x="161.43" y="164.37" width="17.16" height="16.45"/><rect class="cls-23" x="127.23" y="164.37" width="17.16" height="16.45"/><rect class="cls-24" x="144.38" y="164.37" width="17.16" height="16.45"/><g id="Rec-4" data-name="Rec"><rect class="cls-15" x="286.82" y="132.17" width="52.02" height="16.49"/><text class="cls-10" transform="translate(288.04 143.74)">1.1.1.192</text></g><g id="Rec-5" data-name="Rec"><rect class="cls-15" x="185.65" y="132.17" width="52.02" height="16.49"/><text class="cls-10" transform="translate(190.21 143.74)">1.2.1.48</text></g><g id="Rec-6" data-name="Rec"><rect class="cls-15" x="127.65" y="224.21" width="52.02" height="16.49"/><text class="cls-10" transform="translate(138.56 235.78)">CPT1</text></g><g id="Rec-7" data-name="Rec"><rect class="cls-15" x="127.4" y="164.44" width="52.02" height="16.49"/><text class="cls-10" transform="translate(135.3 176.01)">6.2.1.3</text></g><text x="-58" y="-10.4"/><text x="-58" y="-10.4"/><circle class="cls-15" cx="152.66" cy="324.23" r="4.09"/><circle class="cls-15" cx="152.66" cy="415.06" r="4.09"/><circle class="cls-15" cx="152.66" cy="500.95" r="4.09"/><circle class="cls-15" cx="152.66" cy="585.68" r="4.09"/><circle class="cls-15" cx="152.66" cy="654.38" r="4.09"/><g id="Rec-8" data-name="Rec"><rect class="cls-15" x="155.89" y="338.84" width="52.02" height="16.49"/><text class="cls-10" transform="translate(161.79 350.41)">1.3.99.-</text></g><g id="Rec-9" data-name="Rec"><rect class="cls-15" x="160.21" y="614.42" width="52.02" height="16.49"/><text class="cls-10" transform="translate(164.78 625.99)">2.3.1.16</text></g><g id="Rec-10" data-name="Rec"><rect class="cls-15" x="155.89" y="537.16" width="52.02" height="16.49"/><text class="cls-10" transform="translate(157.56 548.73)">1.1.1.2<tspan x="36.7" y="0">1</tspan><tspan x="42.48" y="0">1</tspan></text></g><g id="Rec-11" data-name="Rec"><rect class="cls-15" x="96.85" y="537.16" width="52.02" height="16.49"/><text class="cls-10" transform="translate(101.42 548.73)">1.1.1.35</text></g><g id="Rec-12" data-name="Rec"><rect class="cls-15" x="156.39" y="452.47" width="52.02" height="16.49"/><text class="cls-10" transform="translate(160.95 464.04)">4.2.1.74</text></g><g id="Rec-13" data-name="Rec"><rect class="cls-15" x="97.1" y="453.47" width="52.02" height="16.49"/><text class="cls-10" transform="translate(101.67 465.04)">4.2.1.17</text></g><g id="Rec-14" data-name="Rec"><rect class="cls-15" x="126.65" y="378.21" width="52.02" height="16.49"/><text class="cls-10" transform="translate(134.55 389.78)">1.3.8.9</text></g><g id="Rec-15" data-name="Rec"><rect class="cls-15" x="156.14" y="356.68" width="52.02" height="16.49"/><text class="cls-10" transform="translate(164.04 368.25)">1.3.8.8</text></g><g id="Rec-16" data-name="Rec"><rect class="cls-15" x="96.85" y="356.68" width="52.02" height="16.49"/><text class="cls-10" transform="translate(104.76 368.25)">1.3.8.7</text></g><g id="Rec-17" data-name="Rec"><rect class="cls-15" x="96.85" y="338.84" width="52.02" height="16.49"/><text class="cls-10" transform="translate(104.76 350.41)">1.3.3.6</text></g><g id="Rec-18" data-name="Rec"><rect class="cls-15" x="127.89" y="283.99" width="52.02" height="16.49"/><text class="cls-10" transform="translate(138.81 295.56)">CPT2</text></g><polygon class="cls-22" points="152.54 418.98 156.72 428.61 148.34 428.6 152.54 418.98"/><line class="cls-21" x1="152.53" y1="423.79" x2="152.53" y2="484.02"/><polygon class="cls-22" points="152.77 492.07 148.59 484.02 156.97 484.04 152.77 492.07"/><polygon class="cls-22" points="152.54 505.15 156.72 514.78 148.34 514.76 152.54 505.15"/><line class="cls-21" x1="152.53" y1="509.96" x2="152.53" y2="570.19"/><polygon class="cls-22" points="152.77 578.24 148.59 570.19 156.97 570.21 152.77 578.24"/><line class="cls-21" x1="152.69" y1="395.7" x2="152.69" y2="404.2"/><line class="cls-21" x1="152.34" y1="331.21" x2="152.34" y2="378.21"/><polygon class="cls-22" points="152.53 408.29 148.75 400.38 156.31 400.4 152.53 408.29"/><path class="cls-15" d="M210.88,651.22c0.89-5.57-6.68-16.48,7.29-18.56-0.66,0-1.31-.05-2-0.07,0.68,0,1.3,0,2,.07" transform="translate(-58 -10.4)"/><path class="cls-15" d="M209.44,609.26c0.67,7.11-4.43,21.1,5.19,23.61-0.46,0-.9.08-1.35,0.11a7.74,7.74,0,0,0,1.35-.11" transform="translate(-58 -10.4)"/><path class="cls-15" d="M279.48,684c-0.94-15.74,7-46.67-7.66-52.35,0.69,0,1.37-.17,2.06-0.22a8.2,8.2,0,0,0-2.06.22" transform="translate(-58 -10.4)"/><path class="cls-15" d="M281,609.26c-1.15,6.8,8.16,20.19-9.19,22.62,0.82,0,1.63.08,2.45,0.1-0.85,0-1.61,0-2.45-.1" transform="translate(-58 -10.4)"/><polygon class="cls-22" points="151.61 590.84 155.81 598.87 147.43 598.88 151.61 590.84"/><polygon class="cls-22" points="152.9 645.99 148.72 637.94 157.09 637.96 152.9 645.99"/><text class="cls-10" transform="translate(118.85 661.39) scale(0.97 1)">Co<tspan x="15.34" y="0">A</tspan></text><line class="cls-21" x1="222.94" y1="306.14" x2="223.06" y2="600.94"/><path class="cls-15" d="M307.84,309.35c8.41,1.19,24.93-8.56,28,9.56,0-.86.09-1.7,0.12-2.55a23.13,23.13,0,0,1-.12,2.55" transform="translate(-58 -10.4)"/><path class="cls-15" d="M309.49,309.33c-8.53,1.19-25.3-8.55-28.37,9.57,0-.86-0.09-1.7-0.12-2.55a22.8,22.8,0,0,0,.12,2.55" transform="translate(-58 -10.4)"/><polygon class="cls-22" points="277.91 316.42 274.14 308.51 281.7 308.53 277.91 316.42"/><path class="cls-15" d="M297.59,691.18c-5.55-1-16.63,6.31-18.39-7.7,0,0.66-.08,1.31-0.11,2,0-.68.05-1.3,0.11-2" transform="translate(-58 -10.4)"/><circle class="cls-15" cx="281.27" cy="324.23" r="4.09"/><circle class="cls-15" cx="281.27" cy="415.06" r="4.09"/><circle class="cls-15" cx="281.27" cy="500.95" r="4.09"/><circle class="cls-15" cx="281.27" cy="585.68" r="4.09"/><circle class="cls-15" cx="281.27" cy="654.38" r="4.09"/><g id="Rec-19" data-name="Rec"><rect class="cls-15" x="284.51" y="338.84" width="52.02" height="16.49"/><text class="cls-10" transform="translate(290.41 350.41)">1.3.99.-</text></g><g id="Rec-20" data-name="Rec"><rect class="cls-15" x="288.83" y="614.42" width="52.02" height="16.49"/><text class="cls-10" transform="translate(293.4 625.99)">2.3.1.16</text></g><g id="Rec-21" data-name="Rec"><rect class="cls-15" x="284.51" y="537.16" width="52.02" height="16.49"/><text class="cls-10" transform="translate(286.18 548.73)">1.1.1.2<tspan x="36.7" y="0">1</tspan><tspan x="42.48" y="0">1</tspan></text></g><g id="Rec-22" data-name="Rec"><rect class="cls-15" x="225.47" y="537.16" width="52.02" height="16.49"/><text class="cls-10" transform="translate(230.04 548.73)">1.1.1.35</text></g><g id="Rec-23" data-name="Rec"><rect class="cls-15" x="285.01" y="452.47" width="52.02" height="16.49"/><text class="cls-10" transform="translate(289.57 464.04)">4.2.1.74</text></g><g id="Rec-24" data-name="Rec"><rect class="cls-15" x="225.72" y="453.47" width="52.02" height="16.49"/><text class="cls-10" transform="translate(230.28 465.04)">4.2.1.17</text></g><g id="Rec-25" data-name="Rec"><rect class="cls-15" x="255.26" y="378.21" width="52.02" height="16.49"/><text class="cls-10" transform="translate(263.16 389.78)">1.3.8.9</text></g><g id="Rec-26" data-name="Rec"><rect class="cls-15" x="284.76" y="356.68" width="52.02" height="16.49"/><text class="cls-10" transform="translate(292.66 368.25)">1.3.8.8</text></g><g id="Rec-27" data-name="Rec"><rect class="cls-15" x="225.47" y="356.68" width="52.02" height="16.49"/><text class="cls-10" transform="translate(233.37 368.25)">1.3.8.7</text></g><g id="Rec-28" data-name="Rec"><rect class="cls-15" x="225.47" y="338.84" width="52.02" height="16.49"/><text class="cls-10" transform="translate(233.37 350.41)">1.3.3.6</text></g><polygon class="cls-22" points="281.16 418.98 285.34 428.61 276.96 428.6 281.16 418.98"/><line class="cls-21" x1="281.15" y1="423.79" x2="281.15" y2="484.02"/><polygon class="cls-22" points="281.39 492.07 277.21 484.02 285.59 484.04 281.39 492.07"/><polygon class="cls-22" points="281.16 505.15 285.34 514.78 276.96 514.76 281.16 505.15"/><line class="cls-21" x1="281.15" y1="509.96" x2="281.15" y2="570.19"/><polygon class="cls-22" points="281.39 578.24 277.21 570.19 285.59 570.21 281.39 578.24"/><line class="cls-21" x1="281.31" y1="395.7" x2="281.31" y2="404.2"/><line class="cls-21" x1="280.95" y1="331.21" x2="280.95" y2="378.21"/><polygon class="cls-22" points="281.14 408.29 277.37 400.38 284.93 400.4 281.14 408.29"/><path class="cls-15" d="M339.5,651.22c0.89-5.57-6.68-16.48,7.29-18.56-0.66,0-1.31-.05-2-0.07,0.68,0,1.3,0,2,.07" transform="translate(-58 -10.4)"/><path class="cls-15" d="M338.06,609.26c0.67,7.11-4.43,21.1,5.19,23.61-0.46,0-.9.08-1.35,0.11a7.74,7.74,0,0,0,1.35-.11" transform="translate(-58 -10.4)"/><path class="cls-15" d="M408.1,684c-0.94-15.74,7-46.67-7.66-52.35,0.69,0,1.37-.17,2.06-0.22a8.2,8.2,0,0,0-2.06.22" transform="translate(-58 -10.4)"/><path class="cls-15" d="M409.61,609.26c-1.15,6.8,8.16,20.19-9.19,22.62,0.82,0,1.63.08,2.45,0.1-0.85,0-1.61,0-2.45-.1" transform="translate(-58 -10.4)"/><polygon class="cls-22" points="280.23 590.84 284.42 598.87 276.05 598.88 280.23 590.84"/><polygon class="cls-22" points="281.51 645.99 277.33 637.94 285.71 637.96 281.51 645.99"/><text class="cls-10" transform="translate(247.47 661.39) scale(0.97 1)">Co<tspan x="15.34" y="0">A</tspan></text><line class="cls-21" x1="351.56" y1="306.14" x2="351.68" y2="600.94"/><path class="cls-15" d="M436.46,309.35c8.41,1.19,24.93-8.56,28,9.56,0-.86.09-1.7,0.12-2.55a23.13,23.13,0,0,1-.12,2.55" transform="translate(-58 -10.4)"/><path class="cls-15" d="M438.11,309.33c-8.53,1.19-25.3-8.55-28.37,9.57,0-.86-0.09-1.7-0.12-2.55a22.8,22.8,0,0,0,.12,2.55" transform="translate(-58 -10.4)"/><polygon class="cls-22" points="406.53 316.42 402.76 308.51 410.32 308.53 406.53 316.42"/><path class="cls-15" d="M426.2,691.18c-5.55-1-16.63,6.31-18.39-7.7,0,0.66-.08,1.31-0.11,2,0-.68.05-1.3,0.11-2" transform="translate(-58 -10.4)"/><circle class="cls-15" cx="409.89" cy="324.23" r="4.09"/><circle class="cls-15" cx="409.89" cy="415.06" r="4.09"/><circle class="cls-15" cx="409.89" cy="500.95" r="4.09"/><circle class="cls-15" cx="409.89" cy="585.68" r="4.09"/><circle class="cls-15" cx="409.89" cy="654.38" r="4.09"/><g id="Rec-29" data-name="Rec"><rect class="cls-15" x="413.13" y="338.84" width="52.02" height="16.49"/><text class="cls-10" transform="translate(419.03 350.41)">1.3.99.-</text></g><g id="Rec-30" data-name="Rec"><rect class="cls-15" x="417.45" y="614.42" width="52.02" height="16.49"/><text class="cls-10" transform="translate(422.01 625.99)">2.3.1.16</text></g><g id="Rec-31" data-name="Rec"><rect class="cls-15" x="413.13" y="537.16" width="52.02" height="16.49"/><text class="cls-10" transform="translate(414.8 548.73)">1.1.1.2<tspan x="36.7" y="0">1</tspan><tspan x="42.48" y="0">1</tspan></text></g><g id="Rec-32" data-name="Rec"><rect class="cls-15" x="354.09" y="537.16" width="52.02" height="16.49"/><text class="cls-10" transform="translate(358.65 548.73)">1.1.1.35</text></g><g id="Rec-33" data-name="Rec"><rect class="cls-15" x="413.63" y="452.47" width="52.02" height="16.49"/><text class="cls-10" transform="translate(418.19 464.04)">4.2.1.74</text></g><g id="Rec-34" data-name="Rec"><rect class="cls-15" x="354.34" y="453.47" width="52.02" height="16.49"/><text class="cls-10" transform="translate(358.9 465.04)">4.2.1.17</text></g><g id="Rec-35" data-name="Rec"><rect class="cls-15" x="413.38" y="356.68" width="52.02" height="16.49"/><text class="cls-10" transform="translate(421.28 368.25)">1.3.8.8</text></g><g id="Rec-36" data-name="Rec"><rect class="cls-15" x="354.09" y="356.68" width="52.02" height="16.49"/><text class="cls-10" transform="translate(361.99 368.25)">1.3.8.7</text></g><g id="Rec-37" data-name="Rec"><rect class="cls-15" x="354.09" y="338.84" width="52.02" height="16.49"/><text class="cls-10" transform="translate(361.99 350.41)">1.3.3.6</text></g><polygon class="cls-22" points="409.78 418.98 413.96 428.61 405.58 428.6 409.78 418.98"/><line class="cls-21" x1="409.77" y1="423.79" x2="409.77" y2="484.02"/><polygon class="cls-22" points="410 492.07 405.83 484.02 414.2 484.04 410 492.07"/><polygon class="cls-22" points="409.78 505.15 413.96 514.78 405.58 514.76 409.78 505.15"/><line class="cls-21" x1="409.77" y1="509.96" x2="409.77" y2="570.19"/><polygon class="cls-22" points="410 578.24 405.83 570.19 414.2 570.21 410 578.24"/><line class="cls-21" x1="409.92" y1="395.7" x2="409.92" y2="404.2"/><line class="cls-21" x1="409.57" y1="331.21" x2="409.92" y2="395.7"/><polygon class="cls-22" points="409.76 408.29 405.99 400.38 413.55 400.4 409.76 408.29"/><path class="cls-15" d="M468.11,651.22c0.89-5.57-6.68-16.48,7.29-18.56-0.66,0-1.31-.05-2-0.07,0.68,0,1.3,0,2,.07" transform="translate(-58 -10.4)"/><path class="cls-15" d="M466.68,609.26c0.67,7.11-4.43,21.1,5.19,23.61-0.46,0-.9.08-1.35,0.11a7.74,7.74,0,0,0,1.35-.11" transform="translate(-58 -10.4)"/><path class="cls-15" d="M536.72,684c-0.94-15.74,7-46.67-7.66-52.35,0.69,0,1.37-.17,2.06-0.22a8.2,8.2,0,0,0-2.06.22" transform="translate(-58 -10.4)"/><path class="cls-15" d="M538.23,609.26c-1.15,6.8,8.16,20.19-9.19,22.62,0.82,0,1.63.08,2.45,0.1-0.85,0-1.61,0-2.45-.1" transform="translate(-58 -10.4)"/><polygon class="cls-22" points="408.85 590.84 413.04 598.87 404.67 598.88 408.85 590.84"/><polygon class="cls-22" points="410.13 645.99 405.95 637.94 414.33 637.96 410.13 645.99"/><text class="cls-10" transform="translate(376.09 661.39) scale(0.97 1)">Co<tspan x="15.34" y="0">A</tspan></text><line class="cls-21" x1="480.17" y1="306.14" x2="480.29" y2="600.94"/><path class="cls-15" d="M565.07,309.35c8.41,1.19,24.93-8.56,28,9.56,0-.86.09-1.7,0.12-2.55a23.13,23.13,0,0,1-.12,2.55" transform="translate(-58 -10.4)"/><path class="cls-15" d="M566.73,309.33c-8.53,1.19-25.3-8.55-28.37,9.57,0-.86-0.09-1.7-0.12-2.55a22.8,22.8,0,0,0,.12,2.55" transform="translate(-58 -10.4)"/><polygon class="cls-22" points="535.15 316.42 531.38 308.51 538.94 308.53 535.15 316.42"/><path class="cls-15" d="M554.82,691.18c-5.55-1-16.63,6.31-18.39-7.7,0,0.66-.08,1.31-0.11,2,0-.68.05-1.3,0.11-2" transform="translate(-58 -10.4)"/><circle class="cls-15" cx="538.89" cy="324.23" r="4.09"/><circle class="cls-15" cx="538.89" cy="415.06" r="4.09"/><circle class="cls-15" cx="538.89" cy="500.95" r="4.09"/><circle class="cls-15" cx="538.89" cy="585.68" r="4.09"/><circle class="cls-15" cx="538.89" cy="654.38" r="4.09"/><g id="Rec-38" data-name="Rec"><rect class="cls-15" x="542.13" y="338.84" width="52.02" height="16.49"/><text class="cls-10" transform="translate(548.03 350.41)">1.3.99.-</text></g><g id="Rec-39" data-name="Rec"><rect class="cls-15" x="546.45" y="614.42" width="52.02" height="16.49"/><text class="cls-10" transform="translate(551.01 625.99)">2.3.1.16</text></g><g id="Rec-40" data-name="Rec"><rect class="cls-15" x="542.13" y="537.16" width="52.02" height="16.49"/><text class="cls-10" transform="translate(543.8 548.73)">1.1.1.2<tspan x="36.7" y="0">1</tspan><tspan x="42.48" y="0">1</tspan></text></g><g id="Rec-41" data-name="Rec"><rect class="cls-15" x="483.09" y="537.16" width="52.02" height="16.49"/><text class="cls-10" transform="translate(487.65 548.73)">1.1.1.35</text></g><g id="Rec-42" data-name="Rec"><rect class="cls-15" x="542.63" y="452.47" width="52.02" height="16.49"/><text class="cls-10" transform="translate(547.19 464.04)">4.2.1.74</text></g><g id="Rec-43" data-name="Rec"><rect class="cls-15" x="483.34" y="453.47" width="52.02" height="16.49"/><text class="cls-10" transform="translate(487.9 465.04)">4.2.1.17</text></g><g id="Rec-44" data-name="Rec"><rect class="cls-15" x="542.38" y="356.68" width="52.02" height="16.49"/><text class="cls-10" transform="translate(550.28 368.25)">1.3.8.8</text></g><g id="Rec-45" data-name="Rec"><rect class="cls-15" x="483.09" y="356.68" width="52.02" height="16.49"/><text class="cls-10" transform="translate(490.99 368.25)">1.3.8.7</text></g><g id="Rec-46" data-name="Rec"><rect class="cls-15" x="483.09" y="338.84" width="52.02" height="16.49"/><text class="cls-10" transform="translate(490.99 350.41)">1.3.3.6</text></g><polygon class="cls-22" points="538.78 418.98 542.96 428.61 534.58 428.6 538.78 418.98"/><line class="cls-21" x1="538.77" y1="423.79" x2="538.77" y2="484.02"/><polygon class="cls-22" points="539 492.07 534.83 484.02 543.21 484.04 539 492.07"/><polygon class="cls-22" points="538.78 505.15 542.96 514.78 534.58 514.76 538.78 505.15"/><line class="cls-21" x1="538.77" y1="509.96" x2="538.77" y2="570.19"/><polygon class="cls-22" points="539 578.24 534.83 570.19 543.21 570.21 539 578.24"/><line class="cls-21" x1="538.92" y1="395.7" x2="538.92" y2="404.2"/><line class="cls-21" x1="538.57" y1="331.21" x2="538.92" y2="395.7"/><polygon class="cls-22" points="538.76 408.29 534.99 400.38 542.55 400.4 538.76 408.29"/><path class="cls-15" d="M597.11,651.22c0.89-5.57-6.68-16.48,7.29-18.56-0.66,0-1.31-.05-2-0.07,0.68,0,1.3,0,2,.07" transform="translate(-58 -10.4)"/><path class="cls-15" d="M595.68,609.26c0.67,7.11-4.43,21.1,5.19,23.61-0.46,0-.9.08-1.35,0.11a7.74,7.74,0,0,0,1.35-.11" transform="translate(-58 -10.4)"/><path class="cls-15" d="M665.72,684c-0.94-15.74,7-46.67-7.66-52.35,0.69,0,1.37-.17,2.06-0.22a8.2,8.2,0,0,0-2.06.22" transform="translate(-58 -10.4)"/><path class="cls-15" d="M667.23,609.26c-1.15,6.8,8.16,20.19-9.19,22.62,0.82,0,1.63.08,2.45,0.1-0.85,0-1.61,0-2.45-.1" transform="translate(-58 -10.4)"/><polygon class="cls-22" points="537.85 590.84 542.04 598.87 533.66 598.88 537.85 590.84"/><polygon class="cls-22" points="539.13 645.99 534.95 637.94 543.33 637.96 539.13 645.99"/><text class="cls-10" transform="translate(505.09 661.39) scale(0.97 1)">Co<tspan x="15.34" y="0">A</tspan></text><line class="cls-21" x1="609.17" y1="306.14" x2="609.29" y2="600.94"/><path class="cls-15" d="M694.07,309.35c8.41,1.19,24.93-8.56,28,9.56,0-.86.09-1.7,0.12-2.55a23.13,23.13,0,0,1-.12,2.55" transform="translate(-58 -10.4)"/><path class="cls-15" d="M695.73,309.33c-8.53,1.19-25.3-8.55-28.37,9.57,0-.86-0.09-1.7-0.12-2.55a22.8,22.8,0,0,0,.12,2.55" transform="translate(-58 -10.4)"/><polygon class="cls-22" points="664.15 316.42 660.38 308.51 667.94 308.53 664.15 316.42"/><path class="cls-15" d="M683.82,691.18c-5.55-1-16.63,6.31-18.39-7.7,0,0.66-.08,1.31-0.11,2,0-.68.05-1.3,0.11-2" transform="translate(-58 -10.4)"/><circle class="cls-15" cx="667.13" cy="324.23" r="4.09"/><circle class="cls-15" cx="667.13" cy="415.06" r="4.09"/><circle class="cls-15" cx="667.13" cy="500.95" r="4.09"/><circle class="cls-15" cx="667.13" cy="585.68" r="4.09"/><circle class="cls-15" cx="667.13" cy="654.38" r="4.09"/><g id="Rec-47" data-name="Rec"><rect class="cls-15" x="670.36" y="338.84" width="52.02" height="16.49"/><text class="cls-10" transform="translate(676.27 350.41)">1.3.99.-</text></g><g id="Rec-48" data-name="Rec"><rect class="cls-15" x="674.69" y="614.42" width="52.02" height="16.49"/><text class="cls-10" transform="translate(679.25 625.99)">2.3.1.16</text></g><g id="Rec-49" data-name="Rec"><rect class="cls-15" x="670.36" y="537.16" width="52.02" height="16.49"/><text class="cls-10" transform="translate(672.03 548.73)">1.1.1.2<tspan x="36.7" y="0">1</tspan><tspan x="42.48" y="0">1</tspan></text></g><g id="Rec-50" data-name="Rec"><rect class="cls-15" x="611.33" y="537.16" width="52.02" height="16.49"/><text class="cls-10" transform="translate(615.89 548.73)">1.1.1.35</text></g><g id="Rec-51" data-name="Rec"><rect class="cls-15" x="670.36" y="453.47" width="52.02" height="16.49"/><text class="cls-10" transform="translate(674.93 465.04)">4.2.1.74</text></g><g id="Rec-52" data-name="Rec"><rect class="cls-15" x="611.58" y="453.47" width="52.02" height="16.49"/><text class="cls-10" transform="translate(616.14 465.04)">4.2.1.17</text></g><g id="Rec-53" data-name="Rec"><rect class="cls-15" x="670.61" y="356.68" width="52.02" height="16.49"/><text class="cls-10" transform="translate(678.51 368.25)">1.3.8.8</text></g><g id="Rec-54" data-name="Rec"><rect class="cls-15" x="611.33" y="356.68" width="52.02" height="16.49"/><text class="cls-10" transform="translate(619.23 368.25)">1.3.8.7</text></g><g id="Rec-55" data-name="Rec"><rect class="cls-15" x="611.33" y="338.84" width="52.02" height="16.49"/><text class="cls-10" transform="translate(619.23 350.41)">1.3.3.6</text></g><polygon class="cls-22" points="667.02 418.98 671.2 428.61 662.82 428.6 667.02 418.98"/><line class="cls-21" x1="667.01" y1="423.79" x2="667.01" y2="484.02"/><polygon class="cls-22" points="667.24 492.07 663.06 484.02 671.44 484.04 667.24 492.07"/><polygon class="cls-22" points="667.02 505.15 671.2 514.78 662.82 514.76 667.02 505.15"/><line class="cls-21" x1="667.01" y1="509.96" x2="667.01" y2="570.19"/><polygon class="cls-22" points="667.24 578.24 663.06 570.19 671.44 570.21 667.24 578.24"/><line class="cls-21" x1="667.16" y1="395.7" x2="667.16" y2="404.2"/><line class="cls-21" x1="666.81" y1="331.21" x2="667.16" y2="395.7"/><polygon class="cls-22" points="667 408.29 663.23 400.38 670.79 400.4 667 408.29"/><path class="cls-15" d="M725.35,651.22c0.89-5.57-6.68-16.48,7.29-18.56-0.66,0-1.31-.05-2-0.07,0.68,0,1.3,0,2,.07" transform="translate(-58 -10.4)"/><path class="cls-15" d="M723.91,609.26c0.67,7.11-4.43,21.1,5.19,23.61-0.46,0-.9.08-1.35,0.11a7.74,7.74,0,0,0,1.35-.11" transform="translate(-58 -10.4)"/><path class="cls-15" d="M794,684c-0.94-15.74,7-46.67-7.66-52.35,0.69,0,1.37-.17,2.06-0.22a8.2,8.2,0,0,0-2.06.22" transform="translate(-58 -10.4)"/><path class="cls-15" d="M795.46,609.26c-1.15,6.8,8.16,20.19-9.19,22.62,0.82,0,1.63.08,2.45,0.1-0.85,0-1.61,0-2.45-.1" transform="translate(-58 -10.4)"/><polygon class="cls-22" points="666.09 590.84 670.28 598.87 661.9 598.88 666.09 590.84"/><polygon class="cls-22" points="667.37 645.99 663.19 637.94 671.57 637.96 667.37 645.99"/><text class="cls-10" transform="translate(633.32 661.39) scale(0.97 1)">Co<tspan x="15.34" y="0">A</tspan></text><line class="cls-21" x1="737.41" y1="306.14" x2="737.53" y2="600.94"/><path class="cls-15" d="M822.31,309.35c8.41,1.19,24.93-8.56,28,9.56,0-.86.09-1.7,0.12-2.55a23.13,23.13,0,0,1-.12,2.55" transform="translate(-58 -10.4)"/><path class="cls-15" d="M824,309.33c-8.53,1.19-25.3-8.55-28.37,9.57,0-.86-0.09-1.7-0.12-2.55a22.8,22.8,0,0,0,.12,2.55" transform="translate(-58 -10.4)"/><polygon class="cls-22" points="792.39 316.42 788.62 308.51 796.17 308.53 792.39 316.42"/><path class="cls-15" d="M812.06,691.18c-5.55-1-16.63,6.31-18.39-7.7,0,0.66-.08,1.31-0.11,2,0-.68.05-1.3,0.11-2" transform="translate(-58 -10.4)"/><circle class="cls-15" cx="795.59" cy="324.91" r="4.09"/><circle class="cls-15" cx="795.59" cy="415.73" r="4.09"/><circle class="cls-15" cx="795.59" cy="501.62" r="4.09"/><circle class="cls-15" cx="795.59" cy="586.35" r="4.09"/><circle class="cls-15" cx="795.59" cy="655.06" r="4.09"/><g id="Rec-56" data-name="Rec"><rect class="cls-15" x="798.83" y="339.52" width="52.02" height="16.49"/><text class="cls-10" transform="translate(806.73 351.09)">1.3.3.6</text></g><g id="Rec-57" data-name="Rec"><rect class="cls-15" x="803.15" y="623.09" width="52.02" height="16.49"/><text class="cls-10" transform="translate(807.71 634.66)">2.3.1.16</text></g><g id="Rec-58" data-name="Rec"><rect class="cls-15" x="798.83" y="537.84" width="52.02" height="16.49"/><text class="cls-10" transform="translate(800.5 549.41)">1.1.1.2<tspan x="36.7" y="0">1</tspan><tspan x="42.48" y="0">1</tspan></text></g><g id="Rec-59" data-name="Rec"><rect class="cls-15" x="739.79" y="537.84" width="52.02" height="16.49"/><text class="cls-10" transform="translate(744.35 549.41)">1.1.1.35</text></g><g id="Rec-60" data-name="Rec"><rect class="cls-15" x="798.33" y="454.15" width="52.02" height="16.49"/><text class="cls-10" transform="translate(802.89 465.72)">4.2.1.74</text></g><g id="Rec-61" data-name="Rec"><rect class="cls-15" x="740.04" y="454.15" width="52.02" height="16.49"/><text class="cls-10" transform="translate(744.6 465.72)">4.2.1.17</text></g><g id="Rec-62" data-name="Rec"><rect class="cls-15" x="769.58" y="378.88" width="52.02" height="16.49"/><text class="cls-10" transform="translate(775.49 390.45)">1.3.99.-</text></g><g id="Rec-63" data-name="Rec"><rect class="cls-15" x="799.08" y="357.35" width="52.02" height="16.49"/><text class="cls-10" transform="translate(806.98 368.92)">1.3.8.8</text></g><g id="Rec-64" data-name="Rec"><rect class="cls-15" x="739.79" y="357.35" width="52.02" height="16.49"/><text class="cls-10" transform="translate(747.69 368.92)">1.3.8.7</text></g><g id="Rec-65" data-name="Rec"><rect class="cls-15" x="739.79" y="339.52" width="52.02" height="16.49"/><text class="cls-10" transform="translate(747.69 351.09)">1.3.8.1</text></g><polygon class="cls-22" points="795.48 419.65 799.66 429.29 791.28 429.27 795.48 419.65"/><line class="cls-21" x1="795.47" y1="424.47" x2="795.47" y2="484.7"/><polygon class="cls-22" points="795.71 492.74 791.53 484.7 799.91 484.71 795.71 492.74"/><polygon class="cls-22" points="795.48 505.82 799.66 515.45 791.28 515.44 795.48 505.82"/><line class="cls-21" x1="795.47" y1="510.64" x2="795.47" y2="570.86"/><polygon class="cls-22" points="795.71 578.91 791.53 570.86 799.91 570.88 795.71 578.91"/><line class="cls-21" x1="795.62" y1="396.37" x2="795.62" y2="404.87"/><line class="cls-21" x1="795.27" y1="331.88" x2="795.27" y2="378.88"/><polygon class="cls-22" points="795.46 408.96 791.69 401.05 799.25 401.07 795.46 408.96"/><path class="cls-15" d="M853.82,651.9c0.89-5.57-6.68-16.48,7.29-18.56-0.66,0-1.31-.05-2-0.07,0.68,0,1.3,0,2,.07" transform="translate(-58 -10.4)"/><path class="cls-15" d="M852.38,609.94C853,617,848,631,857.57,633.55c-0.46,0-.9.08-1.35,0.11a7.74,7.74,0,0,0,1.35-.11" transform="translate(-58 -10.4)"/><path class="cls-15" d="M922.42,684.66c-0.94-15.74,7-46.67-7.66-52.35,0.69,0,1.37-.17,2.06-0.22a8.2,8.2,0,0,0-2.06.22" transform="translate(-58 -10.4)"/><path class="cls-15" d="M923.93,609.93c-1.15,6.8,8.16,20.19-9.19,22.62,0.82,0,1.63.08,2.45,0.1-0.85,0-1.61,0-2.45-.1" transform="translate(-58 -10.4)"/><polygon class="cls-22" points="794.55 591.51 798.74 599.55 790.37 599.55 794.55 591.51"/><polygon class="cls-22" points="795.83 646.66 791.65 638.62 800.03 638.63 795.83 646.66"/><text class="cls-10" transform="translate(761.79 662.06) scale(0.97 1)">Co<tspan x="15.34" y="0">A</tspan></text><line class="cls-21" x1="865.87" y1="306.81" x2="866" y2="601.61"/><path class="cls-15" d="M950.78,310c9.41,1.19,27.9-8.56,31.29,9.56,0-.86.1-1.7,0.13-2.55a20.69,20.69,0,0,1-.13,2.55" transform="translate(-58 -10.4)"/><path class="cls-15" d="M952.43,310c-8.53,1.19-25.3-8.55-28.37,9.57,0-.86-0.09-1.7-0.12-2.55a22.8,22.8,0,0,0,.12,2.55" transform="translate(-58 -10.4)"/><polygon class="cls-22" points="923.89 318.67 920.12 310.76 927.67 310.78 923.89 318.67"/><path class="cls-15" d="M940.52,691.85c-5.55-1-16.63,6.31-18.39-7.7,0,0.66-.08,1.31-0.11,2,0-.68.05-1.3,0.11-2" transform="translate(-58 -10.4)"/><g id="Rec-66" data-name="Rec"><rect class="cls-15" x="927.02" y="337.34" width="52.02" height="16.49"/><text class="cls-10" transform="translate(932.92 348.91)">1.3.99.-</text></g><g id="Rec-67" data-name="Rec"><rect class="cls-15" x="927.27" y="355.18" width="52.02" height="16.49"/><text class="cls-10" transform="translate(935.17 366.75)">1.3.8.7</text></g><g id="Rec-68" data-name="Rec"><rect class="cls-15" x="867.98" y="355.18" width="52.02" height="16.49"/><text class="cls-10" transform="translate(875.88 366.75)">1.3.8.1</text></g><g id="Rec-69" data-name="Rec"><rect class="cls-15" x="867.98" y="337.34" width="52.02" height="16.49"/><text class="cls-10" transform="translate(875.88 348.91)">1.3.3.6</text></g><line class="cls-21" x1="923.81" y1="394.2" x2="923.81" y2="402.7"/><line class="cls-21" x1="923.46" y1="329.71" x2="923.81" y2="394.2"/><polygon class="cls-22" points="923.65 406.79 919.88 398.88 927.44 398.9 923.65 406.79"/><g id="Rec-70" data-name="Rec"><rect class="cls-15" x="993.87" y="373.96" width="52.02" height="16.49"/><text class="cls-10" transform="translate(1001.77 385.53)">1.3.8.6</text></g><g id="Rec-71" data-name="Rec"><rect class="cls-15" x="898.02" y="448.62" width="52.02" height="16.49"/><text class="cls-10" transform="translate(902.58 460.19)">4.2.1.17</text></g><g id="Rec-72" data-name="Rec"><rect class="cls-15" x="898.34" y="532.24" width="52.02" height="16.49"/><text class="cls-10" transform="translate(902.9 543.81)">1.1.1.35</text></g><g id="Rec-73" data-name="Rec"><rect class="cls-15" x="803.46" y="605.87" width="52.02" height="16.49"/><text class="cls-10" transform="translate(811.36 617.44)">2.3.1.9</text></g><g id="Rec-74" data-name="Rec"><rect class="cls-15" x="899.45" y="615.02" width="52.02" height="16.49"/><text class="cls-10" transform="translate(907.35 626.59)">2.3.1.9</text></g><g id="Rec-75" data-name="Rec"><rect class="cls-15" x="452.31" y="728.17" width="52.02" height="16.49"/><text class="cls-10" transform="translate(456.87 739.74)">6.2.1.20</text></g><g id="Rec-76" data-name="Rec"><rect class="cls-15" x="452.22" y="777.06" width="52.02" height="16.49"/><text class="cls-10" transform="translate(460.12 788.62)">5.3.3.8</text></g><g id="Rec-77" data-name="Rec"><rect class="cls-15" x="452.01" y="803.35" width="52.02" height="16.49"/><text class="cls-10" transform="translate(459.91 814.92)">5.1.2.3</text></g><g id="Rec-78" data-name="Rec"><rect class="cls-15" x="439.14" y="858.78" width="52.02" height="16.49"/><text class="cls-10" transform="translate(447.04 870.35)">1.1.1.1</text></g><g id="Rec-79" data-name="Rec"><rect class="cls-15" x="439.39" y="877.53" width="52.02" height="16.49"/><text class="cls-10" transform="translate(440.61 889.1)">1.1.99.20</text></g><g id="Rec-80" data-name="Rec"><rect class="cls-15" x="540.88" y="876.27" width="52.02" height="16.49"/><text class="cls-10" transform="translate(548.78 887.84)">1.2.5.2</text></g><g id="Rec-81" data-name="Rec"><rect class="cls-15" x="638.14" y="879.23" width="58.98" height="16.49"/><text class="cls-10" transform="translate(640.13 890.8)">1.14.14.80</text></g><g id="Rec-82" data-name="Rec"><rect class="cls-15" x="642" y="855.58" width="52.02" height="16.49"/><text class="cls-10" transform="translate(643.22 867.15)">1.14.15.3</text></g><g id="Rec-83" data-name="Rec"><rect class="cls-15" x="638.14" y="902.69" width="52.02" height="16.49"/><text class="cls-10" transform="translate(639.37 914.25)">1.14.14.1</text></g><g id="Rec-84" data-name="Rec"><rect class="cls-15" x="540.88" y="858.78" width="52.02" height="16.49"/><text class="cls-10" transform="translate(548.78 870.35)">1.2.1.3</text></g><g id="Rec-85" data-name="Rec"><rect class="cls-15" x="318.91" y="868.03" width="52.02" height="16.49"/><text class="cls-10" transform="translate(320.14 879.6)">1.14.15.3</text></g><g id="Rec-86" data-name="Rec"><rect class="cls-15" x="318.91" y="910.93" width="52.02" height="16.49"/><text class="cls-10" transform="translate(323.47 922.5)">1.18.1.4</text></g><g id="Rec-87" data-name="Rec"><rect class="cls-15" x="318.43" y="932.38" width="52.02" height="16.49"/><text class="cls-10" transform="translate(322.99 943.95)">1.18.1.1</text></g><g id="Rec-88" data-name="Rec"><rect class="cls-15" x="318.43" y="889.48" width="52.02" height="16.49"/><text class="cls-10" transform="translate(322.99 901.05)">1.18.1.3</text></g><g id="Rec-89" data-name="Rec"><rect class="cls-15" x="993.87" y="304.22" width="52.02" height="16.49"/><text class="cls-10" transform="translate(1001.77 315.79)">6.2.1.6</text></g><line class="cls-21" x1="1020.03" y1="321.1" x2="1020.03" y2="339.02"/><line class="cls-21" x1="1019.81" y1="289.74" x2="1019.89" y2="304.56"/><polygon class="cls-22" points="1019.87 343.1 1016.1 335.19 1023.66 335.21 1019.87 343.1"/><line class="cls-21" x1="923.81" y1="466.04" x2="923.81" y2="490.64"/><line class="cls-21" x1="923.42" y1="420.97" x2="923.57" y2="448.44"/><polygon class="cls-22" points="923.65 494.72 919.88 486.82 927.44 486.83 923.65 494.72"/><polygon class="cls-22" points="923.68 421.14 919.88 429.68 927.44 429.69 923.68 421.14"/><line class="cls-21" x1="923.81" y1="549.6" x2="923.81" y2="574.2"/><line class="cls-21" x1="923.42" y1="504.53" x2="923.57" y2="532"/><polygon class="cls-22" points="923.65 578.28 919.88 570.38 927.44 570.39 923.65 578.28"/><polygon class="cls-22" points="923.68 504.7 919.88 513.24 927.44 513.25 923.68 504.7"/><line class="cls-21" x1="505.09" y1="736.26" x2="534.81" y2="736.26"/><line class="cls-21" x1="418.55" y1="735.84" x2="452.01" y2="735.66"/><polygon class="cls-22" points="538.9 736.43 530.99 740.2 531.01 732.64 538.9 736.43"/><polygon class="cls-22" points="414.94 736.25 423.48 740.04 423.49 732.49 414.94 736.25"/><line class="cls-21" x1="505.09" y1="785.27" x2="534.81" y2="785.27"/><line class="cls-21" x1="418.55" y1="784.84" x2="452.01" y2="784.66"/><polygon class="cls-22" points="538.9 785.43 530.99 789.2 531.01 781.64 538.9 785.43"/><polygon class="cls-22" points="414.94 785.25 423.48 789.05 423.49 781.49 414.94 785.25"/><line class="cls-21" x1="505.09" y1="810.09" x2="534.81" y2="810.09"/><line class="cls-21" x1="418.55" y1="809.67" x2="452.01" y2="809.49"/><polygon class="cls-22" points="538.9 810.25 530.99 814.02 531.01 806.47 538.9 810.25"/><polygon class="cls-22" points="414.94 810.07 423.48 813.87 423.49 806.31 414.94 810.07"/><line class="cls-21" x1="491.16" y1="871.26" x2="503.56" y2="871.11"/><line class="cls-21" x1="421.02" y1="870.84" x2="439.05" y2="870.66"/><polygon class="cls-22" points="507.64 871.27 499.73 875.04 499.75 867.48 507.64 871.27"/><polygon class="cls-22" points="419.03 871.24 426.93 875.05 426.92 867.49 419.03 871.24"/><line class="cls-21" x1="923.81" y1="630.45" x2="923.49" y2="728.25"/><line class="cls-21" x1="923.42" y1="589.4" x2="923.55" y2="613.95"/><polygon class="cls-22" points="923.48 736.16 919.71 728.25 927.27 728.27 923.48 736.16"/><polygon class="cls-22" points="923.68 589.57 919.88 598.11 927.44 598.12 923.68 589.57"/><line class="cls-21" x1="921.24" y1="806.31" x2="922.1" y2="745.01"/><polygon class="cls-22" points="920.93 809.55 924.73 801.01 917.17 801 920.93 809.55"/><circle class="cls-15" cx="923.64" cy="324.23" r="4.09"/><circle class="cls-15" cx="1020.13" cy="284.69" r="4.09"/><circle class="cls-15" cx="1019.88" cy="348.91" r="4.09"/><circle class="cls-15" cx="923.66" cy="415.06" r="4.09"/><circle class="cls-15" cx="923.66" cy="499.63" r="4.09"/><circle class="cls-15" cx="923.66" cy="583.19" r="4.09"/><circle class="cls-15" cx="923.66" cy="740.82" r="4.09"/><circle class="cls-15" cx="301.84" cy="907.93" r="4.09"/><circle class="cls-15" cx="387.77" cy="908.85" r="4.09"/><circle class="cls-15" cx="280.24" cy="875.27" r="4.09"/><circle class="cls-15" cx="410.89" cy="875.27" r="4.09"/><circle class="cls-15" cx="516.02" cy="875.27" r="4.09"/><circle class="cls-15" cx="716.21" cy="908.93" r="4.09"/><circle class="cls-15" cx="619.74" cy="876.27" r="4.09"/><circle class="cls-15" cx="717.3" cy="876.27" r="4.09"/><circle class="cls-15" cx="407.92" cy="810.17" r="4.09"/><circle class="cls-15" cx="546.45" cy="811.6" r="4.09"/><circle class="cls-15" cx="407.92" cy="785.3" r="4.09"/><circle class="cls-15" cx="546.45" cy="785.3" r="4.09"/><circle class="cls-15" cx="408.85" cy="736.42" r="4.09"/><circle class="cls-15" cx="439.64" cy="762.25" r="4.09"/><circle class="cls-15" cx="544.98" cy="736.42" r="4.09"/><line class="cls-21" x1="1019.88" y1="353" x2="1019.89" y2="373.17"/><path class="cls-15" d="M1078.09,400.17c-1.19,7.74,8.56,22.93-9.56,25.72,0.86,0,1.7.08,2.55,0.11a25.13,25.13,0,0,1-2.55-.11" transform="translate(-58 -10.4)"/><line class="cls-21" x1="1010.55" y1="415.37" x2="931.82" y2="415.65"/><polygon class="cls-22" points="929.72 415.5 937.62 411.71 937.62 419.27 929.72 415.5"/><line class="cls-21" x1="222.79" y1="681.67" x2="923.84" y2="681.88"/><line class="cls-21" x1="1059.6" y1="606.33" x2="1059.83" y2="583.27"/><line class="cls-21" x1="924.6" y1="784.25" x2="924.46" y2="744.91"/><line class="cls-21" x1="339.06" y1="140.27" x2="360.05" y2="140.34"/><line class="cls-21" x1="267.22" y1="140.57" x2="286.82" y2="140.47"/><polygon class="cls-22" points="364.12 140.09 355.98 143.86 356 136.31 364.12 140.09"/><polygon class="cls-22" points="267.39 140.32 275.93 144.11 275.94 136.56 267.39 140.32"/><line class="cls-21" x1="237.67" y1="140.29" x2="251.67" y2="140.34"/><line class="cls-21" x1="158.84" y1="140.57" x2="185.65" y2="140.43"/><polygon class="cls-22" points="255.74 140.09 247.6 143.86 247.62 136.31 255.74 140.09"/><polygon class="cls-22" points="159.01 140.32 167.55 144.11 167.56 136.56 159.01 140.32"/><circle class="cls-15" cx="369.95" cy="140.42" r="4.09"/><circle class="cls-15" cx="262.25" cy="140.42" r="4.09"/><circle class="cls-15" cx="152.34" cy="140.42" r="4.09"/><circle class="cls-15" cx="152.34" cy="201.94" r="4.09"/><circle class="cls-15" cx="152.34" cy="263.7" r="4.09"/><line class="cls-21" x1="152.42" y1="164.1" x2="152.46" y2="150.1"/><line class="cls-21" x1="152.7" y1="196.93" x2="152.62" y2="181.69"/><polygon class="cls-22" points="152.22 146.03 155.99 154.17 148.43 154.15 152.22 146.03"/><polygon class="cls-22" points="152.44 196.76 156.24 188.22 148.68 188.22 152.44 196.76"/><line class="cls-21" x1="152.31" y1="224.21" x2="152.37" y2="207.91"/><line class="cls-21" x1="152.82" y1="258.27" x2="152.73" y2="240.7"/><polygon class="cls-22" points="152.57 258.11 156.37 249.57 148.81 249.56 152.57 258.11"/><line class="cls-21" x1="151.82" y1="284.3" x2="151.87" y2="267.99"/><line class="cls-21" x1="152.33" y1="318.36" x2="152.23" y2="300.79"/><polygon class="cls-22" points="152.07 318.19 155.87 309.65 148.31 309.64 152.07 318.19"/><line class="cls-21" x1="152.28" y1="125.92" x2="152.12" y2="95.68"/><polygon class="cls-22" points="152.19 135.15 155.99 126.61 148.43 126.6 152.19 135.15"/><line class="cls-21" x1="208.79" y1="102.4" x2="208.65" y2="76.09"/><line class="cls-21" x1="250.67" y1="76.01" x2="208.65" y2="76.09"/><line class="cls-21" x1="247.47" y1="102.62" x2="208.7" y2="102.69"/><path class="cls-15" d="M266.72,113.08c-16.93,1.16-50.19-8.29-56.27,9.3,0-.83-0.18-1.65-0.24-2.48a11,11,0,0,0,.24,2.48" transform="translate(-58 -10.4)"/><text x="-58" y="-10.4"/><line class="cls-21" x1="491.98" y1="881.69" x2="504.38" y2="881.54"/><line class="cls-21" x1="419.03" y1="881.3" x2="439.14" y2="881.1"/><polygon class="cls-22" points="508.46 881.7 500.56 885.47 500.57 877.91 508.46 881.7"/><line class="cls-21" x1="314.72" y1="908.93" x2="374.94" y2="908.85"/><line class="cls-21" x1="284.61" y1="876.31" x2="318.43" y2="876.27"/><line class="cls-21" x1="370.93" y1="876.4" x2="396.75" y2="876.14"/><polygon class="cls-22" points="400.7 876.28 392.79 880.05 392.81 872.49 400.7 876.28"/><line class="cls-21" x1="592.9" y1="871.28" x2="606.7" y2="871.11"/><line class="cls-21" x1="524.16" y1="870.84" x2="540.88" y2="870.67"/><polygon class="cls-22" points="610.78 871.27 602.88 875.04 602.89 867.48 610.78 871.27"/><polygon class="cls-22" points="522.17 871.24 526.87 875.04 526.87 867.48 522.17 871.24"/><line class="cls-21" x1="689.36" y1="876.34" x2="706.93" y2="876.12"/><line class="cls-21" x1="624.39" y1="875.85" x2="707.06" y2="876.27"/><polygon class="cls-22" points="711.01 876.28 703.11 880.05 703.12 872.49 711.01 876.28"/><line class="cls-21" x1="691.16" y1="908.67" x2="706.93" y2="908.47"/><line class="cls-21" x1="619.74" y1="908.65" x2="636.46" y2="908.49"/><polygon class="cls-22" points="711.01 908.63 703.11 912.4 703.12 904.85 711.01 908.63"/><line class="cls-21" x1="592.9" y1="881.3" x2="607.52" y2="881.11"/><polygon class="cls-22" points="611.6 880.7 603.7 884.47 603.71 876.91 611.6 880.7"/><line class="cls-21" x1="521.32" y1="881.33" x2="540.71" y2="881.09"/><line class="cls-21" x1="619.74" y1="908.65" x2="619.74" y2="880.36"/><polygon class="cls-22" points="306.82 908.82 314.72 912.62 314.71 905.07 306.82 908.82"/><polygon class="cls-22" points="381.26 908.87 373.36 905.07 373.36 912.62 381.26 908.87"/><polygon class="cls-22" points="301.87 915.23 298.06 923.12 305.62 923.12 301.87 915.23"/><path class="cls-15" d="M444.65,923.32c-2.13,9,13.72,26.93-16.38,29.66,1.42,0,2.82.15,4.23,0.2-1.46,0-2.79-.1-4.23-0.2" transform="translate(-58 -10.4)"/><path class="cls-15" d="M444.65,914.8c-2.12-8.45,13.75-25.41-16.35-27.94,1.42,0,2.82-.14,4.23-0.19-1.46,0-2.79.1-4.23,0.19" transform="translate(-58 -10.4)"/><path class="cls-15" d="M376,949.82c-4.89-2.05-14.12,15.62-16.43-16.92,0,1.54,0,3.06,0,4.59,0-1.59,0-3,0-4.59" transform="translate(-58 -10.4)"/><path class="cls-15" d="M509.37,749.54c-3.56,2.48-10.57-15.83-11.85,19,0-1.65,0-3.26-.05-4.9,0,1.69,0,3.23.05,4.9" transform="translate(-58 -10.4)"/><path class="cls-15" d="M376.43,891.49c-4.92,2.78-14.09-20.84-16.6,22.76,0-2.07,0-4.09,0-6.15-0.05,2.13,0,4,0,6.15" transform="translate(-58 -10.4)"/></svg>